<svg version="1.1" viewBox="0.0 0.0 615.0 446.0" fill="none" stroke="none" stroke-linecap="square" stroke-miterlimit="10" width="615" height="446" xmlns:xlink="http://www.w3.org/1999/xlink" xmlns="http://www.w3.org/2000/svg"><path fill="#ffffff" d="M0 0L615.0 0L615.0 446.0L0 446.0L0 0Z" fill-rule="nonzero"/><path fill="#fbbc04" d="M225.20665 80.92355C250.69458 67.936806 278.89423 61.166668 307.5 61.166668L307.5 242.43333Z" fill-rule="nonzero"/><path fill="#ea4335" d="M279.14365 421.4683C201.581 409.1836 140.74974 348.35233 128.46503 270.78967C116.18031 193.22704 155.23637 116.57519 225.20665 80.92355L307.5 242.43333Z" fill-rule="nonzero"/><path fill="#4285f4" d="M307.5 61.166668C375.66333 61.166668 438.06427 99.40603 469.0098 160.13998C499.9553 220.87395 494.2132 293.83392 454.14783 348.97922C414.08243 404.12448 346.46777 432.1314 279.14365 421.4683L307.5 242.43333Z" fill-rule="nonzero"/><path fill="#000000" d="M399.51242 251.79764Q398.7468 251.51639 398.3718 251.00076Q398.01242 250.48514 398.01242 249.75076Q398.01242 248.65701 398.79367 247.92264Q399.59055 247.17264 400.88742 247.17264Q402.19992 247.17264 402.9968 247.93826Q403.8093 248.70389 403.8093 249.79764Q403.8093 250.48514 403.4343 251.00076Q403.07492 251.51639 402.32492 251.79764Q403.2468 252.09451 403.73117 252.76639Q404.21555 253.43826 404.21555 254.37576Q404.21555 255.65701 403.3093 256.532Q402.40305 257.407 400.91867 257.407Q399.4343 257.407 398.51242 256.532Q397.60617 255.64139 397.60617 254.32889Q397.60617 253.36014 398.10617 252.70389Q398.60617 252.03201 399.51242 251.79764ZM399.27805 249.71951Q399.27805 250.42264 399.73117 250.87576Q400.1843 251.32889 400.91867 251.32889Q401.63742 251.32889 402.09055 250.89139Q402.54367 250.43826 402.54367 249.78201Q402.54367 249.11014 402.07492 248.65701Q401.60617 248.18826 400.90305 248.18826Q400.19992 248.18826 399.73117 248.64139Q399.27805 249.07889 399.27805 249.71951ZM398.8718 254.34451Q398.8718 254.87576 399.1218 255.37576Q399.3718 255.86014 399.85617 256.12576Q400.35617 256.3914 400.9343 256.3914Q401.8093 256.3914 402.3718 255.82889Q402.94992 255.26639 402.94992 254.39139Q402.94992 253.50076 402.35617 252.92264Q401.77805 252.32889 400.88742 252.32889Q400.01242 252.32889 399.4343 252.90701Q398.8718 253.48514 398.8718 254.34451ZM409.57492 257.23514L409.57492 254.82889L405.21555 254.82889L405.21555 253.70389L409.79367 247.21951L410.79367 247.21951L410.79367 253.70389L412.15305 253.70389L412.15305 254.82889L410.79367 254.82889L410.79367 257.23514L409.57492 257.23514ZM409.57492 253.70389L409.57492 249.18826L406.4343 253.70389L409.57492 253.70389ZM420.32492 260.18826Q419.29367 258.8914 418.59055 257.17264Q417.88742 255.45389 417.88742 253.61014Q417.88742 251.98514 418.41867 250.48514Q419.02805 248.75076 420.32492 247.04764L421.19992 247.04764Q420.3718 248.46951 420.10617 249.07889Q419.6843 250.01639 419.44992 251.04764Q419.15305 252.31326 419.15305 253.61014Q419.15305 256.907 421.19992 260.18826L420.32492 260.18826ZM422.6218 254.61014L423.91867 254.50076Q424.0593 255.43826 424.57492 255.92264Q425.10617 256.3914 425.84055 256.3914Q426.73117 256.3914 427.34055 255.71951Q427.96555 255.04764 427.96555 253.95389Q427.96555 252.89139 427.3718 252.28201Q426.77805 251.67264 425.82492 251.67264Q425.23117 251.67264 424.7468 251.95389Q424.27805 252.21951 423.9968 252.64139L422.84055 252.50076L423.8093 247.34451L428.79367 247.34451L428.79367 248.53201L424.79367 248.53201L424.26242 251.21951Q425.16867 250.59451 426.15305 250.59451Q427.46555 250.59451 428.35617 251.50076Q429.26242 252.40701 429.26242 253.84451Q429.26242 255.20389 428.48117 256.18826Q427.51242 257.407 425.84055 257.407Q424.48117 257.407 423.60617 256.6414Q422.7468 255.87576 422.6218 254.61014ZM437.09055 256.04764L437.09055 257.23514L430.46555 257.23514Q430.44992 256.79764 430.60617 256.37576Q430.8718 255.70389 431.41867 255.04764Q431.98117 254.39139 433.02805 253.53201Q434.66867 252.18826 435.23117 251.40701Q435.8093 250.62576 435.8093 249.92264Q435.8093 249.18826 435.27805 248.68826Q434.76242 248.18826 433.9343 248.18826Q433.04367 248.18826 432.4968 248.71951Q431.96555 249.25076 431.96555 250.20389L430.69992 250.06326Q430.82492 248.65701 431.66867 247.92264Q432.52805 247.17264 433.94992 247.17264Q435.40305 247.17264 436.23117 247.96951Q437.07492 248.76639 437.07492 249.95389Q437.07492 250.56326 436.82492 251.14139Q436.59055 251.71951 436.01242 252.36014Q435.44992 253.00076 434.1218 254.12576Q433.01242 255.04764 432.69992 255.39139Q432.38742 255.71951 432.1843 256.04764L437.09055 256.04764ZM439.3093 257.23514L439.3093 255.82889L440.71555 255.82889L440.71555 257.23514L439.3093 257.23514ZM442.6218 254.61014L443.91867 254.50076Q444.0593 255.43826 444.57492 255.92264Q445.10617 256.3914 445.84055 256.3914Q446.73117 256.3914 447.34055 255.71951Q447.96555 255.04764 447.96555 253.95389Q447.96555 252.89139 447.3718 252.28201Q446.77805 251.67264 445.82492 251.67264Q445.23117 251.67264 444.7468 251.95389Q444.27805 252.21951 443.9968 252.64139L442.84055 252.50076L443.8093 247.34451L448.79367 247.34451L448.79367 248.53201L444.79367 248.53201L444.26242 251.21951Q445.16867 250.59451 446.15305 250.59451Q447.46555 250.59451 448.35617 251.50076Q449.26242 252.40701 449.26242 253.84451Q449.26242 255.20389 448.48117 256.18826Q447.51242 257.407 445.84055 257.407Q444.48117 257.407 443.60617 256.6414Q442.7468 255.87576 442.6218 254.61014ZM450.85617 249.62576Q450.85617 248.54764 451.38742 247.79764Q451.9343 247.04764 452.96555 247.04764Q453.90305 247.04764 454.51242 247.71951Q455.13742 248.39139 455.13742 249.68826Q455.13742 250.96951 454.51242 251.65701Q453.88742 252.34451 452.98117 252.34451Q452.07492 252.34451 451.46555 251.67264Q450.85617 250.98514 450.85617 249.62576ZM452.9968 247.89139Q452.54367 247.89139 452.23117 248.29764Q451.9343 248.68826 451.9343 249.73514Q451.9343 250.70389 452.23117 251.09451Q452.54367 251.48514 452.9968 251.48514Q453.46555 251.48514 453.76242 251.09451Q454.07492 250.70389 454.07492 249.64139Q454.07492 248.67264 453.76242 248.28201Q453.44992 247.89139 452.9968 247.89139ZM452.9968 257.61014L458.48117 247.04764L459.48117 247.04764L454.02805 257.61014L452.9968 257.61014ZM457.34055 254.87576Q457.34055 253.79764 457.8718 253.06326Q458.41867 252.31326 459.44992 252.31326Q460.38742 252.31326 461.01242 252.98514Q461.63742 253.65701 461.63742 254.95389Q461.63742 256.23514 461.01242 256.92264Q460.38742 257.61014 459.44992 257.61014Q458.54367 257.61014 457.9343 256.93826Q457.34055 256.25076 457.34055 254.87576ZM459.48117 253.15701Q459.01242 253.15701 458.71555 253.56326Q458.41867 253.95389 458.41867 255.00076Q458.41867 255.96951 458.71555 256.36014Q459.02805 256.75076 459.48117 256.75076Q459.94992 256.75076 460.2468 256.36014Q460.5593 255.96951 460.5593 254.90701Q460.5593 253.93826 460.2468 253.54764Q459.94992 253.15701 459.48117 253.15701ZM463.77805 260.18826L462.88742 260.18826Q464.9343 256.907 464.9343 253.61014Q464.9343 252.32889 464.63742 251.06326Q464.40305 250.03201 463.9968 249.09451Q463.73117 248.48514 462.88742 247.04764L463.77805 247.04764Q465.0593 248.75076 465.66867 250.48514Q466.19992 251.98514 466.19992 253.61014Q466.19992 255.45389 465.48117 257.17264Q464.77805 258.8914 463.77805 260.18826Z" fill-rule="nonzero"/><path fill="#000000" d="M157.13287 259.24692L155.91412 259.34067Q155.74225 258.6063 155.44537 258.27817Q154.94537 257.76254 154.211 257.76254Q153.61725 257.76254 153.17975 258.09067Q152.60162 258.51254 152.25787 259.32504Q151.92975 260.13754 151.91412 261.63754Q152.35162 260.96567 152.99225 260.63754Q153.6485 260.30942 154.35162 260.30942Q155.586 260.30942 156.44537 261.21567Q157.30475 262.12192 157.30475 263.55942Q157.30475 264.49692 156.8985 265.30942Q156.49225 266.12192 155.7735 266.55942Q155.07037 266.9813 154.16412 266.9813Q152.63287 266.9813 151.66412 265.8563Q150.69537 264.71567 150.69537 262.12192Q150.69537 259.21567 151.75787 257.88754Q152.69537 256.74692 154.28912 256.74692Q155.47662 256.74692 156.22662 257.4188Q156.97662 258.07504 157.13287 259.24692ZM152.10162 263.55942Q152.10162 264.20004 152.36725 264.77817Q152.6485 265.3563 153.13287 265.6688Q153.61725 265.96567 154.1485 265.96567Q154.92975 265.96567 155.49225 265.34067Q156.05475 264.71567 156.05475 263.63754Q156.05475 262.59067 155.49225 261.99692Q154.94537 261.38754 154.10162 261.38754Q153.2735 261.38754 152.67975 261.99692Q152.10162 262.59067 152.10162 263.55942ZM162.69537 266.80942L162.69537 264.40317L158.336 264.40317L158.336 263.27817L162.91412 256.7938L163.91412 256.7938L163.91412 263.27817L165.2735 263.27817L165.2735 264.40317L163.91412 264.40317L163.91412 266.80942L162.69537 266.80942ZM162.69537 263.27817L162.69537 258.76254L159.55475 263.27817L162.69537 263.27817ZM173.44537 269.76254Q172.41412 268.46567 171.711 266.74692Q171.00787 265.02817 171.00787 263.18442Q171.00787 261.55942 171.53912 260.05942Q172.1485 258.32504 173.44537 256.62192L174.32037 256.62192Q173.49225 258.0438 173.22662 258.65317Q172.80475 259.59067 172.57037 260.62192Q172.2735 261.88754 172.2735 263.18442Q172.2735 266.4813 174.32037 269.76254L173.44537 269.76254ZM179.69537 266.80942L179.69537 264.40317L175.336 264.40317L175.336 263.27817L179.91412 256.7938L180.91412 256.7938L180.91412 263.27817L182.2735 263.27817L182.2735 264.40317L180.91412 264.40317L180.91412 266.80942L179.69537 266.80942ZM179.69537 263.27817L179.69537 258.76254L176.55475 263.27817L179.69537 263.27817ZM183.74225 261.87192Q183.74225 260.09067 184.10162 259.01254Q184.47662 257.9188 185.19537 257.34067Q185.91412 256.74692 187.00787 256.74692Q187.82037 256.74692 188.42975 257.07504Q189.03912 257.40317 189.42975 258.01254Q189.836 258.62192 190.05475 259.49692Q190.2735 260.37192 190.2735 261.87192Q190.2735 263.63754 189.91412 264.71567Q189.55475 265.7938 188.836 266.38754Q188.11725 266.9813 187.00787 266.9813Q185.57037 266.9813 184.74225 265.93442Q183.74225 264.68442 183.74225 261.87192ZM185.00787 261.87192Q185.00787 264.34067 185.586 265.15317Q186.16412 265.96567 187.00787 265.96567Q187.86725 265.96567 188.44537 265.15317Q189.0235 264.32504 189.0235 261.87192Q189.0235 259.38754 188.44537 258.57504Q187.86725 257.76254 186.99225 257.76254Q186.1485 257.76254 185.6485 258.4813Q185.00787 259.40317 185.00787 261.87192ZM192.42975 266.80942L192.42975 265.40317L193.836 265.40317L193.836 266.80942L192.42975 266.80942ZM195.74225 261.87192Q195.74225 260.09067 196.10162 259.01254Q196.47662 257.9188 197.19537 257.34067Q197.91412 256.74692 199.00787 256.74692Q199.82037 256.74692 200.42975 257.07504Q201.03912 257.40317 201.42975 258.01254Q201.836 258.62192 202.05475 259.49692Q202.2735 260.37192 202.2735 261.87192Q202.2735 263.63754 201.91412 264.71567Q201.55475 265.7938 200.836 266.38754Q200.11725 266.9813 199.00787 266.9813Q197.57037 266.9813 196.74225 265.93442Q195.74225 264.68442 195.74225 261.87192ZM197.00787 261.87192Q197.00787 264.34067 197.586 265.15317Q198.16412 265.96567 199.00787 265.96567Q199.86725 265.96567 200.44537 265.15317Q201.0235 264.32504 201.0235 261.87192Q201.0235 259.38754 200.44537 258.57504Q199.86725 257.76254 198.99225 257.76254Q198.1485 257.76254 197.6485 258.4813Q197.00787 259.40317 197.00787 261.87192ZM203.97662 259.20004Q203.97662 258.12192 204.50787 257.37192Q205.05475 256.62192 206.086 256.62192Q207.0235 256.62192 207.63287 257.2938Q208.25787 257.96567 208.25787 259.26254Q208.25787 260.5438 207.63287 261.2313Q207.00787 261.9188 206.10162 261.9188Q205.19537 261.9188 204.586 261.24692Q203.97662 260.55942 203.97662 259.20004ZM206.11725 257.46567Q205.66412 257.46567 205.35162 257.87192Q205.05475 258.26254 205.05475 259.30942Q205.05475 260.27817 205.35162 260.6688Q205.66412 261.05942 206.11725 261.05942Q206.586 261.05942 206.88287 260.6688Q207.19537 260.27817 207.19537 259.21567Q207.19537 258.24692 206.88287 257.8563Q206.57037 257.46567 206.11725 257.46567ZM206.11725 267.18442L211.60162 256.62192L212.60162 256.62192L207.1485 267.18442L206.11725 267.18442ZM210.461 264.45004Q210.461 263.37192 210.99225 262.63754Q211.53912 261.88754 212.57037 261.88754Q213.50787 261.88754 214.13287 262.55942Q214.75787 263.2313 214.75787 264.52817Q214.75787 265.80942 214.13287 266.49692Q213.50787 267.18442 212.57037 267.18442Q211.66412 267.18442 211.05475 266.51254Q210.461 265.82504 210.461 264.45004ZM212.60162 262.7313Q212.13287 262.7313 211.836 263.13754Q211.53912 263.52817 211.53912 264.57504Q211.53912 265.5438 211.836 265.93442Q212.1485 266.32504 212.60162 266.32504Q213.07037 266.32504 213.36725 265.93442Q213.67975 265.5438 213.67975 264.4813Q213.67975 263.51254 213.36725 263.12192Q213.07037 262.7313 212.60162 262.7313ZM216.8985 269.76254L216.00787 269.76254Q218.05475 266.4813 218.05475 263.18442Q218.05475 261.90317 217.75787 260.63754Q217.5235 259.6063 217.11725 258.6688Q216.85162 258.05942 216.00787 256.62192L216.8985 256.62192Q218.17975 258.32504 218.78912 260.05942Q219.32037 261.55942 219.32037 263.18442Q219.32037 265.02817 218.60162 266.74692Q217.8985 268.46567 216.8985 269.76254Z" fill-rule="nonzero"/><path fill="#000000" d="M249.14406 111.749954L247.90968 111.749954L247.90968 103.906204Q247.47218 104.32808 246.73781 104.76558Q246.01906 105.187454 245.45656 105.39058L245.45656 104.20308Q246.48781 103.718704 247.25343 103.031204Q248.03468 102.343704 248.34718 101.687454L249.14406 101.687454L249.14406 111.749954ZM258.97217 110.562454L258.97217 111.749954L252.34718 111.749954Q252.33156 111.312454 252.48781 110.89058Q252.75343 110.218704 253.30031 109.562454Q253.86281 108.906204 254.90968 108.04683Q256.5503 106.70308 257.1128 105.92183Q257.69092 105.14058 257.69092 104.437454Q257.69092 103.70308 257.15967 103.20308Q256.64404 102.70308 255.81593 102.70308Q254.92531 102.70308 254.37843 103.23433Q253.84718 103.76558 253.84718 104.718704L252.58156 104.57808Q252.70656 103.17183 253.55031 102.437454Q254.40968 101.687454 255.83156 101.687454Q257.28467 101.687454 258.1128 102.48433Q258.95654 103.281204 258.95654 104.468704Q258.95654 105.07808 258.70654 105.656204Q258.47217 106.23433 257.89404 106.874954Q257.33154 107.51558 256.00342 108.64058Q254.89406 109.562454 254.58156 109.906204Q254.26906 110.23433 254.06593 110.562454L258.97217 110.562454ZM267.20654 114.70308Q266.1753 113.406204 265.47217 111.687454Q264.76904 109.968704 264.76904 108.124954Q264.76904 106.499954 265.3003 104.999954Q265.90967 103.26558 267.20654 101.562454L268.08154 101.562454Q267.25342 102.98433 266.9878 103.593704Q266.56592 104.531204 266.33154 105.562454Q266.03467 106.82808 266.03467 108.124954Q266.03467 111.42183 268.08154 114.70308L267.20654 114.70308ZM269.58154 103.04683L269.58154 101.85933L276.08154 101.85933L276.08154 102.812454Q275.1128 103.82808 274.1753 105.51558Q273.2378 107.20308 272.72217 108.999954Q272.3628 110.249954 272.25342 111.749954L270.9878 111.749954Q271.00342 110.562454 271.44092 108.89058Q271.89404 107.218704 272.72217 105.67183Q273.56592 104.10933 274.50342 103.04683L269.58154 103.04683ZM278.19092 111.749954L278.19092 110.343704L279.59717 110.343704L279.59717 111.749954L278.19092 111.749954ZM281.50342 109.124954L282.8003 109.01558Q282.94092 109.95308 283.45654 110.437454Q283.9878 110.906204 284.72217 110.906204Q285.6128 110.906204 286.22217 110.23433Q286.84717 109.562454 286.84717 108.468704Q286.84717 107.406204 286.25342 106.79683Q285.65967 106.187454 284.70654 106.187454Q284.1128 106.187454 283.62842 106.468704Q283.15967 106.73433 282.87842 107.156204L281.72217 107.01558L282.69092 101.85933L287.6753 101.85933L287.6753 103.04683L283.6753 103.04683L283.14404 105.73433Q284.0503 105.10933 285.03467 105.10933Q286.34717 105.10933 287.2378 106.01558Q288.14404 106.92183 288.14404 108.35933Q288.14404 109.718704 287.3628 110.70308Q286.39404 111.92183 284.72217 111.92183Q283.3628 111.92183 282.4878 111.156204Q281.62842 110.39058 281.50342 109.124954ZM289.7378 104.14058Q289.7378 103.062454 290.26904 102.312454Q290.81592 101.562454 291.84717 101.562454Q292.78467 101.562454 293.39404 102.23433Q294.01904 102.906204 294.01904 104.20308Q294.01904 105.48433 293.39404 106.17183Q292.76904 106.85933 291.8628 106.85933Q290.95654 106.85933 290.34717 106.187454Q289.7378 105.499954 289.7378 104.14058ZM291.87842 102.406204Q291.4253 102.406204 291.1128 102.812454Q290.81592 103.20308 290.81592 104.249954Q290.81592 105.218704 291.1128 105.60933Q291.4253 105.999954 291.87842 105.999954Q292.34717 105.999954 292.64404 105.60933Q292.95654 105.218704 292.95654 104.156204Q292.95654 103.187454 292.64404 102.79683Q292.33154 102.406204 291.87842 102.406204ZM291.87842 112.124954L297.3628 101.562454L298.3628 101.562454L292.90967 112.124954L291.87842 112.124954ZM296.22217 109.39058Q296.22217 108.312454 296.75342 107.57808Q297.3003 106.82808 298.33154 106.82808Q299.26904 106.82808 299.89404 107.499954Q300.51904 108.17183 300.51904 109.468704Q300.51904 110.749954 299.89404 111.437454Q299.26904 112.124954 298.33154 112.124954Q297.4253 112.124954 296.81592 111.45308Q296.22217 110.76558 296.22217 109.39058ZM298.3628 107.67183Q297.89404 107.67183 297.59717 108.07808Q297.3003 108.468704 297.3003 109.51558Q297.3003 110.48433 297.59717 110.874954Q297.90967 111.26558 298.3628 111.26558Q298.83154 111.26558 299.12842 110.874954Q299.44092 110.48433 299.44092 109.42183Q299.44092 108.45308 299.12842 108.062454Q298.83154 107.67183 298.3628 107.67183ZM302.65967 114.70308L301.76904 114.70308Q303.81592 111.42183 303.81592 108.124954Q303.81592 106.843704 303.51904 105.57808Q303.28467 104.54683 302.87842 103.60933Q302.6128 102.999954 301.76904 101.562454L302.65967 101.562454Q303.94092 103.26558 304.5503 104.999954Q305.08154 106.499954 305.08154 108.124954Q305.08154 109.968704 304.3628 111.687454Q303.65967 113.406204 302.65967 114.70308Z" fill-rule="nonzero"/><path fill="#1a1a1a" d="M23.221874 72.166664L23.221874 63.572914L24.378124 63.572914L28.89375 70.322914L28.89375 63.572914L29.9875 63.572914L29.9875 72.166664L28.815624 72.166664L24.3 65.416664L24.3 72.166664L23.221874 72.166664ZM31.70625 69.05729Q31.70625 67.322914 32.659374 66.49479Q33.45625 65.80729 34.6125 65.80729Q35.89375 65.80729 36.70625 66.65104Q37.534374 67.479164 37.534374 68.96354Q37.534374 70.166664 37.175 70.854164Q36.815624 71.541664 36.1125 71.93229Q35.425 72.30729 34.6125 72.30729Q33.315624 72.30729 32.503124 71.479164Q31.70625 70.635414 31.70625 69.05729ZM32.784374 69.05729Q32.784374 70.24479 33.3 70.83854Q33.83125 71.43229 34.6125 71.43229Q35.409374 71.43229 35.925 70.83854Q36.440624 70.24479 36.440624 69.02604Q36.440624 67.86979 35.909374 67.27604Q35.39375 66.68229 34.6125 66.68229Q33.83125 66.68229 33.3 67.27604Q32.784374 67.854164 32.784374 69.05729Z" fill-rule="nonzero"/><path fill="#9e9e9e" d="M22.8625 81.697914L22.8625 80.68229L28.425 80.68229L28.425 81.510414Q27.6125 82.385414 26.8 83.83854Q26.003124 85.27604 25.565624 86.80729Q25.2375 87.885414 25.159374 89.166664L24.065624 89.166664Q24.08125 88.15104 24.45625 86.71354Q24.846874 85.27604 25.55 83.947914Q26.26875 82.61979 27.08125 81.697914L22.8625 81.697914ZM30.39375 89.166664L30.39375 87.96354L31.596874 87.96354L31.596874 89.166664L30.39375 89.166664ZM32.8 86.916664L33.909374 86.822914Q34.034374 87.635414 34.471874 88.041664Q34.925 88.447914 35.565624 88.447914Q36.315624 88.447914 36.846874 87.86979Q37.378124 87.291664 37.378124 86.354164Q37.378124 85.447914 36.8625 84.93229Q36.3625 84.40104 35.534374 84.40104Q35.034374 84.40104 34.6125 84.635414Q34.20625 84.86979 33.971874 85.229164L32.9875 85.104164L33.815624 80.697914L38.096874 80.697914L38.096874 81.697914L34.659374 81.697914L34.20625 84.010414Q34.971874 83.46354 35.815624 83.46354Q36.940624 83.46354 37.70625 84.24479Q38.4875 85.02604 38.4875 86.260414Q38.4875 87.416664 37.815624 88.27604Q36.9875 89.30729 35.565624 89.30729Q34.39375 89.30729 33.64375 88.65104Q32.909374 87.99479 32.8 86.916664ZM40.003124 82.635414Q40.003124 81.71354 40.45625 81.072914Q40.925 80.43229 41.8 80.43229Q42.6125 80.43229 43.14375 81.010414Q43.675 81.58854 43.675 82.697914Q43.675 83.791664 43.128124 84.385414Q42.596874 84.96354 41.815624 84.96354Q41.034374 84.96354 40.51875 84.385414Q40.003124 83.80729 40.003124 82.635414ZM41.83125 81.15104Q41.440624 81.15104 41.175 81.49479Q40.925 81.83854 40.925 82.74479Q40.925 83.572914 41.175 83.916664Q41.440624 84.24479 41.83125 84.24479Q42.2375 84.24479 42.4875 83.90104Q42.753124 83.55729 42.753124 82.666664Q42.753124 81.822914 42.4875 81.49479Q42.221874 81.15104 41.83125 81.15104ZM41.83125 89.479164L46.534374 80.43229L47.39375 80.43229L42.70625 89.479164L41.83125 89.479164ZM45.55 87.15104Q45.55 86.229164 46.003124 85.58854Q46.471874 84.947914 47.3625 84.947914Q48.175 84.947914 48.70625 85.52604Q49.2375 86.08854 49.2375 87.21354Q49.2375 88.30729 48.690624 88.90104Q48.159374 89.479164 47.3625 89.479164Q46.596874 89.479164 46.065624 88.90104Q45.55 88.322914 45.55 87.15104ZM47.39375 85.666664Q46.9875 85.666664 46.721874 86.010414Q46.471874 86.354164 46.471874 87.260414Q46.471874 88.072914 46.7375 88.416664Q47.003124 88.760414 47.39375 88.760414Q47.784374 88.760414 48.05 88.416664Q48.315624 88.072914 48.315624 87.166664Q48.315624 86.33854 48.05 86.010414Q47.784374 85.666664 47.39375 85.666664Z" fill-rule="nonzero"/><path stroke="#757575" stroke-width="1.0" stroke-linecap="butt" d="M22.3 76.666664L120.23333 76.666664L267.29993 74.98799" fill-rule="nonzero"/><path fill="#9e9e9e" d="M269.29993 74.98799C269.29993 73.88342 268.4045 72.98799 267.29993 72.98799C266.19537 72.98799 265.29993 73.88342 265.29993 74.98799C265.29993 76.09256 266.19537 76.98799 267.29993 76.98799C268.4045 76.98799 269.29993 76.09256 269.29993 74.98799" fill-rule="nonzero"/><path fill="#1a1a1a" d="M23.175 264.87186L23.175 256.2781L24.315624 256.2781L24.315624 263.85623L28.55 263.85623L28.55 264.87186L23.175 264.87186ZM30.096874 257.49686L30.096874 256.2781L31.159374 256.2781L31.159374 257.49686L30.096874 257.49686ZM30.096874 264.87186L30.096874 258.6531L31.159374 258.6531L31.159374 264.87186L30.096874 264.87186ZM33.096874 264.87186L33.096874 256.2781L34.159374 256.2781L34.159374 261.18436L36.64375 258.6531L38.01875 258.6531L35.628124 260.94998L38.253124 264.87186L36.95625 264.87186L34.89375 261.68436L34.159374 262.4031L34.159374 264.87186L33.096874 264.87186ZM43.346874 262.87186L44.440624 262.99686Q44.190624 263.94998 43.4875 264.48123Q42.784374 265.01248 41.70625 265.01248Q40.346874 265.01248 39.534374 264.16873Q38.7375 263.32498 38.7375 261.80936Q38.7375 260.24686 39.55 259.38748Q40.3625 258.51248 41.64375 258.51248Q42.89375 258.51248 43.675 259.35623Q44.471874 260.19998 44.471874 261.74686Q44.471874 261.8406 44.471874 262.0281L39.83125 262.0281Q39.89375 263.05936 40.409374 263.60623Q40.925 264.13748 41.70625 264.13748Q42.284374 264.13748 42.690624 263.8406Q43.1125 263.5281 43.346874 262.87186ZM39.89375 261.16873L43.3625 261.16873Q43.3 260.37186 42.971874 259.98123Q42.45625 259.37186 41.659374 259.37186Q40.925 259.37186 40.425 259.85623Q39.940624 260.3406 39.89375 261.16873ZM46.065624 264.87186L46.065624 256.2781L47.128124 256.2781L47.128124 264.87186L46.065624 264.87186ZM49.05 267.26248L48.925 266.2781Q49.26875 266.37186 49.534374 266.37186Q49.878124 266.37186 50.08125 266.24686Q50.3 266.13748 50.440624 265.93436Q50.534374 265.76248 50.76875 265.13748Q50.784374 265.05936 50.8625 264.88748L48.4875 258.6531L49.628124 258.6531L50.925 262.24686Q51.175 262.93436 51.378124 263.69998Q51.565624 262.9656 51.815624 262.2781L53.14375 258.6531L54.190624 258.6531L51.83125 264.98123Q51.440624 265.99686 51.2375 266.38748Q50.95625 266.91873 50.58125 267.1531Q50.221874 267.4031 49.721874 267.4031Q49.425 267.4031 49.05 267.26248ZM57.3 265.01248L59.784374 256.13748L60.628124 256.13748L58.14375 265.01248L57.3 265.01248ZM63.675 263.01248L64.70625 262.85623Q64.8 263.48123 65.19063 263.80936Q65.59688 264.13748 66.33125 264.13748Q67.05 264.13748 67.39375 263.85623Q67.75313 263.55936 67.75313 263.1531Q67.75313 262.79373 67.44063 262.5906Q67.22188 262.44998 66.3625 262.23123Q65.20625 261.93436 64.75313 261.73123Q64.31563 261.51248 64.08125 261.13748Q63.846874 260.76248 63.846874 260.29373Q63.846874 259.88748 64.03438 259.5281Q64.22188 259.16873 64.55 258.93436Q64.8 258.76248 65.22188 258.63748Q65.64375 258.51248 66.14375 258.51248Q66.8625 258.51248 67.40938 258.73123Q67.97188 258.93436 68.2375 259.29373Q68.50313 259.6531 68.59688 260.24686L67.56563 260.38748Q67.50313 259.91873 67.15938 259.6531Q66.83125 259.37186 66.20625 259.37186Q65.4875 259.37186 65.175 259.62186Q64.8625 259.85623 64.8625 260.18436Q64.8625 260.38748 64.9875 260.54373Q65.12813 260.7156 65.39375 260.82498Q65.55 260.88748 66.33125 261.0906Q67.45625 261.4031 67.89375 261.5906Q68.33125 261.7781 68.58125 262.13748Q68.83125 262.49686 68.83125 263.04373Q68.83125 263.57498 68.51875 264.04373Q68.22188 264.49686 67.64375 264.76248Q67.06563 265.01248 66.33125 265.01248Q65.1125 265.01248 64.47188 264.51248Q63.846874 263.99686 63.675 263.01248ZM69.70625 261.76248Q69.70625 260.0281 70.65938 259.19998Q71.45625 258.51248 72.6125 258.51248Q73.89375 258.51248 74.70625 259.35623Q75.53438 260.18436 75.53438 261.66873Q75.53438 262.87186 75.175 263.55936Q74.81563 264.24686 74.1125 264.63748Q73.425 265.01248 72.6125 265.01248Q71.31563 265.01248 70.50313 264.18436Q69.70625 263.3406 69.70625 261.76248ZM70.78438 261.76248Q70.78438 262.94998 71.3 263.54373Q71.83125 264.13748 72.6125 264.13748Q73.40938 264.13748 73.925 263.54373Q74.44063 262.94998 74.44063 261.73123Q74.44063 260.57498 73.90938 259.98123Q73.39375 259.38748 72.6125 259.38748Q71.83125 259.38748 71.3 259.98123Q70.78438 260.55936 70.78438 261.76248ZM77.09688 264.87186L77.09688 258.6531L78.03438 258.6531L78.03438 259.5281Q78.33125 259.05936 78.81563 258.79373Q79.3 258.51248 79.925 258.51248Q80.6125 258.51248 81.05 258.79373Q81.50313 259.07498 81.675 259.5906Q82.425 258.51248 83.59688 258.51248Q84.53438 258.51248 85.01875 259.0281Q85.51875 259.5281 85.51875 260.60623L85.51875 264.87186L84.47188 264.87186L84.47188 260.94998Q84.47188 260.32498 84.3625 260.04373Q84.26875 259.76248 84.00313 259.5906Q83.7375 259.41873 83.3625 259.41873Q82.70625 259.41873 82.26875 259.85623Q81.84688 260.29373 81.84688 261.26248L81.84688 264.87186L80.78438 264.87186L80.78438 260.82498Q80.78438 260.12186 80.51875 259.7781Q80.26875 259.41873 79.69063 259.41873Q79.2375 259.41873 78.8625 259.6531Q78.4875 259.88748 78.31563 260.3406Q78.14375 260.79373 78.14375 261.63748L78.14375 264.87186L77.09688 264.87186ZM91.34688 262.87186L92.44063 262.99686Q92.19063 263.94998 91.4875 264.48123Q90.78438 265.01248 89.70625 265.01248Q88.34688 265.01248 87.53438 264.16873Q86.7375 263.32498 86.7375 261.80936Q86.7375 260.24686 87.55 259.38748Q88.3625 258.51248 89.64375 258.51248Q90.89375 258.51248 91.675 259.35623Q92.47188 260.19998 92.47188 261.74686Q92.47188 261.8406 92.47188 262.0281L87.83125 262.0281Q87.89375 263.05936 88.40938 263.60623Q88.925 264.13748 89.70625 264.13748Q90.28438 264.13748 90.69063 263.8406Q91.1125 263.5281 91.34688 262.87186ZM87.89375 261.16873L91.3625 261.16873Q91.3 260.37186 90.97188 259.98123Q90.45625 259.37186 89.65938 259.37186Q88.925 259.37186 88.425 259.85623Q87.94063 260.3406 87.89375 261.16873Z" fill-rule="nonzero"/><path fill="#9e9e9e" d="M26.175 281.87186L26.175 279.80936L22.45625 279.80936L22.45625 278.8406L26.378124 273.2781L27.2375 273.2781L27.2375 278.8406L28.39375 278.8406L28.39375 279.80936L27.2375 279.80936L27.2375 281.87186L26.175 281.87186ZM26.175 278.8406L26.175 274.98123L23.4875 278.8406L26.175 278.8406ZM29.8 277.63748Q29.8 276.10623 30.1125 275.18436Q30.425 274.24686 31.034374 273.74686Q31.659374 273.24686 32.596874 273.24686Q33.284374 273.24686 33.8 273.5281Q34.33125 273.80936 34.675 274.3406Q35.01875 274.85623 35.20625 275.60623Q35.39375 276.35623 35.39375 277.63748Q35.39375 279.1531 35.08125 280.07498Q34.784374 280.99686 34.159374 281.51248Q33.55 282.01248 32.596874 282.01248Q31.3625 282.01248 30.64375 281.12186Q29.8 280.05936 29.8 277.63748ZM30.878124 277.63748Q30.878124 279.74686 31.378124 280.44998Q31.878124 281.1531 32.596874 281.1531Q33.33125 281.1531 33.815624 280.44998Q34.315624 279.74686 34.315624 277.63748Q34.315624 275.51248 33.815624 274.82498Q33.33125 274.12186 32.58125 274.12186Q31.8625 274.12186 31.425 274.73123Q30.878124 275.51248 30.878124 277.63748ZM37.39375 281.87186L37.39375 280.66873L38.596874 280.66873L38.596874 281.87186L37.39375 281.87186ZM39.8 277.63748Q39.8 276.10623 40.1125 275.18436Q40.425 274.24686 41.034374 273.74686Q41.659374 273.24686 42.596874 273.24686Q43.284374 273.24686 43.8 273.5281Q44.33125 273.80936 44.675 274.3406Q45.01875 274.85623 45.20625 275.60623Q45.39375 276.35623 45.39375 277.63748Q45.39375 279.1531 45.08125 280.07498Q44.784374 280.99686 44.159374 281.51248Q43.55 282.01248 42.596874 282.01248Q41.3625 282.01248 40.64375 281.12186Q39.8 280.05936 39.8 277.63748ZM40.878124 277.63748Q40.878124 279.74686 41.378124 280.44998Q41.878124 281.1531 42.596874 281.1531Q43.33125 281.1531 43.815624 280.44998Q44.315624 279.74686 44.315624 277.63748Q44.315624 275.51248 43.815624 274.82498Q43.33125 274.12186 42.58125 274.12186Q41.8625 274.12186 41.425 274.73123Q40.878124 275.51248 40.878124 277.63748ZM47.003124 275.3406Q47.003124 274.41873 47.45625 273.7781Q47.925 273.13748 48.8 273.13748Q49.6125 273.13748 50.14375 273.7156Q50.675 274.29373 50.675 275.4031Q50.675 276.49686 50.128124 277.0906Q49.596874 277.66873 48.815624 277.66873Q48.034374 277.66873 47.51875 277.0906Q47.003124 276.51248 47.003124 275.3406ZM48.83125 273.85623Q48.440624 273.85623 48.175 274.19998Q47.925 274.54373 47.925 275.44998Q47.925 276.2781 48.175 276.62186Q48.440624 276.94998 48.83125 276.94998Q49.2375 276.94998 49.4875 276.60623Q49.753124 276.26248 49.753124 275.37186Q49.753124 274.5281 49.4875 274.19998Q49.221874 273.85623 48.83125 273.85623ZM48.83125 282.18436L53.534374 273.13748L54.39375 273.13748L49.70625 282.18436L48.83125 282.18436ZM52.55 279.85623Q52.55 278.93436 53.003124 278.29373Q53.471874 277.6531 54.3625 277.6531Q55.175 277.6531 55.70625 278.23123Q56.2375 278.79373 56.2375 279.91873Q56.2375 281.01248 55.690624 281.60623Q55.159374 282.18436 54.3625 282.18436Q53.596874 282.18436 53.065624 281.60623Q52.55 281.0281 52.55 279.85623ZM54.39375 278.37186Q53.9875 278.37186 53.721874 278.7156Q53.471874 279.05936 53.471874 279.9656Q53.471874 280.7781 53.7375 281.12186Q54.003124 281.4656 54.39375 281.4656Q54.784374 281.4656 55.05 281.12186Q55.315624 280.7781 55.315624 279.87186Q55.315624 279.04373 55.05 278.7156Q54.784374 278.37186 54.39375 278.37186Z" fill-rule="nonzero"/><path stroke="#757575" stroke-width="1.0" stroke-linecap="butt" d="M22.3 269.37186L120.23333 269.37186L137.41678 269.37186" fill-rule="nonzero"/><path fill="#9e9e9e" d="M139.41678 269.37186C139.41678 268.2673 138.52135 267.37186 137.41678 267.37186C136.31221 267.37186 135.41678 268.2673 135.41678 269.37186C135.41678 270.47644 136.31221 271.37186 137.41678 271.37186C138.52135 271.37186 139.41678 270.47644 139.41678 269.37186" fill-rule="nonzero"/><path fill="#1a1a1a" d="M542.6219 251.44424L542.6219 242.8505L545.59064 242.8505Q546.59064 242.8505 547.1219 242.9755Q547.85626 243.14737 548.3719 243.58487Q549.0594 244.163 549.3875 245.06924Q549.73126 245.95987 549.73126 247.1005Q549.73126 248.08487 549.4969 248.83487Q549.27814 249.58487 548.91876 250.08487Q548.5594 250.58487 548.1219 250.86612Q547.7 251.14737 547.10626 251.30362Q546.5125 251.44424 545.73126 251.44424L542.6219 251.44424ZM543.7625 250.42862L545.59064 250.42862Q546.45 250.42862 546.9344 250.27237Q547.41876 250.11612 547.7 249.81924Q548.10626 249.42862 548.325 248.74112Q548.5594 248.05362 548.5594 247.08487Q548.5594 245.74112 548.10626 245.02237Q547.66876 244.288 547.04376 244.038Q546.575 243.86612 545.575 243.86612L543.7625 243.86612L543.7625 250.42862ZM555.7469 249.44424L556.84064 249.56924Q556.59064 250.52237 555.8875 251.05362Q555.1844 251.58487 554.10626 251.58487Q552.7469 251.58487 551.9344 250.74112Q551.1375 249.89737 551.1375 248.38174Q551.1375 246.81924 551.95 245.95987Q552.7625 245.08487 554.04376 245.08487Q555.29376 245.08487 556.075 245.92862Q556.8719 246.77237 556.8719 248.31924Q556.8719 248.413 556.8719 248.6005L552.23126 248.6005Q552.29376 249.63174 552.8094 250.17862Q553.325 250.70987 554.10626 250.70987Q554.6844 250.70987 555.09064 250.413Q555.5125 250.1005 555.7469 249.44424ZM552.29376 247.74112L555.7625 247.74112Q555.7 246.94424 555.3719 246.55362Q554.85626 245.94424 554.0594 245.94424Q553.325 245.94424 552.825 246.42862Q552.34064 246.913 552.29376 247.74112ZM558.7469 251.44424L558.7469 246.038L557.8094 246.038L557.8094 245.2255L558.7469 245.2255L558.7469 244.55362Q558.7469 243.92862 558.85626 243.63174Q559.0125 243.20987 559.3875 242.95987Q559.77814 242.70987 560.46564 242.70987Q560.91876 242.70987 561.45 242.81924L561.29376 243.7255Q560.96564 243.67862 560.66876 243.67862Q560.1844 243.67862 559.98126 243.88174Q559.79376 244.08487 559.79376 244.64737L559.79376 245.2255L561.0125 245.2255L561.0125 246.038L559.79376 246.038L559.79376 251.44424L558.7469 251.44424ZM561.4969 244.06924L561.4969 242.8505L562.5594 242.8505L562.5594 244.06924L561.4969 244.06924ZM561.4969 251.44424L561.4969 245.2255L562.5594 245.2255L562.5594 251.44424L561.4969 251.44424ZM564.4969 251.44424L564.4969 245.2255L565.4344 245.2255L565.4344 246.1005Q566.1219 245.08487 567.41876 245.08487Q567.98126 245.08487 568.45 245.288Q568.9344 245.49112 569.16876 245.81924Q569.40314 246.14737 569.4969 246.58487Q569.54376 246.88174 569.54376 247.61612L569.54376 251.44424L568.4969 251.44424L568.4969 247.663Q568.4969 247.00674 568.3719 246.69424Q568.2469 246.38174 567.9344 246.19424Q567.6219 245.99112 567.2 245.99112Q566.52814 245.99112 566.02814 246.42862Q565.54376 246.8505 565.54376 248.038L565.54376 251.44424L564.4969 251.44424ZM571.4969 244.06924L571.4969 242.8505L572.5594 242.8505L572.5594 244.06924L571.4969 244.06924ZM571.4969 251.44424L571.4969 245.2255L572.5594 245.2255L572.5594 251.44424L571.4969 251.44424ZM576.79376 250.50674L576.95 251.42862Q576.4969 251.52237 576.15314 251.52237Q575.575 251.52237 575.2625 251.3505Q574.95 251.163 574.8094 250.86612Q574.6844 250.56924 574.6844 249.61612L574.6844 246.038L573.91876 246.038L573.91876 245.2255L574.6844 245.2255L574.6844 243.67862L575.73126 243.05362L575.73126 245.2255L576.79376 245.2255L576.79376 246.038L575.73126 246.038L575.73126 249.67862Q575.73126 250.13174 575.77814 250.25674Q575.84064 250.38174 575.96564 250.45987Q576.09064 250.538 576.325 250.538Q576.5125 250.538 576.79376 250.50674ZM581.7469 249.44424L582.84064 249.56924Q582.59064 250.52237 581.8875 251.05362Q581.1844 251.58487 580.10626 251.58487Q578.7469 251.58487 577.9344 250.74112Q577.1375 249.89737 577.1375 248.38174Q577.1375 246.81924 577.95 245.95987Q578.7625 245.08487 580.04376 245.08487Q581.29376 245.08487 582.075 245.92862Q582.8719 246.77237 582.8719 248.31924Q582.8719 248.413 582.8719 248.6005L578.23126 248.6005Q578.29376 249.63174 578.8094 250.17862Q579.325 250.70987 580.10626 250.70987Q580.6844 250.70987 581.09064 250.413Q581.5125 250.1005 581.7469 249.44424ZM578.29376 247.74112L581.7625 247.74112Q581.7 246.94424 581.3719 246.55362Q580.85626 245.94424 580.0594 245.94424Q579.325 245.94424 578.825 246.42862Q578.34064 246.913 578.29376 247.74112ZM584.46564 251.44424L584.46564 242.8505L585.52814 242.8505L585.52814 251.44424L584.46564 251.44424ZM587.45 253.83487L587.325 252.8505Q587.66876 252.94424 587.9344 252.94424Q588.27814 252.94424 588.48126 252.81924Q588.7 252.70987 588.84064 252.50674Q588.9344 252.33487 589.16876 251.70987Q589.1844 251.63174 589.2625 251.45987L586.8875 245.2255L588.02814 245.2255L589.325 248.81924Q589.575 249.50674 589.77814 250.27237Q589.96564 249.538 590.21564 248.8505L591.54376 245.2255L592.59064 245.2255L590.23126 251.55362Q589.84064 252.56924 589.6375 252.95987Q589.35626 253.49112 588.98126 253.7255Q588.6219 253.9755 588.1219 253.9755Q587.825 253.9755 587.45 253.83487Z" fill-rule="nonzero"/><path fill="#9e9e9e" d="M558.2 266.19424L559.3094 266.1005Q559.4344 266.913 559.8719 267.31924Q560.325 267.7255 560.96564 267.7255Q561.71564 267.7255 562.2469 267.14737Q562.77814 266.56924 562.77814 265.63174Q562.77814 264.7255 562.2625 264.20987Q561.7625 263.67862 560.9344 263.67862Q560.4344 263.67862 560.0125 263.913Q559.60626 264.14737 559.3719 264.50674L558.3875 264.38174L559.21564 259.9755L563.4969 259.9755L563.4969 260.9755L560.0594 260.9755L559.60626 263.288Q560.3719 262.74112 561.21564 262.74112Q562.34064 262.74112 563.10626 263.52237Q563.8875 264.30362 563.8875 265.538Q563.8875 266.69424 563.21564 267.55362Q562.3875 268.58487 560.96564 268.58487Q559.79376 268.58487 559.04376 267.92862Q558.3094 267.27237 558.2 266.19424ZM570.7469 267.42862L570.7469 268.44424L565.0594 268.44424Q565.0594 268.06924 565.1844 267.70987Q565.40314 267.13174 565.8719 266.56924Q566.35626 266.00674 567.2625 265.27237Q568.66876 264.11612 569.15314 263.44424Q569.65314 262.77237 569.65314 262.17862Q569.65314 261.55362 569.2 261.13174Q568.7469 260.69424 568.02814 260.69424Q567.2625 260.69424 566.8094 261.14737Q566.35626 261.6005 566.34064 262.413L565.2625 262.30362Q565.3719 261.08487 566.09064 260.45987Q566.825 259.81924 568.0594 259.81924Q569.29376 259.81924 570.0125 260.50674Q570.73126 261.19424 570.73126 262.20987Q570.73126 262.7255 570.5125 263.2255Q570.3094 263.70987 569.8094 264.27237Q569.325 264.81924 568.2 265.77237Q567.2469 266.56924 566.96564 266.86612Q566.7 267.14737 566.52814 267.42862L570.7469 267.42862ZM572.79376 268.44424L572.79376 267.24112L573.9969 267.24112L573.9969 268.44424L572.79376 268.44424ZM575.2 266.19424L576.3094 266.1005Q576.4344 266.913 576.8719 267.31924Q577.325 267.7255 577.96564 267.7255Q578.71564 267.7255 579.2469 267.14737Q579.77814 266.56924 579.77814 265.63174Q579.77814 264.7255 579.2625 264.20987Q578.7625 263.67862 577.9344 263.67862Q577.4344 263.67862 577.0125 263.913Q576.60626 264.14737 576.3719 264.50674L575.3875 264.38174L576.21564 259.9755L580.4969 259.9755L580.4969 260.9755L577.0594 260.9755L576.60626 263.288Q577.3719 262.74112 578.21564 262.74112Q579.34064 262.74112 580.10626 263.52237Q580.8875 264.30362 580.8875 265.538Q580.8875 266.69424 580.21564 267.55362Q579.3875 268.58487 577.96564 268.58487Q576.79376 268.58487 576.04376 267.92862Q575.3094 267.27237 575.2 266.19424ZM582.40314 261.913Q582.40314 260.99112 582.85626 260.3505Q583.325 259.70987 584.2 259.70987Q585.0125 259.70987 585.54376 260.288Q586.075 260.86612 586.075 261.9755Q586.075 263.06924 585.52814 263.663Q584.9969 264.24112 584.21564 264.24112Q583.4344 264.24112 582.91876 263.663Q582.40314 263.08487 582.40314 261.913ZM584.23126 260.42862Q583.84064 260.42862 583.575 260.77237Q583.325 261.11612 583.325 262.02237Q583.325 262.8505 583.575 263.19424Q583.84064 263.52237 584.23126 263.52237Q584.6375 263.52237 584.8875 263.17862Q585.15314 262.83487 585.15314 261.94424Q585.15314 261.1005 584.8875 260.77237Q584.6219 260.42862 584.23126 260.42862ZM584.23126 268.75674L588.9344 259.70987L589.79376 259.70987L585.10626 268.75674L584.23126 268.75674ZM587.95 266.42862Q587.95 265.50674 588.40314 264.86612Q588.8719 264.2255 589.7625 264.2255Q590.575 264.2255 591.10626 264.80362Q591.6375 265.36612 591.6375 266.49112Q591.6375 267.58487 591.09064 268.17862Q590.5594 268.75674 589.7625 268.75674Q588.9969 268.75674 588.46564 268.17862Q587.95 267.6005 587.95 266.42862ZM589.79376 264.94424Q589.3875 264.94424 589.1219 265.288Q588.8719 265.63174 588.8719 266.538Q588.8719 267.3505 589.1375 267.69424Q589.40314 268.038 589.79376 268.038Q590.1844 268.038 590.45 267.69424Q590.71564 267.3505 590.71564 266.44424Q590.71564 265.61612 590.45 265.288Q590.1844 264.94424 589.79376 264.94424Z" fill-rule="nonzero"/><path stroke="#757575" stroke-width="1.0" stroke-linecap="butt" d="M592.7 255.94424L494.76666 255.94424L479.1725 255.94424" fill-rule="nonzero"/><path fill="#9e9e9e" d="M481.1725 255.94424C481.1725 254.83968 480.27707 253.94424 479.1725 253.94424C478.06793 253.94424 477.1725 254.83968 477.1725 255.94424C477.1725 257.04883 478.06793 257.94424 479.1725 257.94424C480.27707 257.94424 481.1725 257.04883 481.1725 255.94424" fill-rule="nonzero"/><path fill="#757575" d="M34.065624 36.284374L35.95625 36.753124Q35.3625 39.096874 33.815624 40.33125Q32.26875 41.55 30.01875 41.55Q27.70625 41.55 26.253124 40.6125Q24.815624 39.659374 24.05 37.878124Q23.3 36.08125 23.3 34.034374Q23.3 31.8 24.14375 30.14375Q25.003124 28.471874 26.58125 27.6125Q28.159374 26.7375 30.05 26.7375Q32.20625 26.7375 33.659374 27.83125Q35.128124 28.925 35.70625 30.909374L33.846874 31.346874Q33.346874 29.784374 32.39375 29.08125Q31.45625 28.3625 30.01875 28.3625Q28.3625 28.3625 27.253124 29.159374Q26.14375 29.940624 25.690624 31.284374Q25.253124 32.6125 25.253124 34.01875Q25.253124 35.846874 25.784374 37.221874Q26.315624 38.58125 27.440624 39.253124Q28.565624 39.925 29.8625 39.925Q31.45625 39.925 32.565624 39.003124Q33.675 38.08125 34.065624 36.284374ZM36.971874 36.1125Q36.971874 33.2375 38.565624 31.846874Q39.909374 30.690624 41.83125 30.690624Q43.971874 30.690624 45.315624 32.096874Q46.675 33.503124 46.675 35.971874Q46.675 37.971874 46.08125 39.128124Q45.4875 40.26875 44.33125 40.909374Q43.190624 41.534374 41.83125 41.534374Q39.64375 41.534374 38.3 40.14375Q36.971874 38.7375 36.971874 36.1125ZM38.76875 36.1125Q38.76875 38.1125 39.628124 39.096874Q40.503124 40.08125 41.83125 40.08125Q43.14375 40.08125 44.003124 39.096874Q44.878124 38.096874 44.878124 36.05Q44.878124 34.128124 44.003124 33.14375Q43.128124 32.14375 41.83125 32.14375Q40.503124 32.14375 39.628124 33.14375Q38.76875 34.128124 38.76875 36.1125ZM55.409374 41.3L55.409374 39.76875Q54.20625 41.534374 52.128124 41.534374Q51.20625 41.534374 50.409374 41.190624Q49.6125 40.83125 49.221874 40.3Q48.846874 39.76875 48.690624 38.9875Q48.58125 38.471874 48.58125 37.346874L48.58125 30.925L50.33125 30.925L50.33125 36.675Q50.33125 38.05 50.440624 38.534374Q50.6125 39.221874 51.14375 39.628124Q51.690624 40.01875 52.471874 40.01875Q53.26875 40.01875 53.95625 39.6125Q54.659374 39.20625 54.940624 38.51875Q55.2375 37.815624 55.2375 36.4875L55.2375 30.925L56.9875 30.925L56.9875 41.3L55.409374 41.3ZM59.6125 41.3L59.6125 30.925L61.20625 30.925L61.20625 32.409374Q62.346874 30.690624 64.50313 30.690624Q65.44063 30.690624 66.22188 31.034374Q67.01875 31.3625 67.40938 31.909374Q67.8 32.45625 67.95625 33.20625Q68.05 33.70625 68.05 34.925L68.05 41.3L66.28438 41.3L66.28438 34.9875Q66.28438 33.909374 66.08125 33.378124Q65.87813 32.846874 65.34688 32.534374Q64.83125 32.221874 64.12813 32.221874Q63.003124 32.221874 62.190624 32.940624Q61.378124 33.64375 61.378124 35.628124L61.378124 41.3L59.6125 41.3ZM74.45625 39.721874L74.70625 41.284374Q73.97188 41.440624 73.37813 41.440624Q72.425 41.440624 71.89375 41.14375Q71.37813 40.83125 71.15938 40.346874Q70.94063 39.846874 70.94063 38.26875L70.94063 32.3L69.65938 32.3L69.65938 30.925L70.94063 30.925L70.94063 28.3625L72.69063 27.3L72.69063 30.925L74.45625 30.925L74.45625 32.3L72.69063 32.3L72.69063 38.3625Q72.69063 39.1125 72.78438 39.33125Q72.87813 39.534374 73.08125 39.675Q73.3 39.8 73.69063 39.8Q73.97188 39.8 74.45625 39.721874ZM81.97188 36.1125Q81.97188 33.2375 83.56563 31.846874Q84.90938 30.690624 86.83125 30.690624Q88.97188 30.690624 90.31563 32.096874Q91.675 33.503124 91.675 35.971874Q91.675 37.971874 91.08125 39.128124Q90.4875 40.26875 89.33125 40.909374Q88.19063 41.534374 86.83125 41.534374Q84.64375 41.534374 83.3 40.14375Q81.97188 38.7375 81.97188 36.1125ZM83.76875 36.1125Q83.76875 38.1125 84.62813 39.096874Q85.50313 40.08125 86.83125 40.08125Q88.14375 40.08125 89.00313 39.096874Q89.87813 38.096874 89.87813 36.05Q89.87813 34.128124 89.00313 33.14375Q88.12813 32.14375 86.83125 32.14375Q85.50313 32.14375 84.62813 33.14375Q83.76875 34.128124 83.76875 36.1125ZM94.03438 41.3L94.03438 32.3L92.4875 32.3L92.4875 30.925L94.03438 30.925L94.03438 29.83125Q94.03438 28.784374 94.22188 28.26875Q94.47188 27.58125 95.1125 27.159374Q95.75313 26.7375 96.90938 26.7375Q97.65938 26.7375 98.55 26.909374L98.28438 28.440624Q97.7375 28.346874 97.25313 28.346874Q96.45625 28.346874 96.1125 28.690624Q95.78438 29.034374 95.78438 29.971874L95.78438 30.925L97.81563 30.925L97.81563 32.3L95.78438 32.3L95.78438 41.3L94.03438 41.3ZM108.34688 41.3L104.55 26.9875L106.4875 26.9875L108.65938 36.3625Q109.01875 37.846874 109.26875 39.3Q109.81563 37.003124 109.90938 36.64375L112.64375 26.9875L114.925 26.9875L116.97188 34.221874Q117.75313 36.925 118.09688 39.3Q118.3625 37.940624 118.8 36.175L121.05 26.9875L122.95625 26.9875L119.03438 41.3L117.20625 41.3L114.19063 30.39375Q113.8 29.01875 113.7375 28.70625Q113.50313 29.690624 113.31563 30.39375L110.28438 41.3L108.34688 41.3ZM123.97188 36.1125Q123.97188 33.2375 125.56563 31.846874Q126.90938 30.690624 128.83125 30.690624Q130.97188 30.690624 132.31563 32.096874Q133.675 33.503124 133.675 35.971874Q133.675 37.971874 133.08125 39.128124Q132.4875 40.26875 131.33125 40.909374Q130.19063 41.534374 128.83125 41.534374Q126.64375 41.534374 125.3 40.14375Q123.97188 38.7375 123.97188 36.1125ZM125.76875 36.1125Q125.76875 38.1125 126.62813 39.096874Q127.50313 40.08125 128.83125 40.08125Q130.14375 40.08125 131.00313 39.096874Q131.87813 38.096874 131.87813 36.05Q131.87813 34.128124 131.00313 33.14375Q130.12813 32.14375 128.83125 32.14375Q127.50313 32.14375 126.62813 33.14375Q125.76875 34.128124 125.76875 36.1125ZM142.40938 41.3L142.40938 39.76875Q141.20625 41.534374 139.12813 41.534374Q138.20625 41.534374 137.40938 41.190624Q136.6125 40.83125 136.22188 40.3Q135.84688 39.76875 135.69063 38.9875Q135.58125 38.471874 135.58125 37.346874L135.58125 30.925L137.33125 30.925L137.33125 36.675Q137.33125 38.05 137.44063 38.534374Q137.6125 39.221874 138.14375 39.628124Q138.69063 40.01875 139.47188 40.01875Q140.26875 40.01875 140.95625 39.6125Q141.65938 39.20625 141.94063 38.51875Q142.2375 37.815624 142.2375 36.4875L142.2375 30.925L143.9875 30.925L143.9875 41.3L142.40938 41.3ZM146.58125 41.3L146.58125 26.9875L148.33125 26.9875L148.33125 41.3L146.58125 41.3ZM157.34688 41.3L157.34688 39.9875Q156.3625 41.534374 154.44063 41.534374Q153.20625 41.534374 152.15938 40.846874Q151.12813 40.159374 150.55 38.940624Q149.9875 37.721874 149.9875 36.128124Q149.9875 34.565624 150.50313 33.3Q151.01875 32.034374 152.05 31.3625Q153.09688 30.690624 154.3625 30.690624Q155.3 30.690624 156.03438 31.096874Q156.76875 31.4875 157.2375 32.1125L157.2375 26.9875L158.97188 26.9875L158.97188 41.3L157.34688 41.3ZM151.78438 36.128124Q151.78438 38.1125 152.62813 39.096874Q153.47188 40.08125 154.6125 40.08125Q155.76875 40.08125 156.56563 39.14375Q157.37813 38.20625 157.37813 36.26875Q157.37813 34.14375 156.55 33.14375Q155.7375 32.14375 154.53438 32.14375Q153.3625 32.14375 152.56563 33.1125Q151.78438 34.065624 151.78438 36.128124ZM167.53438 45.3L167.34688 43.64375Q167.925 43.8 168.34688 43.8Q168.94063 43.8 169.28438 43.596874Q169.64375 43.409374 169.8625 43.065624Q170.03438 42.8 170.40938 41.753124Q170.45625 41.596874 170.56563 41.315624L166.62813 30.925L168.51875 30.925L170.675 36.940624Q171.09688 38.08125 171.425 39.33125Q171.7375 38.128124 172.14375 36.971874L174.3625 30.925L176.12813 30.925L172.175 41.471874Q171.55 43.190624 171.19063 43.83125Q170.72188 44.70625 170.1125 45.096874Q169.51875 45.503124 168.675 45.503124Q168.15938 45.503124 167.53438 45.3ZM176.97188 36.1125Q176.97188 33.2375 178.56563 31.846874Q179.90938 30.690624 181.83125 30.690624Q183.97188 30.690624 185.31563 32.096874Q186.675 33.503124 186.675 35.971874Q186.675 37.971874 186.08125 39.128124Q185.4875 40.26875 184.33125 40.909374Q183.19063 41.534374 181.83125 41.534374Q179.64375 41.534374 178.3 40.14375Q176.97188 38.7375 176.97188 36.1125ZM178.76875 36.1125Q178.76875 38.1125 179.62813 39.096874Q180.50313 40.08125 181.83125 40.08125Q183.14375 40.08125 184.00313 39.096874Q184.87813 38.096874 184.87813 36.05Q184.87813 34.128124 184.00313 33.14375Q183.12813 32.14375 181.83125 32.14375Q180.50313 32.14375 179.62813 33.14375Q178.76875 34.128124 178.76875 36.1125ZM195.40938 41.3L195.40938 39.76875Q194.20625 41.534374 192.12813 41.534374Q191.20625 41.534374 190.40938 41.190624Q189.6125 40.83125 189.22188 40.3Q188.84688 39.76875 188.69063 38.9875Q188.58125 38.471874 188.58125 37.346874L188.58125 30.925L190.33125 30.925L190.33125 36.675Q190.33125 38.05 190.44063 38.534374Q190.6125 39.221874 191.14375 39.628124Q191.69063 40.01875 192.47188 40.01875Q193.26875 40.01875 193.95625 39.6125Q194.65938 39.20625 194.94063 38.51875Q195.2375 37.815624 195.2375 36.4875L195.2375 30.925L196.9875 30.925L196.9875 41.3L195.40938 41.3ZM205.58125 41.3L205.58125 26.9875L207.33125 26.9875L207.33125 41.3L205.58125 41.3ZM209.62813 29.003124L209.62813 26.9875L211.39375 26.9875L211.39375 29.003124L209.62813 29.003124ZM209.62813 41.3L209.62813 30.925L211.39375 30.925L211.39375 41.3L209.62813 41.3ZM213.62813 41.3L213.62813 26.9875L215.39375 26.9875L215.39375 35.14375L219.55 30.925L221.81563 30.925L217.8625 34.76875L222.22188 41.3L220.05 41.3L216.62813 36.003124L215.39375 37.190624L215.39375 41.3L213.62813 41.3ZM230.72188 37.95625L232.53438 38.190624Q232.1125 39.76875 230.94063 40.659374Q229.78438 41.534374 227.97188 41.534374Q225.70625 41.534374 224.3625 40.14375Q223.03438 38.7375 223.03438 36.20625Q223.03438 33.58125 224.37813 32.14375Q225.72188 30.690624 227.87813 30.690624Q229.95625 30.690624 231.26875 32.1125Q232.59688 33.51875 232.59688 36.096874Q232.59688 36.253124 232.58125 36.565624L224.84688 36.565624Q224.94063 38.26875 225.81563 39.175Q226.69063 40.08125 227.9875 40.08125Q228.95625 40.08125 229.62813 39.58125Q230.31563 39.065624 230.72188 37.95625ZM224.94063 35.1125L230.7375 35.1125Q230.62813 33.815624 230.08125 33.159374Q229.2375 32.14375 227.89375 32.14375Q226.69063 32.14375 225.8625 32.95625Q225.03438 33.753124 224.94063 35.1125ZM244.45625 39.721874L244.70625 41.284374Q243.97188 41.440624 243.37813 41.440624Q242.425 41.440624 241.89375 41.14375Q241.37813 40.83125 241.15938 40.346874Q240.94063 39.846874 240.94063 38.26875L240.94063 32.3L239.65938 32.3L239.65938 30.925L240.94063 30.925L240.94063 28.3625L242.69063 27.3L242.69063 30.925L244.45625 30.925L244.45625 32.3L242.69063 32.3L242.69063 38.3625Q242.69063 39.1125 242.78438 39.33125Q242.87813 39.534374 243.08125 39.675Q243.3 39.8 243.69063 39.8Q243.97188 39.8 244.45625 39.721874ZM245.97188 36.1125Q245.97188 33.2375 247.56563 31.846874Q248.90938 30.690624 250.83125 30.690624Q252.97188 30.690624 254.31563 32.096874Q255.675 33.503124 255.675 35.971874Q255.675 37.971874 255.08125 39.128124Q254.4875 40.26875 253.33125 40.909374Q252.19063 41.534374 250.83125 41.534374Q248.64375 41.534374 247.3 40.14375Q245.97188 38.7375 245.97188 36.1125ZM247.76875 36.1125Q247.76875 38.1125 248.62813 39.096874Q249.50313 40.08125 250.83125 40.08125Q252.14375 40.08125 253.00313 39.096874Q253.87813 38.096874 253.87813 36.05Q253.87813 34.128124 253.00313 33.14375Q252.12813 32.14375 250.83125 32.14375Q249.50313 32.14375 248.62813 33.14375Q247.76875 34.128124 247.76875 36.1125ZM270.39374 40.01875Q269.40936 40.846874 268.5031 41.190624Q267.59686 41.534374 266.5656 41.534374Q264.8625 41.534374 263.9406 40.70625Q263.01874 39.8625 263.01874 38.565624Q263.01874 37.8 263.3625 37.175Q263.72186 36.55 264.28436 36.175Q264.84686 35.784374 265.55 35.58125Q266.0656 35.45625 267.1125 35.315624Q269.2375 35.065624 270.2375 34.721874Q270.2531 34.3625 270.2531 34.253124Q270.2531 33.190624 269.7531 32.7375Q269.08124 32.14375 267.7531 32.14375Q266.5031 32.14375 265.90936 32.58125Q265.33124 33.01875 265.05 34.128124L263.33124 33.89375Q263.5656 32.784374 264.09686 32.1125Q264.6281 31.425 265.64374 31.065624Q266.65936 30.690624 268.0031 30.690624Q269.33124 30.690624 270.15936 31.003124Q270.9875 31.315624 271.3781 31.8Q271.76874 32.26875 271.925 32.9875Q272.01874 33.440624 272.01874 34.6125L272.01874 36.95625Q272.01874 39.409374 272.1281 40.065624Q272.2375 40.70625 272.58124 41.3L270.7375 41.3Q270.47186 40.753124 270.39374 40.01875ZM270.2375 36.096874Q269.28436 36.4875 267.3625 36.753124Q266.28436 36.909374 265.83124 37.1125Q265.39374 37.3 265.14374 37.675Q264.89374 38.05 264.89374 38.51875Q264.89374 39.221874 265.425 39.690624Q265.95624 40.159374 266.9875 40.159374Q268.0031 40.159374 268.78436 39.721874Q269.58124 39.26875 269.95624 38.503124Q270.2375 37.89375 270.2375 36.7375L270.2375 36.096874ZM278.45624 39.721874L278.70624 41.284374Q277.97186 41.440624 277.3781 41.440624Q276.425 41.440624 275.89374 41.14375Q275.3781 40.83125 275.15936 40.346874Q274.9406 39.846874 274.9406 38.26875L274.9406 32.3L273.65936 32.3L273.65936 30.925L274.9406 30.925L274.9406 28.3625L276.6906 27.3L276.6906 30.925L278.45624 30.925L278.45624 32.3L276.6906 32.3L276.6906 38.3625Q276.6906 39.1125 276.78436 39.33125Q276.8781 39.534374 277.08124 39.675Q277.3 39.8 277.6906 39.8Q277.97186 39.8 278.45624 39.721874ZM284.45624 39.721874L284.70624 41.284374Q283.97186 41.440624 283.3781 41.440624Q282.425 41.440624 281.89374 41.14375Q281.3781 40.83125 281.15936 40.346874Q280.9406 39.846874 280.9406 38.26875L280.9406 32.3L279.65936 32.3L279.65936 30.925L280.9406 30.925L280.9406 28.3625L282.6906 27.3L282.6906 30.925L284.45624 30.925L284.45624 32.3L282.6906 32.3L282.6906 38.3625Q282.6906 39.1125 282.78436 39.33125Q282.8781 39.534374 283.08124 39.675Q283.3 39.8 283.6906 39.8Q283.97186 39.8 284.45624 39.721874ZM293.72186 37.95625L295.53436 38.190624Q295.1125 39.76875 293.9406 40.659374Q292.78436 41.534374 290.97186 41.534374Q288.70624 41.534374 287.3625 40.14375Q286.03436 38.7375 286.03436 36.20625Q286.03436 33.58125 287.3781 32.14375Q288.72186 30.690624 290.8781 30.690624Q292.95624 30.690624 294.26874 32.1125Q295.59686 33.51875 295.59686 36.096874Q295.59686 36.253124 295.58124 36.565624L287.84686 36.565624Q287.9406 38.26875 288.8156 39.175Q289.6906 40.08125 290.9875 40.08125Q291.95624 40.08125 292.6281 39.58125Q293.3156 39.065624 293.72186 37.95625ZM287.9406 35.1125L293.7375 35.1125Q293.6281 33.815624 293.08124 33.159374Q292.2375 32.14375 290.89374 32.14375Q289.6906 32.14375 288.8625 32.95625Q288.03436 33.753124 287.9406 35.1125ZM297.6125 41.3L297.6125 30.925L299.20624 30.925L299.20624 32.409374Q300.34686 30.690624 302.5031 30.690624Q303.4406 30.690624 304.22186 31.034374Q305.01874 31.3625 305.40936 31.909374Q305.8 32.45625 305.95624 33.20625Q306.05 33.70625 306.05 34.925L306.05 41.3L304.28436 41.3L304.28436 34.9875Q304.28436 33.909374 304.08124 33.378124Q303.8781 32.846874 303.34686 32.534374Q302.83124 32.221874 302.1281 32.221874Q301.0031 32.221874 300.1906 32.940624Q299.3781 33.64375 299.3781 35.628124L299.3781 41.3L297.6125 41.3ZM315.34686 41.3L315.34686 39.9875Q314.3625 41.534374 312.4406 41.534374Q311.20624 41.534374 310.15936 40.846874Q309.1281 40.159374 308.55 38.940624Q307.9875 37.721874 307.9875 36.128124Q307.9875 34.565624 308.5031 33.3Q309.01874 32.034374 310.05 31.3625Q311.09686 30.690624 312.3625 30.690624Q313.3 30.690624 314.03436 31.096874Q314.76874 31.4875 315.2375 32.1125L315.2375 26.9875L316.97186 26.9875L316.97186 41.3L315.34686 41.3ZM309.78436 36.128124Q309.78436 38.1125 310.6281 39.096874Q311.47186 40.08125 312.6125 40.08125Q313.76874 40.08125 314.5656 39.14375Q315.3781 38.20625 315.3781 36.26875Q315.3781 34.14375 314.55 33.14375Q313.7375 32.14375 312.53436 32.14375Q311.3625 32.14375 310.5656 33.1125Q309.78436 34.065624 309.78436 36.128124ZM329.45624 39.721874L329.70624 41.284374Q328.97186 41.440624 328.3781 41.440624Q327.425 41.440624 326.89374 41.14375Q326.3781 40.83125 326.15936 40.346874Q325.9406 39.846874 325.9406 38.26875L325.9406 32.3L324.65936 32.3L324.65936 30.925L325.9406 30.925L325.9406 28.3625L327.6906 27.3L327.6906 30.925L329.45624 30.925L329.45624 32.3L327.6906 32.3L327.6906 38.3625Q327.6906 39.1125 327.78436 39.33125Q327.8781 39.534374 328.08124 39.675Q328.3 39.8 328.6906 39.8Q328.97186 39.8 329.45624 39.721874ZM331.6125 41.3L331.6125 26.9875L333.3781 26.9875L333.3781 32.1125Q334.6125 30.690624 336.4875 30.690624Q337.6281 30.690624 338.47186 31.14375Q339.33124 31.596874 339.6906 32.409374Q340.0656 33.20625 340.0656 34.721874L340.0656 41.3L338.3156 41.3L338.3156 34.721874Q338.3156 33.409374 337.7375 32.815624Q337.15936 32.20625 336.1281 32.20625Q335.34686 32.20625 334.64374 32.6125Q333.95624 33.01875 333.65936 33.721874Q333.3781 34.409374 333.3781 35.628124L333.3781 41.3L331.6125 41.3ZM349.72186 37.95625L351.53436 38.190624Q351.1125 39.76875 349.9406 40.659374Q348.78436 41.534374 346.97186 41.534374Q344.70624 41.534374 343.3625 40.14375Q342.03436 38.7375 342.03436 36.20625Q342.03436 33.58125 343.3781 32.14375Q344.72186 30.690624 346.8781 30.690624Q348.95624 30.690624 350.26874 32.1125Q351.59686 33.51875 351.59686 36.096874Q351.59686 36.253124 351.58124 36.565624L343.84686 36.565624Q343.9406 38.26875 344.8156 39.175Q345.6906 40.08125 346.9875 40.08125Q347.95624 40.08125 348.6281 39.58125Q349.3156 39.065624 349.72186 37.95625ZM343.9406 35.1125L349.7375 35.1125Q349.6281 33.815624 349.08124 33.159374Q348.2375 32.14375 346.89374 32.14375Q345.6906 32.14375 344.8625 32.95625Q344.03436 33.753124 343.9406 35.1125ZM359.6125 41.3L359.6125 26.9875L361.3781 26.9875L361.3781 32.1125Q362.6125 30.690624 364.4875 30.690624Q365.6281 30.690624 366.47186 31.14375Q367.33124 31.596874 367.6906 32.409374Q368.0656 33.20625 368.0656 34.721874L368.0656 41.3L366.3156 41.3L366.3156 34.721874Q366.3156 33.409374 365.7375 32.815624Q365.15936 32.20625 364.1281 32.20625Q363.34686 32.20625 362.64374 32.6125Q361.95624 33.01875 361.65936 33.721874Q361.3781 34.409374 361.3781 35.628124L361.3781 41.3L359.6125 41.3ZM377.39374 40.01875Q376.40936 40.846874 375.5031 41.190624Q374.59686 41.534374 373.5656 41.534374Q371.8625 41.534374 370.9406 40.70625Q370.01874 39.8625 370.01874 38.565624Q370.01874 37.8 370.3625 37.175Q370.72186 36.55 371.28436 36.175Q371.84686 35.784374 372.55 35.58125Q373.0656 35.45625 374.1125 35.315624Q376.2375 35.065624 377.2375 34.721874Q377.2531 34.3625 377.2531 34.253124Q377.2531 33.190624 376.7531 32.7375Q376.08124 32.14375 374.7531 32.14375Q373.5031 32.14375 372.90936 32.58125Q372.33124 33.01875 372.05 34.128124L370.33124 33.89375Q370.5656 32.784374 371.09686 32.1125Q371.6281 31.425 372.64374 31.065624Q373.65936 30.690624 375.0031 30.690624Q376.33124 30.690624 377.15936 31.003124Q377.9875 31.315624 378.3781 31.8Q378.76874 32.26875 378.925 32.9875Q379.01874 33.440624 379.01874 34.6125L379.01874 36.95625Q379.01874 39.409374 379.1281 40.065624Q379.2375 40.70625 379.58124 41.3L377.7375 41.3Q377.47186 40.753124 377.39374 40.01875ZM377.2375 36.096874Q376.28436 36.4875 374.3625 36.753124Q373.28436 36.909374 372.83124 37.1125Q372.39374 37.3 372.14374 37.675Q371.89374 38.05 371.89374 38.51875Q371.89374 39.221874 372.425 39.690624Q372.95624 40.159374 373.9875 40.159374Q375.0031 40.159374 375.78436 39.721874Q376.58124 39.26875 376.95624 38.503124Q377.2375 37.89375 377.2375 36.7375L377.2375 36.096874ZM381.6125 41.3L381.6125 30.925L383.20624 30.925L383.20624 32.409374Q384.34686 30.690624 386.5031 30.690624Q387.4406 30.690624 388.22186 31.034374Q389.01874 31.3625 389.40936 31.909374Q389.8 32.45625 389.95624 33.20625Q390.05 33.70625 390.05 34.925L390.05 41.3L388.28436 41.3L388.28436 34.9875Q388.28436 33.909374 388.08124 33.378124Q387.8781 32.846874 387.34686 32.534374Q386.83124 32.221874 386.1281 32.221874Q385.0031 32.221874 384.1906 32.940624Q383.3781 33.64375 383.3781 35.628124L383.3781 41.3L381.6125 41.3ZM399.34686 41.3L399.34686 39.9875Q398.3625 41.534374 396.4406 41.534374Q395.20624 41.534374 394.15936 40.846874Q393.1281 40.159374 392.55 38.940624Q391.9875 37.721874 391.9875 36.128124Q391.9875 34.565624 392.5031 33.3Q393.01874 32.034374 394.05 31.3625Q395.09686 30.690624 396.3625 30.690624Q397.3 30.690624 398.03436 31.096874Q398.76874 31.4875 399.2375 32.1125L399.2375 26.9875L400.97186 26.9875L400.97186 41.3L399.34686 41.3ZM393.78436 36.128124Q393.78436 38.1125 394.6281 39.096874Q395.47186 40.08125 396.6125 40.08125Q397.76874 40.08125 398.5656 39.14375Q399.3781 38.20625 399.3781 36.26875Q399.3781 34.14375 398.55 33.14375Q397.7375 32.14375 396.53436 32.14375Q395.3625 32.14375 394.5656 33.1125Q393.78436 34.065624 393.78436 36.128124ZM402.90936 38.20625L404.65936 37.925Q404.8 38.971874 405.47186 39.534374Q406.14374 40.08125 407.34686 40.08125Q408.55 40.08125 409.1281 39.596874Q409.72186 39.096874 409.72186 38.440624Q409.72186 37.846874 409.20624 37.503124Q408.84686 37.26875 407.40936 36.909374Q405.47186 36.409374 404.72186 36.065624Q403.9875 35.70625 403.59686 35.08125Q403.20624 34.440624 403.20624 33.675Q403.20624 32.9875 403.51874 32.39375Q403.84686 31.8 404.39374 31.409374Q404.8 31.1125 405.5031 30.909374Q406.22186 30.690624 407.03436 30.690624Q408.2531 30.690624 409.175 31.05Q410.09686 31.39375 410.53436 32.003124Q410.97186 32.596874 411.14374 33.596874L409.425 33.83125Q409.3 33.034374 408.7375 32.596874Q408.175 32.14375 407.15936 32.14375Q405.9406 32.14375 405.425 32.55Q404.90936 32.940624 404.90936 33.471874Q404.90936 33.815624 405.1281 34.096874Q405.33124 34.378124 405.8 34.565624Q406.0656 34.659374 407.34686 35.003124Q409.22186 35.503124 409.95624 35.83125Q410.6906 36.14375 411.1125 36.753124Q411.53436 37.346874 411.53436 38.253124Q411.53436 39.128124 411.01874 39.909374Q410.5031 40.690624 409.53436 41.1125Q408.5656 41.534374 407.34686 41.534374Q405.33124 41.534374 404.26874 40.690624Q403.20624 39.846874 402.90936 38.20625ZM412.9406 37.003124L412.9406 35.2375L418.33124 35.2375L418.33124 37.003124L412.9406 37.003124ZM419.97186 36.1125Q419.97186 33.2375 421.5656 31.846874Q422.90936 30.690624 424.83124 30.690624Q426.97186 30.690624 428.3156 32.096874Q429.675 33.503124 429.675 35.971874Q429.675 37.971874 429.08124 39.128124Q428.4875 40.26875 427.33124 40.909374Q426.1906 41.534374 424.83124 41.534374Q422.64374 41.534374 421.3 40.14375Q419.97186 38.7375 419.97186 36.1125ZM421.76874 36.1125Q421.76874 38.1125 422.6281 39.096874Q423.5031 40.08125 424.83124 40.08125Q426.14374 40.08125 427.0031 39.096874Q427.8781 38.096874 427.8781 36.05Q427.8781 34.128124 427.0031 33.14375Q426.1281 32.14375 424.83124 32.14375Q423.5031 32.14375 422.6281 33.14375Q421.76874 34.128124 421.76874 36.1125ZM431.6125 41.3L431.6125 30.925L433.20624 30.925L433.20624 32.409374Q434.34686 30.690624 436.5031 30.690624Q437.4406 30.690624 438.22186 31.034374Q439.01874 31.3625 439.40936 31.909374Q439.8 32.45625 439.95624 33.20625Q440.05 33.70625 440.05 34.925L440.05 41.3L438.28436 41.3L438.28436 34.9875Q438.28436 33.909374 438.08124 33.378124Q437.8781 32.846874 437.34686 32.534374Q436.83124 32.221874 436.1281 32.221874Q435.0031 32.221874 434.1906 32.940624Q433.3781 33.64375 433.3781 35.628124L433.3781 41.3L431.6125 41.3ZM448.6125 45.26875L448.6125 30.925L450.22186 30.925L450.22186 32.26875Q450.78436 31.4875 451.4875 31.096874Q452.20624 30.690624 453.22186 30.690624Q454.55 30.690624 455.5656 31.378124Q456.58124 32.065624 457.09686 33.315624Q457.6281 34.55 457.6281 36.034374Q457.6281 37.628124 457.05 38.909374Q456.4875 40.175 455.39374 40.8625Q454.3 41.534374 453.09686 41.534374Q452.22186 41.534374 451.51874 41.159374Q450.83124 40.784374 450.3781 40.221874L450.3781 45.26875L448.6125 45.26875ZM450.20624 36.175Q450.20624 38.175 451.01874 39.128124Q451.83124 40.08125 452.9875 40.08125Q454.15936 40.08125 454.9875 39.096874Q455.83124 38.1125 455.83124 36.01875Q455.83124 34.05 455.0031 33.065624Q454.1906 32.065624 453.0656 32.065624Q451.9406 32.065624 451.0656 33.128124Q450.20624 34.175 450.20624 36.175ZM459.59686 41.3L459.59686 30.925L461.175 30.925L461.175 32.503124Q461.78436 31.39375 462.3 31.05Q462.8156 30.690624 463.425 30.690624Q464.3156 30.690624 465.2375 31.253124L464.6281 32.89375Q463.9875 32.503124 463.34686 32.503124Q462.76874 32.503124 462.3 32.8625Q461.84686 33.20625 461.64374 33.815624Q461.3625 34.753124 461.3625 35.8625L461.3625 41.3L459.59686 41.3ZM473.39374 40.01875Q472.40936 40.846874 471.5031 41.190624Q470.59686 41.534374 469.5656 41.534374Q467.8625 41.534374 466.9406 40.70625Q466.01874 39.8625 466.01874 38.565624Q466.01874 37.8 466.3625 37.175Q466.72186 36.55 467.28436 36.175Q467.84686 35.784374 468.55 35.58125Q469.0656 35.45625 470.1125 35.315624Q472.2375 35.065624 473.2375 34.721874Q473.2531 34.3625 473.2531 34.253124Q473.2531 33.190624 472.7531 32.7375Q472.08124 32.14375 470.7531 32.14375Q469.5031 32.14375 468.90936 32.58125Q468.33124 33.01875 468.05 34.128124L466.33124 33.89375Q466.5656 32.784374 467.09686 32.1125Q467.6281 31.425 468.64374 31.065624Q469.65936 30.690624 471.0031 30.690624Q472.33124 30.690624 473.15936 31.003124Q473.9875 31.315624 474.3781 31.8Q474.76874 32.26875 474.925 32.9875Q475.01874 33.440624 475.01874 34.6125L475.01874 36.95625Q475.01874 39.409374 475.1281 40.065624Q475.2375 40.70625 475.58124 41.3L473.7375 41.3Q473.47186 40.753124 473.39374 40.01875ZM473.2375 36.096874Q472.28436 36.4875 470.3625 36.753124Q469.28436 36.909374 468.83124 37.1125Q468.39374 37.3 468.14374 37.675Q467.89374 38.05 467.89374 38.51875Q467.89374 39.221874 468.425 39.690624Q468.95624 40.159374 469.9875 40.159374Q471.0031 40.159374 471.78436 39.721874Q472.58124 39.26875 472.95624 38.503124Q473.2375 37.89375 473.2375 36.7375L473.2375 36.096874ZM484.39374 37.503124L486.1125 37.721874Q485.83124 39.51875 484.65936 40.534374Q483.5031 41.534374 481.8 41.534374Q479.675 41.534374 478.3781 40.14375Q477.08124 38.753124 477.08124 36.159374Q477.08124 34.471874 477.6281 33.221874Q478.1906 31.95625 479.33124 31.33125Q480.47186 30.690624 481.8156 30.690624Q483.5031 30.690624 484.5656 31.55Q485.64374 32.409374 485.95624 33.971874L484.2375 34.2375Q484.0031 33.190624 483.3781 32.675Q482.7531 32.14375 481.8781 32.14375Q480.55 32.14375 479.72186 33.096874Q478.89374 34.05 478.89374 36.096874Q478.89374 38.190624 479.6906 39.14375Q480.4875 40.08125 481.78436 40.08125Q482.8156 40.08125 483.5031 39.45625Q484.20624 38.815624 484.39374 37.503124ZM491.45624 39.721874L491.70624 41.284374Q490.97186 41.440624 490.3781 41.440624Q489.425 41.440624 488.89374 41.14375Q488.3781 40.83125 488.15936 40.346874Q487.9406 39.846874 487.9406 38.26875L487.9406 32.3L486.65936 32.3L486.65936 30.925L487.9406 30.925L487.9406 28.3625L489.6906 27.3L489.6906 30.925L491.45624 30.925L491.45624 32.3L489.6906 32.3L489.6906 38.3625Q489.6906 39.1125 489.78436 39.33125Q489.8781 39.534374 490.08124 39.675Q490.3 39.8 490.6906 39.8Q490.97186 39.8 491.45624 39.721874ZM493.6281 29.003124L493.6281 26.9875L495.39374 26.9875L495.39374 29.003124L493.6281 29.003124ZM493.6281 41.3L493.6281 30.925L495.39374 30.925L495.39374 41.3L493.6281 41.3ZM504.39374 37.503124L506.1125 37.721874Q505.83124 39.51875 504.65936 40.534374Q503.5031 41.534374 501.8 41.534374Q499.675 41.534374 498.3781 40.14375Q497.08124 38.753124 497.08124 36.159374Q497.08124 34.471874 497.6281 33.221874Q498.1906 31.95625 499.33124 31.33125Q500.47186 30.690624 501.8156 30.690624Q503.5031 30.690624 504.5656 31.55Q505.64374 32.409374 505.95624 33.971874L504.2375 34.2375Q504.0031 33.190624 503.3781 32.675Q502.7531 32.14375 501.8781 32.14375Q500.55 32.14375 499.72186 33.096874Q498.89374 34.05 498.89374 36.096874Q498.89374 38.190624 499.6906 39.14375Q500.4875 40.08125 501.78436 40.08125Q502.8156 40.08125 503.5031 39.45625Q504.20624 38.815624 504.39374 37.503124ZM514.39374 40.01875Q513.40936 40.846874 512.5031 41.190624Q511.59686 41.534374 510.5656 41.534374Q508.8625 41.534374 507.9406 40.70625Q507.01874 39.8625 507.01874 38.565624Q507.01874 37.8 507.3625 37.175Q507.72186 36.55 508.28436 36.175Q508.84686 35.784374 509.55 35.58125Q510.0656 35.45625 511.1125 35.315624Q513.2375 35.065624 514.2375 34.721874Q514.2531 34.3625 514.2531 34.253124Q514.2531 33.190624 513.7531 32.7375Q513.08124 32.14375 511.7531 32.14375Q510.5031 32.14375 509.90936 32.58125Q509.33124 33.01875 509.05 34.128124L507.33124 33.89375Q507.5656 32.784374 508.09686 32.1125Q508.6281 31.425 509.64374 31.065624Q510.65936 30.690624 512.0031 30.690624Q513.33124 30.690624 514.15936 31.003124Q514.9875 31.315624 515.3781 31.8Q515.76874 32.26875 515.925 32.9875Q516.01874 33.440624 516.01874 34.6125L516.01874 36.95625Q516.01874 39.409374 516.1281 40.065624Q516.2375 40.70625 516.58124 41.3L514.7375 41.3Q514.47186 40.753124 514.39374 40.01875ZM514.2375 36.096874Q513.28436 36.4875 511.3625 36.753124Q510.28436 36.909374 509.83124 37.1125Q509.39374 37.3 509.14374 37.675Q508.89374 38.05 508.89374 38.51875Q508.89374 39.221874 509.425 39.690624Q509.95624 40.159374 510.9875 40.159374Q512.0031 40.159374 512.78436 39.721874Q513.58124 39.26875 513.95624 38.503124Q514.2375 37.89375 514.2375 36.7375L514.2375 36.096874ZM518.58124 41.3L518.58124 26.9875L520.33124 26.9875L520.33124 41.3L518.58124 41.3ZM521.90936 38.20625L523.65936 37.925Q523.8 38.971874 524.47186 39.534374Q525.14374 40.08125 526.34686 40.08125Q527.55 40.08125 528.1281 39.596874Q528.72186 39.096874 528.72186 38.440624Q528.72186 37.846874 528.20624 37.503124Q527.84686 37.26875 526.40936 36.909374Q524.47186 36.409374 523.72186 36.065624Q522.9875 35.70625 522.59686 35.08125Q522.20624 34.440624 522.20624 33.675Q522.20624 32.9875 522.51874 32.39375Q522.84686 31.8 523.39374 31.409374Q523.8 31.1125 524.5031 30.909374Q525.22186 30.690624 526.03436 30.690624Q527.2531 30.690624 528.175 31.05Q529.09686 31.39375 529.53436 32.003124Q529.97186 32.596874 530.14374 33.596874L528.425 33.83125Q528.3 33.034374 527.7375 32.596874Q527.175 32.14375 526.15936 32.14375Q524.9406 32.14375 524.425 32.55Q523.90936 32.940624 523.90936 33.471874Q523.90936 33.815624 524.1281 34.096874Q524.33124 34.378124 524.8 34.565624Q525.0656 34.659374 526.34686 35.003124Q528.22186 35.503124 528.95624 35.83125Q529.6906 36.14375 530.1125 36.753124Q530.53436 37.346874 530.53436 38.253124Q530.53436 39.128124 530.01874 39.909374Q529.5031 40.690624 528.53436 41.1125Q527.5656 41.534374 526.34686 41.534374Q524.33124 41.534374 523.26874 40.690624Q522.20624 39.846874 521.90936 38.20625ZM535.90936 37.76875Q535.89374 37.425 535.89374 37.253124Q535.89374 36.20625 536.1906 35.45625Q536.40936 34.89375 536.89374 34.315624Q537.2375 33.89375 538.14374 33.096874Q539.0656 32.284374 539.33124 31.815624Q539.6125 31.33125 539.6125 30.76875Q539.6125 29.7375 538.8 28.971874Q538.0031 28.190624 536.84686 28.190624Q535.72186 28.190624 534.97186 28.89375Q534.22186 29.596874 533.9875 31.08125L532.175 30.8625Q532.425 28.8625 533.6281 27.8Q534.83124 26.7375 536.8156 26.7375Q538.925 26.7375 540.175 27.878124Q541.425 29.01875 541.425 30.64375Q541.425 31.58125 540.97186 32.378124Q540.53436 33.159374 539.2531 34.3Q538.39374 35.065624 538.1281 35.425Q537.8781 35.784374 537.7375 36.253124Q537.6125 36.721874 537.59686 37.76875L535.90936 37.76875ZM535.8 41.3L535.8 39.3L537.8 39.3L537.8 41.3L535.8 41.3Z" fill-rule="nonzero"/></svg>