<svg version="1.1" viewBox="0.0 0.0 600.0 371.0" fill="none" stroke="none" stroke-linecap="square" stroke-miterlimit="10" width="600" height="371" xmlns:xlink="http://www.w3.org/1999/xlink" xmlns="http://www.w3.org/2000/svg"><path fill="#ffffff" d="M0 0L600.0 0L600.0 371.0L0 371.0L0 0Z" fill-rule="nonzero"/><path fill="#4285f4" d="M300.0 54.916668C376.58322 54.916668 440.65378 113.057594 448.06787 189.2811L300.0 203.68333Z" fill-rule="nonzero"/><path fill="#ea4335" d="M448.06787 189.2811C452.42285 234.05418 436.2847 278.39343 404.169 309.89227L300.0 203.68333Z" fill-rule="nonzero"/><path fill="#ff6d01" d="M208.86546 86.09925C234.94498 65.88609 267.00433 54.916668 300.0 54.916668L300.0 203.68333Z" fill-rule="nonzero"/><path fill="#34a853" d="M159.24469 155.5225C168.65073 128.03236 185.90076 103.89825 208.86546 86.09925L300.0 203.68333Z" fill-rule="nonzero"/><path fill="#fbbc04" d="M404.169 309.89227C354.94687 358.169 279.00378 366.29987 220.67696 329.5379C162.35013 292.77594 136.92474 220.75502 159.24469 155.5225L300.0 203.68333Z" fill-rule="nonzero"/><path fill="#1a1a1a" d="M19.096874 63.15104L20.159374 63.05729Q20.2375 63.71354 20.51875 64.11979Q20.8 64.52604 21.378124 64.791664Q21.971874 65.041664 22.70625 65.041664Q23.346874 65.041664 23.846874 64.854164Q24.346874 64.65104 24.58125 64.322914Q24.83125 63.979164 24.83125 63.58854Q24.83125 63.18229 24.596874 62.885414Q24.3625 62.572914 23.83125 62.36979Q23.471874 62.229164 22.284374 61.947914Q21.1125 61.666664 20.64375 61.416664Q20.01875 61.08854 19.721874 60.61979Q19.425 60.135414 19.425 59.541664Q19.425 58.90104 19.784374 58.33854Q20.159374 57.760414 20.8625 57.479164Q21.58125 57.18229 22.440624 57.18229Q23.39375 57.18229 24.128124 57.49479Q24.8625 57.791664 25.253124 58.40104Q25.64375 58.99479 25.675 59.74479L24.58125 59.822914Q24.4875 59.010414 23.971874 58.604164Q23.471874 58.18229 22.4875 58.18229Q21.45625 58.18229 20.9875 58.55729Q20.51875 58.93229 20.51875 59.46354Q20.51875 59.93229 20.846874 60.229164Q21.175 60.52604 22.55 60.83854Q23.940624 61.15104 24.45625 61.385414Q25.20625 61.74479 25.565624 62.27604Q25.925 62.791664 25.925 63.49479Q25.925 64.18229 25.534374 64.791664Q25.14375 65.385414 24.409374 65.729164Q23.675 66.05729 22.753124 66.05729Q21.58125 66.05729 20.784374 65.729164Q20.003124 65.385414 19.55 64.697914Q19.1125 64.010414 19.096874 63.15104ZM29.64375 64.979164L29.8 65.90104Q29.346874 65.99479 29.003124 65.99479Q28.425 65.99479 28.1125 65.822914Q27.8 65.635414 27.659374 65.33854Q27.534374 65.041664 27.534374 64.08854L27.534374 60.510414L26.76875 60.510414L26.76875 59.697914L27.534374 59.697914L27.534374 58.15104L28.58125 57.52604L28.58125 59.697914L29.64375 59.697914L29.64375 60.510414L28.58125 60.510414L28.58125 64.15104Q28.58125 64.604164 28.628124 64.729164Q28.690624 64.854164 28.815624 64.93229Q28.940624 65.010414 29.175 65.010414Q29.3625 65.010414 29.64375 64.979164ZM34.425 65.916664L34.425 64.99479Q33.690624 66.05729 32.440624 66.05729Q31.89375 66.05729 31.409374 65.854164Q30.940624 65.635414 30.70625 65.322914Q30.471874 64.99479 30.378124 64.52604Q30.315624 64.229164 30.315624 63.541664L30.315624 59.697914L31.378124 59.697914L31.378124 63.15104Q31.378124 63.96354 31.440624 64.260414Q31.534374 64.666664 31.846874 64.916664Q32.175 65.15104 32.659374 65.15104Q33.128124 65.15104 33.534374 64.916664Q33.95625 64.666664 34.128124 64.24479Q34.315624 63.822914 34.315624 63.02604L34.315624 59.697914L35.3625 59.697914L35.3625 65.916664L34.425 65.916664ZM41.378124 65.916664L41.378124 65.135414Q40.784374 66.05729 39.64375 66.05729Q38.89375 66.05729 38.26875 65.65104Q37.64375 65.229164 37.3 64.49479Q36.95625 63.760414 36.95625 62.80729Q36.95625 61.885414 37.26875 61.11979Q37.58125 60.354164 38.20625 59.96354Q38.83125 59.55729 39.596874 59.55729Q40.159374 59.55729 40.596874 59.791664Q41.034374 60.02604 41.315624 60.40104L41.315624 57.322914L42.3625 57.322914L42.3625 65.916664L41.378124 65.916664ZM38.05 62.80729Q38.05 64.010414 38.55 64.604164Q39.05 65.18229 39.7375 65.18229Q40.425 65.18229 40.909374 64.61979Q41.39375 64.05729 41.39375 62.90104Q41.39375 61.61979 40.89375 61.02604Q40.409374 60.43229 39.690624 60.43229Q38.9875 60.43229 38.51875 61.010414Q38.05 61.572914 38.05 62.80729ZM48.596874 63.916664L49.690624 64.041664Q49.440624 64.99479 48.7375 65.52604Q48.034374 66.05729 46.95625 66.05729Q45.596874 66.05729 44.784374 65.21354Q43.9875 64.36979 43.9875 62.854164Q43.9875 61.291664 44.8 60.43229Q45.6125 59.55729 46.89375 59.55729Q48.14375 59.55729 48.925 60.40104Q49.721874 61.24479 49.721874 62.791664Q49.721874 62.885414 49.721874 63.072914L45.08125 63.072914Q45.14375 64.104164 45.659374 64.65104Q46.175 65.18229 46.95625 65.18229Q47.534374 65.18229 47.940624 64.885414Q48.3625 64.572914 48.596874 63.916664ZM45.14375 62.21354L48.6125 62.21354Q48.55 61.416664 48.221874 61.02604Q47.70625 60.416664 46.909374 60.416664Q46.175 60.416664 45.675 60.90104Q45.190624 61.385414 45.14375 62.21354ZM51.346874 65.916664L51.346874 59.697914L52.284374 59.697914L52.284374 60.572914Q52.971874 59.55729 54.26875 59.55729Q54.83125 59.55729 55.3 59.760414Q55.784374 59.96354 56.01875 60.291664Q56.253124 60.61979 56.346874 61.05729Q56.39375 61.354164 56.39375 62.08854L56.39375 65.916664L55.346874 65.916664L55.346874 62.135414Q55.346874 61.479164 55.221874 61.166664Q55.096874 60.854164 54.784374 60.666664Q54.471874 60.46354 54.05 60.46354Q53.378124 60.46354 52.878124 60.90104Q52.39375 61.322914 52.39375 62.510414L52.39375 65.916664L51.346874 65.916664ZM60.64375 64.979164L60.8 65.90104Q60.346874 65.99479 60.003124 65.99479Q59.425 65.99479 59.1125 65.822914Q58.8 65.635414 58.659374 65.33854Q58.534374 65.041664 58.534374 64.08854L58.534374 60.510414L57.76875 60.510414L57.76875 59.697914L58.534374 59.697914L58.534374 58.15104L59.58125 57.52604L59.58125 59.697914L60.64375 59.697914L60.64375 60.510414L59.58125 60.510414L59.58125 64.15104Q59.58125 64.604164 59.628124 64.729164Q59.690624 64.854164 59.815624 64.93229Q59.940624 65.010414 60.175 65.010414Q60.3625 65.010414 60.64375 64.979164Z" fill-rule="nonzero"/><path fill="#9e9e9e" d="M23.01875 82.916664L21.971874 82.916664L21.971874 76.197914Q21.58125 76.55729 20.95625 76.93229Q20.346874 77.291664 19.8625 77.46354L19.8625 76.447914Q20.7375 76.02604 21.39375 75.447914Q22.065624 74.854164 22.346874 74.291664L23.01875 74.291664L23.01875 82.916664ZM26.05 78.68229Q26.05 77.15104 26.3625 76.229164Q26.675 75.291664 27.284374 74.791664Q27.909374 74.291664 28.846874 74.291664Q29.534374 74.291664 30.05 74.572914Q30.58125 74.854164 30.925 75.385414Q31.26875 75.90104 31.45625 76.65104Q31.64375 77.40104 31.64375 78.68229Q31.64375 80.197914 31.33125 81.11979Q31.034374 82.041664 30.409374 82.55729Q29.8 83.05729 28.846874 83.05729Q27.6125 83.05729 26.89375 82.166664Q26.05 81.104164 26.05 78.68229ZM27.128124 78.68229Q27.128124 80.791664 27.628124 81.49479Q28.128124 82.197914 28.846874 82.197914Q29.58125 82.197914 30.065624 81.49479Q30.565624 80.791664 30.565624 78.68229Q30.565624 76.55729 30.065624 75.86979Q29.58125 75.166664 28.83125 75.166664Q28.1125 75.166664 27.675 75.77604Q27.128124 76.55729 27.128124 78.68229ZM33.64375 82.916664L33.64375 81.71354L34.846874 81.71354L34.846874 82.916664L33.64375 82.916664ZM36.05 80.666664L37.159374 80.572914Q37.284374 81.385414 37.721874 81.791664Q38.175 82.197914 38.815624 82.197914Q39.565624 82.197914 40.096874 81.61979Q40.628124 81.041664 40.628124 80.104164Q40.628124 79.197914 40.1125 78.68229Q39.6125 78.15104 38.784374 78.15104Q38.284374 78.15104 37.8625 78.385414Q37.45625 78.61979 37.221874 78.979164L36.2375 78.854164L37.065624 74.447914L41.346874 74.447914L41.346874 75.447914L37.909374 75.447914L37.45625 77.760414Q38.221874 77.21354 39.065624 77.21354Q40.190624 77.21354 40.95625 77.99479Q41.7375 78.77604 41.7375 80.010414Q41.7375 81.166664 41.065624 82.02604Q40.2375 83.05729 38.815624 83.05729Q37.64375 83.05729 36.89375 82.40104Q36.159374 81.74479 36.05 80.666664ZM43.253124 76.385414Q43.253124 75.46354 43.70625 74.822914Q44.175 74.18229 45.05 74.18229Q45.8625 74.18229 46.39375 74.760414Q46.925 75.33854 46.925 76.447914Q46.925 77.541664 46.378124 78.135414Q45.846874 78.71354 45.065624 78.71354Q44.284374 78.71354 43.76875 78.135414Q43.253124 77.55729 43.253124 76.385414ZM45.08125 74.90104Q44.690624 74.90104 44.425 75.24479Q44.175 75.58854 44.175 76.49479Q44.175 77.322914 44.425 77.666664Q44.690624 77.99479 45.08125 77.99479Q45.4875 77.99479 45.7375 77.65104Q46.003124 77.30729 46.003124 76.416664Q46.003124 75.572914 45.7375 75.24479Q45.471874 74.90104 45.08125 74.90104ZM45.08125 83.229164L49.784374 74.18229L50.64375 74.18229L45.95625 83.229164L45.08125 83.229164ZM48.8 80.90104Q48.8 79.979164 49.253124 79.33854Q49.721874 78.697914 50.6125 78.697914Q51.425 78.697914 51.95625 79.27604Q52.4875 79.83854 52.4875 80.96354Q52.4875 82.05729 51.940624 82.65104Q51.409374 83.229164 50.6125 83.229164Q49.846874 83.229164 49.315624 82.65104Q48.8 82.072914 48.8 80.90104ZM50.64375 79.416664Q50.2375 79.416664 49.971874 79.760414Q49.721874 80.104164 49.721874 81.010414Q49.721874 81.822914 49.9875 82.166664Q50.253124 82.510414 50.64375 82.510414Q51.034374 82.510414 51.3 82.166664Q51.565624 81.822914 51.565624 80.916664Q51.565624 80.08854 51.3 79.760414Q51.034374 79.416664 50.64375 79.416664Z" fill-rule="nonzero"/><path stroke="#757575" stroke-width="1.0" stroke-linecap="butt" d="M18.55 70.416664L145.23334 70.416664L254.24722 69.96579" fill-rule="nonzero"/><path fill="#9e9e9e" d="M256.24722 69.96579C256.24722 68.86122 255.35179 67.96579 254.24722 67.96579C253.14265 67.96579 252.24722 68.86122 252.24722 69.96579C252.24722 71.07036 253.14265 71.96579 254.24722 71.96579C255.35179 71.96579 256.24722 71.07036 256.24722 69.96579" fill-rule="nonzero"/><path fill="#1a1a1a" d="M19.096874 114.236404L20.159374 114.142654Q20.2375 114.798904 20.51875 115.205154Q20.8 115.611404 21.378124 115.87703Q21.971874 116.12703 22.70625 116.12703Q23.346874 116.12703 23.846874 115.93953Q24.346874 115.736404 24.58125 115.40828Q24.83125 115.06453 24.83125 114.673904Q24.83125 114.267654 24.596874 113.97078Q24.3625 113.65828 23.83125 113.455154Q23.471874 113.31453 22.284374 113.03328Q21.1125 112.75203 20.64375 112.50203Q20.01875 112.173904 19.721874 111.705154Q19.425 111.22078 19.425 110.62703Q19.425 109.986404 19.784374 109.423904Q20.159374 108.84578 20.8625 108.56453Q21.58125 108.267654 22.440624 108.267654Q23.39375 108.267654 24.128124 108.580154Q24.8625 108.87703 25.253124 109.486404Q25.64375 110.080154 25.675 110.830154L24.58125 110.90828Q24.4875 110.09578 23.971874 109.68953Q23.471874 109.267654 22.4875 109.267654Q21.45625 109.267654 20.9875 109.642654Q20.51875 110.017654 20.51875 110.548904Q20.51875 111.017654 20.846874 111.31453Q21.175 111.611404 22.55 111.923904Q23.940624 112.236404 24.45625 112.47078Q25.20625 112.830154 25.565624 113.361404Q25.925 113.87703 25.925 114.580154Q25.925 115.267654 25.534374 115.87703Q25.14375 116.47078 24.409374 116.81453Q23.675 117.142654 22.753124 117.142654Q21.58125 117.142654 20.784374 116.81453Q20.003124 116.47078 19.55 115.78328Q19.1125 115.09578 19.096874 114.236404ZM31.596874 115.00203L32.690624 115.12703Q32.440624 116.080154 31.7375 116.611404Q31.034374 117.142654 29.95625 117.142654Q28.596874 117.142654 27.784374 116.298904Q26.9875 115.455154 26.9875 113.93953Q26.9875 112.37703 27.8 111.517654Q28.6125 110.642654 29.89375 110.642654Q31.14375 110.642654 31.925 111.486404Q32.721874 112.330154 32.721874 113.87703Q32.721874 113.97078 32.721874 114.15828L28.08125 114.15828Q28.14375 115.18953 28.659374 115.736404Q29.175 116.267654 29.95625 116.267654Q30.534374 116.267654 30.940624 115.97078Q31.3625 115.65828 31.596874 115.00203ZM28.14375 113.298904L31.6125 113.298904Q31.55 112.50203 31.221874 112.111404Q30.70625 111.50203 29.909374 111.50203Q29.175 111.50203 28.675 111.986404Q28.190624 112.47078 28.14375 113.298904ZM34.346874 117.00203L34.346874 110.78328L35.284374 110.78328L35.284374 111.65828Q35.971874 110.642654 37.26875 110.642654Q37.83125 110.642654 38.3 110.84578Q38.784374 111.048904 39.01875 111.37703Q39.253124 111.705154 39.346874 112.142654Q39.39375 112.43953 39.39375 113.173904L39.39375 117.00203L38.346874 117.00203L38.346874 113.22078Q38.346874 112.56453 38.221874 112.25203Q38.096874 111.93953 37.784374 111.75203Q37.471874 111.548904 37.05 111.548904Q36.378124 111.548904 35.878124 111.986404Q35.39375 112.40828 35.39375 113.59578L35.39375 117.00203L34.346874 117.00203ZM41.346874 109.62703L41.346874 108.40828L42.409374 108.40828L42.409374 109.62703L41.346874 109.62703ZM41.346874 117.00203L41.346874 110.78328L42.409374 110.78328L42.409374 117.00203L41.346874 117.00203ZM43.95625 113.892654Q43.95625 112.15828 44.909374 111.330154Q45.70625 110.642654 46.8625 110.642654Q48.14375 110.642654 48.95625 111.486404Q49.784374 112.31453 49.784374 113.798904Q49.784374 115.00203 49.425 115.68953Q49.065624 116.37703 48.3625 116.767654Q47.675 117.142654 46.8625 117.142654Q45.565624 117.142654 44.753124 116.31453Q43.95625 115.47078 43.95625 113.892654ZM45.034374 113.892654Q45.034374 115.080154 45.55 115.673904Q46.08125 116.267654 46.8625 116.267654Q47.659374 116.267654 48.175 115.673904Q48.690624 115.080154 48.690624 113.861404Q48.690624 112.705154 48.159374 112.111404Q47.64375 111.517654 46.8625 111.517654Q46.08125 111.517654 45.55 112.111404Q45.034374 112.68953 45.034374 113.892654ZM51.33125 117.00203L51.33125 110.78328L52.284374 110.78328L52.284374 111.72078Q52.64375 111.06453 52.940624 110.861404Q53.253124 110.642654 53.628124 110.642654Q54.159374 110.642654 54.70625 110.97078L54.346874 111.955154Q53.95625 111.72078 53.58125 111.72078Q53.221874 111.72078 52.940624 111.93953Q52.675 112.142654 52.565624 112.517654Q52.378124 113.080154 52.378124 113.736404L52.378124 117.00203L51.33125 117.00203ZM58.4875 117.00203L58.4875 108.40828L62.3 108.40828Q63.45625 108.40828 64.05 108.642654Q64.64375 108.87703 65.00313 109.47078Q65.3625 110.048904 65.3625 110.75203Q65.3625 111.673904 64.76875 112.298904Q64.175 112.923904 62.940624 113.09578Q63.39375 113.31453 63.628124 113.517654Q64.12813 113.97078 64.56563 114.65828L66.06563 117.00203L64.62813 117.00203L63.503124 115.22078Q63.003124 114.43953 62.675 114.03328Q62.3625 113.62703 62.096874 113.47078Q61.846874 113.298904 61.58125 113.22078Q61.39375 113.18953 60.95625 113.18953L59.628124 113.18953L59.628124 117.00203L58.4875 117.00203ZM59.628124 112.205154L62.08125 112.205154Q62.846874 112.205154 63.284374 112.048904Q63.7375 111.87703 63.95625 111.53328Q64.19063 111.173904 64.19063 110.75203Q64.19063 110.142654 63.7375 109.75203Q63.3 109.361404 62.346874 109.361404L59.628124 109.361404L59.628124 112.205154ZM71.59688 115.00203L72.69063 115.12703Q72.44063 116.080154 71.7375 116.611404Q71.03438 117.142654 69.95625 117.142654Q68.59688 117.142654 67.78438 116.298904Q66.9875 115.455154 66.9875 113.93953Q66.9875 112.37703 67.8 111.517654Q68.6125 110.642654 69.89375 110.642654Q71.14375 110.642654 71.925 111.486404Q72.72188 112.330154 72.72188 113.87703Q72.72188 113.97078 72.72188 114.15828L68.08125 114.15828Q68.14375 115.18953 68.65938 115.736404Q69.175 116.267654 69.95625 116.267654Q70.53438 116.267654 70.94063 115.97078Q71.3625 115.65828 71.59688 115.00203ZM68.14375 113.298904L71.6125 113.298904Q71.55 112.50203 71.22188 112.111404Q70.70625 111.50203 69.90938 111.50203Q69.175 111.50203 68.675 111.986404Q68.19063 112.47078 68.14375 113.298904ZM73.925 115.142654L74.95625 114.986404Q75.05 115.611404 75.44063 115.93953Q75.84688 116.267654 76.58125 116.267654Q77.3 116.267654 77.64375 115.986404Q78.00313 115.68953 78.00313 115.28328Q78.00313 114.923904 77.69063 114.72078Q77.47188 114.580154 76.6125 114.361404Q75.45625 114.06453 75.00313 113.861404Q74.56563 113.642654 74.33125 113.267654Q74.09688 112.892654 74.09688 112.423904Q74.09688 112.017654 74.28438 111.65828Q74.47188 111.298904 74.8 111.06453Q75.05 110.892654 75.47188 110.767654Q75.89375 110.642654 76.39375 110.642654Q77.1125 110.642654 77.65938 110.861404Q78.22188 111.06453 78.4875 111.423904Q78.75313 111.78328 78.84688 112.37703L77.81563 112.517654Q77.75313 112.048904 77.40938 111.78328Q77.08125 111.50203 76.45625 111.50203Q75.7375 111.50203 75.425 111.75203Q75.1125 111.986404 75.1125 112.31453Q75.1125 112.517654 75.2375 112.673904Q75.37813 112.84578 75.64375 112.955154Q75.8 113.017654 76.58125 113.22078Q77.70625 113.53328 78.14375 113.72078Q78.58125 113.90828 78.83125 114.267654Q79.08125 114.62703 79.08125 115.173904Q79.08125 115.705154 78.76875 116.173904Q78.47188 116.62703 77.89375 116.892654Q77.31563 117.142654 76.58125 117.142654Q75.3625 117.142654 74.72188 116.642654Q74.09688 116.12703 73.925 115.142654ZM84.59688 115.00203L85.69063 115.12703Q85.44063 116.080154 84.7375 116.611404Q84.03438 117.142654 82.95625 117.142654Q81.59688 117.142654 80.78438 116.298904Q79.9875 115.455154 79.9875 113.93953Q79.9875 112.37703 80.8 111.517654Q81.6125 110.642654 82.89375 110.642654Q84.14375 110.642654 84.925 111.486404Q85.72188 112.330154 85.72188 113.87703Q85.72188 113.97078 85.72188 114.15828L81.08125 114.15828Q81.14375 115.18953 81.65938 115.736404Q82.175 116.267654 82.95625 116.267654Q83.53438 116.267654 83.94063 115.97078Q84.3625 115.65828 84.59688 115.00203ZM81.14375 113.298904L84.6125 113.298904Q84.55 112.50203 84.22188 112.111404Q83.70625 111.50203 82.90938 111.50203Q82.175 111.50203 81.675 111.986404Q81.19063 112.47078 81.14375 113.298904ZM91.40938 116.236404Q90.81563 116.736404 90.26875 116.93953Q89.7375 117.142654 89.1125 117.142654Q88.08125 117.142654 87.53438 116.642654Q86.9875 116.142654 86.9875 115.361404Q86.9875 114.90828 87.19063 114.53328Q87.39375 114.142654 87.7375 113.923904Q88.08125 113.68953 88.50313 113.580154Q88.8 113.486404 89.44063 113.40828Q90.70625 113.267654 91.31563 113.048904Q91.31563 112.830154 91.31563 112.78328Q91.31563 112.12703 91.01875 111.861404Q90.6125 111.517654 89.81563 111.517654Q89.08125 111.517654 88.72188 111.78328Q88.3625 112.03328 88.19063 112.68953L87.15938 112.548904Q87.3 111.892654 87.62813 111.486404Q87.95625 111.080154 88.56563 110.861404Q89.175 110.642654 89.97188 110.642654Q90.76875 110.642654 91.26875 110.830154Q91.76875 111.017654 92.00313 111.298904Q92.2375 111.580154 92.33125 112.017654Q92.37813 112.28328 92.37813 112.986404L92.37813 114.392654Q92.37813 115.861404 92.44063 116.25203Q92.51875 116.642654 92.72188 117.00203L91.6125 117.00203Q91.45625 116.673904 91.40938 116.236404ZM91.31563 113.87703Q90.7375 114.111404 89.59688 114.28328Q88.94063 114.37703 88.675 114.50203Q88.40938 114.611404 88.25313 114.830154Q88.1125 115.048904 88.1125 115.330154Q88.1125 115.75203 88.425 116.03328Q88.75313 116.31453 89.3625 116.31453Q89.97188 116.31453 90.44063 116.048904Q90.925 115.78328 91.14375 115.31453Q91.31563 114.955154 91.31563 114.267654L91.31563 113.87703ZM94.33125 117.00203L94.33125 110.78328L95.28438 110.78328L95.28438 111.72078Q95.64375 111.06453 95.94063 110.861404Q96.25313 110.642654 96.62813 110.642654Q97.15938 110.642654 97.70625 110.97078L97.34688 111.955154Q96.95625 111.72078 96.58125 111.72078Q96.22188 111.72078 95.94063 111.93953Q95.675 112.142654 95.56563 112.517654Q95.37813 113.080154 95.37813 113.736404L95.37813 117.00203L94.33125 117.00203ZM102.40938 114.72078L103.44063 114.861404Q103.26875 115.923904 102.56563 116.53328Q101.8625 117.142654 100.84688 117.142654Q99.56563 117.142654 98.78438 116.31453Q98.01875 115.47078 98.01875 113.90828Q98.01875 112.90828 98.34688 112.15828Q98.69063 111.392654 99.3625 111.017654Q100.05 110.642654 100.8625 110.642654Q101.8625 110.642654 102.50313 111.15828Q103.15938 111.65828 103.34688 112.611404L102.31563 112.767654Q102.175 112.142654 101.8 111.830154Q101.425 111.50203 100.89375 111.50203Q100.09688 111.50203 99.59688 112.080154Q99.09688 112.642654 99.09688 113.87703Q99.09688 115.142654 99.58125 115.705154Q100.06563 116.267654 100.83125 116.267654Q101.45625 116.267654 101.8625 115.892654Q102.28438 115.517654 102.40938 114.72078ZM104.34688 117.00203L104.34688 108.40828L105.39375 108.40828L105.39375 111.486404Q106.12813 110.642654 107.25313 110.642654Q107.95625 110.642654 108.45625 110.923904Q108.97188 111.18953 109.19063 111.673904Q109.40938 112.142654 109.40938 113.06453L109.40938 117.00203L108.3625 117.00203L108.3625 113.06453Q108.3625 112.267654 108.01875 111.90828Q107.675 111.548904 107.05 111.548904Q106.58125 111.548904 106.15938 111.798904Q105.75313 112.03328 105.56563 112.455154Q105.39375 112.861404 105.39375 113.59578L105.39375 117.00203L104.34688 117.00203ZM115.59688 115.00203L116.69063 115.12703Q116.44063 116.080154 115.7375 116.611404Q115.03438 117.142654 113.95625 117.142654Q112.59688 117.142654 111.78438 116.298904Q110.9875 115.455154 110.9875 113.93953Q110.9875 112.37703 111.8 111.517654Q112.6125 110.642654 113.89375 110.642654Q115.14375 110.642654 115.925 111.486404Q116.72188 112.330154 116.72188 113.87703Q116.72188 113.97078 116.72188 114.15828L112.08125 114.15828Q112.14375 115.18953 112.65938 115.736404Q113.175 116.267654 113.95625 116.267654Q114.53438 116.267654 114.94063 115.97078Q115.3625 115.65828 115.59688 115.00203ZM112.14375 113.298904L115.6125 113.298904Q115.55 112.50203 115.22188 112.111404Q114.70625 111.50203 113.90938 111.50203Q113.175 111.50203 112.675 111.986404Q112.19063 112.47078 112.14375 113.298904ZM118.33125 117.00203L118.33125 110.78328L119.28438 110.78328L119.28438 111.72078Q119.64375 111.06453 119.94063 110.861404Q120.25313 110.642654 120.62813 110.642654Q121.15938 110.642654 121.70625 110.97078L121.34688 111.955154Q120.95625 111.72078 120.58125 111.72078Q120.22188 111.72078 119.94063 111.93953Q119.675 112.142654 119.56563 112.517654Q119.37813 113.080154 119.37813 113.736404L119.37813 117.00203L118.33125 117.00203Z" fill-rule="nonzero"/><path fill="#9e9e9e" d="M19.20625 132.01765L20.221874 131.9239Q20.346874 132.64265 20.70625 132.97078Q21.08125 133.28328 21.64375 133.28328Q22.128124 133.28328 22.4875 133.06453Q22.8625 132.83015 23.096874 132.47078Q23.33125 132.09578 23.4875 131.47078Q23.64375 130.83015 23.64375 130.1739Q23.64375 130.09578 23.64375 129.95515Q23.33125 130.45515 22.784374 130.78328Q22.2375 131.09578 21.596874 131.09578Q20.51875 131.09578 19.784374 130.33015Q19.05 129.5489 19.05 128.28328Q19.05 126.97078 19.815624 126.173904Q20.596874 125.37703 21.753124 125.37703Q22.58125 125.37703 23.26875 125.830154Q23.971874 126.28328 24.33125 127.12703Q24.690624 127.955154 24.690624 129.53328Q24.690624 131.1739 24.33125 132.15828Q23.9875 133.12703 23.26875 133.64265Q22.565624 134.14265 21.628124 134.14265Q20.6125 134.14265 19.971874 133.59578Q19.33125 133.03328 19.20625 132.01765ZM23.51875 128.22078Q23.51875 127.31453 23.034374 126.78328Q22.565624 126.25203 21.878124 126.25203Q21.175 126.25203 20.64375 126.830154Q20.128124 127.392654 20.128124 128.31453Q20.128124 129.12703 20.628124 129.64265Q21.128124 130.15828 21.846874 130.15828Q22.58125 130.15828 23.05 129.64265Q23.51875 129.12703 23.51875 128.22078ZM26.64375 134.00203L26.64375 132.7989L27.846874 132.7989L27.846874 134.00203L26.64375 134.00203ZM29.05 131.7364L30.1125 131.59578Q30.284374 132.4864 30.721874 132.89265Q31.159374 133.28328 31.784374 133.28328Q32.534374 133.28328 33.05 132.76765Q33.565624 132.25203 33.565624 131.4864Q33.565624 130.76765 33.08125 130.2989Q32.6125 129.81453 31.878124 129.81453Q31.58125 129.81453 31.128124 129.93953L31.253124 129.00203Q31.3625 129.01765 31.425 129.01765Q32.096874 129.01765 32.628124 128.6739Q33.175 128.31453 33.175 127.580154Q33.175 127.00203 32.784374 126.62703Q32.39375 126.236404 31.76875 126.236404Q31.159374 126.236404 30.7375 126.62703Q30.33125 127.017654 30.221874 127.78328L29.159374 127.59578Q29.346874 126.548904 30.034374 125.97078Q30.721874 125.37703 31.7375 125.37703Q32.440624 125.37703 33.034374 125.68953Q33.628124 125.986404 33.940624 126.50203Q34.253124 127.017654 34.253124 127.611404Q34.253124 128.15828 33.95625 128.62703Q33.659374 129.08015 33.08125 129.34578Q33.83125 129.51765 34.253124 130.08015Q34.675 130.62703 34.675 131.47078Q34.675 132.59578 33.846874 133.37703Q33.034374 134.15828 31.784374 134.15828Q30.659374 134.15828 29.909374 133.4864Q29.159374 132.7989 29.05 131.7364ZM36.253124 127.47078Q36.253124 126.548904 36.70625 125.90828Q37.175 125.267654 38.05 125.267654Q38.8625 125.267654 39.39375 125.84578Q39.925 126.423904 39.925 127.53328Q39.925 128.62703 39.378124 129.22078Q38.846874 129.7989 38.065624 129.7989Q37.284374 129.7989 36.76875 129.22078Q36.253124 128.64265 36.253124 127.47078ZM38.08125 125.986404Q37.690624 125.986404 37.425 126.330154Q37.175 126.673904 37.175 127.580154Q37.175 128.40828 37.425 128.75203Q37.690624 129.08015 38.08125 129.08015Q38.4875 129.08015 38.7375 128.7364Q39.003124 128.39265 39.003124 127.50203Q39.003124 126.65828 38.7375 126.330154Q38.471874 125.986404 38.08125 125.986404ZM38.08125 134.31453L42.784374 125.267654L43.64375 125.267654L38.95625 134.31453L38.08125 134.31453ZM41.8 131.9864Q41.8 131.06453 42.253124 130.4239Q42.721874 129.78328 43.6125 129.78328Q44.425 129.78328 44.95625 130.3614Q45.4875 130.9239 45.4875 132.0489Q45.4875 133.14265 44.940624 133.7364Q44.409374 134.31453 43.6125 134.31453Q42.846874 134.31453 42.315624 133.7364Q41.8 133.15828 41.8 131.9864ZM43.64375 130.50203Q43.2375 130.50203 42.971874 130.84578Q42.721874 131.18953 42.721874 132.09578Q42.721874 132.90828 42.9875 133.25203Q43.253124 133.59578 43.64375 133.59578Q44.034374 133.59578 44.3 133.25203Q44.565624 132.90828 44.565624 132.00203Q44.565624 131.1739 44.3 130.84578Q44.034374 130.50203 43.64375 130.50203Z" fill-rule="nonzero"/><path stroke="#757575" stroke-width="1.0" stroke-linecap="butt" d="M18.55 121.50203L145.23334 121.50203L185.02205 121.50203" fill-rule="nonzero"/><path fill="#9e9e9e" d="M187.02205 121.50203C187.02205 120.39746 186.12662 119.50203 185.02205 119.50203C183.91747 119.50203 183.02205 120.39746 183.02205 121.50203C183.02205 122.6066 183.91747 123.50203 185.02205 123.50203C186.12662 123.50203 187.02205 122.6066 187.02205 121.50203" fill-rule="nonzero"/><path fill="#1a1a1a" d="M19.471874 318.74518L19.471874 310.15143L22.721874 310.15143Q23.565624 310.15143 24.01875 310.22955Q24.659374 310.33893 25.08125 310.6358Q25.51875 310.93268 25.76875 311.46393Q26.034374 311.99518 26.034374 312.6358Q26.034374 313.72955 25.33125 314.49518Q24.64375 315.24518 22.815624 315.24518L20.6125 315.24518L20.6125 318.74518L19.471874 318.74518ZM20.6125 314.24518L22.83125 314.24518Q23.940624 314.24518 24.39375 313.83893Q24.8625 313.41705 24.8625 312.66705Q24.8625 312.1358 24.58125 311.7608Q24.315624 311.37018 23.878124 311.24518Q23.58125 311.16705 22.815624 311.16705L20.6125 311.16705L20.6125 314.24518ZM27.346874 318.74518L27.346874 310.15143L28.39375 310.15143L28.39375 313.22955Q29.128124 312.3858 30.253124 312.3858Q30.95625 312.3858 31.45625 312.66705Q31.971874 312.93268 32.190624 313.41705Q32.409374 313.8858 32.409374 314.80768L32.409374 318.74518L31.3625 318.74518L31.3625 314.80768Q31.3625 314.0108 31.01875 313.65143Q30.675 313.29205 30.05 313.29205Q29.58125 313.29205 29.159374 313.54205Q28.753124 313.77643 28.565624 314.1983Q28.39375 314.60455 28.39375 315.33893L28.39375 318.74518L27.346874 318.74518ZM34.471874 318.74518L34.471874 310.15143L37.440624 310.15143Q38.440624 310.15143 38.971874 310.27643Q39.70625 310.4483 40.221874 310.8858Q40.909374 311.46393 41.2375 312.37018Q41.58125 313.2608 41.58125 314.40143Q41.58125 315.3858 41.346874 316.1358Q41.128124 316.8858 40.76875 317.3858Q40.409374 317.8858 39.971874 318.16705Q39.55 318.4483 38.95625 318.60455Q38.3625 318.74518 37.58125 318.74518L34.471874 318.74518ZM35.6125 317.72955L37.440624 317.72955Q38.3 317.72955 38.784374 317.5733Q39.26875 317.41705 39.55 317.12018Q39.95625 316.72955 40.175 316.04205Q40.409374 315.35455 40.409374 314.3858Q40.409374 313.04205 39.95625 312.3233Q39.51875 311.58893 38.89375 311.33893Q38.425 311.16705 37.425 311.16705L35.6125 311.16705L35.6125 317.72955ZM46.096874 315.97955L47.159374 315.8858Q47.2375 316.54205 47.51875 316.9483Q47.8 317.35455 48.378124 317.62018Q48.971874 317.87018 49.70625 317.87018Q50.346874 317.87018 50.846874 317.68268Q51.346874 317.47955 51.58125 317.15143Q51.83125 316.80768 51.83125 316.41705Q51.83125 316.0108 51.596874 315.71393Q51.3625 315.40143 50.83125 315.1983Q50.471874 315.05768 49.284374 314.77643Q48.1125 314.49518 47.64375 314.24518Q47.01875 313.91705 46.721874 313.4483Q46.425 312.96393 46.425 312.37018Q46.425 311.72955 46.784374 311.16705Q47.159374 310.58893 47.8625 310.30768Q48.58125 310.0108 49.440624 310.0108Q50.39375 310.0108 51.128124 310.3233Q51.8625 310.62018 52.253124 311.22955Q52.64375 311.8233 52.675 312.5733L51.58125 312.65143Q51.4875 311.83893 50.971874 311.43268Q50.471874 311.0108 49.4875 311.0108Q48.45625 311.0108 47.9875 311.3858Q47.51875 311.7608 47.51875 312.29205Q47.51875 312.7608 47.846874 313.05768Q48.175 313.35455 49.55 313.66705Q50.940624 313.97955 51.45625 314.21393Q52.20625 314.5733 52.565624 315.10455Q52.925 315.62018 52.925 316.3233Q52.925 317.0108 52.534374 317.62018Q52.14375 318.21393 51.409374 318.55768Q50.675 318.8858 49.753124 318.8858Q48.58125 318.8858 47.784374 318.55768Q47.003124 318.21393 46.55 317.52643Q46.1125 316.83893 46.096874 315.97955ZM56.64375 317.80768L56.8 318.72955Q56.346874 318.8233 56.003124 318.8233Q55.425 318.8233 55.1125 318.65143Q54.8 318.46393 54.659374 318.16705Q54.534374 317.87018 54.534374 316.91705L54.534374 313.33893L53.76875 313.33893L53.76875 312.52643L54.534374 312.52643L54.534374 310.97955L55.58125 310.35455L55.58125 312.52643L56.64375 312.52643L56.64375 313.33893L55.58125 313.33893L55.58125 316.97955Q55.58125 317.43268 55.628124 317.55768Q55.690624 317.68268 55.815624 317.7608Q55.940624 317.83893 56.175 317.83893Q56.3625 317.83893 56.64375 317.80768ZM61.425 318.74518L61.425 317.8233Q60.690624 318.8858 59.440624 318.8858Q58.89375 318.8858 58.409374 318.68268Q57.940624 318.46393 57.70625 318.15143Q57.471874 317.8233 57.378124 317.35455Q57.315624 317.05768 57.315624 316.37018L57.315624 312.52643L58.378124 312.52643L58.378124 315.97955Q58.378124 316.79205 58.440624 317.08893Q58.534374 317.49518 58.846874 317.74518Q59.175 317.97955 59.659374 317.97955Q60.128124 317.97955 60.534374 317.74518Q60.95625 317.49518 61.128124 317.0733Q61.315624 316.65143 61.315624 315.85455L61.315624 312.52643L62.3625 312.52643L62.3625 318.74518L61.425 318.74518ZM68.37813 318.74518L68.37813 317.96393Q67.78438 318.8858 66.64375 318.8858Q65.89375 318.8858 65.26875 318.47955Q64.64375 318.05768 64.3 317.3233Q63.95625 316.58893 63.95625 315.6358Q63.95625 314.71393 64.26875 313.9483Q64.58125 313.18268 65.20625 312.79205Q65.83125 312.3858 66.59688 312.3858Q67.15938 312.3858 67.59688 312.62018Q68.03438 312.85455 68.31563 313.22955L68.31563 310.15143L69.3625 310.15143L69.3625 318.74518L68.37813 318.74518ZM65.05 315.6358Q65.05 316.83893 65.55 317.43268Q66.05 318.0108 66.7375 318.0108Q67.425 318.0108 67.90938 317.4483Q68.39375 316.8858 68.39375 315.72955Q68.39375 314.4483 67.89375 313.85455Q67.40938 313.2608 66.69063 313.2608Q65.9875 313.2608 65.51875 313.83893Q65.05 314.40143 65.05 315.6358ZM75.59688 316.74518L76.69063 316.87018Q76.44063 317.8233 75.7375 318.35455Q75.03438 318.8858 73.95625 318.8858Q72.59688 318.8858 71.78438 318.04205Q70.9875 317.1983 70.9875 315.68268Q70.9875 314.12018 71.8 313.2608Q72.6125 312.3858 73.89375 312.3858Q75.14375 312.3858 75.925 313.22955Q76.72188 314.0733 76.72188 315.62018Q76.72188 315.71393 76.72188 315.90143L72.08125 315.90143Q72.14375 316.93268 72.65938 317.47955Q73.175 318.0108 73.95625 318.0108Q74.53438 318.0108 74.94063 317.71393Q75.3625 317.40143 75.59688 316.74518ZM72.14375 315.04205L75.6125 315.04205Q75.55 314.24518 75.22188 313.85455Q74.70625 313.24518 73.90938 313.24518Q73.175 313.24518 72.675 313.72955Q72.19063 314.21393 72.14375 315.04205ZM78.34688 318.74518L78.34688 312.52643L79.28438 312.52643L79.28438 313.40143Q79.97188 312.3858 81.26875 312.3858Q81.83125 312.3858 82.3 312.58893Q82.78438 312.79205 83.01875 313.12018Q83.25313 313.4483 83.34688 313.8858Q83.39375 314.18268 83.39375 314.91705L83.39375 318.74518L82.34688 318.74518L82.34688 314.96393Q82.34688 314.30768 82.22188 313.99518Q82.09688 313.68268 81.78438 313.49518Q81.47188 313.29205 81.05 313.29205Q80.37813 313.29205 79.87813 313.72955Q79.39375 314.15143 79.39375 315.33893L79.39375 318.74518L78.34688 318.74518ZM87.64375 317.80768L87.8 318.72955Q87.34688 318.8233 87.00313 318.8233Q86.425 318.8233 86.1125 318.65143Q85.8 318.46393 85.65938 318.16705Q85.53438 317.87018 85.53438 316.91705L85.53438 313.33893L84.76875 313.33893L84.76875 312.52643L85.53438 312.52643L85.53438 310.97955L86.58125 310.35455L86.58125 312.52643L87.64375 312.52643L87.64375 313.33893L86.58125 313.33893L86.58125 316.97955Q86.58125 317.43268 86.62813 317.55768Q86.69063 317.68268 86.81563 317.7608Q86.94063 317.83893 87.175 317.83893Q87.3625 317.83893 87.64375 317.80768Z" fill-rule="nonzero"/><path fill="#9e9e9e" d="M22.425 335.74518L22.425 333.68268L18.70625 333.68268L18.70625 332.71393L22.628124 327.15143L23.4875 327.15143L23.4875 332.71393L24.64375 332.71393L24.64375 333.68268L23.4875 333.68268L23.4875 335.74518L22.425 335.74518ZM22.425 332.71393L22.425 328.85455L19.7375 332.71393L22.425 332.71393ZM31.596874 334.72955L31.596874 335.74518L25.909374 335.74518Q25.909374 335.37018 26.034374 335.0108Q26.253124 334.43268 26.721874 333.87018Q27.20625 333.30768 28.1125 332.5733Q29.51875 331.41705 30.003124 330.74518Q30.503124 330.0733 30.503124 329.47955Q30.503124 328.85455 30.05 328.43268Q29.596874 327.99518 28.878124 327.99518Q28.1125 327.99518 27.659374 328.4483Q27.20625 328.90143 27.190624 329.71393L26.1125 329.60455Q26.221874 328.3858 26.940624 327.7608Q27.675 327.12018 28.909374 327.12018Q30.14375 327.12018 30.8625 327.80768Q31.58125 328.49518 31.58125 329.5108Q31.58125 330.02643 31.3625 330.52643Q31.159374 331.0108 30.659374 331.5733Q30.175 332.12018 29.05 333.0733Q28.096874 333.87018 27.815624 334.16705Q27.55 334.4483 27.378124 334.72955L31.596874 334.72955ZM33.64375 335.74518L33.64375 334.54205L34.846874 334.54205L34.846874 335.74518L33.64375 335.74518ZM41.51875 329.2608L40.471874 329.33893Q40.33125 328.71393 40.08125 328.43268Q39.64375 327.97955 39.01875 327.97955Q38.51875 327.97955 38.128124 328.2608Q37.64375 328.6358 37.346874 329.33893Q37.065624 330.02643 37.05 331.30768Q37.425 330.72955 37.971874 330.4483Q38.534374 330.16705 39.14375 330.16705Q40.190624 330.16705 40.925 330.9483Q41.675 331.72955 41.675 332.9483Q41.675 333.7608 41.315624 334.46393Q40.971874 335.15143 40.3625 335.52643Q39.753124 335.8858 38.9875 335.8858Q37.659374 335.8858 36.83125 334.91705Q36.003124 333.9483 36.003124 331.72955Q36.003124 329.22955 36.925 328.10455Q37.721874 327.12018 39.08125 327.12018Q40.096874 327.12018 40.7375 327.6983Q41.39375 328.2608 41.51875 329.2608ZM37.221874 332.96393Q37.221874 333.5108 37.440624 334.0108Q37.675 334.49518 38.08125 334.7608Q38.503124 335.02643 38.971874 335.02643Q39.628124 335.02643 40.1125 334.49518Q40.596874 333.9483 40.596874 333.02643Q40.596874 332.1358 40.1125 331.62018Q39.64375 331.10455 38.925 331.10455Q38.20625 331.10455 37.70625 331.62018Q37.221874 332.1358 37.221874 332.96393ZM43.253124 329.21393Q43.253124 328.29205 43.70625 327.65143Q44.175 327.0108 45.05 327.0108Q45.8625 327.0108 46.39375 327.58893Q46.925 328.16705 46.925 329.27643Q46.925 330.37018 46.378124 330.96393Q45.846874 331.54205 45.065624 331.54205Q44.284374 331.54205 43.76875 330.96393Q43.253124 330.3858 43.253124 329.21393ZM45.08125 327.72955Q44.690624 327.72955 44.425 328.0733Q44.175 328.41705 44.175 329.3233Q44.175 330.15143 44.425 330.49518Q44.690624 330.8233 45.08125 330.8233Q45.4875 330.8233 45.7375 330.47955Q46.003124 330.1358 46.003124 329.24518Q46.003124 328.40143 45.7375 328.0733Q45.471874 327.72955 45.08125 327.72955ZM45.08125 336.05768L49.784374 327.0108L50.64375 327.0108L45.95625 336.05768L45.08125 336.05768ZM48.8 333.72955Q48.8 332.80768 49.253124 332.16705Q49.721874 331.52643 50.6125 331.52643Q51.425 331.52643 51.95625 332.10455Q52.4875 332.66705 52.4875 333.79205Q52.4875 334.8858 51.940624 335.47955Q51.409374 336.05768 50.6125 336.05768Q49.846874 336.05768 49.315624 335.47955Q48.8 334.90143 48.8 333.72955ZM50.64375 332.24518Q50.2375 332.24518 49.971874 332.58893Q49.721874 332.93268 49.721874 333.83893Q49.721874 334.65143 49.9875 334.99518Q50.253124 335.33893 50.64375 335.33893Q51.034374 335.33893 51.3 334.99518Q51.565624 334.65143 51.565624 333.74518Q51.565624 332.91705 51.3 332.58893Q51.034374 332.24518 50.64375 332.24518Z" fill-rule="nonzero"/><path stroke="#757575" stroke-width="1.0" stroke-linecap="butt" d="M18.55 323.24518L145.23334 323.24518L224.64311 323.24518" fill-rule="nonzero"/><path fill="#9e9e9e" d="M226.64311 323.24518C226.64311 322.14062 225.74768 321.24518 224.64311 321.24518C223.53854 321.24518 222.64311 322.14062 222.64311 323.24518C222.64311 324.34976 223.53854 325.24518 224.64311 325.24518C225.74768 325.24518 226.64311 324.34976 226.64311 323.24518" fill-rule="nonzero"/><path fill="#1a1a1a" d="M457.40314 94.52348L457.40314 85.92973L463.60626 85.92973L463.60626 86.94536L458.54376 86.94536L458.54376 89.57036L463.29376 89.57036L463.29376 90.58598L458.54376 90.58598L458.54376 93.50786L463.8094 93.50786L463.8094 94.52348L457.40314 94.52348ZM469.3094 93.75786Q468.71564 94.25786 468.16876 94.46098Q467.6375 94.66411 467.0125 94.66411Q465.98126 94.66411 465.4344 94.16411Q464.8875 93.66411 464.8875 92.88286Q464.8875 92.42973 465.09064 92.05473Q465.29376 91.66411 465.6375 91.44536Q465.98126 91.21098 466.40314 91.10161Q466.7 91.00786 467.34064 90.92973Q468.60626 90.78911 469.21564 90.57036Q469.21564 90.35161 469.21564 90.30473Q469.21564 89.64848 468.91876 89.38286Q468.5125 89.03911 467.71564 89.03911Q466.98126 89.03911 466.6219 89.30473Q466.2625 89.55473 466.09064 90.21098L465.0594 90.07036Q465.2 89.41411 465.52814 89.00786Q465.85626 88.60161 466.46564 88.38286Q467.075 88.16411 467.8719 88.16411Q468.66876 88.16411 469.16876 88.35161Q469.66876 88.53911 469.90314 88.82036Q470.1375 89.10161 470.23126 89.53911Q470.27814 89.80473 470.27814 90.50786L470.27814 91.91411Q470.27814 93.38286 470.34064 93.77348Q470.41876 94.16411 470.6219 94.52348L469.5125 94.52348Q469.35626 94.19536 469.3094 93.75786ZM469.21564 91.39848Q468.6375 91.63286 467.4969 91.80473Q466.84064 91.89848 466.575 92.02348Q466.3094 92.13286 466.15314 92.35161Q466.0125 92.57036 466.0125 92.85161Q466.0125 93.27348 466.325 93.55473Q466.65314 93.83598 467.2625 93.83598Q467.8719 93.83598 468.34064 93.57036Q468.825 93.30473 469.04376 92.83598Q469.21564 92.47661 469.21564 91.78911L469.21564 91.39848ZM472.23126 94.52348L472.23126 88.30473L473.1844 88.30473L473.1844 89.24223Q473.54376 88.58598 473.84064 88.38286Q474.15314 88.16411 474.52814 88.16411Q475.0594 88.16411 475.60626 88.49223L475.2469 89.47661Q474.85626 89.24223 474.48126 89.24223Q474.1219 89.24223 473.84064 89.46098Q473.575 89.66411 473.46564 90.03911Q473.27814 90.60161 473.27814 91.25786L473.27814 94.52348L472.23126 94.52348ZM476.21564 94.52348L476.21564 85.92973L477.27814 85.92973L477.27814 94.52348L476.21564 94.52348ZM479.2 96.91411L479.075 95.92973Q479.41876 96.02348 479.6844 96.02348Q480.02814 96.02348 480.23126 95.89848Q480.45 95.78911 480.59064 95.58598Q480.6844 95.41411 480.91876 94.78911Q480.9344 94.71098 481.0125 94.53911L478.6375 88.30473L479.77814 88.30473L481.075 91.89848Q481.325 92.58598 481.52814 93.35161Q481.71564 92.61723 481.96564 91.92973L483.29376 88.30473L484.34064 88.30473L481.98126 94.63286Q481.59064 95.64848 481.3875 96.03911Q481.10626 96.57036 480.73126 96.80473Q480.3719 97.05473 479.8719 97.05473Q479.575 97.05473 479.2 96.91411ZM488.3875 94.52348L488.3875 85.92973L492.2 85.92973Q493.35626 85.92973 493.95 86.16411Q494.54376 86.39848 494.90314 86.99223Q495.2625 87.57036 495.2625 88.27348Q495.2625 89.19536 494.66876 89.82036Q494.075 90.44536 492.84064 90.61723Q493.29376 90.83598 493.52814 91.03911Q494.02814 91.49223 494.46564 92.17973L495.96564 94.52348L494.52814 94.52348L493.40314 92.74223Q492.90314 91.96098 492.575 91.55473Q492.2625 91.14848 491.9969 90.99223Q491.7469 90.82036 491.48126 90.74223Q491.29376 90.71098 490.85626 90.71098L489.52814 90.71098L489.52814 94.52348L488.3875 94.52348ZM489.52814 89.72661L491.98126 89.72661Q492.7469 89.72661 493.1844 89.57036Q493.6375 89.39848 493.85626 89.05473Q494.09064 88.69536 494.09064 88.27348Q494.09064 87.66411 493.6375 87.27348Q493.2 86.88286 492.2469 86.88286L489.52814 86.88286L489.52814 89.72661ZM501.4969 92.52348L502.59064 92.64848Q502.34064 93.60161 501.6375 94.13286Q500.9344 94.66411 499.85626 94.66411Q498.4969 94.66411 497.6844 93.82036Q496.8875 92.97661 496.8875 91.46098Q496.8875 89.89848 497.7 89.03911Q498.5125 88.16411 499.79376 88.16411Q501.04376 88.16411 501.825 89.00786Q502.6219 89.85161 502.6219 91.39848Q502.6219 91.49223 502.6219 91.67973L497.98126 91.67973Q498.04376 92.71098 498.5594 93.25786Q499.075 93.78911 499.85626 93.78911Q500.4344 93.78911 500.84064 93.49223Q501.2625 93.17973 501.4969 92.52348ZM498.04376 90.82036L501.5125 90.82036Q501.45 90.02348 501.1219 89.63286Q500.60626 89.02348 499.8094 89.02348Q499.075 89.02348 498.575 89.50786Q498.09064 89.99223 498.04376 90.82036ZM503.825 92.66411L504.85626 92.50786Q504.95 93.13286 505.34064 93.46098Q505.7469 93.78911 506.48126 93.78911Q507.2 93.78911 507.54376 93.50786Q507.90314 93.21098 507.90314 92.80473Q507.90314 92.44536 507.59064 92.24223Q507.3719 92.10161 506.5125 91.88286Q505.35626 91.58598 504.90314 91.38286Q504.46564 91.16411 504.23126 90.78911Q503.9969 90.41411 503.9969 89.94536Q503.9969 89.53911 504.1844 89.17973Q504.3719 88.82036 504.7 88.58598Q504.95 88.41411 505.3719 88.28911Q505.79376 88.16411 506.29376 88.16411Q507.0125 88.16411 507.5594 88.38286Q508.1219 88.58598 508.3875 88.94536Q508.65314 89.30473 508.7469 89.89848L507.71564 90.03911Q507.65314 89.57036 507.3094 89.30473Q506.98126 89.02348 506.35626 89.02348Q505.6375 89.02348 505.325 89.27348Q505.0125 89.50786 505.0125 89.83598Q505.0125 90.03911 505.1375 90.19536Q505.27814 90.36723 505.54376 90.47661Q505.7 90.53911 506.48126 90.74223Q507.60626 91.05473 508.04376 91.24223Q508.48126 91.42973 508.73126 91.78911Q508.98126 92.14848 508.98126 92.69536Q508.98126 93.22661 508.66876 93.69536Q508.3719 94.14848 507.79376 94.41411Q507.21564 94.66411 506.48126 94.66411Q505.2625 94.66411 504.6219 94.16411Q503.9969 93.64848 503.825 92.66411ZM514.4969 92.52348L515.59064 92.64848Q515.34064 93.60161 514.6375 94.13286Q513.9344 94.66411 512.85626 94.66411Q511.4969 94.66411 510.6844 93.82036Q509.8875 92.97661 509.8875 91.46098Q509.8875 89.89848 510.7 89.03911Q511.5125 88.16411 512.79376 88.16411Q514.04376 88.16411 514.825 89.00786Q515.6219 89.85161 515.6219 91.39848Q515.6219 91.49223 515.6219 91.67973L510.98126 91.67973Q511.04376 92.71098 511.5594 93.25786Q512.075 93.78911 512.85626 93.78911Q513.4344 93.78911 513.84064 93.49223Q514.2625 93.17973 514.4969 92.52348ZM511.04376 90.82036L514.5125 90.82036Q514.45 90.02348 514.1219 89.63286Q513.60626 89.02348 512.8094 89.02348Q512.075 89.02348 511.575 89.50786Q511.09064 89.99223 511.04376 90.82036ZM521.3094 93.75786Q520.71564 94.25786 520.16876 94.46098Q519.6375 94.66411 519.0125 94.66411Q517.98126 94.66411 517.4344 94.16411Q516.8875 93.66411 516.8875 92.88286Q516.8875 92.42973 517.09064 92.05473Q517.29376 91.66411 517.6375 91.44536Q517.98126 91.21098 518.40314 91.10161Q518.7 91.00786 519.34064 90.92973Q520.60626 90.78911 521.21564 90.57036Q521.21564 90.35161 521.21564 90.30473Q521.21564 89.64848 520.91876 89.38286Q520.5125 89.03911 519.71564 89.03911Q518.98126 89.03911 518.6219 89.30473Q518.2625 89.55473 518.09064 90.21098L517.0594 90.07036Q517.2 89.41411 517.52814 89.00786Q517.85626 88.60161 518.46564 88.38286Q519.075 88.16411 519.8719 88.16411Q520.66876 88.16411 521.16876 88.35161Q521.66876 88.53911 521.90314 88.82036Q522.1375 89.10161 522.23126 89.53911Q522.27814 89.80473 522.27814 90.50786L522.27814 91.91411Q522.27814 93.38286 522.34064 93.77348Q522.41876 94.16411 522.6219 94.52348L521.5125 94.52348Q521.35626 94.19536 521.3094 93.75786ZM521.21564 91.39848Q520.6375 91.63286 519.4969 91.80473Q518.84064 91.89848 518.575 92.02348Q518.3094 92.13286 518.15314 92.35161Q518.0125 92.57036 518.0125 92.85161Q518.0125 93.27348 518.325 93.55473Q518.65314 93.83598 519.2625 93.83598Q519.8719 93.83598 520.34064 93.57036Q520.825 93.30473 521.04376 92.83598Q521.21564 92.47661 521.21564 91.78911L521.21564 91.39848ZM524.23126 94.52348L524.23126 88.30473L525.1844 88.30473L525.1844 89.24223Q525.54376 88.58598 525.84064 88.38286Q526.15314 88.16411 526.52814 88.16411Q527.0594 88.16411 527.60626 88.49223L527.2469 89.47661Q526.85626 89.24223 526.48126 89.24223Q526.1219 89.24223 525.84064 89.46098Q525.575 89.66411 525.46564 90.03911Q525.27814 90.60161 525.27814 91.25786L525.27814 94.52348L524.23126 94.52348ZM532.3094 92.24223L533.34064 92.38286Q533.16876 93.44536 532.46564 94.05473Q531.7625 94.66411 530.7469 94.66411Q529.46564 94.66411 528.6844 93.83598Q527.91876 92.99223 527.91876 91.42973Q527.91876 90.42973 528.2469 89.67973Q528.59064 88.91411 529.2625 88.53911Q529.95 88.16411 530.7625 88.16411Q531.7625 88.16411 532.40314 88.67973Q533.0594 89.17973 533.2469 90.13286L532.21564 90.28911Q532.075 89.66411 531.7 89.35161Q531.325 89.02348 530.79376 89.02348Q529.9969 89.02348 529.4969 89.60161Q528.9969 90.16411 528.9969 91.39848Q528.9969 92.66411 529.48126 93.22661Q529.96564 93.78911 530.73126 93.78911Q531.35626 93.78911 531.7625 93.41411Q532.1844 93.03911 532.3094 92.24223ZM534.2469 94.52348L534.2469 85.92973L535.29376 85.92973L535.29376 89.00786Q536.02814 88.16411 537.15314 88.16411Q537.85626 88.16411 538.35626 88.44536Q538.8719 88.71098 539.09064 89.19536Q539.3094 89.66411 539.3094 90.58598L539.3094 94.52348L538.2625 94.52348L538.2625 90.58598Q538.2625 89.78911 537.91876 89.42973Q537.575 89.07036 536.95 89.07036Q536.48126 89.07036 536.0594 89.32036Q535.65314 89.55473 535.46564 89.97661Q535.29376 90.38286 535.29376 91.11723L535.29376 94.52348L534.2469 94.52348ZM545.4969 92.52348L546.59064 92.64848Q546.34064 93.60161 545.6375 94.13286Q544.9344 94.66411 543.85626 94.66411Q542.4969 94.66411 541.6844 93.82036Q540.8875 92.97661 540.8875 91.46098Q540.8875 89.89848 541.7 89.03911Q542.5125 88.16411 543.79376 88.16411Q545.04376 88.16411 545.825 89.00786Q546.6219 89.85161 546.6219 91.39848Q546.6219 91.49223 546.6219 91.67973L541.98126 91.67973Q542.04376 92.71098 542.5594 93.25786Q543.075 93.78911 543.85626 93.78911Q544.4344 93.78911 544.84064 93.49223Q545.2625 93.17973 545.4969 92.52348ZM542.04376 90.82036L545.5125 90.82036Q545.45 90.02348 545.1219 89.63286Q544.60626 89.02348 543.8094 89.02348Q543.075 89.02348 542.575 89.50786Q542.09064 89.99223 542.04376 90.82036ZM548.23126 94.52348L548.23126 88.30473L549.1844 88.30473L549.1844 89.24223Q549.54376 88.58598 549.84064 88.38286Q550.15314 88.16411 550.52814 88.16411Q551.0594 88.16411 551.60626 88.49223L551.2469 89.47661Q550.85626 89.24223 550.48126 89.24223Q550.1219 89.24223 549.84064 89.46098Q549.575 89.66411 549.46564 90.03911Q549.27814 90.60161 549.27814 91.25786L549.27814 94.52348L548.23126 94.52348ZM557.2625 97.05473Q556.3875 95.94536 555.77814 94.47661Q555.1844 92.99223 555.1844 91.41411Q555.1844 90.02348 555.6219 88.74223Q556.15314 87.25786 557.2625 85.78911L558.0125 85.78911Q557.3094 87.00786 557.075 87.52348Q556.71564 88.33598 556.5125 89.21098Q556.2625 90.30473 556.2625 91.41411Q556.2625 94.24223 558.0125 97.05473L557.2625 97.05473ZM559.2469 94.52348L559.2469 88.30473L560.1844 88.30473L560.1844 89.17973Q560.48126 88.71098 560.96564 88.44536Q561.45 88.16411 562.075 88.16411Q562.7625 88.16411 563.2 88.44536Q563.65314 88.72661 563.825 89.24223Q564.575 88.16411 565.7469 88.16411Q566.6844 88.16411 567.16876 88.67973Q567.66876 89.17973 567.66876 90.25786L567.66876 94.52348L566.6219 94.52348L566.6219 90.60161Q566.6219 89.97661 566.5125 89.69536Q566.41876 89.41411 566.15314 89.24223Q565.8875 89.07036 565.5125 89.07036Q564.85626 89.07036 564.41876 89.50786Q563.9969 89.94536 563.9969 90.91411L563.9969 94.52348L562.9344 94.52348L562.9344 90.47661Q562.9344 89.77348 562.66876 89.42973Q562.41876 89.07036 561.84064 89.07036Q561.3875 89.07036 561.0125 89.30473Q560.6375 89.53911 560.46564 89.99223Q560.29376 90.44536 560.29376 91.28911L560.29376 94.52348L559.2469 94.52348ZM573.3094 93.75786Q572.71564 94.25786 572.16876 94.46098Q571.6375 94.66411 571.0125 94.66411Q569.98126 94.66411 569.4344 94.16411Q568.8875 93.66411 568.8875 92.88286Q568.8875 92.42973 569.09064 92.05473Q569.29376 91.66411 569.6375 91.44536Q569.98126 91.21098 570.40314 91.10161Q570.7 91.00786 571.34064 90.92973Q572.60626 90.78911 573.21564 90.57036Q573.21564 90.35161 573.21564 90.30473Q573.21564 89.64848 572.91876 89.38286Q572.5125 89.03911 571.71564 89.03911Q570.98126 89.03911 570.6219 89.30473Q570.2625 89.55473 570.09064 90.21098L569.0594 90.07036Q569.2 89.41411 569.52814 89.00786Q569.85626 88.60161 570.46564 88.38286Q571.075 88.16411 571.8719 88.16411Q572.66876 88.16411 573.16876 88.35161Q573.66876 88.53911 573.90314 88.82036Q574.1375 89.10161 574.23126 89.53911Q574.27814 89.80473 574.27814 90.50786L574.27814 91.91411Q574.27814 93.38286 574.34064 93.77348Q574.41876 94.16411 574.6219 94.52348L573.5125 94.52348Q573.35626 94.19536 573.3094 93.75786ZM573.21564 91.39848Q572.6375 91.63286 571.4969 91.80473Q570.84064 91.89848 570.575 92.02348Q570.3094 92.13286 570.15314 92.35161Q570.0125 92.57036 570.0125 92.85161Q570.0125 93.27348 570.325 93.55473Q570.65314 93.83598 571.2625 93.83598Q571.8719 93.83598 572.34064 93.57036Q572.825 93.30473 573.04376 92.83598Q573.21564 92.47661 573.21564 91.78911L573.21564 91.39848ZM575.54376 94.52348L577.8094 91.28911L575.71564 88.30473L577.02814 88.30473L577.98126 89.75786Q578.2469 90.17973 578.41876 90.46098Q578.66876 90.07036 578.8875 89.77348L579.9344 88.30473L581.2 88.30473L579.04376 91.22661L581.35626 94.52348L580.075 94.52348L578.79376 92.58598L578.45 92.07036L576.8094 94.52348L575.54376 94.52348Z" fill-rule="nonzero"/><path fill="#9e9e9e" d="M552.4969 110.50786L552.4969 111.52348L546.8094 111.52348Q546.8094 111.14848 546.9344 110.78911Q547.15314 110.21098 547.6219 109.64848Q548.10626 109.08598 549.0125 108.35161Q550.41876 107.19536 550.90314 106.52348Q551.40314 105.85161 551.40314 105.25786Q551.40314 104.63286 550.95 104.21098Q550.4969 103.77348 549.77814 103.77348Q549.0125 103.77348 548.5594 104.22661Q548.10626 104.67973 548.09064 105.49223L547.0125 105.38286Q547.1219 104.16411 547.84064 103.53911Q548.575 102.89848 549.8094 102.89848Q551.04376 102.89848 551.7625 103.58598Q552.48126 104.27348 552.48126 105.28911Q552.48126 105.80473 552.2625 106.30473Q552.0594 106.78911 551.5594 107.35161Q551.075 107.89848 549.95 108.85161Q548.9969 109.64848 548.71564 109.94536Q548.45 110.22661 548.27814 110.50786L552.4969 110.50786ZM553.95 109.25786L555.0125 109.11723Q555.1844 110.00786 555.6219 110.41411Q556.0594 110.80473 556.6844 110.80473Q557.4344 110.80473 557.95 110.28911Q558.46564 109.77348 558.46564 109.00786Q558.46564 108.28911 557.98126 107.82036Q557.5125 107.33598 556.77814 107.33598Q556.48126 107.33598 556.02814 107.46098L556.15314 106.52348Q556.2625 106.53911 556.325 106.53911Q556.9969 106.53911 557.52814 106.19536Q558.075 105.83598 558.075 105.10161Q558.075 104.52348 557.6844 104.14848Q557.29376 103.75786 556.66876 103.75786Q556.0594 103.75786 555.6375 104.14848Q555.23126 104.53911 555.1219 105.30473L554.0594 105.11723Q554.2469 104.07036 554.9344 103.49223Q555.6219 102.89848 556.6375 102.89848Q557.34064 102.89848 557.9344 103.21098Q558.52814 103.50786 558.84064 104.02348Q559.15314 104.53911 559.15314 105.13286Q559.15314 105.67973 558.85626 106.14848Q558.5594 106.60161 557.98126 106.86723Q558.73126 107.03911 559.15314 107.60161Q559.575 108.14848 559.575 108.99223Q559.575 110.11723 558.7469 110.89848Q557.9344 111.67973 556.6844 111.67973Q555.5594 111.67973 554.8094 111.00786Q554.0594 110.32036 553.95 109.25786ZM561.54376 111.52348L561.54376 110.32036L562.7469 110.32036L562.7469 111.52348L561.54376 111.52348ZM563.95 109.27348L565.0594 109.17973Q565.1844 109.99223 565.6219 110.39848Q566.075 110.80473 566.71564 110.80473Q567.46564 110.80473 567.9969 110.22661Q568.52814 109.64848 568.52814 108.71098Q568.52814 107.80473 568.0125 107.28911Q567.5125 106.75786 566.6844 106.75786Q566.1844 106.75786 565.7625 106.99223Q565.35626 107.22661 565.1219 107.58598L564.1375 107.46098L564.96564 103.05473L569.2469 103.05473L569.2469 104.05473L565.8094 104.05473L565.35626 106.36723Q566.1219 105.82036 566.96564 105.82036Q568.09064 105.82036 568.85626 106.60161Q569.6375 107.38286 569.6375 108.61723Q569.6375 109.77348 568.96564 110.63286Q568.1375 111.66411 566.71564 111.66411Q565.54376 111.66411 564.79376 111.00786Q564.0594 110.35161 563.95 109.27348ZM571.15314 104.99223Q571.15314 104.07036 571.60626 103.42973Q572.075 102.78911 572.95 102.78911Q573.7625 102.78911 574.29376 103.36723Q574.825 103.94536 574.825 105.05473Q574.825 106.14848 574.27814 106.74223Q573.7469 107.32036 572.96564 107.32036Q572.1844 107.32036 571.66876 106.74223Q571.15314 106.16411 571.15314 104.99223ZM572.98126 103.50786Q572.59064 103.50786 572.325 103.85161Q572.075 104.19536 572.075 105.10161Q572.075 105.92973 572.325 106.27348Q572.59064 106.60161 572.98126 106.60161Q573.3875 106.60161 573.6375 106.25786Q573.90314 105.91411 573.90314 105.02348Q573.90314 104.17973 573.6375 103.85161Q573.3719 103.50786 572.98126 103.50786ZM572.98126 111.83598L577.6844 102.78911L578.54376 102.78911L573.85626 111.83598L572.98126 111.83598ZM576.7 109.50786Q576.7 108.58598 577.15314 107.94536Q577.6219 107.30473 578.5125 107.30473Q579.325 107.30473 579.85626 107.88286Q580.3875 108.44536 580.3875 109.57036Q580.3875 110.66411 579.84064 111.25786Q579.3094 111.83598 578.5125 111.83598Q577.7469 111.83598 577.21564 111.25786Q576.7 110.67973 576.7 109.50786ZM578.54376 108.02348Q578.1375 108.02348 577.8719 108.36723Q577.6219 108.71098 577.6219 109.61723Q577.6219 110.42973 577.8875 110.77348Q578.15314 111.11723 578.54376 111.11723Q578.9344 111.11723 579.2 110.77348Q579.46564 110.42973 579.46564 109.52348Q579.46564 108.69536 579.2 108.36723Q578.9344 108.02348 578.54376 108.02348Z" fill-rule="nonzero"/><path stroke="#757575" stroke-width="1.0" stroke-linecap="butt" d="M581.45 99.02348L454.76666 99.02348L394.97375 99.02348" fill-rule="nonzero"/><path fill="#9e9e9e" d="M396.97375 99.02348C396.97375 97.918915 396.0783 97.02348 394.97375 97.02348C393.86917 97.02348 392.97375 97.918915 392.97375 99.02348C392.97375 100.12805 393.86917 101.02348 394.97375 101.02348C396.0783 101.02348 396.97375 100.12805 396.97375 99.02348" fill-rule="nonzero"/><path fill="#1a1a1a" d="M501.3719 247.52048L501.3719 238.92673L502.52814 238.92673L507.04376 245.67673L507.04376 238.92673L508.1375 238.92673L508.1375 247.52048L506.96564 247.52048L502.45 240.77048L502.45 247.52048L501.3719 247.52048ZM509.85626 244.4111Q509.85626 242.67673 510.8094 241.8486Q511.60626 241.1611 512.7625 241.1611Q514.04376 241.1611 514.85626 242.00485Q515.6844 242.83298 515.6844 244.31735Q515.6844 245.52048 515.325 246.20798Q514.96564 246.89548 514.2625 247.2861Q513.575 247.6611 512.7625 247.6611Q511.46564 247.6611 510.65314 246.83298Q509.85626 245.98923 509.85626 244.4111ZM510.9344 244.4111Q510.9344 245.5986 511.45 246.19235Q511.98126 246.7861 512.7625 246.7861Q513.5594 246.7861 514.075 246.19235Q514.59064 245.5986 514.59064 244.37985Q514.59064 243.2236 514.0594 242.62985Q513.54376 242.0361 512.7625 242.0361Q511.98126 242.0361 511.45 242.62985Q510.9344 243.20798 510.9344 244.4111ZM517.2469 247.52048L517.2469 241.30173L518.1844 241.30173L518.1844 242.17673Q518.8719 241.1611 520.16876 241.1611Q520.73126 241.1611 521.2 241.36423Q521.6844 241.56735 521.91876 241.89548Q522.15314 242.2236 522.2469 242.6611Q522.29376 242.95798 522.29376 243.69235L522.29376 247.52048L521.2469 247.52048L521.2469 243.73923Q521.2469 243.08298 521.1219 242.77048Q520.9969 242.45798 520.6844 242.27048Q520.3719 242.06735 519.95 242.06735Q519.27814 242.06735 518.77814 242.50485Q518.29376 242.92673 518.29376 244.11423L518.29376 247.52048L517.2469 247.52048ZM523.825 244.94235L523.825 243.87985L527.075 243.87985L527.075 244.94235L523.825 244.94235ZM527.4344 247.52048L530.73126 238.92673L531.95 238.92673L535.46564 247.52048L534.1844 247.52048L533.16876 244.9111L529.59064 244.9111L528.6375 247.52048L527.4344 247.52048ZM529.91876 243.98923L532.825 243.98923L531.9344 241.61423Q531.5125 240.5361 531.325 239.83298Q531.15314 240.6611 530.85626 241.4736L529.91876 243.98923ZM540.3094 245.23923L541.34064 245.37985Q541.16876 246.44235 540.46564 247.05173Q539.7625 247.6611 538.7469 247.6611Q537.46564 247.6611 536.6844 246.83298Q535.91876 245.98923 535.91876 244.42673Q535.91876 243.42673 536.2469 242.67673Q536.59064 241.9111 537.2625 241.5361Q537.95 241.1611 538.7625 241.1611Q539.7625 241.1611 540.40314 241.67673Q541.0594 242.17673 541.2469 243.12985L540.21564 243.2861Q540.075 242.6611 539.7 242.3486Q539.325 242.02048 538.79376 242.02048Q537.9969 242.02048 537.4969 242.5986Q536.9969 243.1611 536.9969 244.39548Q536.9969 245.6611 537.48126 246.2236Q537.96564 246.7861 538.73126 246.7861Q539.35626 246.7861 539.7625 246.4111Q540.1844 246.0361 540.3094 245.23923ZM546.3094 246.75485Q545.71564 247.25485 545.16876 247.45798Q544.6375 247.6611 544.0125 247.6611Q542.98126 247.6611 542.4344 247.1611Q541.8875 246.6611 541.8875 245.87985Q541.8875 245.42673 542.09064 245.05173Q542.29376 244.6611 542.6375 244.44235Q542.98126 244.20798 543.40314 244.0986Q543.7 244.00485 544.34064 243.92673Q545.60626 243.7861 546.21564 243.56735Q546.21564 243.3486 546.21564 243.30173Q546.21564 242.64548 545.91876 242.37985Q545.5125 242.0361 544.71564 242.0361Q543.98126 242.0361 543.6219 242.30173Q543.2625 242.55173 543.09064 243.20798L542.0594 243.06735Q542.2 242.4111 542.52814 242.00485Q542.85626 241.5986 543.46564 241.37985Q544.075 241.1611 544.8719 241.1611Q545.66876 241.1611 546.16876 241.3486Q546.66876 241.5361 546.90314 241.81735Q547.1375 242.0986 547.23126 242.5361Q547.27814 242.80173 547.27814 243.50485L547.27814 244.9111Q547.27814 246.37985 547.34064 246.77048Q547.41876 247.1611 547.6219 247.52048L546.5125 247.52048Q546.35626 247.19235 546.3094 246.75485ZM546.21564 244.39548Q545.6375 244.62985 544.4969 244.80173Q543.84064 244.89548 543.575 245.02048Q543.3094 245.12985 543.15314 245.3486Q543.0125 245.56735 543.0125 245.8486Q543.0125 246.27048 543.325 246.55173Q543.65314 246.83298 544.2625 246.83298Q544.8719 246.83298 545.34064 246.56735Q545.825 246.30173 546.04376 245.83298Q546.21564 245.4736 546.21564 244.7861L546.21564 244.39548ZM553.27814 247.52048L553.27814 246.73923Q552.6844 247.6611 551.54376 247.6611Q550.79376 247.6611 550.16876 247.25485Q549.54376 246.83298 549.2 246.0986Q548.85626 245.36423 548.85626 244.4111Q548.85626 243.48923 549.16876 242.7236Q549.48126 241.95798 550.10626 241.56735Q550.73126 241.1611 551.4969 241.1611Q552.0594 241.1611 552.4969 241.39548Q552.9344 241.62985 553.21564 242.00485L553.21564 238.92673L554.2625 238.92673L554.2625 247.52048L553.27814 247.52048ZM549.95 244.4111Q549.95 245.61423 550.45 246.20798Q550.95 246.7861 551.6375 246.7861Q552.325 246.7861 552.8094 246.2236Q553.29376 245.6611 553.29376 244.50485Q553.29376 243.2236 552.79376 242.62985Q552.3094 242.0361 551.59064 242.0361Q550.8875 242.0361 550.41876 242.61423Q549.95 243.17673 549.95 244.4111ZM560.4969 245.52048L561.59064 245.64548Q561.34064 246.5986 560.6375 247.12985Q559.9344 247.6611 558.85626 247.6611Q557.4969 247.6611 556.6844 246.81735Q555.8875 245.9736 555.8875 244.45798Q555.8875 242.89548 556.7 242.0361Q557.5125 241.1611 558.79376 241.1611Q560.04376 241.1611 560.825 242.00485Q561.6219 242.8486 561.6219 244.39548Q561.6219 244.48923 561.6219 244.67673L556.98126 244.67673Q557.04376 245.70798 557.5594 246.25485Q558.075 246.7861 558.85626 246.7861Q559.4344 246.7861 559.84064 246.48923Q560.2625 246.17673 560.4969 245.52048ZM557.04376 243.81735L560.5125 243.81735Q560.45 243.02048 560.1219 242.62985Q559.60626 242.02048 558.8094 242.02048Q558.075 242.02048 557.575 242.50485Q557.09064 242.98923 557.04376 243.81735ZM563.2469 247.52048L563.2469 241.30173L564.1844 241.30173L564.1844 242.17673Q564.48126 241.70798 564.96564 241.44235Q565.45 241.1611 566.075 241.1611Q566.7625 241.1611 567.2 241.44235Q567.65314 241.7236 567.825 242.23923Q568.575 241.1611 569.7469 241.1611Q570.6844 241.1611 571.16876 241.67673Q571.66876 242.17673 571.66876 243.25485L571.66876 247.52048L570.6219 247.52048L570.6219 243.5986Q570.6219 242.9736 570.5125 242.69235Q570.41876 242.4111 570.15314 242.23923Q569.8875 242.06735 569.5125 242.06735Q568.85626 242.06735 568.41876 242.50485Q567.9969 242.94235 567.9969 243.9111L567.9969 247.52048L566.9344 247.52048L566.9344 243.4736Q566.9344 242.77048 566.66876 242.42673Q566.41876 242.06735 565.84064 242.06735Q565.3875 242.06735 565.0125 242.30173Q564.6375 242.5361 564.46564 242.98923Q564.29376 243.44235 564.29376 244.2861L564.29376 247.52048L563.2469 247.52048ZM573.2469 240.14548L573.2469 238.92673L574.3094 238.92673L574.3094 240.14548L573.2469 240.14548ZM573.2469 247.52048L573.2469 241.30173L574.3094 241.30173L574.3094 247.52048L573.2469 247.52048ZM580.3094 245.23923L581.34064 245.37985Q581.16876 246.44235 580.46564 247.05173Q579.7625 247.6611 578.7469 247.6611Q577.46564 247.6611 576.6844 246.83298Q575.91876 245.98923 575.91876 244.42673Q575.91876 243.42673 576.2469 242.67673Q576.59064 241.9111 577.2625 241.5361Q577.95 241.1611 578.7625 241.1611Q579.7625 241.1611 580.40314 241.67673Q581.0594 242.17673 581.2469 243.12985L580.21564 243.2861Q580.075 242.6611 579.7 242.3486Q579.325 242.02048 578.79376 242.02048Q577.9969 242.02048 577.4969 242.5986Q576.9969 243.1611 576.9969 244.39548Q576.9969 245.6611 577.48126 246.2236Q577.96564 246.7861 578.73126 246.7861Q579.35626 246.7861 579.7625 246.4111Q580.1844 246.0361 580.3094 245.23923Z" fill-rule="nonzero"/><path fill="#9e9e9e" d="M550.91876 264.52048L549.8719 264.52048L549.8719 257.80173Q549.48126 258.1611 548.85626 258.5361Q548.2469 258.89548 547.7625 259.06735L547.7625 258.05173Q548.6375 257.62985 549.29376 257.05173Q549.96564 256.45798 550.2469 255.89548L550.91876 255.89548L550.91876 264.52048ZM557.325 264.52048L557.325 262.45798L553.60626 262.45798L553.60626 261.48923L557.52814 255.92673L558.3875 255.92673L558.3875 261.48923L559.54376 261.48923L559.54376 262.45798L558.3875 262.45798L558.3875 264.52048L557.325 264.52048ZM557.325 261.48923L557.325 257.62985L554.6375 261.48923L557.325 261.48923ZM561.54376 264.52048L561.54376 263.31735L562.7469 263.31735L562.7469 264.52048L561.54376 264.52048ZM569.4969 263.50485L569.4969 264.52048L563.8094 264.52048Q563.8094 264.14548 563.9344 263.7861Q564.15314 263.20798 564.6219 262.64548Q565.10626 262.08298 566.0125 261.3486Q567.41876 260.19235 567.90314 259.52048Q568.40314 258.8486 568.40314 258.25485Q568.40314 257.62985 567.95 257.20798Q567.4969 256.77048 566.77814 256.77048Q566.0125 256.77048 565.5594 257.2236Q565.10626 257.67673 565.09064 258.48923L564.0125 258.37985Q564.1219 257.1611 564.84064 256.5361Q565.575 255.89548 566.8094 255.89548Q568.04376 255.89548 568.7625 256.58298Q569.48126 257.27048 569.48126 258.2861Q569.48126 258.80173 569.2625 259.30173Q569.0594 259.7861 568.5594 260.3486Q568.075 260.89548 566.95 261.8486Q565.9969 262.64548 565.71564 262.94235Q565.45 263.2236 565.27814 263.50485L569.4969 263.50485ZM571.15314 257.98923Q571.15314 257.06735 571.60626 256.42673Q572.075 255.7861 572.95 255.7861Q573.7625 255.7861 574.29376 256.36423Q574.825 256.94235 574.825 258.05173Q574.825 259.14548 574.27814 259.73923Q573.7469 260.31735 572.96564 260.31735Q572.1844 260.31735 571.66876 259.73923Q571.15314 259.1611 571.15314 257.98923ZM572.98126 256.50485Q572.59064 256.50485 572.325 256.8486Q572.075 257.19235 572.075 258.0986Q572.075 258.92673 572.325 259.27048Q572.59064 259.5986 572.98126 259.5986Q573.3875 259.5986 573.6375 259.25485Q573.90314 258.9111 573.90314 258.02048Q573.90314 257.17673 573.6375 256.8486Q573.3719 256.50485 572.98126 256.50485ZM572.98126 264.83298L577.6844 255.7861L578.54376 255.7861L573.85626 264.83298L572.98126 264.83298ZM576.7 262.50485Q576.7 261.58298 577.15314 260.94235Q577.6219 260.30173 578.5125 260.30173Q579.325 260.30173 579.85626 260.87985Q580.3875 261.44235 580.3875 262.56735Q580.3875 263.6611 579.84064 264.25485Q579.3094 264.83298 578.5125 264.83298Q577.7469 264.83298 577.21564 264.25485Q576.7 263.67673 576.7 262.50485ZM578.54376 261.02048Q578.1375 261.02048 577.8719 261.36423Q577.6219 261.70798 577.6219 262.61423Q577.6219 263.42673 577.8875 263.77048Q578.15314 264.11423 578.54376 264.11423Q578.9344 264.11423 579.2 263.77048Q579.46564 263.42673 579.46564 262.52048Q579.46564 261.69235 579.2 261.36423Q578.9344 261.02048 578.54376 261.02048Z" fill-rule="nonzero"/><path stroke="#757575" stroke-width="1.0" stroke-linecap="butt" d="M581.45 252.02048L454.76666 252.02048L432.8052 252.02048" fill-rule="nonzero"/><path fill="#9e9e9e" d="M434.8052 252.02048C434.8052 250.9159 433.90976 250.02048 432.8052 250.02048C431.70062 250.02048 430.8052 250.9159 430.8052 252.02048C430.8052 253.12505 431.70062 254.02048 432.8052 254.02048C433.90976 254.02048 434.8052 253.12505 434.8052 252.02048" fill-rule="nonzero"/><path fill="#757575" d="M30.315624 32.534374L32.20625 33.003124Q31.6125 35.346874 30.065624 36.58125Q28.51875 37.8 26.26875 37.8Q23.95625 37.8 22.503124 36.8625Q21.065624 35.909374 20.3 34.128124Q19.55 32.33125 19.55 30.284374Q19.55 28.05 20.39375 26.39375Q21.253124 24.721874 22.83125 23.8625Q24.409374 22.9875 26.3 22.9875Q28.45625 22.9875 29.909374 24.08125Q31.378124 25.175 31.95625 27.159374L30.096874 27.596874Q29.596874 26.034374 28.64375 25.33125Q27.70625 24.6125 26.26875 24.6125Q24.6125 24.6125 23.503124 25.409374Q22.39375 26.190624 21.940624 27.534374Q21.503124 28.8625 21.503124 30.26875Q21.503124 32.096874 22.034374 33.471874Q22.565624 34.83125 23.690624 35.503124Q24.815624 36.175 26.1125 36.175Q27.70625 36.175 28.815624 35.253124Q29.925 34.33125 30.315624 32.534374ZM33.221874 32.3625Q33.221874 29.4875 34.815624 28.096874Q36.159374 26.940624 38.08125 26.940624Q40.221874 26.940624 41.565624 28.346874Q42.925 29.753124 42.925 32.221874Q42.925 34.221874 42.33125 35.378124Q41.7375 36.51875 40.58125 37.159374Q39.440624 37.784374 38.08125 37.784374Q35.89375 37.784374 34.55 36.39375Q33.221874 34.9875 33.221874 32.3625ZM35.01875 32.3625Q35.01875 34.3625 35.878124 35.346874Q36.753124 36.33125 38.08125 36.33125Q39.39375 36.33125 40.253124 35.346874Q41.128124 34.346874 41.128124 32.3Q41.128124 30.378124 40.253124 29.39375Q39.378124 28.39375 38.08125 28.39375Q36.753124 28.39375 35.878124 29.39375Q35.01875 30.378124 35.01875 32.3625ZM51.659374 37.55L51.659374 36.01875Q50.45625 37.784374 48.378124 37.784374Q47.45625 37.784374 46.659374 37.440624Q45.8625 37.08125 45.471874 36.55Q45.096874 36.01875 44.940624 35.2375Q44.83125 34.721874 44.83125 33.596874L44.83125 27.175L46.58125 27.175L46.58125 32.925Q46.58125 34.3 46.690624 34.784374Q46.8625 35.471874 47.39375 35.878124Q47.940624 36.26875 48.721874 36.26875Q49.51875 36.26875 50.20625 35.8625Q50.909374 35.45625 51.190624 34.76875Q51.4875 34.065624 51.4875 32.7375L51.4875 27.175L53.2375 27.175L53.2375 37.55L51.659374 37.55ZM55.8625 37.55L55.8625 27.175L57.45625 27.175L57.45625 28.659374Q58.596874 26.940624 60.753124 26.940624Q61.690624 26.940624 62.471874 27.284374Q63.26875 27.6125 63.659374 28.159374Q64.05 28.70625 64.20625 29.45625Q64.3 29.95625 64.3 31.175L64.3 37.55L62.534374 37.55L62.534374 31.2375Q62.534374 30.159374 62.33125 29.628124Q62.128124 29.096874 61.596874 28.784374Q61.08125 28.471874 60.378124 28.471874Q59.253124 28.471874 58.440624 29.190624Q57.628124 29.89375 57.628124 31.878124L57.628124 37.55L55.8625 37.55ZM70.70625 35.971874L70.95625 37.534374Q70.22188 37.690624 69.62813 37.690624Q68.675 37.690624 68.14375 37.39375Q67.62813 37.08125 67.40938 36.596874Q67.19063 36.096874 67.19063 34.51875L67.19063 28.55L65.90938 28.55L65.90938 27.175L67.19063 27.175L67.19063 24.6125L68.94063 23.55L68.94063 27.175L70.70625 27.175L70.70625 28.55L68.94063 28.55L68.94063 34.6125Q68.94063 35.3625 69.03438 35.58125Q69.12813 35.784374 69.33125 35.925Q69.55 36.05 69.94063 36.05Q70.22188 36.05 70.70625 35.971874ZM78.22188 32.3625Q78.22188 29.4875 79.81563 28.096874Q81.15938 26.940624 83.08125 26.940624Q85.22188 26.940624 86.56563 28.346874Q87.925 29.753124 87.925 32.221874Q87.925 34.221874 87.33125 35.378124Q86.7375 36.51875 85.58125 37.159374Q84.44063 37.784374 83.08125 37.784374Q80.89375 37.784374 79.55 36.39375Q78.22188 34.9875 78.22188 32.3625ZM80.01875 32.3625Q80.01875 34.3625 80.87813 35.346874Q81.75313 36.33125 83.08125 36.33125Q84.39375 36.33125 85.25313 35.346874Q86.12813 34.346874 86.12813 32.3Q86.12813 30.378124 85.25313 29.39375Q84.37813 28.39375 83.08125 28.39375Q81.75313 28.39375 80.87813 29.39375Q80.01875 30.378124 80.01875 32.3625ZM90.28438 37.55L90.28438 28.55L88.7375 28.55L88.7375 27.175L90.28438 27.175L90.28438 26.08125Q90.28438 25.034374 90.47188 24.51875Q90.72188 23.83125 91.3625 23.409374Q92.00313 22.9875 93.15938 22.9875Q93.90938 22.9875 94.8 23.159374L94.53438 24.690624Q93.9875 24.596874 93.50313 24.596874Q92.70625 24.596874 92.3625 24.940624Q92.03438 25.284374 92.03438 26.221874L92.03438 27.175L94.06563 27.175L94.06563 28.55L92.03438 28.55L92.03438 37.55L90.28438 37.55ZM102.09688 37.55L102.09688 23.2375L107.4875 23.2375Q108.925 23.2375 109.675 23.3625Q110.72188 23.55 111.44063 24.05Q112.15938 24.534374 112.58125 25.425Q113.01875 26.315624 113.01875 27.378124Q113.01875 29.20625 111.84688 30.471874Q110.69063 31.721874 107.65938 31.721874L103.9875 31.721874L103.9875 37.55L102.09688 37.55ZM103.9875 30.034374L107.69063 30.034374Q109.51875 30.034374 110.28438 29.3625Q111.06563 28.675 111.06563 27.425Q111.06563 26.534374 110.6125 25.89375Q110.15938 25.253124 109.425 25.05Q108.94063 24.925 107.64375 24.925L103.9875 24.925L103.9875 30.034374ZM114.83125 37.55L114.83125 23.2375L116.58125 23.2375L116.58125 37.55L114.83125 37.55ZM125.97188 34.20625L127.78438 34.440624Q127.3625 36.01875 126.19063 36.909374Q125.03438 37.784374 123.22188 37.784374Q120.95625 37.784374 119.6125 36.39375Q118.28438 34.9875 118.28438 32.45625Q118.28438 29.83125 119.62813 28.39375Q120.97188 26.940624 123.12813 26.940624Q125.20625 26.940624 126.51875 28.3625Q127.84688 29.76875 127.84688 32.346874Q127.84688 32.503124 127.83125 32.815624L120.09688 32.815624Q120.19063 34.51875 121.06563 35.425Q121.94063 36.33125 123.2375 36.33125Q124.20625 36.33125 124.87813 35.83125Q125.56563 35.315624 125.97188 34.20625ZM120.19063 31.3625L125.9875 31.3625Q125.87813 30.065624 125.33125 29.409374Q124.4875 28.39375 123.14375 28.39375Q121.94063 28.39375 121.1125 29.20625Q120.28438 30.003124 120.19063 31.3625ZM136.64375 36.26875Q135.65938 37.096874 134.75313 37.440624Q133.84688 37.784374 132.81563 37.784374Q131.1125 37.784374 130.19063 36.95625Q129.26875 36.1125 129.26875 34.815624Q129.26875 34.05 129.6125 33.425Q129.97188 32.8 130.53438 32.425Q131.09688 32.034374 131.8 31.83125Q132.31563 31.70625 133.3625 31.565624Q135.4875 31.315624 136.4875 30.971874Q136.50313 30.6125 136.50313 30.503124Q136.50313 29.440624 136.00313 28.9875Q135.33125 28.39375 134.00313 28.39375Q132.75313 28.39375 132.15938 28.83125Q131.58125 29.26875 131.3 30.378124L129.58125 30.14375Q129.81563 29.034374 130.34688 28.3625Q130.87813 27.675 131.89375 27.315624Q132.90938 26.940624 134.25313 26.940624Q135.58125 26.940624 136.40938 27.253124Q137.2375 27.565624 137.62813 28.05Q138.01875 28.51875 138.175 29.2375Q138.26875 29.690624 138.26875 30.8625L138.26875 33.20625Q138.26875 35.659374 138.37813 36.315624Q138.4875 36.95625 138.83125 37.55L136.9875 37.55Q136.72188 37.003124 136.64375 36.26875ZM136.4875 32.346874Q135.53438 32.7375 133.6125 33.003124Q132.53438 33.159374 132.08125 33.3625Q131.64375 33.55 131.39375 33.925Q131.14375 34.3 131.14375 34.76875Q131.14375 35.471874 131.675 35.940624Q132.20625 36.409374 133.2375 36.409374Q134.25313 36.409374 135.03438 35.971874Q135.83125 35.51875 136.20625 34.753124Q136.4875 34.14375 136.4875 32.9875L136.4875 32.346874ZM140.15938 34.45625L141.90938 34.175Q142.05 35.221874 142.72188 35.784374Q143.39375 36.33125 144.59688 36.33125Q145.8 36.33125 146.37813 35.846874Q146.97188 35.346874 146.97188 34.690624Q146.97188 34.096874 146.45625 33.753124Q146.09688 33.51875 144.65938 33.159374Q142.72188 32.659374 141.97188 32.315624Q141.2375 31.95625 140.84688 31.33125Q140.45625 30.690624 140.45625 29.925Q140.45625 29.2375 140.76875 28.64375Q141.09688 28.05 141.64375 27.659374Q142.05 27.3625 142.75313 27.159374Q143.47188 26.940624 144.28438 26.940624Q145.50313 26.940624 146.425 27.3Q147.34688 27.64375 147.78438 28.253124Q148.22188 28.846874 148.39375 29.846874L146.675 30.08125Q146.55 29.284374 145.9875 28.846874Q145.425 28.39375 144.40938 28.39375Q143.19063 28.39375 142.675 28.8Q142.15938 29.190624 142.15938 29.721874Q142.15938 30.065624 142.37813 30.346874Q142.58125 30.628124 143.05 30.815624Q143.31563 30.909374 144.59688 31.253124Q146.47188 31.753124 147.20625 32.08125Q147.94063 32.39375 148.3625 33.003124Q148.78438 33.596874 148.78438 34.503124Q148.78438 35.378124 148.26875 36.159374Q147.75313 36.940624 146.78438 37.3625Q145.81563 37.784374 144.59688 37.784374Q142.58125 37.784374 141.51875 36.940624Q140.45625 36.096874 140.15938 34.45625ZM157.97188 34.20625L159.78438 34.440624Q159.3625 36.01875 158.19063 36.909374Q157.03438 37.784374 155.22188 37.784374Q152.95625 37.784374 151.6125 36.39375Q150.28438 34.9875 150.28438 32.45625Q150.28438 29.83125 151.62813 28.39375Q152.97188 26.940624 155.12813 26.940624Q157.20625 26.940624 158.51875 28.3625Q159.84688 29.76875 159.84688 32.346874Q159.84688 32.503124 159.83125 32.815624L152.09688 32.815624Q152.19063 34.51875 153.06563 35.425Q153.94063 36.33125 155.2375 36.33125Q156.20625 36.33125 156.87813 35.83125Q157.56563 35.315624 157.97188 34.20625ZM152.19063 31.3625L157.9875 31.3625Q157.87813 30.065624 157.33125 29.409374Q156.4875 28.39375 155.14375 28.39375Q153.94063 28.39375 153.1125 29.20625Q152.28438 30.003124 152.19063 31.3625ZM162.33125 37.55L162.33125 35.55L164.33125 35.55L164.33125 37.55Q164.33125 38.659374 163.94063 39.33125Q163.55 40.01875 162.70625 40.378124L162.20625 39.628124Q162.76875 39.39375 163.03438 38.909374Q163.3 38.440624 163.33125 37.55L162.33125 37.55ZM173.15938 34.45625L174.90938 34.175Q175.05 35.221874 175.72188 35.784374Q176.39375 36.33125 177.59688 36.33125Q178.8 36.33125 179.37813 35.846874Q179.97188 35.346874 179.97188 34.690624Q179.97188 34.096874 179.45625 33.753124Q179.09688 33.51875 177.65938 33.159374Q175.72188 32.659374 174.97188 32.315624Q174.2375 31.95625 173.84688 31.33125Q173.45625 30.690624 173.45625 29.925Q173.45625 29.2375 173.76875 28.64375Q174.09688 28.05 174.64375 27.659374Q175.05 27.3625 175.75313 27.159374Q176.47188 26.940624 177.28438 26.940624Q178.50313 26.940624 179.425 27.3Q180.34688 27.64375 180.78438 28.253124Q181.22188 28.846874 181.39375 29.846874L179.675 30.08125Q179.55 29.284374 178.9875 28.846874Q178.425 28.39375 177.40938 28.39375Q176.19063 28.39375 175.675 28.8Q175.15938 29.190624 175.15938 29.721874Q175.15938 30.065624 175.37813 30.346874Q175.58125 30.628124 176.05 30.815624Q176.31563 30.909374 177.59688 31.253124Q179.47188 31.753124 180.20625 32.08125Q180.94063 32.39375 181.3625 33.003124Q181.78438 33.596874 181.78438 34.503124Q181.78438 35.378124 181.26875 36.159374Q180.75313 36.940624 179.78438 37.3625Q178.81563 37.784374 177.59688 37.784374Q175.58125 37.784374 174.51875 36.940624Q173.45625 36.096874 173.15938 34.45625ZM190.97188 34.20625L192.78438 34.440624Q192.3625 36.01875 191.19063 36.909374Q190.03438 37.784374 188.22188 37.784374Q185.95625 37.784374 184.6125 36.39375Q183.28438 34.9875 183.28438 32.45625Q183.28438 29.83125 184.62813 28.39375Q185.97188 26.940624 188.12813 26.940624Q190.20625 26.940624 191.51875 28.3625Q192.84688 29.76875 192.84688 32.346874Q192.84688 32.503124 192.83125 32.815624L185.09688 32.815624Q185.19063 34.51875 186.06563 35.425Q186.94063 36.33125 188.2375 36.33125Q189.20625 36.33125 189.87813 35.83125Q190.56563 35.315624 190.97188 34.20625ZM185.19063 31.3625L190.9875 31.3625Q190.87813 30.065624 190.33125 29.409374Q189.4875 28.39375 188.14375 28.39375Q186.94063 28.39375 186.1125 29.20625Q185.28438 30.003124 185.19063 31.3625ZM194.83125 37.55L194.83125 23.2375L196.58125 23.2375L196.58125 37.55L194.83125 37.55ZM205.97188 34.20625L207.78438 34.440624Q207.3625 36.01875 206.19063 36.909374Q205.03438 37.784374 203.22188 37.784374Q200.95625 37.784374 199.6125 36.39375Q198.28438 34.9875 198.28438 32.45625Q198.28438 29.83125 199.62813 28.39375Q200.97188 26.940624 203.12813 26.940624Q205.20625 26.940624 206.51875 28.3625Q207.84688 29.76875 207.84688 32.346874Q207.84688 32.503124 207.83125 32.815624L200.09688 32.815624Q200.19063 34.51875 201.06563 35.425Q201.94063 36.33125 203.2375 36.33125Q204.20625 36.33125 204.87813 35.83125Q205.56563 35.315624 205.97188 34.20625ZM200.19063 31.3625L205.9875 31.3625Q205.87813 30.065624 205.33125 29.409374Q204.4875 28.39375 203.14375 28.39375Q201.94063 28.39375 201.1125 29.20625Q200.28438 30.003124 200.19063 31.3625ZM216.64375 33.753124L218.3625 33.971874Q218.08125 35.76875 216.90938 36.784374Q215.75313 37.784374 214.05 37.784374Q211.925 37.784374 210.62813 36.39375Q209.33125 35.003124 209.33125 32.409374Q209.33125 30.721874 209.87813 29.471874Q210.44063 28.20625 211.58125 27.58125Q212.72188 26.940624 214.06563 26.940624Q215.75313 26.940624 216.81563 27.8Q217.89375 28.659374 218.20625 30.221874L216.4875 30.4875Q216.25313 29.440624 215.62813 28.925Q215.00313 28.39375 214.12813 28.39375Q212.8 28.39375 211.97188 29.346874Q211.14375 30.3 211.14375 32.346874Q211.14375 34.440624 211.94063 35.39375Q212.7375 36.33125 214.03438 36.33125Q215.06563 36.33125 215.75313 35.70625Q216.45625 35.065624 216.64375 33.753124ZM223.70625 35.971874L223.95625 37.534374Q223.22188 37.690624 222.62813 37.690624Q221.675 37.690624 221.14375 37.39375Q220.62813 37.08125 220.40938 36.596874Q220.19063 36.096874 220.19063 34.51875L220.19063 28.55L218.90938 28.55L218.90938 27.175L220.19063 27.175L220.19063 24.6125L221.94063 23.55L221.94063 27.175L223.70625 27.175L223.70625 28.55L221.94063 28.55L221.94063 34.6125Q221.94063 35.3625 222.03438 35.58125Q222.12813 35.784374 222.33125 35.925Q222.55 36.05 222.94063 36.05Q223.22188 36.05 223.70625 35.971874ZM231.78438 41.55L231.59688 39.89375Q232.175 40.05 232.59688 40.05Q233.19063 40.05 233.53438 39.846874Q233.89375 39.659374 234.1125 39.315624Q234.28438 39.05 234.65938 38.003124Q234.70625 37.846874 234.81563 37.565624L230.87813 27.175L232.76875 27.175L234.925 33.190624Q235.34688 34.33125 235.675 35.58125Q235.9875 34.378124 236.39375 33.221874L238.6125 27.175L240.37813 27.175L236.425 37.721874Q235.8 39.440624 235.44063 40.08125Q234.97188 40.95625 234.3625 41.346874Q233.76875 41.753124 232.925 41.753124Q232.40938 41.753124 231.78438 41.55ZM241.22188 32.3625Q241.22188 29.4875 242.81563 28.096874Q244.15938 26.940624 246.08125 26.940624Q248.22188 26.940624 249.56563 28.346874Q250.925 29.753124 250.925 32.221874Q250.925 34.221874 250.33125 35.378124Q249.7375 36.51875 248.58125 37.159374Q247.44063 37.784374 246.08125 37.784374Q243.89375 37.784374 242.55 36.39375Q241.22188 34.9875 241.22188 32.3625ZM243.01875 32.3625Q243.01875 34.3625 243.87813 35.346874Q244.75313 36.33125 246.08125 36.33125Q247.39375 36.33125 248.25313 35.346874Q249.12813 34.346874 249.12813 32.3Q249.12813 30.378124 248.25313 29.39375Q247.37813 28.39375 246.08125 28.39375Q244.75313 28.39375 243.87813 29.39375Q243.01875 30.378124 243.01875 32.3625ZM259.65936 37.55L259.65936 36.01875Q258.45624 37.784374 256.3781 37.784374Q255.45625 37.784374 254.65938 37.440624Q253.8625 37.08125 253.47188 36.55Q253.09688 36.01875 252.94063 35.2375Q252.83125 34.721874 252.83125 33.596874L252.83125 27.175L254.58125 27.175L254.58125 32.925Q254.58125 34.3 254.69063 34.784374Q254.8625 35.471874 255.39375 35.878124Q255.94063 36.26875 256.72186 36.26875Q257.51874 36.26875 258.20624 35.8625Q258.90936 35.45625 259.1906 34.76875Q259.4875 34.065624 259.4875 32.7375L259.4875 27.175L261.2375 27.175L261.2375 37.55L259.65936 37.55ZM263.84686 37.55L263.84686 27.175L265.425 27.175L265.425 28.753124Q266.03436 27.64375 266.55 27.3Q267.0656 26.940624 267.675 26.940624Q268.5656 26.940624 269.4875 27.503124L268.8781 29.14375Q268.2375 28.753124 267.59686 28.753124Q267.01874 28.753124 266.55 29.1125Q266.09686 29.45625 265.89374 30.065624Q265.6125 31.003124 265.6125 32.1125L265.6125 37.55L263.84686 37.55ZM283.64374 33.753124L285.3625 33.971874Q285.08124 35.76875 283.90936 36.784374Q282.7531 37.784374 281.05 37.784374Q278.925 37.784374 277.6281 36.39375Q276.33124 35.003124 276.33124 32.409374Q276.33124 30.721874 276.8781 29.471874Q277.4406 28.20625 278.58124 27.58125Q279.72186 26.940624 281.0656 26.940624Q282.7531 26.940624 283.8156 27.8Q284.89374 28.659374 285.20624 30.221874L283.4875 30.4875Q283.2531 29.440624 282.6281 28.925Q282.0031 28.39375 281.1281 28.39375Q279.8 28.39375 278.97186 29.346874Q278.14374 30.3 278.14374 32.346874Q278.14374 34.440624 278.9406 35.39375Q279.7375 36.33125 281.03436 36.33125Q282.0656 36.33125 282.7531 35.70625Q283.45624 35.065624 283.64374 33.753124ZM293.65936 37.55L293.65936 36.01875Q292.45624 37.784374 290.3781 37.784374Q289.45624 37.784374 288.65936 37.440624Q287.8625 37.08125 287.47186 36.55Q287.09686 36.01875 286.9406 35.2375Q286.83124 34.721874 286.83124 33.596874L286.83124 27.175L288.58124 27.175L288.58124 32.925Q288.58124 34.3 288.6906 34.784374Q288.8625 35.471874 289.39374 35.878124Q289.9406 36.26875 290.72186 36.26875Q291.51874 36.26875 292.20624 35.8625Q292.90936 35.45625 293.1906 34.76875Q293.4875 34.065624 293.4875 32.7375L293.4875 27.175L295.2375 27.175L295.2375 37.55L293.65936 37.55ZM297.84686 37.55L297.84686 27.175L299.425 27.175L299.425 28.753124Q300.03436 27.64375 300.55 27.3Q301.0656 26.940624 301.675 26.940624Q302.5656 26.940624 303.4875 27.503124L302.8781 29.14375Q302.2375 28.753124 301.59686 28.753124Q301.01874 28.753124 300.55 29.1125Q300.09686 29.45625 299.89374 30.065624Q299.6125 31.003124 299.6125 32.1125L299.6125 37.55L297.84686 37.55ZM304.84686 37.55L304.84686 27.175L306.425 27.175L306.425 28.753124Q307.03436 27.64375 307.55 27.3Q308.0656 26.940624 308.675 26.940624Q309.5656 26.940624 310.4875 27.503124L309.8781 29.14375Q309.2375 28.753124 308.59686 28.753124Q308.01874 28.753124 307.55 29.1125Q307.09686 29.45625 306.89374 30.065624Q306.6125 31.003124 306.6125 32.1125L306.6125 37.55L304.84686 37.55ZM318.97186 34.20625L320.78436 34.440624Q320.3625 36.01875 319.1906 36.909374Q318.03436 37.784374 316.22186 37.784374Q313.95624 37.784374 312.6125 36.39375Q311.28436 34.9875 311.28436 32.45625Q311.28436 29.83125 312.6281 28.39375Q313.97186 26.940624 316.1281 26.940624Q318.20624 26.940624 319.51874 28.3625Q320.84686 29.76875 320.84686 32.346874Q320.84686 32.503124 320.83124 32.815624L313.09686 32.815624Q313.1906 34.51875 314.0656 35.425Q314.9406 36.33125 316.2375 36.33125Q317.20624 36.33125 317.8781 35.83125Q318.5656 35.315624 318.97186 34.20625ZM313.1906 31.3625L318.9875 31.3625Q318.8781 30.065624 318.33124 29.409374Q317.4875 28.39375 316.14374 28.39375Q314.9406 28.39375 314.1125 29.20625Q313.28436 30.003124 313.1906 31.3625ZM322.8625 37.55L322.8625 27.175L324.45624 27.175L324.45624 28.659374Q325.59686 26.940624 327.7531 26.940624Q328.6906 26.940624 329.47186 27.284374Q330.26874 27.6125 330.65936 28.159374Q331.05 28.70625 331.20624 29.45625Q331.3 29.95625 331.3 31.175L331.3 37.55L329.53436 37.55L329.53436 31.2375Q329.53436 30.159374 329.33124 29.628124Q329.1281 29.096874 328.59686 28.784374Q328.08124 28.471874 327.3781 28.471874Q326.2531 28.471874 325.4406 29.190624Q324.6281 29.89375 324.6281 31.878124L324.6281 37.55L322.8625 37.55ZM337.70624 35.971874L337.95624 37.534374Q337.22186 37.690624 336.6281 37.690624Q335.675 37.690624 335.14374 37.39375Q334.6281 37.08125 334.40936 36.596874Q334.1906 36.096874 334.1906 34.51875L334.1906 28.55L332.90936 28.55L332.90936 27.175L334.1906 27.175L334.1906 24.6125L335.9406 23.55L335.9406 27.175L337.70624 27.175L337.70624 28.55L335.9406 28.55L335.9406 34.6125Q335.9406 35.3625 336.03436 35.58125Q336.1281 35.784374 336.33124 35.925Q336.55 36.05 336.9406 36.05Q337.22186 36.05 337.70624 35.971874ZM345.22186 32.3625Q345.22186 29.4875 346.8156 28.096874Q348.15936 26.940624 350.08124 26.940624Q352.22186 26.940624 353.5656 28.346874Q354.925 29.753124 354.925 32.221874Q354.925 34.221874 354.33124 35.378124Q353.7375 36.51875 352.58124 37.159374Q351.4406 37.784374 350.08124 37.784374Q347.89374 37.784374 346.55 36.39375Q345.22186 34.9875 345.22186 32.3625ZM347.01874 32.3625Q347.01874 34.3625 347.8781 35.346874Q348.7531 36.33125 350.08124 36.33125Q351.39374 36.33125 352.2531 35.346874Q353.1281 34.346874 353.1281 32.3Q353.1281 30.378124 352.2531 29.39375Q351.3781 28.39375 350.08124 28.39375Q348.7531 28.39375 347.8781 29.39375Q347.01874 30.378124 347.01874 32.3625ZM363.64374 33.753124L365.3625 33.971874Q365.08124 35.76875 363.90936 36.784374Q362.7531 37.784374 361.05 37.784374Q358.925 37.784374 357.6281 36.39375Q356.33124 35.003124 356.33124 32.409374Q356.33124 30.721874 356.8781 29.471874Q357.4406 28.20625 358.58124 27.58125Q359.72186 26.940624 361.0656 26.940624Q362.7531 26.940624 363.8156 27.8Q364.89374 28.659374 365.20624 30.221874L363.4875 30.4875Q363.2531 29.440624 362.6281 28.925Q362.0031 28.39375 361.1281 28.39375Q359.8 28.39375 358.97186 29.346874Q358.14374 30.3 358.14374 32.346874Q358.14374 34.440624 358.9406 35.39375Q359.7375 36.33125 361.03436 36.33125Q362.0656 36.33125 362.7531 35.70625Q363.45624 35.065624 363.64374 33.753124ZM373.64374 33.753124L375.3625 33.971874Q375.08124 35.76875 373.90936 36.784374Q372.7531 37.784374 371.05 37.784374Q368.925 37.784374 367.6281 36.39375Q366.33124 35.003124 366.33124 32.409374Q366.33124 30.721874 366.8781 29.471874Q367.4406 28.20625 368.58124 27.58125Q369.72186 26.940624 371.0656 26.940624Q372.7531 26.940624 373.8156 27.8Q374.89374 28.659374 375.20624 30.221874L373.4875 30.4875Q373.2531 29.440624 372.6281 28.925Q372.0031 28.39375 371.1281 28.39375Q369.8 28.39375 368.97186 29.346874Q368.14374 30.3 368.14374 32.346874Q368.14374 34.440624 368.9406 35.39375Q369.7375 36.33125 371.03436 36.33125Q372.0656 36.33125 372.7531 35.70625Q373.45624 35.065624 373.64374 33.753124ZM383.65936 37.55L383.65936 36.01875Q382.45624 37.784374 380.3781 37.784374Q379.45624 37.784374 378.65936 37.440624Q377.8625 37.08125 377.47186 36.55Q377.09686 36.01875 376.9406 35.2375Q376.83124 34.721874 376.83124 33.596874L376.83124 27.175L378.58124 27.175L378.58124 32.925Q378.58124 34.3 378.6906 34.784374Q378.8625 35.471874 379.39374 35.878124Q379.9406 36.26875 380.72186 36.26875Q381.51874 36.26875 382.20624 35.8625Q382.90936 35.45625 383.1906 34.76875Q383.4875 34.065624 383.4875 32.7375L383.4875 27.175L385.2375 27.175L385.2375 37.55L383.65936 37.55ZM387.8625 41.51875L387.8625 27.175L389.47186 27.175L389.47186 28.51875Q390.03436 27.7375 390.7375 27.346874Q391.45624 26.940624 392.47186 26.940624Q393.8 26.940624 394.8156 27.628124Q395.83124 28.315624 396.34686 29.565624Q396.8781 30.8 396.8781 32.284374Q396.8781 33.878124 396.3 35.159374Q395.7375 36.425 394.64374 37.1125Q393.55 37.784374 392.34686 37.784374Q391.47186 37.784374 390.76874 37.409374Q390.08124 37.034374 389.6281 36.471874L389.6281 41.51875L387.8625 41.51875ZM389.45624 32.425Q389.45624 34.425 390.26874 35.378124Q391.08124 36.33125 392.2375 36.33125Q393.40936 36.33125 394.2375 35.346874Q395.08124 34.3625 395.08124 32.26875Q395.08124 30.3 394.2531 29.315624Q393.4406 28.315624 392.3156 28.315624Q391.1906 28.315624 390.3156 29.378124Q389.45624 30.425 389.45624 32.425ZM405.64374 36.26875Q404.65936 37.096874 403.7531 37.440624Q402.84686 37.784374 401.8156 37.784374Q400.1125 37.784374 399.1906 36.95625Q398.26874 36.1125 398.26874 34.815624Q398.26874 34.05 398.6125 33.425Q398.97186 32.8 399.53436 32.425Q400.09686 32.034374 400.8 31.83125Q401.3156 31.70625 402.3625 31.565624Q404.4875 31.315624 405.4875 30.971874Q405.5031 30.6125 405.5031 30.503124Q405.5031 29.440624 405.0031 28.9875Q404.33124 28.39375 403.0031 28.39375Q401.7531 28.39375 401.15936 28.83125Q400.58124 29.26875 400.3 30.378124L398.58124 30.14375Q398.8156 29.034374 399.34686 28.3625Q399.8781 27.675 400.89374 27.315624Q401.90936 26.940624 403.2531 26.940624Q404.58124 26.940624 405.40936 27.253124Q406.2375 27.565624 406.6281 28.05Q407.01874 28.51875 407.175 29.2375Q407.26874 29.690624 407.26874 30.8625L407.26874 33.20625Q407.26874 35.659374 407.3781 36.315624Q407.4875 36.95625 407.83124 37.55L405.9875 37.55Q405.72186 37.003124 405.64374 36.26875ZM405.4875 32.346874Q404.53436 32.7375 402.6125 33.003124Q401.53436 33.159374 401.08124 33.3625Q400.64374 33.55 400.39374 33.925Q400.14374 34.3 400.14374 34.76875Q400.14374 35.471874 400.675 35.940624Q401.20624 36.409374 402.2375 36.409374Q403.2531 36.409374 404.03436 35.971874Q404.83124 35.51875 405.20624 34.753124Q405.4875 34.14375 405.4875 32.9875L405.4875 32.346874ZM413.70624 35.971874L413.95624 37.534374Q413.22186 37.690624 412.6281 37.690624Q411.675 37.690624 411.14374 37.39375Q410.6281 37.08125 410.40936 36.596874Q410.1906 36.096874 410.1906 34.51875L410.1906 28.55L408.90936 28.55L408.90936 27.175L410.1906 27.175L410.1906 24.6125L411.9406 23.55L411.9406 27.175L413.70624 27.175L413.70624 28.55L411.9406 28.55L411.9406 34.6125Q411.9406 35.3625 412.03436 35.58125Q412.1281 35.784374 412.33124 35.925Q412.55 36.05 412.9406 36.05Q413.22186 36.05 413.70624 35.971874ZM415.8781 25.253124L415.8781 23.2375L417.64374 23.2375L417.64374 25.253124L415.8781 25.253124ZM415.8781 37.55L415.8781 27.175L417.64374 27.175L417.64374 37.55L415.8781 37.55ZM419.22186 32.3625Q419.22186 29.4875 420.8156 28.096874Q422.15936 26.940624 424.08124 26.940624Q426.22186 26.940624 427.5656 28.346874Q428.925 29.753124 428.925 32.221874Q428.925 34.221874 428.33124 35.378124Q427.7375 36.51875 426.58124 37.159374Q425.4406 37.784374 424.08124 37.784374Q421.89374 37.784374 420.55 36.39375Q419.22186 34.9875 419.22186 32.3625ZM421.01874 32.3625Q421.01874 34.3625 421.8781 35.346874Q422.7531 36.33125 424.08124 36.33125Q425.39374 36.33125 426.2531 35.346874Q427.1281 34.346874 427.1281 32.3Q427.1281 30.378124 426.2531 29.39375Q425.3781 28.39375 424.08124 28.39375Q422.7531 28.39375 421.8781 29.39375Q421.01874 30.378124 421.01874 32.3625ZM430.8625 37.55L430.8625 27.175L432.45624 27.175L432.45624 28.659374Q433.59686 26.940624 435.7531 26.940624Q436.6906 26.940624 437.47186 27.284374Q438.26874 27.6125 438.65936 28.159374Q439.05 28.70625 439.20624 29.45625Q439.3 29.95625 439.3 31.175L439.3 37.55L437.53436 37.55L437.53436 31.2375Q437.53436 30.159374 437.33124 29.628124Q437.1281 29.096874 436.59686 28.784374Q436.08124 28.471874 435.3781 28.471874Q434.2531 28.471874 433.4406 29.190624Q432.6281 29.89375 432.6281 31.878124L432.6281 37.55L430.8625 37.55ZM442.3625 29.175L442.3625 27.175L444.3625 27.175L444.3625 29.175L442.3625 29.175ZM442.3625 37.55L442.3625 35.55L444.3625 35.55L444.3625 37.55L442.3625 37.55Z" fill-rule="nonzero"/></svg>