<svg version="1.1" viewBox="0.0 0.0 807.0 371.0" fill="none" stroke="none" stroke-linecap="square" stroke-miterlimit="10" width="807" height="371" xmlns:xlink="http://www.w3.org/1999/xlink" xmlns="http://www.w3.org/2000/svg"><path fill="#ffffff" d="M0 0L807.0 0L807.0 371.0L0 371.0L0 0Z" fill-rule="nonzero"/><path fill="#4285f4" d="M403.5 54.916668C441.7299 54.916668 478.49246 69.63418 506.16077 96.01583L403.5 203.68333Z" fill-rule="nonzero"/><path fill="#ea4335" d="M506.16077 96.01583C561.0058 148.31049 567.77637 233.47449 521.8828 293.77786L403.5 203.68333Z" fill-rule="nonzero"/><path fill="#fbbc04" d="M521.8828 293.77786C516.1605 301.2969 509.7349 308.25366 502.693 314.55383L403.5 203.68333Z" fill-rule="nonzero"/><path fill="#ff6d01" d="M323.07068 78.53285C347.06256 63.114193 374.98077 54.916668 403.5 54.916668L403.5 203.68333Z" fill-rule="nonzero"/><path fill="#34a853" d="M502.693 314.55383C460.9803 351.87314 401.8512 362.62195 349.67297 342.37067C297.49475 322.11935 261.09875 274.29556 255.48383 218.60754C249.8689 162.91954 275.9854 108.79272 323.07068 78.53285L403.5 203.68333Z" fill-rule="nonzero"/><path fill="#1a1a1a" d="M19.096874 63.15104L20.159374 63.05729Q20.2375 63.71354 20.51875 64.11979Q20.8 64.52604 21.378124 64.791664Q21.971874 65.041664 22.70625 65.041664Q23.346874 65.041664 23.846874 64.854164Q24.346874 64.65104 24.58125 64.322914Q24.83125 63.979164 24.83125 63.58854Q24.83125 63.18229 24.596874 62.885414Q24.3625 62.572914 23.83125 62.36979Q23.471874 62.229164 22.284374 61.947914Q21.1125 61.666664 20.64375 61.416664Q20.01875 61.08854 19.721874 60.61979Q19.425 60.135414 19.425 59.541664Q19.425 58.90104 19.784374 58.33854Q20.159374 57.760414 20.8625 57.479164Q21.58125 57.18229 22.440624 57.18229Q23.39375 57.18229 24.128124 57.49479Q24.8625 57.791664 25.253124 58.40104Q25.64375 58.99479 25.675 59.74479L24.58125 59.822914Q24.4875 59.010414 23.971874 58.604164Q23.471874 58.18229 22.4875 58.18229Q21.45625 58.18229 20.9875 58.55729Q20.51875 58.93229 20.51875 59.46354Q20.51875 59.93229 20.846874 60.229164Q21.175 60.52604 22.55 60.83854Q23.940624 61.15104 24.45625 61.385414Q25.20625 61.74479 25.565624 62.27604Q25.925 62.791664 25.925 63.49479Q25.925 64.18229 25.534374 64.791664Q25.14375 65.385414 24.409374 65.729164Q23.675 66.05729 22.753124 66.05729Q21.58125 66.05729 20.784374 65.729164Q20.003124 65.385414 19.55 64.697914Q19.1125 64.010414 19.096874 63.15104ZM31.596874 63.916664L32.690624 64.041664Q32.440624 64.99479 31.7375 65.52604Q31.034374 66.05729 29.95625 66.05729Q28.596874 66.05729 27.784374 65.21354Q26.9875 64.36979 26.9875 62.854164Q26.9875 61.291664 27.8 60.43229Q28.6125 59.55729 29.89375 59.55729Q31.14375 59.55729 31.925 60.40104Q32.721874 61.24479 32.721874 62.791664Q32.721874 62.885414 32.721874 63.072914L28.08125 63.072914Q28.14375 64.104164 28.659374 64.65104Q29.175 65.18229 29.95625 65.18229Q30.534374 65.18229 30.940624 64.885414Q31.3625 64.572914 31.596874 63.916664ZM28.14375 62.21354L31.6125 62.21354Q31.55 61.416664 31.221874 61.02604Q30.70625 60.416664 29.909374 60.416664Q29.175 60.416664 28.675 60.90104Q28.190624 61.385414 28.14375 62.21354ZM34.346874 65.916664L34.346874 59.697914L35.284374 59.697914L35.284374 60.572914Q35.971874 59.55729 37.26875 59.55729Q37.83125 59.55729 38.3 59.760414Q38.784374 59.96354 39.01875 60.291664Q39.253124 60.61979 39.346874 61.05729Q39.39375 61.354164 39.39375 62.08854L39.39375 65.916664L38.346874 65.916664L38.346874 62.135414Q38.346874 61.479164 38.221874 61.166664Q38.096874 60.854164 37.784374 60.666664Q37.471874 60.46354 37.05 60.46354Q36.378124 60.46354 35.878124 60.90104Q35.39375 61.322914 35.39375 62.510414L35.39375 65.916664L34.346874 65.916664ZM41.346874 58.541664L41.346874 57.322914L42.409374 57.322914L42.409374 58.541664L41.346874 58.541664ZM41.346874 65.916664L41.346874 59.697914L42.409374 59.697914L42.409374 65.916664L41.346874 65.916664ZM43.95625 62.80729Q43.95625 61.072914 44.909374 60.24479Q45.70625 59.55729 46.8625 59.55729Q48.14375 59.55729 48.95625 60.40104Q49.784374 61.229164 49.784374 62.71354Q49.784374 63.916664 49.425 64.604164Q49.065624 65.291664 48.3625 65.68229Q47.675 66.05729 46.8625 66.05729Q45.565624 66.05729 44.753124 65.229164Q43.95625 64.385414 43.95625 62.80729ZM45.034374 62.80729Q45.034374 63.99479 45.55 64.58854Q46.08125 65.18229 46.8625 65.18229Q47.659374 65.18229 48.175 64.58854Q48.690624 63.99479 48.690624 62.77604Q48.690624 61.61979 48.159374 61.02604Q47.64375 60.43229 46.8625 60.43229Q46.08125 60.43229 45.55 61.02604Q45.034374 61.604164 45.034374 62.80729ZM51.33125 65.916664L51.33125 59.697914L52.284374 59.697914L52.284374 60.635414Q52.64375 59.979164 52.940624 59.77604Q53.253124 59.55729 53.628124 59.55729Q54.159374 59.55729 54.70625 59.885414L54.346874 60.86979Q53.95625 60.635414 53.58125 60.635414Q53.221874 60.635414 52.940624 60.854164Q52.675 61.05729 52.565624 61.43229Q52.378124 61.99479 52.378124 62.65104L52.378124 65.916664L51.33125 65.916664ZM58.4875 65.916664L58.4875 57.322914L62.3 57.322914Q63.45625 57.322914 64.05 57.55729Q64.64375 57.791664 65.00313 58.385414Q65.3625 58.96354 65.3625 59.666664Q65.3625 60.58854 64.76875 61.21354Q64.175 61.83854 62.940624 62.010414Q63.39375 62.229164 63.628124 62.43229Q64.12813 62.885414 64.56563 63.572914L66.06563 65.916664L64.62813 65.916664L63.503124 64.135414Q63.003124 63.354164 62.675 62.947914Q62.3625 62.541664 62.096874 62.385414Q61.846874 62.21354 61.58125 62.135414Q61.39375 62.104164 60.95625 62.104164L59.628124 62.104164L59.628124 65.916664L58.4875 65.916664ZM59.628124 61.11979L62.08125 61.11979Q62.846874 61.11979 63.284374 60.96354Q63.7375 60.791664 63.95625 60.447914Q64.19063 60.08854 64.19063 59.666664Q64.19063 59.05729 63.7375 58.666664Q63.3 58.27604 62.346874 58.27604L59.628124 58.27604L59.628124 61.11979ZM71.59688 63.916664L72.69063 64.041664Q72.44063 64.99479 71.7375 65.52604Q71.03438 66.05729 69.95625 66.05729Q68.59688 66.05729 67.78438 65.21354Q66.9875 64.36979 66.9875 62.854164Q66.9875 61.291664 67.8 60.43229Q68.6125 59.55729 69.89375 59.55729Q71.14375 59.55729 71.925 60.40104Q72.72188 61.24479 72.72188 62.791664Q72.72188 62.885414 72.72188 63.072914L68.08125 63.072914Q68.14375 64.104164 68.65938 64.65104Q69.175 65.18229 69.95625 65.18229Q70.53438 65.18229 70.94063 64.885414Q71.3625 64.572914 71.59688 63.916664ZM68.14375 62.21354L71.6125 62.21354Q71.55 61.416664 71.22188 61.02604Q70.70625 60.416664 69.90938 60.416664Q69.175 60.416664 68.675 60.90104Q68.19063 61.385414 68.14375 62.21354ZM73.925 64.05729L74.95625 63.90104Q75.05 64.52604 75.44063 64.854164Q75.84688 65.18229 76.58125 65.18229Q77.3 65.18229 77.64375 64.90104Q78.00313 64.604164 78.00313 64.197914Q78.00313 63.83854 77.69063 63.635414Q77.47188 63.49479 76.6125 63.27604Q75.45625 62.979164 75.00313 62.77604Q74.56563 62.55729 74.33125 62.18229Q74.09688 61.80729 74.09688 61.33854Q74.09688 60.93229 74.28438 60.572914Q74.47188 60.21354 74.8 59.979164Q75.05 59.80729 75.47188 59.68229Q75.89375 59.55729 76.39375 59.55729Q77.1125 59.55729 77.65938 59.77604Q78.22188 59.979164 78.4875 60.33854Q78.75313 60.697914 78.84688 61.291664L77.81563 61.43229Q77.75313 60.96354 77.40938 60.697914Q77.08125 60.416664 76.45625 60.416664Q75.7375 60.416664 75.425 60.666664Q75.1125 60.90104 75.1125 61.229164Q75.1125 61.43229 75.2375 61.58854Q75.37813 61.760414 75.64375 61.86979Q75.8 61.93229 76.58125 62.135414Q77.70625 62.447914 78.14375 62.635414Q78.58125 62.822914 78.83125 63.18229Q79.08125 63.541664 79.08125 64.08854Q79.08125 64.61979 78.76875 65.08854Q78.47188 65.541664 77.89375 65.80729Q77.31563 66.05729 76.58125 66.05729Q75.3625 66.05729 74.72188 65.55729Q74.09688 65.041664 73.925 64.05729ZM84.59688 63.916664L85.69063 64.041664Q85.44063 64.99479 84.7375 65.52604Q84.03438 66.05729 82.95625 66.05729Q81.59688 66.05729 80.78438 65.21354Q79.9875 64.36979 79.9875 62.854164Q79.9875 61.291664 80.8 60.43229Q81.6125 59.55729 82.89375 59.55729Q84.14375 59.55729 84.925 60.40104Q85.72188 61.24479 85.72188 62.791664Q85.72188 62.885414 85.72188 63.072914L81.08125 63.072914Q81.14375 64.104164 81.65938 64.65104Q82.175 65.18229 82.95625 65.18229Q83.53438 65.18229 83.94063 64.885414Q84.3625 64.572914 84.59688 63.916664ZM81.14375 62.21354L84.6125 62.21354Q84.55 61.416664 84.22188 61.02604Q83.70625 60.416664 82.90938 60.416664Q82.175 60.416664 81.675 60.90104Q81.19063 61.385414 81.14375 62.21354ZM91.40938 65.15104Q90.81563 65.65104 90.26875 65.854164Q89.7375 66.05729 89.1125 66.05729Q88.08125 66.05729 87.53438 65.55729Q86.9875 65.05729 86.9875 64.27604Q86.9875 63.822914 87.19063 63.447914Q87.39375 63.05729 87.7375 62.83854Q88.08125 62.604164 88.50313 62.49479Q88.8 62.40104 89.44063 62.322914Q90.70625 62.18229 91.31563 61.96354Q91.31563 61.74479 91.31563 61.697914Q91.31563 61.041664 91.01875 60.77604Q90.6125 60.43229 89.81563 60.43229Q89.08125 60.43229 88.72188 60.697914Q88.3625 60.947914 88.19063 61.604164L87.15938 61.46354Q87.3 60.80729 87.62813 60.40104Q87.95625 59.99479 88.56563 59.77604Q89.175 59.55729 89.97188 59.55729Q90.76875 59.55729 91.26875 59.74479Q91.76875 59.93229 92.00313 60.21354Q92.2375 60.49479 92.33125 60.93229Q92.37813 61.197914 92.37813 61.90104L92.37813 63.30729Q92.37813 64.77604 92.44063 65.166664Q92.51875 65.55729 92.72188 65.916664L91.6125 65.916664Q91.45625 65.58854 91.40938 65.15104ZM91.31563 62.791664Q90.7375 63.02604 89.59688 63.197914Q88.94063 63.291664 88.675 63.416664Q88.40938 63.52604 88.25313 63.74479Q88.1125 63.96354 88.1125 64.24479Q88.1125 64.666664 88.425 64.947914Q88.75313 65.229164 89.3625 65.229164Q89.97188 65.229164 90.44063 64.96354Q90.925 64.697914 91.14375 64.229164Q91.31563 63.86979 91.31563 63.18229L91.31563 62.791664ZM94.33125 65.916664L94.33125 59.697914L95.28438 59.697914L95.28438 60.635414Q95.64375 59.979164 95.94063 59.77604Q96.25313 59.55729 96.62813 59.55729Q97.15938 59.55729 97.70625 59.885414L97.34688 60.86979Q96.95625 60.635414 96.58125 60.635414Q96.22188 60.635414 95.94063 60.854164Q95.675 61.05729 95.56563 61.43229Q95.37813 61.99479 95.37813 62.65104L95.37813 65.916664L94.33125 65.916664ZM102.40938 63.635414L103.44063 63.77604Q103.26875 64.83854 102.56563 65.447914Q101.8625 66.05729 100.84688 66.05729Q99.56563 66.05729 98.78438 65.229164Q98.01875 64.385414 98.01875 62.822914Q98.01875 61.822914 98.34688 61.072914Q98.69063 60.30729 99.3625 59.93229Q100.05 59.55729 100.8625 59.55729Q101.8625 59.55729 102.50313 60.072914Q103.15938 60.572914 103.34688 61.52604L102.31563 61.68229Q102.175 61.05729 101.8 60.74479Q101.425 60.416664 100.89375 60.416664Q100.09688 60.416664 99.59688 60.99479Q99.09688 61.55729 99.09688 62.791664Q99.09688 64.05729 99.58125 64.61979Q100.06563 65.18229 100.83125 65.18229Q101.45625 65.18229 101.8625 64.80729Q102.28438 64.43229 102.40938 63.635414ZM104.34688 65.916664L104.34688 57.322914L105.39375 57.322914L105.39375 60.40104Q106.12813 59.55729 107.25313 59.55729Q107.95625 59.55729 108.45625 59.83854Q108.97188 60.104164 109.19063 60.58854Q109.40938 61.05729 109.40938 61.979164L109.40938 65.916664L108.3625 65.916664L108.3625 61.979164Q108.3625 61.18229 108.01875 60.822914Q107.675 60.46354 107.05 60.46354Q106.58125 60.46354 106.15938 60.71354Q105.75313 60.947914 105.56563 61.36979Q105.39375 61.77604 105.39375 62.510414L105.39375 65.916664L104.34688 65.916664ZM115.59688 63.916664L116.69063 64.041664Q116.44063 64.99479 115.7375 65.52604Q115.03438 66.05729 113.95625 66.05729Q112.59688 66.05729 111.78438 65.21354Q110.9875 64.36979 110.9875 62.854164Q110.9875 61.291664 111.8 60.43229Q112.6125 59.55729 113.89375 59.55729Q115.14375 59.55729 115.925 60.40104Q116.72188 61.24479 116.72188 62.791664Q116.72188 62.885414 116.72188 63.072914L112.08125 63.072914Q112.14375 64.104164 112.65938 64.65104Q113.175 65.18229 113.95625 65.18229Q114.53438 65.18229 114.94063 64.885414Q115.3625 64.572914 115.59688 63.916664ZM112.14375 62.21354L115.6125 62.21354Q115.55 61.416664 115.22188 61.02604Q114.70625 60.416664 113.90938 60.416664Q113.175 60.416664 112.675 60.90104Q112.19063 61.385414 112.14375 62.21354ZM118.33125 65.916664L118.33125 59.697914L119.28438 59.697914L119.28438 60.635414Q119.64375 59.979164 119.94063 59.77604Q120.25313 59.55729 120.62813 59.55729Q121.15938 59.55729 121.70625 59.885414L121.34688 60.86979Q120.95625 60.635414 120.58125 60.635414Q120.22188 60.635414 119.94063 60.854164Q119.675 61.05729 119.56563 61.43229Q119.37813 61.99479 119.37813 62.65104L119.37813 65.916664L118.33125 65.916664Z" fill-rule="nonzero"/><path fill="#9e9e9e" d="M19.20625 80.93229L20.221874 80.83854Q20.346874 81.55729 20.70625 81.885414Q21.08125 82.197914 21.64375 82.197914Q22.128124 82.197914 22.4875 81.979164Q22.8625 81.74479 23.096874 81.385414Q23.33125 81.010414 23.4875 80.385414Q23.64375 79.74479 23.64375 79.08854Q23.64375 79.010414 23.64375 78.86979Q23.33125 79.36979 22.784374 79.697914Q22.2375 80.010414 21.596874 80.010414Q20.51875 80.010414 19.784374 79.24479Q19.05 78.46354 19.05 77.197914Q19.05 75.885414 19.815624 75.08854Q20.596874 74.291664 21.753124 74.291664Q22.58125 74.291664 23.26875 74.74479Q23.971874 75.197914 24.33125 76.041664Q24.690624 76.86979 24.690624 78.447914Q24.690624 80.08854 24.33125 81.072914Q23.9875 82.041664 23.26875 82.55729Q22.565624 83.05729 21.628124 83.05729Q20.6125 83.05729 19.971874 82.510414Q19.33125 81.947914 19.20625 80.93229ZM23.51875 77.135414Q23.51875 76.229164 23.034374 75.697914Q22.565624 75.166664 21.878124 75.166664Q21.175 75.166664 20.64375 75.74479Q20.128124 76.30729 20.128124 77.229164Q20.128124 78.041664 20.628124 78.55729Q21.128124 79.072914 21.846874 79.072914Q22.58125 79.072914 23.05 78.55729Q23.51875 78.041664 23.51875 77.135414ZM26.64375 82.916664L26.64375 81.71354L27.846874 81.71354L27.846874 82.916664L26.64375 82.916664ZM33.01875 82.916664L31.971874 82.916664L31.971874 76.197914Q31.58125 76.55729 30.95625 76.93229Q30.346874 77.291664 29.8625 77.46354L29.8625 76.447914Q30.7375 76.02604 31.39375 75.447914Q32.065624 74.854164 32.346874 74.291664L33.01875 74.291664L33.01875 82.916664ZM36.253124 76.385414Q36.253124 75.46354 36.70625 74.822914Q37.175 74.18229 38.05 74.18229Q38.8625 74.18229 39.39375 74.760414Q39.925 75.33854 39.925 76.447914Q39.925 77.541664 39.378124 78.135414Q38.846874 78.71354 38.065624 78.71354Q37.284374 78.71354 36.76875 78.135414Q36.253124 77.55729 36.253124 76.385414ZM38.08125 74.90104Q37.690624 74.90104 37.425 75.24479Q37.175 75.58854 37.175 76.49479Q37.175 77.322914 37.425 77.666664Q37.690624 77.99479 38.08125 77.99479Q38.4875 77.99479 38.7375 77.65104Q39.003124 77.30729 39.003124 76.416664Q39.003124 75.572914 38.7375 75.24479Q38.471874 74.90104 38.08125 74.90104ZM38.08125 83.229164L42.784374 74.18229L43.64375 74.18229L38.95625 83.229164L38.08125 83.229164ZM41.8 80.90104Q41.8 79.979164 42.253124 79.33854Q42.721874 78.697914 43.6125 78.697914Q44.425 78.697914 44.95625 79.27604Q45.4875 79.83854 45.4875 80.96354Q45.4875 82.05729 44.940624 82.65104Q44.409374 83.229164 43.6125 83.229164Q42.846874 83.229164 42.315624 82.65104Q41.8 82.072914 41.8 80.90104ZM43.64375 79.416664Q43.2375 79.416664 42.971874 79.760414Q42.721874 80.104164 42.721874 81.010414Q42.721874 81.822914 42.9875 82.166664Q43.253124 82.510414 43.64375 82.510414Q44.034374 82.510414 44.3 82.166664Q44.565624 81.822914 44.565624 80.916664Q44.565624 80.08854 44.3 79.760414Q44.034374 79.416664 43.64375 79.416664Z" fill-rule="nonzero"/><path stroke="#757575" stroke-width="1.0" stroke-linecap="butt" d="M18.55 70.416664L248.73334 70.416664L363.6832 68.07979" fill-rule="nonzero"/><path fill="#9e9e9e" d="M365.6832 68.07979C365.6832 66.97522 364.78778 66.07979 363.6832 66.07979C362.57864 66.07979 361.6832 66.97522 361.6832 68.07979C361.6832 69.18436 362.57864 70.07979 363.6832 70.07979C364.78778 70.07979 365.6832 69.18436 365.6832 68.07979" fill-rule="nonzero"/><path fill="#1a1a1a" d="M19.471874 284.77313L19.471874 276.17938L22.721874 276.17938Q23.565624 276.17938 24.01875 276.2575Q24.659374 276.36688 25.08125 276.66376Q25.51875 276.96063 25.76875 277.49188Q26.034374 278.02313 26.034374 278.66376Q26.034374 279.7575 25.33125 280.52313Q24.64375 281.27313 22.815624 281.27313L20.6125 281.27313L20.6125 284.77313L19.471874 284.77313ZM20.6125 280.27313L22.83125 280.27313Q23.940624 280.27313 24.39375 279.86688Q24.8625 279.445 24.8625 278.695Q24.8625 278.16376 24.58125 277.78876Q24.315624 277.39813 23.878124 277.27313Q23.58125 277.195 22.815624 277.195L20.6125 277.195L20.6125 280.27313ZM27.346874 284.77313L27.346874 276.17938L28.39375 276.17938L28.39375 279.2575Q29.128124 278.41376 30.253124 278.41376Q30.95625 278.41376 31.45625 278.695Q31.971874 278.96063 32.190624 279.445Q32.409374 279.91376 32.409374 280.83563L32.409374 284.77313L31.3625 284.77313L31.3625 280.83563Q31.3625 280.03876 31.01875 279.67938Q30.675 279.32 30.05 279.32Q29.58125 279.32 29.159374 279.57Q28.753124 279.80438 28.565624 280.22626Q28.39375 280.6325 28.39375 281.36688L28.39375 284.77313L27.346874 284.77313ZM34.471874 284.77313L34.471874 276.17938L37.440624 276.17938Q38.440624 276.17938 38.971874 276.30438Q39.70625 276.47626 40.221874 276.91376Q40.909374 277.49188 41.2375 278.39813Q41.58125 279.28876 41.58125 280.42938Q41.58125 281.41376 41.346874 282.16376Q41.128124 282.91376 40.76875 283.41376Q40.409374 283.91376 39.971874 284.195Q39.55 284.47626 38.95625 284.6325Q38.3625 284.77313 37.58125 284.77313L34.471874 284.77313ZM35.6125 283.7575L37.440624 283.7575Q38.3 283.7575 38.784374 283.60126Q39.26875 283.445 39.55 283.14813Q39.95625 282.7575 40.175 282.07Q40.409374 281.3825 40.409374 280.41376Q40.409374 279.07 39.95625 278.35126Q39.51875 277.61688 38.89375 277.36688Q38.425 277.195 37.425 277.195L35.6125 277.195L35.6125 283.7575ZM46.096874 282.0075L47.159374 281.91376Q47.2375 282.57 47.51875 282.97626Q47.8 283.3825 48.378124 283.64813Q48.971874 283.89813 49.70625 283.89813Q50.346874 283.89813 50.846874 283.71063Q51.346874 283.5075 51.58125 283.17938Q51.83125 282.83563 51.83125 282.445Q51.83125 282.03876 51.596874 281.74188Q51.3625 281.42938 50.83125 281.22626Q50.471874 281.08563 49.284374 280.80438Q48.1125 280.52313 47.64375 280.27313Q47.01875 279.945 46.721874 279.47626Q46.425 278.99188 46.425 278.39813Q46.425 277.7575 46.784374 277.195Q47.159374 276.61688 47.8625 276.33563Q48.58125 276.03876 49.440624 276.03876Q50.39375 276.03876 51.128124 276.35126Q51.8625 276.64813 52.253124 277.2575Q52.64375 277.85126 52.675 278.60126L51.58125 278.67938Q51.4875 277.86688 50.971874 277.46063Q50.471874 277.03876 49.4875 277.03876Q48.45625 277.03876 47.9875 277.41376Q47.51875 277.78876 47.51875 278.32Q47.51875 278.78876 47.846874 279.08563Q48.175 279.3825 49.55 279.695Q50.940624 280.0075 51.45625 280.24188Q52.20625 280.60126 52.565624 281.1325Q52.925 281.64813 52.925 282.35126Q52.925 283.03876 52.534374 283.64813Q52.14375 284.24188 51.409374 284.58563Q50.675 284.91376 49.753124 284.91376Q48.58125 284.91376 47.784374 284.58563Q47.003124 284.24188 46.55 283.55438Q46.1125 282.86688 46.096874 282.0075ZM56.64375 283.83563L56.8 284.7575Q56.346874 284.85126 56.003124 284.85126Q55.425 284.85126 55.1125 284.67938Q54.8 284.49188 54.659374 284.195Q54.534374 283.89813 54.534374 282.945L54.534374 279.36688L53.76875 279.36688L53.76875 278.55438L54.534374 278.55438L54.534374 277.0075L55.58125 276.3825L55.58125 278.55438L56.64375 278.55438L56.64375 279.36688L55.58125 279.36688L55.58125 283.0075Q55.58125 283.46063 55.628124 283.58563Q55.690624 283.71063 55.815624 283.78876Q55.940624 283.86688 56.175 283.86688Q56.3625 283.86688 56.64375 283.83563ZM61.425 284.77313L61.425 283.85126Q60.690624 284.91376 59.440624 284.91376Q58.89375 284.91376 58.409374 284.71063Q57.940624 284.49188 57.70625 284.17938Q57.471874 283.85126 57.378124 283.3825Q57.315624 283.08563 57.315624 282.39813L57.315624 278.55438L58.378124 278.55438L58.378124 282.0075Q58.378124 282.82 58.440624 283.11688Q58.534374 283.52313 58.846874 283.77313Q59.175 284.0075 59.659374 284.0075Q60.128124 284.0075 60.534374 283.77313Q60.95625 283.52313 61.128124 283.10126Q61.315624 282.67938 61.315624 281.8825L61.315624 278.55438L62.3625 278.55438L62.3625 284.77313L61.425 284.77313ZM68.37813 284.77313L68.37813 283.99188Q67.78438 284.91376 66.64375 284.91376Q65.89375 284.91376 65.26875 284.5075Q64.64375 284.08563 64.3 283.35126Q63.95625 282.61688 63.95625 281.66376Q63.95625 280.74188 64.26875 279.97626Q64.58125 279.21063 65.20625 278.82Q65.83125 278.41376 66.59688 278.41376Q67.15938 278.41376 67.59688 278.64813Q68.03438 278.8825 68.31563 279.2575L68.31563 276.17938L69.3625 276.17938L69.3625 284.77313L68.37813 284.77313ZM65.05 281.66376Q65.05 282.86688 65.55 283.46063Q66.05 284.03876 66.7375 284.03876Q67.425 284.03876 67.90938 283.47626Q68.39375 282.91376 68.39375 281.7575Q68.39375 280.47626 67.89375 279.8825Q67.40938 279.28876 66.69063 279.28876Q65.9875 279.28876 65.51875 279.86688Q65.05 280.42938 65.05 281.66376ZM75.59688 282.77313L76.69063 282.89813Q76.44063 283.85126 75.7375 284.3825Q75.03438 284.91376 73.95625 284.91376Q72.59688 284.91376 71.78438 284.07Q70.9875 283.22626 70.9875 281.71063Q70.9875 280.14813 71.8 279.28876Q72.6125 278.41376 73.89375 278.41376Q75.14375 278.41376 75.925 279.2575Q76.72188 280.10126 76.72188 281.64813Q76.72188 281.74188 76.72188 281.92938L72.08125 281.92938Q72.14375 282.96063 72.65938 283.5075Q73.175 284.03876 73.95625 284.03876Q74.53438 284.03876 74.94063 283.74188Q75.3625 283.42938 75.59688 282.77313ZM72.14375 281.07L75.6125 281.07Q75.55 280.27313 75.22188 279.8825Q74.70625 279.27313 73.90938 279.27313Q73.175 279.27313 72.675 279.7575Q72.19063 280.24188 72.14375 281.07ZM78.34688 284.77313L78.34688 278.55438L79.28438 278.55438L79.28438 279.42938Q79.97188 278.41376 81.26875 278.41376Q81.83125 278.41376 82.3 278.61688Q82.78438 278.82 83.01875 279.14813Q83.25313 279.47626 83.34688 279.91376Q83.39375 280.21063 83.39375 280.945L83.39375 284.77313L82.34688 284.77313L82.34688 280.99188Q82.34688 280.33563 82.22188 280.02313Q82.09688 279.71063 81.78438 279.52313Q81.47188 279.32 81.05 279.32Q80.37813 279.32 79.87813 279.7575Q79.39375 280.17938 79.39375 281.36688L79.39375 284.77313L78.34688 284.77313ZM87.64375 283.83563L87.8 284.7575Q87.34688 284.85126 87.00313 284.85126Q86.425 284.85126 86.1125 284.67938Q85.8 284.49188 85.65938 284.195Q85.53438 283.89813 85.53438 282.945L85.53438 279.36688L84.76875 279.36688L84.76875 278.55438L85.53438 278.55438L85.53438 277.0075L86.58125 276.3825L86.58125 278.55438L87.64375 278.55438L87.64375 279.36688L86.58125 279.36688L86.58125 283.0075Q86.58125 283.46063 86.62813 283.58563Q86.69063 283.71063 86.81563 283.78876Q86.94063 283.86688 87.175 283.86688Q87.3625 283.86688 87.64375 283.83563Z" fill-rule="nonzero"/><path fill="#9e9e9e" d="M19.05 299.52313L20.159374 299.42938Q20.284374 300.24188 20.721874 300.64813Q21.175 301.05438 21.815624 301.05438Q22.565624 301.05438 23.096874 300.47626Q23.628124 299.89813 23.628124 298.96063Q23.628124 298.05438 23.1125 297.53876Q22.6125 297.0075 21.784374 297.0075Q21.284374 297.0075 20.8625 297.24188Q20.45625 297.47626 20.221874 297.83563L19.2375 297.71063L20.065624 293.30438L24.346874 293.30438L24.346874 294.30438L20.909374 294.30438L20.45625 296.61688Q21.221874 296.07 22.065624 296.07Q23.190624 296.07 23.95625 296.85126Q24.7375 297.6325 24.7375 298.86688Q24.7375 300.02313 24.065624 300.8825Q23.2375 301.91376 21.815624 301.91376Q20.64375 301.91376 19.89375 301.2575Q19.159374 300.60126 19.05 299.52313ZM31.596874 300.7575L31.596874 301.77313L25.909374 301.77313Q25.909374 301.39813 26.034374 301.03876Q26.253124 300.46063 26.721874 299.89813Q27.20625 299.33563 28.1125 298.60126Q29.51875 297.445 30.003124 296.77313Q30.503124 296.10126 30.503124 295.5075Q30.503124 294.8825 30.05 294.46063Q29.596874 294.02313 28.878124 294.02313Q28.1125 294.02313 27.659374 294.47626Q27.20625 294.92938 27.190624 295.74188L26.1125 295.6325Q26.221874 294.41376 26.940624 293.78876Q27.675 293.14813 28.909374 293.14813Q30.14375 293.14813 30.8625 293.83563Q31.58125 294.52313 31.58125 295.53876Q31.58125 296.05438 31.3625 296.55438Q31.159374 297.03876 30.659374 297.60126Q30.175 298.14813 29.05 299.10126Q28.096874 299.89813 27.815624 300.195Q27.55 300.47626 27.378124 300.7575L31.596874 300.7575ZM33.64375 301.77313L33.64375 300.57L34.846874 300.57L34.846874 301.77313L33.64375 301.77313ZM36.05 299.52313L37.159374 299.42938Q37.284374 300.24188 37.721874 300.64813Q38.175 301.05438 38.815624 301.05438Q39.565624 301.05438 40.096874 300.47626Q40.628124 299.89813 40.628124 298.96063Q40.628124 298.05438 40.1125 297.53876Q39.6125 297.0075 38.784374 297.0075Q38.284374 297.0075 37.8625 297.24188Q37.45625 297.47626 37.221874 297.83563L36.2375 297.71063L37.065624 293.30438L41.346874 293.30438L41.346874 294.30438L37.909374 294.30438L37.45625 296.61688Q38.221874 296.07 39.065624 296.07Q40.190624 296.07 40.95625 296.85126Q41.7375 297.6325 41.7375 298.86688Q41.7375 300.02313 41.065624 300.8825Q40.2375 301.91376 38.815624 301.91376Q37.64375 301.91376 36.89375 301.2575Q36.159374 300.60126 36.05 299.52313ZM43.253124 295.24188Q43.253124 294.32 43.70625 293.67938Q44.175 293.03876 45.05 293.03876Q45.8625 293.03876 46.39375 293.61688Q46.925 294.195 46.925 295.30438Q46.925 296.39813 46.378124 296.99188Q45.846874 297.57 45.065624 297.57Q44.284374 297.57 43.76875 296.99188Q43.253124 296.41376 43.253124 295.24188ZM45.08125 293.7575Q44.690624 293.7575 44.425 294.10126Q44.175 294.445 44.175 295.35126Q44.175 296.17938 44.425 296.52313Q44.690624 296.85126 45.08125 296.85126Q45.4875 296.85126 45.7375 296.5075Q46.003124 296.16376 46.003124 295.27313Q46.003124 294.42938 45.7375 294.10126Q45.471874 293.7575 45.08125 293.7575ZM45.08125 302.08563L49.784374 293.03876L50.64375 293.03876L45.95625 302.08563L45.08125 302.08563ZM48.8 299.7575Q48.8 298.83563 49.253124 298.195Q49.721874 297.55438 50.6125 297.55438Q51.425 297.55438 51.95625 298.1325Q52.4875 298.695 52.4875 299.82Q52.4875 300.91376 51.940624 301.5075Q51.409374 302.08563 50.6125 302.08563Q49.846874 302.08563 49.315624 301.5075Q48.8 300.92938 48.8 299.7575ZM50.64375 298.27313Q50.2375 298.27313 49.971874 298.61688Q49.721874 298.96063 49.721874 299.86688Q49.721874 300.67938 49.9875 301.02313Q50.253124 301.36688 50.64375 301.36688Q51.034374 301.36688 51.3 301.02313Q51.565624 300.67938 51.565624 299.77313Q51.565624 298.945 51.3 298.61688Q51.034374 298.27313 50.64375 298.27313Z" fill-rule="nonzero"/><path stroke="#757575" stroke-width="1.0" stroke-linecap="butt" d="M18.55 289.27313L248.73334 289.27313L291.03632 289.27313" fill-rule="nonzero"/><path fill="#9e9e9e" d="M293.03632 289.27313C293.03632 288.16858 292.14087 287.27313 291.03632 287.27313C289.93173 287.27313 289.03632 288.16858 289.03632 289.27313C289.03632 290.37772 289.93173 291.27313 291.03632 291.27313C292.14087 291.27313 293.03632 290.37772 293.03632 289.27313" fill-rule="nonzero"/><path fill="#1a1a1a" d="M759.02814 63.791138Q759.02814 61.650513 760.16876 60.447388Q761.325 59.228638 763.1375 59.228638Q764.34064 59.228638 765.29376 59.806763Q766.2469 60.369263 766.7469 61.384888Q767.2469 62.400513 767.2469 63.697388Q767.2469 64.99426 766.71564 66.02551Q766.1844 67.05676 765.21564 67.58801Q764.2625 68.11926 763.1375 68.11926Q761.91876 68.11926 760.96564 67.54114Q760.0125 66.94739 759.5125 65.94739Q759.02814 64.93176 759.02814 63.791138ZM760.2 63.806763Q760.2 65.36926 761.02814 66.25989Q761.8719 67.15051 763.1375 67.15051Q764.41876 67.15051 765.2469 66.25989Q766.075 65.35364 766.075 63.681763Q766.075 62.634888 765.71564 61.853638Q765.3719 61.072388 764.6844 60.650513Q763.9969 60.213013 763.15314 60.213013Q761.95 60.213013 761.075 61.041138Q760.2 61.869263 760.2 63.806763ZM770.54376 67.04114L770.7 67.96301Q770.2469 68.05676 769.90314 68.05676Q769.325 68.05676 769.0125 67.88489Q768.7 67.69739 768.5594 67.40051Q768.4344 67.10364 768.4344 66.15051L768.4344 62.572388L767.66876 62.572388L767.66876 61.759888L768.4344 61.759888L768.4344 60.213013L769.48126 59.588013L769.48126 61.759888L770.54376 61.759888L770.54376 62.572388L769.48126 62.572388L769.48126 66.21301Q769.48126 66.66614 769.52814 66.79114Q769.59064 66.91614 769.71564 66.99426Q769.84064 67.07239 770.075 67.07239Q770.2625 67.07239 770.54376 67.04114ZM771.2469 67.97864L771.2469 59.384888L772.29376 59.384888L772.29376 62.463013Q773.02814 61.619263 774.15314 61.619263Q774.85626 61.619263 775.35626 61.900513Q775.8719 62.166138 776.09064 62.650513Q776.3094 63.119263 776.3094 64.04114L776.3094 67.97864L775.2625 67.97864L775.2625 64.04114Q775.2625 63.244263 774.91876 62.884888Q774.575 62.525513 773.95 62.525513Q773.48126 62.525513 773.0594 62.775513Q772.65314 63.009888 772.46564 63.431763Q772.29376 63.838013 772.29376 64.57239L772.29376 67.97864L771.2469 67.97864ZM782.4969 65.97864L783.59064 66.10364Q783.34064 67.05676 782.6375 67.58801Q781.9344 68.11926 780.85626 68.11926Q779.4969 68.11926 778.6844 67.27551Q777.8875 66.43176 777.8875 64.91614Q777.8875 63.353638 778.7 62.494263Q779.5125 61.619263 780.79376 61.619263Q782.04376 61.619263 782.825 62.463013Q783.6219 63.306763 783.6219 64.85364Q783.6219 64.94739 783.6219 65.13489L778.98126 65.13489Q779.04376 66.16614 779.5594 66.71301Q780.075 67.24426 780.85626 67.24426Q781.4344 67.24426 781.84064 66.94739Q782.2625 66.63489 782.4969 65.97864ZM779.04376 64.27551L782.5125 64.27551Q782.45 63.478638 782.1219 63.088013Q781.60626 62.478638 780.8094 62.478638Q780.075 62.478638 779.575 62.963013Q779.09064 63.447388 779.04376 64.27551ZM785.23126 67.97864L785.23126 61.759888L786.1844 61.759888L786.1844 62.697388Q786.54376 62.041138 786.84064 61.838013Q787.15314 61.619263 787.52814 61.619263Q788.0594 61.619263 788.60626 61.947388L788.2469 62.931763Q787.85626 62.697388 787.48126 62.697388Q787.1219 62.697388 786.84064 62.916138Q786.575 63.119263 786.46564 63.494263Q786.27814 64.05676 786.27814 64.71301L786.27814 67.97864L785.23126 67.97864Z" fill-rule="nonzero"/><path fill="#9e9e9e" d="M757.91876 84.97864L756.8719 84.97864L756.8719 78.25989Q756.48126 78.61926 755.85626 78.99426Q755.2469 79.35364 754.7625 79.52551L754.7625 78.50989Q755.6375 78.08801 756.29376 77.50989Q756.96564 76.91614 757.2469 76.35364L757.91876 76.35364L757.91876 84.97864ZM766.4969 83.96301L766.4969 84.97864L760.8094 84.97864Q760.8094 84.60364 760.9344 84.24426Q761.15314 83.66614 761.6219 83.10364Q762.10626 82.54114 763.0125 81.80676Q764.41876 80.65051 764.90314 79.97864Q765.40314 79.30676 765.40314 78.71301Q765.40314 78.08801 764.95 77.66614Q764.4969 77.22864 763.77814 77.22864Q763.0125 77.22864 762.5594 77.68176Q762.10626 78.13489 762.09064 78.94739L761.0125 78.83801Q761.1219 77.61926 761.84064 76.99426Q762.575 76.35364 763.8094 76.35364Q765.04376 76.35364 765.7625 77.04114Q766.48126 77.72864 766.48126 78.74426Q766.48126 79.25989 766.2625 79.75989Q766.0594 80.24426 765.5594 80.80676Q765.075 81.35364 763.95 82.30676Q762.9969 83.10364 762.71564 83.40051Q762.45 83.68176 762.27814 83.96301L766.4969 83.96301ZM768.54376 84.97864L768.54376 83.77551L769.7469 83.77551L769.7469 84.97864L768.54376 84.97864ZM774.91876 84.97864L773.8719 84.97864L773.8719 78.25989Q773.48126 78.61926 772.85626 78.99426Q772.2469 79.35364 771.7625 79.52551L771.7625 78.50989Q772.6375 78.08801 773.29376 77.50989Q773.96564 76.91614 774.2469 76.35364L774.91876 76.35364L774.91876 84.97864ZM778.15314 78.44739Q778.15314 77.52551 778.60626 76.88489Q779.075 76.24426 779.95 76.24426Q780.7625 76.24426 781.29376 76.82239Q781.825 77.40051 781.825 78.50989Q781.825 79.60364 781.27814 80.19739Q780.7469 80.77551 779.96564 80.77551Q779.1844 80.77551 778.66876 80.19739Q778.15314 79.61926 778.15314 78.44739ZM779.98126 76.96301Q779.59064 76.96301 779.325 77.30676Q779.075 77.65051 779.075 78.55676Q779.075 79.38489 779.325 79.72864Q779.59064 80.05676 779.98126 80.05676Q780.3875 80.05676 780.6375 79.71301Q780.90314 79.36926 780.90314 78.47864Q780.90314 77.63489 780.6375 77.30676Q780.3719 76.96301 779.98126 76.96301ZM779.98126 85.29114L784.6844 76.24426L785.54376 76.24426L780.85626 85.29114L779.98126 85.29114ZM783.7 82.96301Q783.7 82.04114 784.15314 81.40051Q784.6219 80.75989 785.5125 80.75989Q786.325 80.75989 786.85626 81.33801Q787.3875 81.90051 787.3875 83.02551Q787.3875 84.11926 786.84064 84.71301Q786.3094 85.29114 785.5125 85.29114Q784.7469 85.29114 784.21564 84.71301Q783.7 84.13489 783.7 82.96301ZM785.54376 81.47864Q785.1375 81.47864 784.8719 81.82239Q784.6219 82.16614 784.6219 83.07239Q784.6219 83.88489 784.8875 84.22864Q785.15314 84.57239 785.54376 84.57239Q785.9344 84.57239 786.2 84.22864Q786.46564 83.88489 786.46564 82.97864Q786.46564 82.15051 786.2 81.82239Q785.9344 81.47864 785.54376 81.47864Z" fill-rule="nonzero"/><path stroke="#757575" stroke-width="1.0" stroke-linecap="butt" d="M788.45 72.47864L558.26666 72.47864L456.02643 72.47864" fill-rule="nonzero"/><path fill="#9e9e9e" d="M458.02643 72.47864C458.02643 71.37407 457.131 70.47864 456.02643 70.47864C454.92188 70.47864 454.02643 71.37407 454.02643 72.47864C454.02643 73.58321 454.92188 74.47864 456.02643 74.47864C457.131 74.47864 458.02643 73.58321 458.02643 72.47864" fill-rule="nonzero"/><path fill="#1a1a1a" d="M564.40314 187.98306L564.40314 179.38931L570.60626 179.38931L570.60626 180.40494L565.54376 180.40494L565.54376 183.02994L570.29376 183.02994L570.29376 184.04556L565.54376 184.04556L565.54376 186.96744L570.8094 186.96744L570.8094 187.98306L564.40314 187.98306ZM576.3094 187.21744Q575.71564 187.71744 575.16876 187.92056Q574.6375 188.12369 574.0125 188.12369Q572.98126 188.12369 572.4344 187.62369Q571.8875 187.12369 571.8875 186.34244Q571.8875 185.88931 572.09064 185.51431Q572.29376 185.12369 572.6375 184.90494Q572.98126 184.67056 573.40314 184.56119Q573.7 184.46744 574.34064 184.38931Q575.60626 184.24869 576.21564 184.02994Q576.21564 183.81119 576.21564 183.76431Q576.21564 183.10806 575.91876 182.84244Q575.5125 182.49869 574.71564 182.49869Q573.98126 182.49869 573.6219 182.76431Q573.2625 183.01431 573.09064 183.67056L572.0594 183.52994Q572.2 182.87369 572.52814 182.46744Q572.85626 182.06119 573.46564 181.84244Q574.075 181.62369 574.8719 181.62369Q575.66876 181.62369 576.16876 181.81119Q576.66876 181.99869 576.90314 182.27994Q577.1375 182.56119 577.23126 182.99869Q577.27814 183.26431 577.27814 183.96744L577.27814 185.37369Q577.27814 186.84244 577.34064 187.23306Q577.41876 187.62369 577.6219 187.98306L576.5125 187.98306Q576.35626 187.65494 576.3094 187.21744ZM576.21564 184.85806Q575.6375 185.09244 574.4969 185.26431Q573.84064 185.35806 573.575 185.48306Q573.3094 185.59244 573.15314 185.81119Q573.0125 186.02994 573.0125 186.31119Q573.0125 186.73306 573.325 187.01431Q573.65314 187.29556 574.2625 187.29556Q574.8719 187.29556 575.34064 187.02994Q575.825 186.76431 576.04376 186.29556Q576.21564 185.93619 576.21564 185.24869L576.21564 184.85806ZM579.23126 187.98306L579.23126 181.76431L580.1844 181.76431L580.1844 182.70181Q580.54376 182.04556 580.84064 181.84244Q581.15314 181.62369 581.52814 181.62369Q582.0594 181.62369 582.60626 181.95181L582.2469 182.93619Q581.85626 182.70181 581.48126 182.70181Q581.1219 182.70181 580.84064 182.92056Q580.575 183.12369 580.46564 183.49869Q580.27814 184.06119 580.27814 184.71744L580.27814 187.98306L579.23126 187.98306ZM583.21564 187.98306L583.21564 179.38931L584.27814 179.38931L584.27814 187.98306L583.21564 187.98306ZM586.2 190.37369L586.075 189.38931Q586.41876 189.48306 586.6844 189.48306Q587.02814 189.48306 587.23126 189.35806Q587.45 189.24869 587.59064 189.04556Q587.6844 188.87369 587.91876 188.24869Q587.9344 188.17056 588.0125 187.99869L585.6375 181.76431L586.77814 181.76431L588.075 185.35806Q588.325 186.04556 588.52814 186.81119Q588.71564 186.07681 588.96564 185.38931L590.29376 181.76431L591.34064 181.76431L588.98126 188.09244Q588.59064 189.10806 588.3875 189.49869Q588.10626 190.02994 587.73126 190.26431Q587.3719 190.51431 586.8719 190.51431Q586.575 190.51431 586.2 190.37369ZM595.3875 187.98306L595.3875 179.38931L599.2 179.38931Q600.35626 179.38931 600.95 179.62369Q601.54376 179.85806 601.90314 180.45181Q602.2625 181.02994 602.2625 181.73306Q602.2625 182.65494 601.66876 183.27994Q601.075 183.90494 599.84064 184.07681Q600.29376 184.29556 600.52814 184.49869Q601.02814 184.95181 601.46564 185.63931L602.96564 187.98306L601.52814 187.98306L600.40314 186.20181Q599.90314 185.42056 599.575 185.01431Q599.2625 184.60806 598.9969 184.45181Q598.7469 184.27994 598.48126 184.20181Q598.29376 184.17056 597.85626 184.17056L596.52814 184.17056L596.52814 187.98306L595.3875 187.98306ZM596.52814 183.18619L598.98126 183.18619Q599.7469 183.18619 600.1844 183.02994Q600.6375 182.85806 600.85626 182.51431Q601.09064 182.15494 601.09064 181.73306Q601.09064 181.12369 600.6375 180.73306Q600.2 180.34244 599.2469 180.34244L596.52814 180.34244L596.52814 183.18619ZM608.4969 185.98306L609.59064 186.10806Q609.34064 187.06119 608.6375 187.59244Q607.9344 188.12369 606.85626 188.12369Q605.4969 188.12369 604.6844 187.27994Q603.8875 186.43619 603.8875 184.92056Q603.8875 183.35806 604.7 182.49869Q605.5125 181.62369 606.79376 181.62369Q608.04376 181.62369 608.825 182.46744Q609.6219 183.31119 609.6219 184.85806Q609.6219 184.95181 609.6219 185.13931L604.98126 185.13931Q605.04376 186.17056 605.5594 186.71744Q606.075 187.24869 606.85626 187.24869Q607.4344 187.24869 607.84064 186.95181Q608.2625 186.63931 608.4969 185.98306ZM605.04376 184.27994L608.5125 184.27994Q608.45 183.48306 608.1219 183.09244Q607.60626 182.48306 606.8094 182.48306Q606.075 182.48306 605.575 182.96744Q605.09064 183.45181 605.04376 184.27994ZM610.825 186.12369L611.85626 185.96744Q611.95 186.59244 612.34064 186.92056Q612.7469 187.24869 613.48126 187.24869Q614.2 187.24869 614.54376 186.96744Q614.90314 186.67056 614.90314 186.26431Q614.90314 185.90494 614.59064 185.70181Q614.3719 185.56119 613.5125 185.34244Q612.35626 185.04556 611.90314 184.84244Q611.46564 184.62369 611.23126 184.24869Q610.9969 183.87369 610.9969 183.40494Q610.9969 182.99869 611.1844 182.63931Q611.3719 182.27994 611.7 182.04556Q611.95 181.87369 612.3719 181.74869Q612.79376 181.62369 613.29376 181.62369Q614.0125 181.62369 614.5594 181.84244Q615.1219 182.04556 615.3875 182.40494Q615.65314 182.76431 615.7469 183.35806L614.71564 183.49869Q614.65314 183.02994 614.3094 182.76431Q613.98126 182.48306 613.35626 182.48306Q612.6375 182.48306 612.325 182.73306Q612.0125 182.96744 612.0125 183.29556Q612.0125 183.49869 612.1375 183.65494Q612.27814 183.82681 612.54376 183.93619Q612.7 183.99869 613.48126 184.20181Q614.60626 184.51431 615.04376 184.70181Q615.48126 184.88931 615.73126 185.24869Q615.98126 185.60806 615.98126 186.15494Q615.98126 186.68619 615.66876 187.15494Q615.3719 187.60806 614.79376 187.87369Q614.21564 188.12369 613.48126 188.12369Q612.2625 188.12369 611.6219 187.62369Q610.9969 187.10806 610.825 186.12369ZM621.4969 185.98306L622.59064 186.10806Q622.34064 187.06119 621.6375 187.59244Q620.9344 188.12369 619.85626 188.12369Q618.4969 188.12369 617.6844 187.27994Q616.8875 186.43619 616.8875 184.92056Q616.8875 183.35806 617.7 182.49869Q618.5125 181.62369 619.79376 181.62369Q621.04376 181.62369 621.825 182.46744Q622.6219 183.31119 622.6219 184.85806Q622.6219 184.95181 622.6219 185.13931L617.98126 185.13931Q618.04376 186.17056 618.5594 186.71744Q619.075 187.24869 619.85626 187.24869Q620.4344 187.24869 620.84064 186.95181Q621.2625 186.63931 621.4969 185.98306ZM618.04376 184.27994L621.5125 184.27994Q621.45 183.48306 621.1219 183.09244Q620.60626 182.48306 619.8094 182.48306Q619.075 182.48306 618.575 182.96744Q618.09064 183.45181 618.04376 184.27994ZM628.3094 187.21744Q627.71564 187.71744 627.16876 187.92056Q626.6375 188.12369 626.0125 188.12369Q624.98126 188.12369 624.4344 187.62369Q623.8875 187.12369 623.8875 186.34244Q623.8875 185.88931 624.09064 185.51431Q624.29376 185.12369 624.6375 184.90494Q624.98126 184.67056 625.40314 184.56119Q625.7 184.46744 626.34064 184.38931Q627.60626 184.24869 628.21564 184.02994Q628.21564 183.81119 628.21564 183.76431Q628.21564 183.10806 627.91876 182.84244Q627.5125 182.49869 626.71564 182.49869Q625.98126 182.49869 625.6219 182.76431Q625.2625 183.01431 625.09064 183.67056L624.0594 183.52994Q624.2 182.87369 624.52814 182.46744Q624.85626 182.06119 625.46564 181.84244Q626.075 181.62369 626.8719 181.62369Q627.66876 181.62369 628.16876 181.81119Q628.66876 181.99869 628.90314 182.27994Q629.1375 182.56119 629.23126 182.99869Q629.27814 183.26431 629.27814 183.96744L629.27814 185.37369Q629.27814 186.84244 629.34064 187.23306Q629.41876 187.62369 629.6219 187.98306L628.5125 187.98306Q628.35626 187.65494 628.3094 187.21744ZM628.21564 184.85806Q627.6375 185.09244 626.4969 185.26431Q625.84064 185.35806 625.575 185.48306Q625.3094 185.59244 625.15314 185.81119Q625.0125 186.02994 625.0125 186.31119Q625.0125 186.73306 625.325 187.01431Q625.65314 187.29556 626.2625 187.29556Q626.8719 187.29556 627.34064 187.02994Q627.825 186.76431 628.04376 186.29556Q628.21564 185.93619 628.21564 185.24869L628.21564 184.85806ZM631.23126 187.98306L631.23126 181.76431L632.1844 181.76431L632.1844 182.70181Q632.54376 182.04556 632.84064 181.84244Q633.15314 181.62369 633.52814 181.62369Q634.0594 181.62369 634.60626 181.95181L634.2469 182.93619Q633.85626 182.70181 633.48126 182.70181Q633.1219 182.70181 632.84064 182.92056Q632.575 183.12369 632.46564 183.49869Q632.27814 184.06119 632.27814 184.71744L632.27814 187.98306L631.23126 187.98306ZM639.3094 185.70181L640.34064 185.84244Q640.16876 186.90494 639.46564 187.51431Q638.7625 188.12369 637.7469 188.12369Q636.46564 188.12369 635.6844 187.29556Q634.91876 186.45181 634.91876 184.88931Q634.91876 183.88931 635.2469 183.13931Q635.59064 182.37369 636.2625 181.99869Q636.95 181.62369 637.7625 181.62369Q638.7625 181.62369 639.40314 182.13931Q640.0594 182.63931 640.2469 183.59244L639.21564 183.74869Q639.075 183.12369 638.7 182.81119Q638.325 182.48306 637.79376 182.48306Q636.9969 182.48306 636.4969 183.06119Q635.9969 183.62369 635.9969 184.85806Q635.9969 186.12369 636.48126 186.68619Q636.96564 187.24869 637.73126 187.24869Q638.35626 187.24869 638.7625 186.87369Q639.1844 186.49869 639.3094 185.70181ZM641.2469 187.98306L641.2469 179.38931L642.29376 179.38931L642.29376 182.46744Q643.02814 181.62369 644.15314 181.62369Q644.85626 181.62369 645.35626 181.90494Q645.8719 182.17056 646.09064 182.65494Q646.3094 183.12369 646.3094 184.04556L646.3094 187.98306L645.2625 187.98306L645.2625 184.04556Q645.2625 183.24869 644.91876 182.88931Q644.575 182.52994 643.95 182.52994Q643.48126 182.52994 643.0594 182.77994Q642.65314 183.01431 642.46564 183.43619Q642.29376 183.84244 642.29376 184.57681L642.29376 187.98306L641.2469 187.98306ZM652.4969 185.98306L653.59064 186.10806Q653.34064 187.06119 652.6375 187.59244Q651.9344 188.12369 650.85626 188.12369Q649.4969 188.12369 648.6844 187.27994Q647.8875 186.43619 647.8875 184.92056Q647.8875 183.35806 648.7 182.49869Q649.5125 181.62369 650.79376 181.62369Q652.04376 181.62369 652.825 182.46744Q653.6219 183.31119 653.6219 184.85806Q653.6219 184.95181 653.6219 185.13931L648.98126 185.13931Q649.04376 186.17056 649.5594 186.71744Q650.075 187.24869 650.85626 187.24869Q651.4344 187.24869 651.84064 186.95181Q652.2625 186.63931 652.4969 185.98306ZM649.04376 184.27994L652.5125 184.27994Q652.45 183.48306 652.1219 183.09244Q651.60626 182.48306 650.8094 182.48306Q650.075 182.48306 649.575 182.96744Q649.09064 183.45181 649.04376 184.27994ZM655.23126 187.98306L655.23126 181.76431L656.1844 181.76431L656.1844 182.70181Q656.54376 182.04556 656.84064 181.84244Q657.15314 181.62369 657.52814 181.62369Q658.0594 181.62369 658.60626 181.95181L658.2469 182.93619Q657.85626 182.70181 657.48126 182.70181Q657.1219 182.70181 656.84064 182.92056Q656.575 183.12369 656.46564 183.49869Q656.27814 184.06119 656.27814 184.71744L656.27814 187.98306L655.23126 187.98306ZM664.2625 190.51431Q663.3875 189.40494 662.77814 187.93619Q662.1844 186.45181 662.1844 184.87369Q662.1844 183.48306 662.6219 182.20181Q663.15314 180.71744 664.2625 179.24869L665.0125 179.24869Q664.3094 180.46744 664.075 180.98306Q663.71564 181.79556 663.5125 182.67056Q663.2625 183.76431 663.2625 184.87369Q663.2625 187.70181 665.0125 190.51431L664.2625 190.51431ZM666.2469 187.98306L666.2469 181.76431L667.1844 181.76431L667.1844 182.63931Q667.48126 182.17056 667.96564 181.90494Q668.45 181.62369 669.075 181.62369Q669.7625 181.62369 670.2 181.90494Q670.65314 182.18619 670.825 182.70181Q671.575 181.62369 672.7469 181.62369Q673.6844 181.62369 674.16876 182.13931Q674.66876 182.63931 674.66876 183.71744L674.66876 187.98306L673.6219 187.98306L673.6219 184.06119Q673.6219 183.43619 673.5125 183.15494Q673.41876 182.87369 673.15314 182.70181Q672.8875 182.52994 672.5125 182.52994Q671.85626 182.52994 671.41876 182.96744Q670.9969 183.40494 670.9969 184.37369L670.9969 187.98306L669.9344 187.98306L669.9344 183.93619Q669.9344 183.23306 669.66876 182.88931Q669.41876 182.52994 668.84064 182.52994Q668.3875 182.52994 668.0125 182.76431Q667.6375 182.99869 667.46564 183.45181Q667.29376 183.90494 667.29376 184.74869L667.29376 187.98306L666.2469 187.98306ZM680.3094 187.21744Q679.71564 187.71744 679.16876 187.92056Q678.6375 188.12369 678.0125 188.12369Q676.98126 188.12369 676.4344 187.62369Q675.8875 187.12369 675.8875 186.34244Q675.8875 185.88931 676.09064 185.51431Q676.29376 185.12369 676.6375 184.90494Q676.98126 184.67056 677.40314 184.56119Q677.7 184.46744 678.34064 184.38931Q679.60626 184.24869 680.21564 184.02994Q680.21564 183.81119 680.21564 183.76431Q680.21564 183.10806 679.91876 182.84244Q679.5125 182.49869 678.71564 182.49869Q677.98126 182.49869 677.6219 182.76431Q677.2625 183.01431 677.09064 183.67056L676.0594 183.52994Q676.2 182.87369 676.52814 182.46744Q676.85626 182.06119 677.46564 181.84244Q678.075 181.62369 678.8719 181.62369Q679.66876 181.62369 680.16876 181.81119Q680.66876 181.99869 680.90314 182.27994Q681.1375 182.56119 681.23126 182.99869Q681.27814 183.26431 681.27814 183.96744L681.27814 185.37369Q681.27814 186.84244 681.34064 187.23306Q681.41876 187.62369 681.6219 187.98306L680.5125 187.98306Q680.35626 187.65494 680.3094 187.21744ZM680.21564 184.85806Q679.6375 185.09244 678.4969 185.26431Q677.84064 185.35806 677.575 185.48306Q677.3094 185.59244 677.15314 185.81119Q677.0125 186.02994 677.0125 186.31119Q677.0125 186.73306 677.325 187.01431Q677.65314 187.29556 678.2625 187.29556Q678.8719 187.29556 679.34064 187.02994Q679.825 186.76431 680.04376 186.29556Q680.21564 185.93619 680.21564 185.24869L680.21564 184.85806ZM682.54376 187.98306L684.8094 184.74869L682.71564 181.76431L684.02814 181.76431L684.98126 183.21744Q685.2469 183.63931 685.41876 183.92056Q685.66876 183.52994 685.8875 183.23306L686.9344 181.76431L688.2 181.76431L686.04376 184.68619L688.35626 187.98306L687.075 187.98306L685.79376 186.04556L685.45 185.52994L683.8094 187.98306L682.54376 187.98306ZM691.95 185.73306L693.0594 185.63931Q693.1844 186.45181 693.6219 186.85806Q694.075 187.26431 694.71564 187.26431Q695.46564 187.26431 695.9969 186.68619Q696.52814 186.10806 696.52814 185.17056Q696.52814 184.26431 696.0125 183.74869Q695.5125 183.21744 694.6844 183.21744Q694.1844 183.21744 693.7625 183.45181Q693.35626 183.68619 693.1219 184.04556L692.1375 183.92056L692.96564 179.51431L697.2469 179.51431L697.2469 180.51431L693.8094 180.51431L693.35626 182.82681Q694.1219 182.27994 694.96564 182.27994Q696.09064 182.27994 696.85626 183.06119Q697.6375 183.84244 697.6375 185.07681Q697.6375 186.23306 696.96564 187.09244Q696.1375 188.12369 694.71564 188.12369Q693.54376 188.12369 692.79376 187.46744Q692.0594 186.81119 691.95 185.73306ZM702.2 190.37369L702.075 189.38931Q702.41876 189.48306 702.6844 189.48306Q703.02814 189.48306 703.23126 189.35806Q703.45 189.24869 703.59064 189.04556Q703.6844 188.87369 703.91876 188.24869Q703.9344 188.17056 704.0125 187.99869L701.6375 181.76431L702.77814 181.76431L704.075 185.35806Q704.325 186.04556 704.52814 186.81119Q704.71564 186.07681 704.96564 185.38931L706.29376 181.76431L707.34064 181.76431L704.98126 188.09244Q704.59064 189.10806 704.3875 189.49869Q704.10626 190.02994 703.73126 190.26431Q703.3719 190.51431 702.8719 190.51431Q702.575 190.51431 702.2 190.37369ZM712.4969 185.98306L713.59064 186.10806Q713.34064 187.06119 712.6375 187.59244Q711.9344 188.12369 710.85626 188.12369Q709.4969 188.12369 708.6844 187.27994Q707.8875 186.43619 707.8875 184.92056Q707.8875 183.35806 708.7 182.49869Q709.5125 181.62369 710.79376 181.62369Q712.04376 181.62369 712.825 182.46744Q713.6219 183.31119 713.6219 184.85806Q713.6219 184.95181 713.6219 185.13931L708.98126 185.13931Q709.04376 186.17056 709.5594 186.71744Q710.075 187.24869 710.85626 187.24869Q711.4344 187.24869 711.84064 186.95181Q712.2625 186.63931 712.4969 185.98306ZM709.04376 184.27994L712.5125 184.27994Q712.45 183.48306 712.1219 183.09244Q711.60626 182.48306 710.8094 182.48306Q710.075 182.48306 709.575 182.96744Q709.09064 183.45181 709.04376 184.27994ZM719.3094 187.21744Q718.71564 187.71744 718.16876 187.92056Q717.6375 188.12369 717.0125 188.12369Q715.98126 188.12369 715.4344 187.62369Q714.8875 187.12369 714.8875 186.34244Q714.8875 185.88931 715.09064 185.51431Q715.29376 185.12369 715.6375 184.90494Q715.98126 184.67056 716.40314 184.56119Q716.7 184.46744 717.34064 184.38931Q718.60626 184.24869 719.21564 184.02994Q719.21564 183.81119 719.21564 183.76431Q719.21564 183.10806 718.91876 182.84244Q718.5125 182.49869 717.71564 182.49869Q716.98126 182.49869 716.6219 182.76431Q716.2625 183.01431 716.09064 183.67056L715.0594 183.52994Q715.2 182.87369 715.52814 182.46744Q715.85626 182.06119 716.46564 181.84244Q717.075 181.62369 717.8719 181.62369Q718.66876 181.62369 719.16876 181.81119Q719.66876 181.99869 719.90314 182.27994Q720.1375 182.56119 720.23126 182.99869Q720.27814 183.26431 720.27814 183.96744L720.27814 185.37369Q720.27814 186.84244 720.34064 187.23306Q720.41876 187.62369 720.6219 187.98306L719.5125 187.98306Q719.35626 187.65494 719.3094 187.21744ZM719.21564 184.85806Q718.6375 185.09244 717.4969 185.26431Q716.84064 185.35806 716.575 185.48306Q716.3094 185.59244 716.15314 185.81119Q716.0125 186.02994 716.0125 186.31119Q716.0125 186.73306 716.325 187.01431Q716.65314 187.29556 717.2625 187.29556Q717.8719 187.29556 718.34064 187.02994Q718.825 186.76431 719.04376 186.29556Q719.21564 185.93619 719.21564 185.24869L719.21564 184.85806ZM722.23126 187.98306L722.23126 181.76431L723.1844 181.76431L723.1844 182.70181Q723.54376 182.04556 723.84064 181.84244Q724.15314 181.62369 724.52814 181.62369Q725.0594 181.62369 725.60626 181.95181L725.2469 182.93619Q724.85626 182.70181 724.48126 182.70181Q724.1219 182.70181 723.84064 182.92056Q723.575 183.12369 723.46564 183.49869Q723.27814 184.06119 723.27814 184.71744L723.27814 187.98306L722.23126 187.98306ZM725.825 186.12369L726.85626 185.96744Q726.95 186.59244 727.34064 186.92056Q727.7469 187.24869 728.48126 187.24869Q729.2 187.24869 729.54376 186.96744Q729.90314 186.67056 729.90314 186.26431Q729.90314 185.90494 729.59064 185.70181Q729.3719 185.56119 728.5125 185.34244Q727.35626 185.04556 726.90314 184.84244Q726.46564 184.62369 726.23126 184.24869Q725.9969 183.87369 725.9969 183.40494Q725.9969 182.99869 726.1844 182.63931Q726.3719 182.27994 726.7 182.04556Q726.95 181.87369 727.3719 181.74869Q727.79376 181.62369 728.29376 181.62369Q729.0125 181.62369 729.5594 181.84244Q730.1219 182.04556 730.3875 182.40494Q730.65314 182.76431 730.7469 183.35806L729.71564 183.49869Q729.65314 183.02994 729.3094 182.76431Q728.98126 182.48306 728.35626 182.48306Q727.6375 182.48306 727.325 182.73306Q727.0125 182.96744 727.0125 183.29556Q727.0125 183.49869 727.1375 183.65494Q727.27814 183.82681 727.54376 183.93619Q727.7 183.99869 728.48126 184.20181Q729.60626 184.51431 730.04376 184.70181Q730.48126 184.88931 730.73126 185.24869Q730.98126 185.60806 730.98126 186.15494Q730.98126 186.68619 730.66876 187.15494Q730.3719 187.60806 729.79376 187.87369Q729.21564 188.12369 728.48126 188.12369Q727.2625 188.12369 726.6219 187.62369Q725.9969 187.10806 725.825 186.12369ZM735.2469 190.37369L735.2469 181.76431L736.2 181.76431L736.2 182.56119Q736.54376 182.09244 736.96564 181.85806Q737.40314 181.62369 738.0125 181.62369Q738.8094 181.62369 739.41876 182.02994Q740.02814 182.43619 740.325 183.18619Q740.6375 183.93619 740.6375 184.82681Q740.6375 185.77994 740.29376 186.54556Q739.96564 187.31119 739.3094 187.71744Q738.65314 188.12369 737.9344 188.12369Q737.40314 188.12369 736.98126 187.90494Q736.5594 187.67056 736.29376 187.34244L736.29376 190.37369L735.2469 190.37369ZM736.2 184.90494Q736.2 186.10806 736.6844 186.68619Q737.16876 187.24869 737.85626 187.24869Q738.5594 187.24869 739.0594 186.65494Q739.5594 186.06119 739.5594 184.81119Q739.5594 183.62369 739.075 183.04556Q738.59064 182.45181 737.90314 182.45181Q737.23126 182.45181 736.71564 183.07681Q736.2 183.70181 736.2 184.90494ZM746.3094 187.21744Q745.71564 187.71744 745.16876 187.92056Q744.6375 188.12369 744.0125 188.12369Q742.98126 188.12369 742.4344 187.62369Q741.8875 187.12369 741.8875 186.34244Q741.8875 185.88931 742.09064 185.51431Q742.29376 185.12369 742.6375 184.90494Q742.98126 184.67056 743.40314 184.56119Q743.7 184.46744 744.34064 184.38931Q745.60626 184.24869 746.21564 184.02994Q746.21564 183.81119 746.21564 183.76431Q746.21564 183.10806 745.91876 182.84244Q745.5125 182.49869 744.71564 182.49869Q743.98126 182.49869 743.6219 182.76431Q743.2625 183.01431 743.09064 183.67056L742.0594 183.52994Q742.2 182.87369 742.52814 182.46744Q742.85626 182.06119 743.46564 181.84244Q744.075 181.62369 744.8719 181.62369Q745.66876 181.62369 746.16876 181.81119Q746.66876 181.99869 746.90314 182.27994Q747.1375 182.56119 747.23126 182.99869Q747.27814 183.26431 747.27814 183.96744L747.27814 185.37369Q747.27814 186.84244 747.34064 187.23306Q747.41876 187.62369 747.6219 187.98306L746.5125 187.98306Q746.35626 187.65494 746.3094 187.21744ZM746.21564 184.85806Q745.6375 185.09244 744.4969 185.26431Q743.84064 185.35806 743.575 185.48306Q743.3094 185.59244 743.15314 185.81119Q743.0125 186.02994 743.0125 186.31119Q743.0125 186.73306 743.325 187.01431Q743.65314 187.29556 744.2625 187.29556Q744.8719 187.29556 745.34064 187.02994Q745.825 186.76431 746.04376 186.29556Q746.21564 185.93619 746.21564 185.24869L746.21564 184.85806ZM748.825 186.12369L749.85626 185.96744Q749.95 186.59244 750.34064 186.92056Q750.7469 187.24869 751.48126 187.24869Q752.2 187.24869 752.54376 186.96744Q752.90314 186.67056 752.90314 186.26431Q752.90314 185.90494 752.59064 185.70181Q752.3719 185.56119 751.5125 185.34244Q750.35626 185.04556 749.90314 184.84244Q749.46564 184.62369 749.23126 184.24869Q748.9969 183.87369 748.9969 183.40494Q748.9969 182.99869 749.1844 182.63931Q749.3719 182.27994 749.7 182.04556Q749.95 181.87369 750.3719 181.74869Q750.79376 181.62369 751.29376 181.62369Q752.0125 181.62369 752.5594 181.84244Q753.1219 182.04556 753.3875 182.40494Q753.65314 182.76431 753.7469 183.35806L752.71564 183.49869Q752.65314 183.02994 752.3094 182.76431Q751.98126 182.48306 751.35626 182.48306Q750.6375 182.48306 750.325 182.73306Q750.0125 182.96744 750.0125 183.29556Q750.0125 183.49869 750.1375 183.65494Q750.27814 183.82681 750.54376 183.93619Q750.7 183.99869 751.48126 184.20181Q752.60626 184.51431 753.04376 184.70181Q753.48126 184.88931 753.73126 185.24869Q753.98126 185.60806 753.98126 186.15494Q753.98126 186.68619 753.66876 187.15494Q753.3719 187.60806 752.79376 187.87369Q752.21564 188.12369 751.48126 188.12369Q750.2625 188.12369 749.6219 187.62369Q748.9969 187.10806 748.825 186.12369ZM757.54376 187.04556L757.7 187.96744Q757.2469 188.06119 756.90314 188.06119Q756.325 188.06119 756.0125 187.88931Q755.7 187.70181 755.5594 187.40494Q755.4344 187.10806 755.4344 186.15494L755.4344 182.57681L754.66876 182.57681L754.66876 181.76431L755.4344 181.76431L755.4344 180.21744L756.48126 179.59244L756.48126 181.76431L757.54376 181.76431L757.54376 182.57681L756.48126 182.57681L756.48126 186.21744Q756.48126 186.67056 756.52814 186.79556Q756.59064 186.92056 756.71564 186.99869Q756.84064 187.07681 757.075 187.07681Q757.2625 187.07681 757.54376 187.04556ZM761.3719 187.98306L761.3719 179.38931L764.6219 179.38931Q765.46564 179.38931 765.91876 179.46744Q766.5594 179.57681 766.98126 179.87369Q767.41876 180.17056 767.66876 180.70181Q767.9344 181.23306 767.9344 181.87369Q767.9344 182.96744 767.23126 183.73306Q766.54376 184.48306 764.71564 184.48306L762.5125 184.48306L762.5125 187.98306L761.3719 187.98306ZM762.5125 183.48306L764.73126 183.48306Q765.84064 183.48306 766.29376 183.07681Q766.7625 182.65494 766.7625 181.90494Q766.7625 181.37369 766.48126 180.99869Q766.21564 180.60806 765.77814 180.48306Q765.48126 180.40494 764.71564 180.40494L762.5125 180.40494L762.5125 183.48306ZM769.2469 187.98306L769.2469 179.38931L770.29376 179.38931L770.29376 182.46744Q771.02814 181.62369 772.15314 181.62369Q772.85626 181.62369 773.35626 181.90494Q773.8719 182.17056 774.09064 182.65494Q774.3094 183.12369 774.3094 184.04556L774.3094 187.98306L773.2625 187.98306L773.2625 184.04556Q773.2625 183.24869 772.91876 182.88931Q772.575 182.52994 771.95 182.52994Q771.48126 182.52994 771.0594 182.77994Q770.65314 183.01431 770.46564 183.43619Q770.29376 183.84244 770.29376 184.57681L770.29376 187.98306L769.2469 187.98306ZM776.3719 187.98306L776.3719 179.38931L779.34064 179.38931Q780.34064 179.38931 780.8719 179.51431Q781.60626 179.68619 782.1219 180.12369Q782.8094 180.70181 783.1375 181.60806Q783.48126 182.49869 783.48126 183.63931Q783.48126 184.62369 783.2469 185.37369Q783.02814 186.12369 782.66876 186.62369Q782.3094 187.12369 781.8719 187.40494Q781.45 187.68619 780.85626 187.84244Q780.2625 187.98306 779.48126 187.98306L776.3719 187.98306ZM777.5125 186.96744L779.34064 186.96744Q780.2 186.96744 780.6844 186.81119Q781.16876 186.65494 781.45 186.35806Q781.85626 185.96744 782.075 185.27994Q782.3094 184.59244 782.3094 183.62369Q782.3094 182.27994 781.85626 181.56119Q781.41876 180.82681 780.79376 180.57681Q780.325 180.40494 779.325 180.40494L777.5125 180.40494L777.5125 186.96744ZM785.9344 190.51431L785.1844 190.51431Q786.9344 187.70181 786.9344 184.87369Q786.9344 183.77994 786.6844 182.68619Q786.48126 181.81119 786.1219 180.99869Q785.8875 180.48306 785.1844 179.24869L785.9344 179.24869Q787.02814 180.71744 787.5594 182.20181Q788.0125 183.48306 788.0125 184.87369Q788.0125 186.45181 787.40314 187.93619Q786.79376 189.40494 785.9344 190.51431Z" fill-rule="nonzero"/><path fill="#9e9e9e" d="M759.4969 203.96744L759.4969 204.98306L753.8094 204.98306Q753.8094 204.60806 753.9344 204.24869Q754.15314 203.67056 754.6219 203.10806Q755.10626 202.54556 756.0125 201.81119Q757.41876 200.65494 757.90314 199.98306Q758.40314 199.31119 758.40314 198.71744Q758.40314 198.09244 757.95 197.67056Q757.4969 197.23306 756.77814 197.23306Q756.0125 197.23306 755.5594 197.68619Q755.10626 198.13931 755.09064 198.95181L754.0125 198.84244Q754.1219 197.62369 754.84064 196.99869Q755.575 196.35806 756.8094 196.35806Q758.04376 196.35806 758.7625 197.04556Q759.48126 197.73306 759.48126 198.74869Q759.48126 199.26431 759.2625 199.76431Q759.0594 200.24869 758.5594 200.81119Q758.075 201.35806 756.95 202.31119Q755.9969 203.10806 755.71564 203.40494Q755.45 203.68619 755.27814 203.96744L759.4969 203.96744ZM760.95 202.71744L762.0125 202.57681Q762.1844 203.46744 762.6219 203.87369Q763.0594 204.26431 763.6844 204.26431Q764.4344 204.26431 764.95 203.74869Q765.46564 203.23306 765.46564 202.46744Q765.46564 201.74869 764.98126 201.27994Q764.5125 200.79556 763.77814 200.79556Q763.48126 200.79556 763.02814 200.92056L763.15314 199.98306Q763.2625 199.99869 763.325 199.99869Q763.9969 199.99869 764.52814 199.65494Q765.075 199.29556 765.075 198.56119Q765.075 197.98306 764.6844 197.60806Q764.29376 197.21744 763.66876 197.21744Q763.0594 197.21744 762.6375 197.60806Q762.23126 197.99869 762.1219 198.76431L761.0594 198.57681Q761.2469 197.52994 761.9344 196.95181Q762.6219 196.35806 763.6375 196.35806Q764.34064 196.35806 764.9344 196.67056Q765.52814 196.96744 765.84064 197.48306Q766.15314 197.99869 766.15314 198.59244Q766.15314 199.13931 765.85626 199.60806Q765.5594 200.06119 764.98126 200.32681Q765.73126 200.49869 766.15314 201.06119Q766.575 201.60806 766.575 202.45181Q766.575 203.57681 765.7469 204.35806Q764.9344 205.13931 763.6844 205.13931Q762.5594 205.13931 761.8094 204.46744Q761.0594 203.77994 760.95 202.71744ZM768.54376 204.98306L768.54376 203.77994L769.7469 203.77994L769.7469 204.98306L768.54376 204.98306ZM776.4969 203.96744L776.4969 204.98306L770.8094 204.98306Q770.8094 204.60806 770.9344 204.24869Q771.15314 203.67056 771.6219 203.10806Q772.10626 202.54556 773.0125 201.81119Q774.41876 200.65494 774.90314 199.98306Q775.40314 199.31119 775.40314 198.71744Q775.40314 198.09244 774.95 197.67056Q774.4969 197.23306 773.77814 197.23306Q773.0125 197.23306 772.5594 197.68619Q772.10626 198.13931 772.09064 198.95181L771.0125 198.84244Q771.1219 197.62369 771.84064 196.99869Q772.575 196.35806 773.8094 196.35806Q775.04376 196.35806 775.7625 197.04556Q776.48126 197.73306 776.48126 198.74869Q776.48126 199.26431 776.2625 199.76431Q776.0594 200.24869 775.5594 200.81119Q775.075 201.35806 773.95 202.31119Q772.9969 203.10806 772.71564 203.40494Q772.45 203.68619 772.27814 203.96744L776.4969 203.96744ZM778.15314 198.45181Q778.15314 197.52994 778.60626 196.88931Q779.075 196.24869 779.95 196.24869Q780.7625 196.24869 781.29376 196.82681Q781.825 197.40494 781.825 198.51431Q781.825 199.60806 781.27814 200.20181Q780.7469 200.77994 779.96564 200.77994Q779.1844 200.77994 778.66876 200.20181Q778.15314 199.62369 778.15314 198.45181ZM779.98126 196.96744Q779.59064 196.96744 779.325 197.31119Q779.075 197.65494 779.075 198.56119Q779.075 199.38931 779.325 199.73306Q779.59064 200.06119 779.98126 200.06119Q780.3875 200.06119 780.6375 199.71744Q780.90314 199.37369 780.90314 198.48306Q780.90314 197.63931 780.6375 197.31119Q780.3719 196.96744 779.98126 196.96744ZM779.98126 205.29556L784.6844 196.24869L785.54376 196.24869L780.85626 205.29556L779.98126 205.29556ZM783.7 202.96744Q783.7 202.04556 784.15314 201.40494Q784.6219 200.76431 785.5125 200.76431Q786.325 200.76431 786.85626 201.34244Q787.3875 201.90494 787.3875 203.02994Q787.3875 204.12369 786.84064 204.71744Q786.3094 205.29556 785.5125 205.29556Q784.7469 205.29556 784.21564 204.71744Q783.7 204.13931 783.7 202.96744ZM785.54376 201.48306Q785.1375 201.48306 784.8719 201.82681Q784.6219 202.17056 784.6219 203.07681Q784.6219 203.88931 784.8875 204.23306Q785.15314 204.57681 785.54376 204.57681Q785.9344 204.57681 786.2 204.23306Q786.46564 203.88931 786.46564 202.98306Q786.46564 202.15494 786.2 201.82681Q785.9344 201.48306 785.54376 201.48306Z" fill-rule="nonzero"/><path stroke="#757575" stroke-width="1.0" stroke-linecap="butt" d="M788.45 192.48306L558.26666 192.48306L544.38385 192.48306" fill-rule="nonzero"/><path fill="#9e9e9e" d="M546.38385 192.48306C546.38385 191.3785 545.4884 190.48306 544.38385 190.48306C543.27924 190.48306 542.38385 191.3785 542.38385 192.48306C542.38385 193.58763 543.27924 194.48306 544.38385 194.48306C545.4884 194.48306 546.38385 193.58763 546.38385 192.48306" fill-rule="nonzero"/><path fill="#1a1a1a" d="M708.3719 295.07593L708.3719 286.48218L709.52814 286.48218L714.04376 293.23218L714.04376 286.48218L715.1375 286.48218L715.1375 295.07593L713.96564 295.07593L709.45 288.32593L709.45 295.07593L708.3719 295.07593ZM716.85626 291.96655Q716.85626 290.23218 717.8094 289.40405Q718.60626 288.71655 719.7625 288.71655Q721.04376 288.71655 721.85626 289.5603Q722.6844 290.38843 722.6844 291.8728Q722.6844 293.07593 722.325 293.76343Q721.96564 294.45093 721.2625 294.84155Q720.575 295.21655 719.7625 295.21655Q718.46564 295.21655 717.65314 294.38843Q716.85626 293.54468 716.85626 291.96655ZM717.9344 291.96655Q717.9344 293.15405 718.45 293.7478Q718.98126 294.34155 719.7625 294.34155Q720.5594 294.34155 721.075 293.7478Q721.59064 293.15405 721.59064 291.9353Q721.59064 290.77905 721.0594 290.1853Q720.54376 289.59155 719.7625 289.59155Q718.98126 289.59155 718.45 290.1853Q717.9344 290.76343 717.9344 291.96655ZM724.2469 295.07593L724.2469 288.85718L725.1844 288.85718L725.1844 289.73218Q725.8719 288.71655 727.16876 288.71655Q727.73126 288.71655 728.2 288.91968Q728.6844 289.1228 728.91876 289.45093Q729.15314 289.77905 729.2469 290.21655Q729.29376 290.51343 729.29376 291.2478L729.29376 295.07593L728.2469 295.07593L728.2469 291.29468Q728.2469 290.63843 728.1219 290.32593Q727.9969 290.01343 727.6844 289.82593Q727.3719 289.6228 726.95 289.6228Q726.27814 289.6228 725.77814 290.0603Q725.29376 290.48218 725.29376 291.66968L725.29376 295.07593L724.2469 295.07593ZM730.825 292.4978L730.825 291.4353L734.075 291.4353L734.075 292.4978L730.825 292.4978ZM734.4344 295.07593L737.73126 286.48218L738.95 286.48218L742.46564 295.07593L741.1844 295.07593L740.16876 292.46655L736.59064 292.46655L735.6375 295.07593L734.4344 295.07593ZM736.91876 291.54468L739.825 291.54468L738.9344 289.16968Q738.5125 288.09155 738.325 287.38843Q738.15314 288.21655 737.85626 289.02905L736.91876 291.54468ZM747.3094 292.79468L748.34064 292.9353Q748.16876 293.9978 747.46564 294.60718Q746.7625 295.21655 745.7469 295.21655Q744.46564 295.21655 743.6844 294.38843Q742.91876 293.54468 742.91876 291.98218Q742.91876 290.98218 743.2469 290.23218Q743.59064 289.46655 744.2625 289.09155Q744.95 288.71655 745.7625 288.71655Q746.7625 288.71655 747.40314 289.23218Q748.0594 289.73218 748.2469 290.6853L747.21564 290.84155Q747.075 290.21655 746.7 289.90405Q746.325 289.57593 745.79376 289.57593Q744.9969 289.57593 744.4969 290.15405Q743.9969 290.71655 743.9969 291.95093Q743.9969 293.21655 744.48126 293.77905Q744.96564 294.34155 745.73126 294.34155Q746.35626 294.34155 746.7625 293.96655Q747.1844 293.59155 747.3094 292.79468ZM753.3094 294.3103Q752.71564 294.8103 752.16876 295.01343Q751.6375 295.21655 751.0125 295.21655Q749.98126 295.21655 749.4344 294.71655Q748.8875 294.21655 748.8875 293.4353Q748.8875 292.98218 749.09064 292.60718Q749.29376 292.21655 749.6375 291.9978Q749.98126 291.76343 750.40314 291.65405Q750.7 291.5603 751.34064 291.48218Q752.60626 291.34155 753.21564 291.1228Q753.21564 290.90405 753.21564 290.85718Q753.21564 290.20093 752.91876 289.9353Q752.5125 289.59155 751.71564 289.59155Q750.98126 289.59155 750.6219 289.85718Q750.2625 290.10718 750.09064 290.76343L749.0594 290.6228Q749.2 289.96655 749.52814 289.5603Q749.85626 289.15405 750.46564 288.9353Q751.075 288.71655 751.8719 288.71655Q752.66876 288.71655 753.16876 288.90405Q753.66876 289.09155 753.90314 289.3728Q754.1375 289.65405 754.23126 290.09155Q754.27814 290.35718 754.27814 291.0603L754.27814 292.46655Q754.27814 293.9353 754.34064 294.32593Q754.41876 294.71655 754.6219 295.07593L753.5125 295.07593Q753.35626 294.7478 753.3094 294.3103ZM753.21564 291.95093Q752.6375 292.1853 751.4969 292.35718Q750.84064 292.45093 750.575 292.57593Q750.3094 292.6853 750.15314 292.90405Q750.0125 293.1228 750.0125 293.40405Q750.0125 293.82593 750.325 294.10718Q750.65314 294.38843 751.2625 294.38843Q751.8719 294.38843 752.34064 294.1228Q752.825 293.85718 753.04376 293.38843Q753.21564 293.02905 753.21564 292.34155L753.21564 291.95093ZM760.27814 295.07593L760.27814 294.29468Q759.6844 295.21655 758.54376 295.21655Q757.79376 295.21655 757.16876 294.8103Q756.54376 294.38843 756.2 293.65405Q755.85626 292.91968 755.85626 291.96655Q755.85626 291.04468 756.16876 290.27905Q756.48126 289.51343 757.10626 289.1228Q757.73126 288.71655 758.4969 288.71655Q759.0594 288.71655 759.4969 288.95093Q759.9344 289.1853 760.21564 289.5603L760.21564 286.48218L761.2625 286.48218L761.2625 295.07593L760.27814 295.07593ZM756.95 291.96655Q756.95 293.16968 757.45 293.76343Q757.95 294.34155 758.6375 294.34155Q759.325 294.34155 759.8094 293.77905Q760.29376 293.21655 760.29376 292.0603Q760.29376 290.77905 759.79376 290.1853Q759.3094 289.59155 758.59064 289.59155Q757.8875 289.59155 757.41876 290.16968Q756.95 290.73218 756.95 291.96655ZM767.4969 293.07593L768.59064 293.20093Q768.34064 294.15405 767.6375 294.6853Q766.9344 295.21655 765.85626 295.21655Q764.4969 295.21655 763.6844 294.3728Q762.8875 293.52905 762.8875 292.01343Q762.8875 290.45093 763.7 289.59155Q764.5125 288.71655 765.79376 288.71655Q767.04376 288.71655 767.825 289.5603Q768.6219 290.40405 768.6219 291.95093Q768.6219 292.04468 768.6219 292.23218L763.98126 292.23218Q764.04376 293.26343 764.5594 293.8103Q765.075 294.34155 765.85626 294.34155Q766.4344 294.34155 766.84064 294.04468Q767.2625 293.73218 767.4969 293.07593ZM764.04376 291.3728L767.5125 291.3728Q767.45 290.57593 767.1219 290.1853Q766.60626 289.57593 765.8094 289.57593Q765.075 289.57593 764.575 290.0603Q764.09064 290.54468 764.04376 291.3728ZM770.2469 295.07593L770.2469 288.85718L771.1844 288.85718L771.1844 289.73218Q771.48126 289.26343 771.96564 288.9978Q772.45 288.71655 773.075 288.71655Q773.7625 288.71655 774.2 288.9978Q774.65314 289.27905 774.825 289.79468Q775.575 288.71655 776.7469 288.71655Q777.6844 288.71655 778.16876 289.23218Q778.66876 289.73218 778.66876 290.8103L778.66876 295.07593L777.6219 295.07593L777.6219 291.15405Q777.6219 290.52905 777.5125 290.2478Q777.41876 289.96655 777.15314 289.79468Q776.8875 289.6228 776.5125 289.6228Q775.85626 289.6228 775.41876 290.0603Q774.9969 290.4978 774.9969 291.46655L774.9969 295.07593L773.9344 295.07593L773.9344 291.02905Q773.9344 290.32593 773.66876 289.98218Q773.41876 289.6228 772.84064 289.6228Q772.3875 289.6228 772.0125 289.85718Q771.6375 290.09155 771.46564 290.54468Q771.29376 290.9978 771.29376 291.84155L771.29376 295.07593L770.2469 295.07593ZM780.2469 287.70093L780.2469 286.48218L781.3094 286.48218L781.3094 287.70093L780.2469 287.70093ZM780.2469 295.07593L780.2469 288.85718L781.3094 288.85718L781.3094 295.07593L780.2469 295.07593ZM787.3094 292.79468L788.34064 292.9353Q788.16876 293.9978 787.46564 294.60718Q786.7625 295.21655 785.7469 295.21655Q784.46564 295.21655 783.6844 294.38843Q782.91876 293.54468 782.91876 291.98218Q782.91876 290.98218 783.2469 290.23218Q783.59064 289.46655 784.2625 289.09155Q784.95 288.71655 785.7625 288.71655Q786.7625 288.71655 787.40314 289.23218Q788.0594 289.73218 788.2469 290.6853L787.21564 290.84155Q787.075 290.21655 786.7 289.90405Q786.325 289.57593 785.79376 289.57593Q784.9969 289.57593 784.4969 290.15405Q783.9969 290.71655 783.9969 291.95093Q783.9969 293.21655 784.48126 293.77905Q784.96564 294.34155 785.73126 294.34155Q786.35626 294.34155 786.7625 293.96655Q787.1844 293.59155 787.3094 292.79468Z" fill-rule="nonzero"/><path fill="#9e9e9e" d="M760.95 309.8103L762.0125 309.66968Q762.1844 310.5603 762.6219 310.96655Q763.0594 311.35718 763.6844 311.35718Q764.4344 311.35718 764.95 310.84155Q765.46564 310.32593 765.46564 309.5603Q765.46564 308.84155 764.98126 308.3728Q764.5125 307.88843 763.77814 307.88843Q763.48126 307.88843 763.02814 308.01343L763.15314 307.07593Q763.2625 307.09155 763.325 307.09155Q763.9969 307.09155 764.52814 306.7478Q765.075 306.38843 765.075 305.65405Q765.075 305.07593 764.6844 304.70093Q764.29376 304.3103 763.66876 304.3103Q763.0594 304.3103 762.6375 304.70093Q762.23126 305.09155 762.1219 305.85718L761.0594 305.66968Q761.2469 304.6228 761.9344 304.04468Q762.6219 303.45093 763.6375 303.45093Q764.34064 303.45093 764.9344 303.76343Q765.52814 304.0603 765.84064 304.57593Q766.15314 305.09155 766.15314 305.6853Q766.15314 306.23218 765.85626 306.70093Q765.5594 307.15405 764.98126 307.41968Q765.73126 307.59155 766.15314 308.15405Q766.575 308.70093 766.575 309.54468Q766.575 310.66968 765.7469 311.45093Q764.9344 312.23218 763.6844 312.23218Q762.5594 312.23218 761.8094 311.5603Q761.0594 310.8728 760.95 309.8103ZM768.54376 312.07593L768.54376 310.8728L769.7469 310.8728L769.7469 312.07593L768.54376 312.07593ZM770.95 307.84155Q770.95 306.3103 771.2625 305.38843Q771.575 304.45093 772.1844 303.95093Q772.8094 303.45093 773.7469 303.45093Q774.4344 303.45093 774.95 303.73218Q775.48126 304.01343 775.825 304.54468Q776.16876 305.0603 776.35626 305.8103Q776.54376 306.5603 776.54376 307.84155Q776.54376 309.35718 776.23126 310.27905Q775.9344 311.20093 775.3094 311.71655Q774.7 312.21655 773.7469 312.21655Q772.5125 312.21655 771.79376 311.32593Q770.95 310.26343 770.95 307.84155ZM772.02814 307.84155Q772.02814 309.95093 772.52814 310.65405Q773.02814 311.35718 773.7469 311.35718Q774.48126 311.35718 774.96564 310.65405Q775.46564 309.95093 775.46564 307.84155Q775.46564 305.71655 774.96564 305.02905Q774.48126 304.32593 773.73126 304.32593Q773.0125 304.32593 772.575 304.9353Q772.02814 305.71655 772.02814 307.84155ZM778.15314 305.54468Q778.15314 304.6228 778.60626 303.98218Q779.075 303.34155 779.95 303.34155Q780.7625 303.34155 781.29376 303.91968Q781.825 304.4978 781.825 305.60718Q781.825 306.70093 781.27814 307.29468Q780.7469 307.8728 779.96564 307.8728Q779.1844 307.8728 778.66876 307.29468Q778.15314 306.71655 778.15314 305.54468ZM779.98126 304.0603Q779.59064 304.0603 779.325 304.40405Q779.075 304.7478 779.075 305.65405Q779.075 306.48218 779.325 306.82593Q779.59064 307.15405 779.98126 307.15405Q780.3875 307.15405 780.6375 306.8103Q780.90314 306.46655 780.90314 305.57593Q780.90314 304.73218 780.6375 304.40405Q780.3719 304.0603 779.98126 304.0603ZM779.98126 312.38843L784.6844 303.34155L785.54376 303.34155L780.85626 312.38843L779.98126 312.38843ZM783.7 310.0603Q783.7 309.13843 784.15314 308.4978Q784.6219 307.85718 785.5125 307.85718Q786.325 307.85718 786.85626 308.4353Q787.3875 308.9978 787.3875 310.1228Q787.3875 311.21655 786.84064 311.8103Q786.3094 312.38843 785.5125 312.38843Q784.7469 312.38843 784.21564 311.8103Q783.7 311.23218 783.7 310.0603ZM785.54376 308.57593Q785.1375 308.57593 784.8719 308.91968Q784.6219 309.26343 784.6219 310.16968Q784.6219 310.98218 784.8875 311.32593Q785.15314 311.66968 785.54376 311.66968Q785.9344 311.66968 786.2 311.32593Q786.46564 310.98218 786.46564 310.07593Q786.46564 309.2478 786.2 308.91968Q785.9344 308.57593 785.54376 308.57593Z" fill-rule="nonzero"/><path stroke="#757575" stroke-width="1.0" stroke-linecap="butt" d="M788.45 299.57593L558.26666 299.57593L507.31863 299.57593" fill-rule="nonzero"/><path fill="#9e9e9e" d="M509.31863 299.57593C509.31863 298.47137 508.4232 297.57593 507.31863 297.57593C506.21405 297.57593 505.31863 298.47137 505.31863 299.57593C505.31863 300.6805 506.21405 301.57593 507.31863 301.57593C508.4232 301.57593 509.31863 300.6805 509.31863 299.57593" fill-rule="nonzero"/><path fill="#757575" d="M30.315624 32.534374L32.20625 33.003124Q31.6125 35.346874 30.065624 36.58125Q28.51875 37.8 26.26875 37.8Q23.95625 37.8 22.503124 36.8625Q21.065624 35.909374 20.3 34.128124Q19.55 32.33125 19.55 30.284374Q19.55 28.05 20.39375 26.39375Q21.253124 24.721874 22.83125 23.8625Q24.409374 22.9875 26.3 22.9875Q28.45625 22.9875 29.909374 24.08125Q31.378124 25.175 31.95625 27.159374L30.096874 27.596874Q29.596874 26.034374 28.64375 25.33125Q27.70625 24.6125 26.26875 24.6125Q24.6125 24.6125 23.503124 25.409374Q22.39375 26.190624 21.940624 27.534374Q21.503124 28.8625 21.503124 30.26875Q21.503124 32.096874 22.034374 33.471874Q22.565624 34.83125 23.690624 35.503124Q24.815624 36.175 26.1125 36.175Q27.70625 36.175 28.815624 35.253124Q29.925 34.33125 30.315624 32.534374ZM40.659374 37.55L40.659374 36.01875Q39.45625 37.784374 37.378124 37.784374Q36.45625 37.784374 35.659374 37.440624Q34.8625 37.08125 34.471874 36.55Q34.096874 36.01875 33.940624 35.2375Q33.83125 34.721874 33.83125 33.596874L33.83125 27.175L35.58125 27.175L35.58125 32.925Q35.58125 34.3 35.690624 34.784374Q35.8625 35.471874 36.39375 35.878124Q36.940624 36.26875 37.721874 36.26875Q38.51875 36.26875 39.20625 35.8625Q39.909374 35.45625 40.190624 34.76875Q40.4875 34.065624 40.4875 32.7375L40.4875 27.175L42.2375 27.175L42.2375 37.55L40.659374 37.55ZM44.846874 37.55L44.846874 27.175L46.425 27.175L46.425 28.753124Q47.034374 27.64375 47.55 27.3Q48.065624 26.940624 48.675 26.940624Q49.565624 26.940624 50.4875 27.503124L49.878124 29.14375Q49.2375 28.753124 48.596874 28.753124Q48.01875 28.753124 47.55 29.1125Q47.096874 29.45625 46.89375 30.065624Q46.6125 31.003124 46.6125 32.1125L46.6125 37.55L44.846874 37.55ZM51.846874 37.55L51.846874 27.175L53.425 27.175L53.425 28.753124Q54.034374 27.64375 54.55 27.3Q55.065624 26.940624 55.675 26.940624Q56.565624 26.940624 57.4875 27.503124L56.878124 29.14375Q56.2375 28.753124 55.596874 28.753124Q55.01875 28.753124 54.55 29.1125Q54.096874 29.45625 53.89375 30.065624Q53.6125 31.003124 53.6125 32.1125L53.6125 37.55L51.846874 37.55ZM65.97188 34.20625L67.78438 34.440624Q67.3625 36.01875 66.19063 36.909374Q65.03438 37.784374 63.221874 37.784374Q60.95625 37.784374 59.6125 36.39375Q58.284374 34.9875 58.284374 32.45625Q58.284374 29.83125 59.628124 28.39375Q60.971874 26.940624 63.128124 26.940624Q65.20625 26.940624 66.51875 28.3625Q67.84688 29.76875 67.84688 32.346874Q67.84688 32.503124 67.83125 32.815624L60.096874 32.815624Q60.190624 34.51875 61.065624 35.425Q61.940624 36.33125 63.2375 36.33125Q64.20625 36.33125 64.87813 35.83125Q65.56563 35.315624 65.97188 34.20625ZM60.190624 31.3625L65.9875 31.3625Q65.87813 30.065624 65.33125 29.409374Q64.4875 28.39375 63.14375 28.39375Q61.940624 28.39375 61.1125 29.20625Q60.284374 30.003124 60.190624 31.3625ZM69.8625 37.55L69.8625 27.175L71.45625 27.175L71.45625 28.659374Q72.59688 26.940624 74.75313 26.940624Q75.69063 26.940624 76.47188 27.284374Q77.26875 27.6125 77.65938 28.159374Q78.05 28.70625 78.20625 29.45625Q78.3 29.95625 78.3 31.175L78.3 37.55L76.53438 37.55L76.53438 31.2375Q76.53438 30.159374 76.33125 29.628124Q76.12813 29.096874 75.59688 28.784374Q75.08125 28.471874 74.37813 28.471874Q73.25313 28.471874 72.44063 29.190624Q71.62813 29.89375 71.62813 31.878124L71.62813 37.55L69.8625 37.55ZM84.70625 35.971874L84.95625 37.534374Q84.22188 37.690624 83.62813 37.690624Q82.675 37.690624 82.14375 37.39375Q81.62813 37.08125 81.40938 36.596874Q81.19063 36.096874 81.19063 34.51875L81.19063 28.55L79.90938 28.55L79.90938 27.175L81.19063 27.175L81.19063 24.6125L82.94063 23.55L82.94063 27.175L84.70625 27.175L84.70625 28.55L82.94063 28.55L82.94063 34.6125Q82.94063 35.3625 83.03438 35.58125Q83.12813 35.784374 83.33125 35.925Q83.55 36.05 83.94063 36.05Q84.22188 36.05 84.70625 35.971874ZM93.09688 37.55L93.09688 23.2375L98.4875 23.2375Q99.925 23.2375 100.675 23.3625Q101.72188 23.55 102.44063 24.05Q103.15938 24.534374 103.58125 25.425Q104.01875 26.315624 104.01875 27.378124Q104.01875 29.20625 102.84688 30.471874Q101.69063 31.721874 98.65938 31.721874L94.9875 31.721874L94.9875 37.55L93.09688 37.55ZM94.9875 30.034374L98.69063 30.034374Q100.51875 30.034374 101.28438 29.3625Q102.06563 28.675 102.06563 27.425Q102.06563 26.534374 101.6125 25.89375Q101.15938 25.253124 100.425 25.05Q99.94063 24.925 98.64375 24.925L94.9875 24.925L94.9875 30.034374ZM105.22188 32.3625Q105.22188 29.4875 106.81563 28.096874Q108.15938 26.940624 110.08125 26.940624Q112.22188 26.940624 113.56563 28.346874Q114.925 29.753124 114.925 32.221874Q114.925 34.221874 114.33125 35.378124Q113.7375 36.51875 112.58125 37.159374Q111.44063 37.784374 110.08125 37.784374Q107.89375 37.784374 106.55 36.39375Q105.22188 34.9875 105.22188 32.3625ZM107.01875 32.3625Q107.01875 34.3625 107.87813 35.346874Q108.75313 36.33125 110.08125 36.33125Q111.39375 36.33125 112.25313 35.346874Q113.12813 34.346874 113.12813 32.3Q113.12813 30.378124 112.25313 29.39375Q111.37813 28.39375 110.08125 28.39375Q108.75313 28.39375 107.87813 29.39375Q107.01875 30.378124 107.01875 32.3625ZM116.15938 34.45625L117.90938 34.175Q118.05 35.221874 118.72188 35.784374Q119.39375 36.33125 120.59688 36.33125Q121.8 36.33125 122.37813 35.846874Q122.97188 35.346874 122.97188 34.690624Q122.97188 34.096874 122.45625 33.753124Q122.09688 33.51875 120.65938 33.159374Q118.72188 32.659374 117.97188 32.315624Q117.2375 31.95625 116.84688 31.33125Q116.45625 30.690624 116.45625 29.925Q116.45625 29.2375 116.76875 28.64375Q117.09688 28.05 117.64375 27.659374Q118.05 27.3625 118.75313 27.159374Q119.47188 26.940624 120.28438 26.940624Q121.50313 26.940624 122.425 27.3Q123.34688 27.64375 123.78438 28.253124Q124.22188 28.846874 124.39375 29.846874L122.675 30.08125Q122.55 29.284374 121.9875 28.846874Q121.425 28.39375 120.40938 28.39375Q119.19063 28.39375 118.675 28.8Q118.15938 29.190624 118.15938 29.721874Q118.15938 30.065624 118.37813 30.346874Q118.58125 30.628124 119.05 30.815624Q119.31563 30.909374 120.59688 31.253124Q122.47188 31.753124 123.20625 32.08125Q123.94063 32.39375 124.3625 33.003124Q124.78438 33.596874 124.78438 34.503124Q124.78438 35.378124 124.26875 36.159374Q123.75313 36.940624 122.78438 37.3625Q121.81563 37.784374 120.59688 37.784374Q118.58125 37.784374 117.51875 36.940624Q116.45625 36.096874 116.15938 34.45625ZM126.87813 25.253124L126.87813 23.2375L128.64375 23.2375L128.64375 25.253124L126.87813 25.253124ZM126.87813 37.55L126.87813 27.175L128.64375 27.175L128.64375 37.55L126.87813 37.55ZM134.70625 35.971874L134.95625 37.534374Q134.22188 37.690624 133.62813 37.690624Q132.675 37.690624 132.14375 37.39375Q131.62813 37.08125 131.40938 36.596874Q131.19063 36.096874 131.19063 34.51875L131.19063 28.55L129.90938 28.55L129.90938 27.175L131.19063 27.175L131.19063 24.6125L132.94063 23.55L132.94063 27.175L134.70625 27.175L134.70625 28.55L132.94063 28.55L132.94063 34.6125Q132.94063 35.3625 133.03438 35.58125Q133.12813 35.784374 133.33125 35.925Q133.55 36.05 133.94063 36.05Q134.22188 36.05 134.70625 35.971874ZM136.87813 25.253124L136.87813 23.2375L138.64375 23.2375L138.64375 25.253124L136.87813 25.253124ZM136.87813 37.55L136.87813 27.175L138.64375 27.175L138.64375 37.55L136.87813 37.55ZM140.22188 32.3625Q140.22188 29.4875 141.81563 28.096874Q143.15938 26.940624 145.08125 26.940624Q147.22188 26.940624 148.56563 28.346874Q149.925 29.753124 149.925 32.221874Q149.925 34.221874 149.33125 35.378124Q148.7375 36.51875 147.58125 37.159374Q146.44063 37.784374 145.08125 37.784374Q142.89375 37.784374 141.55 36.39375Q140.22188 34.9875 140.22188 32.3625ZM142.01875 32.3625Q142.01875 34.3625 142.87813 35.346874Q143.75313 36.33125 145.08125 36.33125Q146.39375 36.33125 147.25313 35.346874Q148.12813 34.346874 148.12813 32.3Q148.12813 30.378124 147.25313 29.39375Q146.37813 28.39375 145.08125 28.39375Q143.75313 28.39375 142.87813 29.39375Q142.01875 30.378124 142.01875 32.3625ZM151.8625 37.55L151.8625 27.175L153.45625 27.175L153.45625 28.659374Q154.59688 26.940624 156.75313 26.940624Q157.69063 26.940624 158.47188 27.284374Q159.26875 27.6125 159.65938 28.159374Q160.05 28.70625 160.20625 29.45625Q160.3 29.95625 160.3 31.175L160.3 37.55L158.53438 37.55L158.53438 31.2375Q158.53438 30.159374 158.33125 29.628124Q158.12813 29.096874 157.59688 28.784374Q157.08125 28.471874 156.37813 28.471874Q155.25313 28.471874 154.44063 29.190624Q153.62813 29.89375 153.62813 31.878124L153.62813 37.55L151.8625 37.55Z" fill-rule="nonzero"/></svg>