<svg version="1.1" viewBox="0.0 0.0 600.0 371.0" fill="none" stroke="none" stroke-linecap="square" stroke-miterlimit="10" width="600" height="371" xmlns:xlink="http://www.w3.org/1999/xlink" xmlns="http://www.w3.org/2000/svg"><path fill="#ffffff" d="M0 0L600.0 0L600.0 371.0L0 371.0L0 0Z" fill-rule="nonzero"/><path stroke="#333333" stroke-width="1.0" stroke-linecap="butt" d="M45.5 332.5L581.5 332.5" fill-rule="nonzero"/><path stroke="#cccccc" stroke-width="1.0" stroke-linecap="butt" d="M45.5 264.5L581.5 264.5" fill-rule="nonzero"/><path stroke="#cccccc" stroke-width="1.0" stroke-linecap="butt" d="M45.5 197.5L581.5 197.5" fill-rule="nonzero"/><path stroke="#cccccc" stroke-width="1.0" stroke-linecap="butt" d="M45.5 129.5L581.5 129.5" fill-rule="nonzero"/><path stroke="#cccccc" stroke-width="1.0" stroke-linecap="butt" d="M45.5 61.5L581.5 61.5" fill-rule="nonzero"/><clipPath id="id_0"><path d="M45.55 61.916668L581.45 61.916668L581.45 332.45L45.55 332.45L45.55 61.916668Z" clip-rule="nonzero"/></clipPath><path stroke="#000000" stroke-width="0.0" stroke-linecap="butt" stroke-opacity="0.0" clip-path="url(#id_0)" d="M273.0 332.0L125.0 332.0L125.0 83.0C125.0 81.89543 125.89543 81.0 127.0 81.0L271.0 81.0C272.10458 81.0 273.0 81.89543 273.0 83.0Z" fill-rule="nonzero"/><path fill="#4285f4" clip-path="url(#id_0)" d="M273.0 332.0L125.0 332.0L125.0 83.0C125.0 81.89543 125.89543 81.0 127.0 81.0L271.0 81.0C272.10458 81.0 273.0 81.89543 273.0 83.0Z" fill-rule="nonzero"/><path stroke="#000000" stroke-width="0.0" stroke-linecap="butt" stroke-opacity="0.0" clip-path="url(#id_0)" d="M502.0 332.0L354.0 332.0L354.0 316.0C354.0 314.89542 354.89542 314.0 356.0 314.0L500.0 314.0C501.10458 314.0 502.0 314.89542 502.0 316.0Z" fill-rule="nonzero"/><path fill="#4285f4" clip-path="url(#id_0)" d="M502.0 332.0L354.0 332.0L354.0 316.0C354.0 314.89542 354.89542 314.0 356.0 314.0L500.0 314.0C501.10458 314.0 502.0 314.89542 502.0 316.0Z" fill-rule="nonzero"/><path fill="#000000" d="M33.05 332.21564Q33.05 330.6844 33.3625 329.7625Q33.675 328.825 34.284374 328.325Q34.909374 327.825 35.846874 327.825Q36.534374 327.825 37.05 328.10626Q37.58125 328.3875 37.925 328.91876Q38.26875 329.4344 38.45625 330.1844Q38.64375 330.9344 38.64375 332.21564Q38.64375 333.73126 38.33125 334.65314Q38.034374 335.575 37.409374 336.09064Q36.8 336.59064 35.846874 336.59064Q34.6125 336.59064 33.89375 335.7Q33.05 334.6375 33.05 332.21564ZM34.128124 332.21564Q34.128124 334.325 34.628124 335.02814Q35.128124 335.73126 35.846874 335.73126Q36.58125 335.73126 37.065624 335.02814Q37.565624 334.325 37.565624 332.21564Q37.565624 330.09064 37.065624 329.40314Q36.58125 328.7 35.83125 328.7Q35.1125 328.7 34.675 329.3094Q34.128124 330.09064 34.128124 332.21564Z" fill-rule="nonzero"/><path fill="#000000" d="M31.596874 267.80106L31.596874 268.81668L25.909374 268.81668Q25.909374 268.44168 26.034374 268.0823Q26.253124 267.50418 26.721874 266.94168Q27.20625 266.37918 28.1125 265.6448Q29.51875 264.48856 30.003124 263.81668Q30.503124 263.1448 30.503124 262.55106Q30.503124 261.92606 30.05 261.50418Q29.596874 261.06668 28.878124 261.06668Q28.1125 261.06668 27.659374 261.5198Q27.20625 261.97293 27.190624 262.78543L26.1125 262.67606Q26.221874 261.4573 26.940624 260.8323Q27.675 260.19168 28.909374 260.19168Q30.14375 260.19168 30.8625 260.87918Q31.58125 261.56668 31.58125 262.5823Q31.58125 263.09793 31.3625 263.59793Q31.159374 264.0823 30.659374 264.6448Q30.175 265.19168 29.05 266.1448Q28.096874 266.94168 27.815624 267.23856Q27.55 267.5198 27.378124 267.80106L31.596874 267.80106ZM33.05 266.56668L34.159374 266.47293Q34.284374 267.28543 34.721874 267.69168Q35.175 268.09793 35.815624 268.09793Q36.565624 268.09793 37.096874 267.5198Q37.628124 266.94168 37.628124 266.00418Q37.628124 265.09793 37.1125 264.5823Q36.6125 264.05106 35.784374 264.05106Q35.284374 264.05106 34.8625 264.28543Q34.45625 264.5198 34.221874 264.87918L33.2375 264.75418L34.065624 260.34793L38.346874 260.34793L38.346874 261.34793L34.909374 261.34793L34.45625 263.66043Q35.221874 263.11356 36.065624 263.11356Q37.190624 263.11356 37.95625 263.8948Q38.7375 264.67606 38.7375 265.91043Q38.7375 267.06668 38.065624 267.92606Q37.2375 268.9573 35.815624 268.9573Q34.64375 268.9573 33.89375 268.30106Q33.159374 267.6448 33.05 266.56668Z" fill-rule="nonzero"/><path fill="#000000" d="M26.05 198.93333L27.159374 198.83958Q27.284374 199.65208 27.721874 200.05833Q28.175 200.46458 28.815624 200.46458Q29.565624 200.46458 30.096874 199.88646Q30.628124 199.30833 30.628124 198.37083Q30.628124 197.46458 30.1125 196.94896Q29.6125 196.41771 28.784374 196.41771Q28.284374 196.41771 27.8625 196.65208Q27.45625 196.88646 27.221874 197.24583L26.2375 197.12083L27.065624 192.71458L31.346874 192.71458L31.346874 193.71458L27.909374 193.71458L27.45625 196.02708Q28.221874 195.48021 29.065624 195.48021Q30.190624 195.48021 30.95625 196.26146Q31.7375 197.04271 31.7375 198.27708Q31.7375 199.43333 31.065624 200.29271Q30.2375 201.32396 28.815624 201.32396Q27.64375 201.32396 26.89375 200.66771Q26.159374 200.01146 26.05 198.93333ZM33.05 196.94896Q33.05 195.41771 33.3625 194.49583Q33.675 193.55833 34.284374 193.05833Q34.909374 192.55833 35.846874 192.55833Q36.534374 192.55833 37.05 192.83958Q37.58125 193.12083 37.925 193.65208Q38.26875 194.16771 38.45625 194.91771Q38.64375 195.66771 38.64375 196.94896Q38.64375 198.46458 38.33125 199.38646Q38.034374 200.30833 37.409374 200.82396Q36.8 201.32396 35.846874 201.32396Q34.6125 201.32396 33.89375 200.43333Q33.05 199.37083 33.05 196.94896ZM34.128124 196.94896Q34.128124 199.05833 34.628124 199.76146Q35.128124 200.46458 35.846874 200.46458Q36.58125 200.46458 37.065624 199.76146Q37.565624 199.05833 37.565624 196.94896Q37.565624 194.82396 37.065624 194.13646Q36.58125 193.43333 35.83125 193.43333Q35.1125 193.43333 34.675 194.04271Q34.128124 194.82396 34.128124 196.94896Z" fill-rule="nonzero"/><path fill="#000000" d="M26.1125 126.08125L26.1125 125.06563L31.675 125.06563L31.675 125.89375Q30.8625 126.76875 30.05 128.22188Q29.253124 129.65938 28.815624 131.19063Q28.4875 132.26875 28.409374 133.55L27.315624 133.55Q27.33125 132.53438 27.70625 131.09688Q28.096874 129.65938 28.8 128.33125Q29.51875 127.00313 30.33125 126.08125L26.1125 126.08125ZM33.05 131.3L34.159374 131.20625Q34.284374 132.01875 34.721874 132.425Q35.175 132.83125 35.815624 132.83125Q36.565624 132.83125 37.096874 132.25313Q37.628124 131.675 37.628124 130.7375Q37.628124 129.83125 37.1125 129.31563Q36.6125 128.78438 35.784374 128.78438Q35.284374 128.78438 34.8625 129.01875Q34.45625 129.25313 34.221874 129.6125L33.2375 129.4875L34.065624 125.08125L38.346874 125.08125L38.346874 126.08125L34.909374 126.08125L34.45625 128.39375Q35.221874 127.84688 36.065624 127.84688Q37.190624 127.84688 37.95625 128.62813Q38.7375 129.40938 38.7375 130.64375Q38.7375 131.8 38.065624 132.65938Q37.2375 133.69063 35.815624 133.69063Q34.64375 133.69063 33.89375 133.03438Q33.159374 132.37813 33.05 131.3Z" fill-rule="nonzero"/><path fill="#000000" d="M23.01875 65.916664L21.971874 65.916664L21.971874 59.197914Q21.58125 59.55729 20.95625 59.93229Q20.346874 60.291664 19.8625 60.46354L19.8625 59.447914Q20.7375 59.02604 21.39375 58.447914Q22.065624 57.854164 22.346874 57.291664L23.01875 57.291664L23.01875 65.916664ZM26.05 61.68229Q26.05 60.15104 26.3625 59.229164Q26.675 58.291664 27.284374 57.791664Q27.909374 57.291664 28.846874 57.291664Q29.534374 57.291664 30.05 57.572914Q30.58125 57.854164 30.925 58.385414Q31.26875 58.90104 31.45625 59.65104Q31.64375 60.40104 31.64375 61.68229Q31.64375 63.197914 31.33125 64.11979Q31.034374 65.041664 30.409374 65.55729Q29.8 66.05729 28.846874 66.05729Q27.6125 66.05729 26.89375 65.166664Q26.05 64.104164 26.05 61.68229ZM27.128124 61.68229Q27.128124 63.791664 27.628124 64.49479Q28.128124 65.197914 28.846874 65.197914Q29.58125 65.197914 30.065624 64.49479Q30.565624 63.791664 30.565624 61.68229Q30.565624 59.55729 30.065624 58.86979Q29.58125 58.166664 28.83125 58.166664Q28.1125 58.166664 27.675 58.77604Q27.128124 59.55729 27.128124 61.68229ZM33.05 61.68229Q33.05 60.15104 33.3625 59.229164Q33.675 58.291664 34.284374 57.791664Q34.909374 57.291664 35.846874 57.291664Q36.534374 57.291664 37.05 57.572914Q37.58125 57.854164 37.925 58.385414Q38.26875 58.90104 38.45625 59.65104Q38.64375 60.40104 38.64375 61.68229Q38.64375 63.197914 38.33125 64.11979Q38.034374 65.041664 37.409374 65.55729Q36.8 66.05729 35.846874 66.05729Q34.6125 66.05729 33.89375 65.166664Q33.05 64.104164 33.05 61.68229ZM34.128124 61.68229Q34.128124 63.791664 34.628124 64.49479Q35.128124 65.197914 35.846874 65.197914Q36.58125 65.197914 37.065624 64.49479Q37.565624 63.791664 37.565624 61.68229Q37.565624 59.55729 37.065624 58.86979Q36.58125 58.166664 35.83125 58.166664Q35.1125 58.166664 34.675 58.77604Q34.128124 59.55729 34.128124 61.68229Z" fill-rule="nonzero"/><path fill="#000000" d="M192.32248 349.45L192.32248 345.8094L189.00998 340.85626L190.4006 340.85626L192.0881 343.45Q192.55685 344.16876 192.9631 344.90314Q193.35373 344.23126 193.9006 343.3875L195.57248 340.85626L196.88498 340.85626L193.4631 345.8094L193.4631 349.45L192.32248 349.45ZM202.0256 347.45L203.11935 347.575Q202.86935 348.52814 202.16623 349.0594Q201.4631 349.59064 200.38498 349.59064Q199.0256 349.59064 198.2131 348.7469Q197.41623 347.90314 197.41623 346.3875Q197.41623 344.825 198.22873 343.96564Q199.04123 343.09064 200.32248 343.09064Q201.57248 343.09064 202.35373 343.9344Q203.1506 344.77814 203.1506 346.325Q203.1506 346.41876 203.1506 346.60626L198.50998 346.60626Q198.57248 347.6375 199.0881 348.1844Q199.60373 348.71564 200.38498 348.71564Q200.9631 348.71564 201.36935 348.41876Q201.79123 348.10626 202.0256 347.45ZM198.57248 345.7469L202.04123 345.7469Q201.97873 344.95 201.6506 344.5594Q201.13498 343.95 200.3381 343.95Q199.60373 343.95 199.10373 344.4344Q198.61935 344.91876 198.57248 345.7469ZM204.35373 347.59064L205.38498 347.4344Q205.47873 348.0594 205.86935 348.3875Q206.2756 348.71564 207.00998 348.71564Q207.72873 348.71564 208.07248 348.4344Q208.43185 348.1375 208.43185 347.73126Q208.43185 347.3719 208.11935 347.16876Q207.9006 347.02814 207.04123 346.8094Q205.88498 346.5125 205.43185 346.3094Q204.99435 346.09064 204.75998 345.71564Q204.5256 345.34064 204.5256 344.8719Q204.5256 344.46564 204.7131 344.10626Q204.9006 343.7469 205.22873 343.5125Q205.47873 343.34064 205.9006 343.21564Q206.32248 343.09064 206.82248 343.09064Q207.54123 343.09064 208.0881 343.3094Q208.6506 343.5125 208.91623 343.8719Q209.18185 344.23126 209.2756 344.825L208.24435 344.96564Q208.18185 344.4969 207.8381 344.23126Q207.50998 343.95 206.88498 343.95Q206.16623 343.95 205.85373 344.2Q205.54123 344.4344 205.54123 344.7625Q205.54123 344.96564 205.66623 345.1219Q205.80685 345.29376 206.07248 345.40314Q206.22873 345.46564 207.00998 345.66876Q208.13498 345.98126 208.57248 346.16876Q209.00998 346.35626 209.25998 346.71564Q209.50998 347.075 209.50998 347.6219Q209.50998 348.15314 209.19748 348.6219Q208.9006 349.075 208.32248 349.34064Q207.74435 349.59064 207.00998 349.59064Q205.79123 349.59064 205.1506 349.09064Q204.5256 348.575 204.35373 347.59064Z" fill-rule="nonzero"/><path fill="#000000" d="M303.9119 349.45L303.9119 340.85626L305.63065 340.85626L307.6619 346.9344Q307.94315 347.79376 308.06815 348.21564Q308.20877 347.7469 308.52127 346.84064L310.58377 340.85626L312.11502 340.85626L312.11502 349.45L311.02127 349.45L311.02127 342.2625L308.52127 349.45L307.49002 349.45L305.00565 342.1375L305.00565 349.45L303.9119 349.45ZM317.88065 348.6844Q317.2869 349.1844 316.74002 349.3875Q316.20877 349.59064 315.58377 349.59064Q314.55252 349.59064 314.00565 349.09064Q313.45877 348.59064 313.45877 347.8094Q313.45877 347.35626 313.6619 346.98126Q313.86502 346.59064 314.20877 346.3719Q314.55252 346.1375 314.9744 346.02814Q315.27127 345.9344 315.9119 345.85626Q317.17752 345.71564 317.7869 345.4969Q317.7869 345.27814 317.7869 345.23126Q317.7869 344.575 317.49002 344.3094Q317.08377 343.96564 316.2869 343.96564Q315.55252 343.96564 315.19315 344.23126Q314.83377 344.48126 314.6619 345.1375L313.63065 344.9969Q313.77127 344.34064 314.0994 343.9344Q314.42752 343.52814 315.0369 343.3094Q315.64627 343.09064 316.44315 343.09064Q317.24002 343.09064 317.74002 343.27814Q318.24002 343.46564 318.4744 343.7469Q318.70877 344.02814 318.80252 344.46564Q318.8494 344.73126 318.8494 345.4344L318.8494 346.84064Q318.8494 348.3094 318.9119 348.7Q318.99002 349.09064 319.19315 349.45L318.08377 349.45Q317.92752 349.1219 317.88065 348.6844ZM317.7869 346.325Q317.20877 346.5594 316.06815 346.73126Q315.4119 346.825 315.14627 346.95Q314.88065 347.0594 314.7244 347.27814Q314.58377 347.4969 314.58377 347.77814Q314.58377 348.2 314.89627 348.48126Q315.2244 348.7625 315.83377 348.7625Q316.44315 348.7625 316.9119 348.4969Q317.39627 348.23126 317.61502 347.7625Q317.7869 347.40314 317.7869 346.71564L317.7869 346.325ZM320.77127 351.84064L320.64627 350.85626Q320.99002 350.95 321.25565 350.95Q321.5994 350.95 321.80252 350.825Q322.02127 350.71564 322.1619 350.5125Q322.25565 350.34064 322.49002 349.71564Q322.50565 349.6375 322.58377 349.46564L320.20877 343.23126L321.3494 343.23126L322.64627 346.825Q322.89627 347.5125 323.0994 348.27814Q323.2869 347.54376 323.5369 346.85626L324.86502 343.23126L325.9119 343.23126L323.55252 349.5594Q323.1619 350.575 322.95877 350.96564Q322.67752 351.4969 322.30252 351.73126Q321.94315 351.98126 321.44315 351.98126Q321.14627 351.98126 320.77127 351.84064ZM327.7869 349.45L326.80252 349.45L326.80252 340.85626L327.86502 340.85626L327.86502 343.91876Q328.5369 343.09064 329.56815 343.09064Q330.14627 343.09064 330.64627 343.325Q331.1619 343.54376 331.49002 343.96564Q331.83377 344.3875 332.02127 344.98126Q332.20877 345.575 332.20877 346.2469Q332.20877 347.84064 331.4119 348.71564Q330.61502 349.59064 329.52127 349.59064Q328.4119 349.59064 327.7869 348.66876L327.7869 349.45ZM327.77127 346.29376Q327.77127 347.40314 328.08377 347.90314Q328.58377 348.71564 329.42752 348.71564Q330.11502 348.71564 330.61502 348.1219Q331.13065 347.52814 331.13065 346.325Q331.13065 345.10626 330.64627 344.52814Q330.1619 343.95 329.4744 343.95Q328.7869 343.95 328.27127 344.5594Q327.77127 345.15314 327.77127 346.29376ZM338.06815 347.45L339.1619 347.575Q338.9119 348.52814 338.20877 349.0594Q337.50565 349.59064 336.42752 349.59064Q335.06815 349.59064 334.25565 348.7469Q333.45877 347.90314 333.45877 346.3875Q333.45877 344.825 334.27127 343.96564Q335.08377 343.09064 336.36502 343.09064Q337.61502 343.09064 338.39627 343.9344Q339.19315 344.77814 339.19315 346.325Q339.19315 346.41876 339.19315 346.60626L334.55252 346.60626Q334.61502 347.6375 335.13065 348.1844Q335.64627 348.71564 336.42752 348.71564Q337.00565 348.71564 337.4119 348.41876Q337.83377 348.10626 338.06815 347.45ZM334.61502 345.7469L338.08377 345.7469Q338.02127 344.95 337.69315 344.5594Q337.17752 343.95 336.38065 343.95Q335.64627 343.95 335.14627 344.4344Q334.6619 344.91876 334.61502 345.7469ZM343.39627 346.8719L343.39627 345.8094L346.64627 345.8094L346.64627 346.8719L343.39627 346.8719ZM347.39627 346.8719L347.39627 345.8094L350.64627 345.8094L350.64627 346.8719L347.39627 346.8719ZM355.14627 349.45L355.14627 340.85626L356.27127 340.85626L356.27127 349.45L355.14627 349.45ZM360.11502 348.5125L360.27127 349.4344Q359.81815 349.52814 359.4744 349.52814Q358.89627 349.52814 358.58377 349.35626Q358.27127 349.16876 358.13065 348.8719Q358.00565 348.575 358.00565 347.6219L358.00565 344.04376L357.24002 344.04376L357.24002 343.23126L358.00565 343.23126L358.00565 341.6844L359.05252 341.0594L359.05252 343.23126L360.11502 343.23126L360.11502 344.04376L359.05252 344.04376L359.05252 347.6844Q359.05252 348.1375 359.0994 348.2625Q359.1619 348.3875 359.2869 348.46564Q359.4119 348.54376 359.64627 348.54376Q359.83377 348.54376 360.11502 348.5125ZM367.8494 349.45L367.8494 348.66876Q367.25565 349.59064 366.11502 349.59064Q365.36502 349.59064 364.74002 349.1844Q364.11502 348.7625 363.77127 348.02814Q363.42752 347.29376 363.42752 346.34064Q363.42752 345.41876 363.74002 344.65314Q364.05252 343.8875 364.67752 343.4969Q365.30252 343.09064 366.06815 343.09064Q366.63065 343.09064 367.06815 343.325Q367.50565 343.5594 367.7869 343.9344L367.7869 340.85626L368.83377 340.85626L368.83377 349.45L367.8494 349.45ZM364.52127 346.34064Q364.52127 347.54376 365.02127 348.1375Q365.52127 348.71564 366.20877 348.71564Q366.89627 348.71564 367.38065 348.15314Q367.86502 347.59064 367.86502 346.4344Q367.86502 345.15314 367.36502 344.5594Q366.88065 343.96564 366.1619 343.96564Q365.45877 343.96564 364.99002 344.54376Q364.52127 345.10626 364.52127 346.34064ZM375.06815 347.45L376.1619 347.575Q375.9119 348.52814 375.20877 349.0594Q374.50565 349.59064 373.42752 349.59064Q372.06815 349.59064 371.25565 348.7469Q370.45877 347.90314 370.45877 346.3875Q370.45877 344.825 371.27127 343.96564Q372.08377 343.09064 373.36502 343.09064Q374.61502 343.09064 375.39627 343.9344Q376.19315 344.77814 376.19315 346.325Q376.19315 346.41876 376.19315 346.60626L371.55252 346.60626Q371.61502 347.6375 372.13065 348.1844Q372.64627 348.71564 373.42752 348.71564Q374.00565 348.71564 374.4119 348.41876Q374.83377 348.10626 375.06815 347.45ZM371.61502 345.7469L375.08377 345.7469Q375.02127 344.95 374.69315 344.5594Q374.17752 343.95 373.38065 343.95Q372.64627 343.95 372.14627 344.4344Q371.6619 344.91876 371.61502 345.7469ZM377.81815 351.84064L377.81815 343.23126L378.77127 343.23126L378.77127 344.02814Q379.11502 343.5594 379.5369 343.325Q379.9744 343.09064 380.58377 343.09064Q381.38065 343.09064 381.99002 343.4969Q382.5994 343.90314 382.89627 344.65314Q383.20877 345.40314 383.20877 346.29376Q383.20877 347.2469 382.86502 348.0125Q382.5369 348.77814 381.88065 349.1844Q381.2244 349.59064 380.50565 349.59064Q379.9744 349.59064 379.55252 349.3719Q379.13065 349.1375 378.86502 348.8094L378.86502 351.84064L377.81815 351.84064ZM378.77127 346.3719Q378.77127 347.575 379.25565 348.15314Q379.74002 348.71564 380.42752 348.71564Q381.13065 348.71564 381.63065 348.1219Q382.13065 347.52814 382.13065 346.27814Q382.13065 345.09064 381.64627 344.5125Q381.1619 343.91876 380.4744 343.91876Q379.80252 343.91876 379.2869 344.54376Q378.77127 345.16876 378.77127 346.3719ZM389.06815 347.45L390.1619 347.575Q389.9119 348.52814 389.20877 349.0594Q388.50565 349.59064 387.42752 349.59064Q386.06815 349.59064 385.25565 348.7469Q384.45877 347.90314 384.45877 346.3875Q384.45877 344.825 385.27127 343.96564Q386.08377 343.09064 387.36502 343.09064Q388.61502 343.09064 389.39627 343.9344Q390.19315 344.77814 390.19315 346.325Q390.19315 346.41876 390.19315 346.60626L385.55252 346.60626Q385.61502 347.6375 386.13065 348.1844Q386.64627 348.71564 387.42752 348.71564Q388.00565 348.71564 388.4119 348.41876Q388.83377 348.10626 389.06815 347.45ZM385.61502 345.7469L389.08377 345.7469Q389.02127 344.95 388.69315 344.5594Q388.17752 343.95 387.38065 343.95Q386.64627 343.95 386.14627 344.4344Q385.6619 344.91876 385.61502 345.7469ZM391.81815 349.45L391.81815 343.23126L392.75565 343.23126L392.75565 344.10626Q393.44315 343.09064 394.74002 343.09064Q395.30252 343.09064 395.77127 343.29376Q396.25565 343.4969 396.49002 343.825Q396.7244 344.15314 396.81815 344.59064Q396.86502 344.8875 396.86502 345.6219L396.86502 349.45L395.81815 349.45L395.81815 345.66876Q395.81815 345.0125 395.69315 344.7Q395.56815 344.3875 395.25565 344.2Q394.94315 343.9969 394.52127 343.9969Q393.8494 343.9969 393.3494 344.4344Q392.86502 344.85626 392.86502 346.04376L392.86502 349.45L391.81815 349.45ZM402.8494 349.45L402.8494 348.66876Q402.25565 349.59064 401.11502 349.59064Q400.36502 349.59064 399.74002 349.1844Q399.11502 348.7625 398.77127 348.02814Q398.42752 347.29376 398.42752 346.34064Q398.42752 345.41876 398.74002 344.65314Q399.05252 343.8875 399.67752 343.4969Q400.30252 343.09064 401.06815 343.09064Q401.63065 343.09064 402.06815 343.325Q402.50565 343.5594 402.7869 343.9344L402.7869 340.85626L403.83377 340.85626L403.83377 349.45L402.8494 349.45ZM399.52127 346.34064Q399.52127 347.54376 400.02127 348.1375Q400.52127 348.71564 401.20877 348.71564Q401.89627 348.71564 402.38065 348.15314Q402.86502 347.59064 402.86502 346.4344Q402.86502 345.15314 402.36502 344.5594Q401.88065 343.96564 401.1619 343.96564Q400.45877 343.96564 399.99002 344.54376Q399.52127 345.10626 399.52127 346.34064ZM405.39627 347.59064L406.42752 347.4344Q406.52127 348.0594 406.9119 348.3875Q407.31815 348.71564 408.05252 348.71564Q408.77127 348.71564 409.11502 348.4344Q409.4744 348.1375 409.4744 347.73126Q409.4744 347.3719 409.1619 347.16876Q408.94315 347.02814 408.08377 346.8094Q406.92752 346.5125 406.4744 346.3094Q406.0369 346.09064 405.80252 345.71564Q405.56815 345.34064 405.56815 344.8719Q405.56815 344.46564 405.75565 344.10626Q405.94315 343.7469 406.27127 343.5125Q406.52127 343.34064 406.94315 343.21564Q407.36502 343.09064 407.86502 343.09064Q408.58377 343.09064 409.13065 343.3094Q409.69315 343.5125 409.95877 343.8719Q410.2244 344.23126 410.31815 344.825L409.2869 344.96564Q409.2244 344.4969 408.88065 344.23126Q408.55252 343.95 407.92752 343.95Q407.20877 343.95 406.89627 344.2Q406.58377 344.4344 406.58377 344.7625Q406.58377 344.96564 406.70877 345.1219Q406.8494 345.29376 407.11502 345.40314Q407.27127 345.46564 408.05252 345.66876Q409.17752 345.98126 409.61502 346.16876Q410.05252 346.35626 410.30252 346.71564Q410.55252 347.075 410.55252 347.6219Q410.55252 348.15314 410.24002 348.6219Q409.94315 349.075 409.36502 349.34064Q408.7869 349.59064 408.05252 349.59064Q406.83377 349.59064 406.19315 349.09064Q405.56815 348.575 405.39627 347.59064ZM414.42752 346.34064Q414.42752 344.60626 415.38065 343.77814Q416.17752 343.09064 417.33377 343.09064Q418.61502 343.09064 419.42752 343.9344Q420.25565 344.7625 420.25565 346.2469Q420.25565 347.45 419.89627 348.1375Q419.5369 348.825 418.83377 349.21564Q418.14627 349.59064 417.33377 349.59064Q416.0369 349.59064 415.2244 348.7625Q414.42752 347.91876 414.42752 346.34064ZM415.50565 346.34064Q415.50565 347.52814 416.02127 348.1219Q416.55252 348.71564 417.33377 348.71564Q418.13065 348.71564 418.64627 348.1219Q419.1619 347.52814 419.1619 346.3094Q419.1619 345.15314 418.63065 344.5594Q418.11502 343.96564 417.33377 343.96564Q416.55252 343.96564 416.02127 344.5594Q415.50565 345.1375 415.50565 346.34064ZM421.81815 349.45L421.81815 343.23126L422.75565 343.23126L422.75565 344.10626Q423.44315 343.09064 424.74002 343.09064Q425.30252 343.09064 425.77127 343.29376Q426.25565 343.4969 426.49002 343.825Q426.7244 344.15314 426.81815 344.59064Q426.86502 344.8875 426.86502 345.6219L426.86502 349.45L425.81815 349.45L425.81815 345.66876Q425.81815 345.0125 425.69315 344.7Q425.56815 344.3875 425.25565 344.2Q424.94315 343.9969 424.52127 343.9969Q423.8494 343.9969 423.3494 344.4344Q422.86502 344.85626 422.86502 346.04376L422.86502 349.45L421.81815 349.45ZM434.11502 348.5125L434.27127 349.4344Q433.81815 349.52814 433.4744 349.52814Q432.89627 349.52814 432.58377 349.35626Q432.27127 349.16876 432.13065 348.8719Q432.00565 348.575 432.00565 347.6219L432.00565 344.04376L431.24002 344.04376L431.24002 343.23126L432.00565 343.23126L432.00565 341.6844L433.05252 341.0594L433.05252 343.23126L434.11502 343.23126L434.11502 344.04376L433.05252 344.04376L433.05252 347.6844Q433.05252 348.1375 433.0994 348.2625Q433.1619 348.3875 433.2869 348.46564Q433.4119 348.54376 433.64627 348.54376Q433.83377 348.54376 434.11502 348.5125ZM434.81815 349.45L434.81815 340.85626L435.86502 340.85626L435.86502 343.9344Q436.5994 343.09064 437.7244 343.09064Q438.42752 343.09064 438.92752 343.3719Q439.44315 343.6375 439.6619 344.1219Q439.88065 344.59064 439.88065 345.5125L439.88065 349.45L438.83377 349.45L438.83377 345.5125Q438.83377 344.71564 438.49002 344.35626Q438.14627 343.9969 437.52127 343.9969Q437.05252 343.9969 436.63065 344.2469Q436.2244 344.48126 436.0369 344.90314Q435.86502 345.3094 435.86502 346.04376L435.86502 349.45L434.81815 349.45ZM446.06815 347.45L447.1619 347.575Q446.9119 348.52814 446.20877 349.0594Q445.50565 349.59064 444.42752 349.59064Q443.06815 349.59064 442.25565 348.7469Q441.45877 347.90314 441.45877 346.3875Q441.45877 344.825 442.27127 343.96564Q443.08377 343.09064 444.36502 343.09064Q445.61502 343.09064 446.39627 343.9344Q447.19315 344.77814 447.19315 346.325Q447.19315 346.41876 447.19315 346.60626L442.55252 346.60626Q442.61502 347.6375 443.13065 348.1844Q443.64627 348.71564 444.42752 348.71564Q445.00565 348.71564 445.4119 348.41876Q445.83377 348.10626 446.06815 347.45ZM442.61502 345.7469L446.08377 345.7469Q446.02127 344.95 445.69315 344.5594Q445.17752 343.95 444.38065 343.95Q443.64627 343.95 443.14627 344.4344Q442.6619 344.91876 442.61502 345.7469ZM451.61502 349.96564L452.64627 350.1219Q452.70877 350.59064 453.00565 350.8094Q453.39627 351.10626 454.06815 351.10626Q454.80252 351.10626 455.19315 350.8094Q455.5994 350.5125 455.74002 349.9969Q455.83377 349.66876 455.81815 348.6375Q455.13065 349.45 454.0994 349.45Q452.81815 349.45 452.11502 348.52814Q451.4119 347.59064 451.4119 346.3094Q451.4119 345.41876 451.7244 344.66876Q452.05252 343.90314 452.6619 343.4969Q453.27127 343.09064 454.0994 343.09064Q455.20877 343.09064 455.92752 343.98126L455.92752 343.23126L456.89627 343.23126L456.89627 348.60626Q456.89627 350.0594 456.5994 350.66876Q456.30252 351.27814 455.6619 351.6219Q455.02127 351.98126 454.08377 351.98126Q452.9744 351.98126 452.2869 351.48126Q451.5994 350.98126 451.61502 349.96564ZM452.49002 346.23126Q452.49002 347.45 452.9744 348.0125Q453.45877 348.575 454.19315 348.575Q454.92752 348.575 455.4119 348.0125Q455.9119 347.45 455.9119 346.2625Q455.9119 345.1219 455.39627 344.54376Q454.89627 343.96564 454.17752 343.96564Q453.4744 343.96564 452.9744 344.54376Q452.49002 345.10626 452.49002 346.23126ZM458.80252 349.45L458.80252 343.23126L459.75565 343.23126L459.75565 344.16876Q460.11502 343.5125 460.4119 343.3094Q460.7244 343.09064 461.0994 343.09064Q461.63065 343.09064 462.17752 343.41876L461.81815 344.40314Q461.42752 344.16876 461.05252 344.16876Q460.69315 344.16876 460.4119 344.3875Q460.14627 344.59064 460.0369 344.96564Q459.8494 345.52814 459.8494 346.1844L459.8494 349.45L458.80252 349.45ZM462.42752 346.34064Q462.42752 344.60626 463.38065 343.77814Q464.17752 343.09064 465.33377 343.09064Q466.61502 343.09064 467.42752 343.9344Q468.25565 344.7625 468.25565 346.2469Q468.25565 347.45 467.89627 348.1375Q467.5369 348.825 466.83377 349.21564Q466.14627 349.59064 465.33377 349.59064Q464.0369 349.59064 463.2244 348.7625Q462.42752 347.91876 462.42752 346.34064ZM463.50565 346.34064Q463.50565 347.52814 464.02127 348.1219Q464.55252 348.71564 465.33377 348.71564Q466.13065 348.71564 466.64627 348.1219Q467.1619 347.52814 467.1619 346.3094Q467.1619 345.15314 466.63065 344.5594Q466.11502 343.96564 465.33377 343.96564Q464.55252 343.96564 464.02127 344.5594Q463.50565 345.1375 463.50565 346.34064ZM473.89627 349.45L473.89627 348.52814Q473.1619 349.59064 471.9119 349.59064Q471.36502 349.59064 470.88065 349.3875Q470.4119 349.16876 470.17752 348.85626Q469.94315 348.52814 469.8494 348.0594Q469.7869 347.7625 469.7869 347.075L469.7869 343.23126L470.8494 343.23126L470.8494 346.6844Q470.8494 347.4969 470.9119 347.79376Q471.00565 348.2 471.31815 348.45Q471.64627 348.6844 472.13065 348.6844Q472.5994 348.6844 473.00565 348.45Q473.42752 348.2 473.5994 347.77814Q473.7869 347.35626 473.7869 346.5594L473.7869 343.23126L474.83377 343.23126L474.83377 349.45L473.89627 349.45ZM476.81815 351.84064L476.81815 343.23126L477.77127 343.23126L477.77127 344.02814Q478.11502 343.5594 478.5369 343.325Q478.9744 343.09064 479.58377 343.09064Q480.38065 343.09064 480.99002 343.4969Q481.5994 343.90314 481.89627 344.65314Q482.20877 345.40314 482.20877 346.29376Q482.20877 347.2469 481.86502 348.0125Q481.5369 348.77814 480.88065 349.1844Q480.2244 349.59064 479.50565 349.59064Q478.9744 349.59064 478.55252 349.3719Q478.13065 349.1375 477.86502 348.8094L477.86502 351.84064L476.81815 351.84064ZM477.77127 346.3719Q477.77127 347.575 478.25565 348.15314Q478.74002 348.71564 479.42752 348.71564Q480.13065 348.71564 480.63065 348.1219Q481.13065 347.52814 481.13065 346.27814Q481.13065 345.09064 480.64627 344.5125Q480.1619 343.91876 479.4744 343.91876Q478.80252 343.91876 478.2869 344.54376Q477.77127 345.16876 477.77127 346.3719ZM490.88065 347.16876L491.9119 347.3094Q491.74002 348.3719 491.0369 348.98126Q490.33377 349.59064 489.31815 349.59064Q488.0369 349.59064 487.25565 348.7625Q486.49002 347.91876 486.49002 346.35626Q486.49002 345.35626 486.81815 344.60626Q487.1619 343.84064 487.83377 343.46564Q488.52127 343.09064 489.33377 343.09064Q490.33377 343.09064 490.9744 343.60626Q491.63065 344.10626 491.81815 345.0594L490.7869 345.21564Q490.64627 344.59064 490.27127 344.27814Q489.89627 343.95 489.36502 343.95Q488.56815 343.95 488.06815 344.52814Q487.56815 345.09064 487.56815 346.325Q487.56815 347.59064 488.05252 348.15314Q488.5369 348.71564 489.30252 348.71564Q489.92752 348.71564 490.33377 348.34064Q490.75565 347.96564 490.88065 347.16876ZM492.42752 346.34064Q492.42752 344.60626 493.38065 343.77814Q494.17752 343.09064 495.33377 343.09064Q496.61502 343.09064 497.42752 343.9344Q498.25565 344.7625 498.25565 346.2469Q498.25565 347.45 497.89627 348.1375Q497.5369 348.825 496.83377 349.21564Q496.14627 349.59064 495.33377 349.59064Q494.0369 349.59064 493.2244 348.7625Q492.42752 347.91876 492.42752 346.34064ZM493.50565 346.34064Q493.50565 347.52814 494.02127 348.1219Q494.55252 348.71564 495.33377 348.71564Q496.13065 348.71564 496.64627 348.1219Q497.1619 347.52814 497.1619 346.3094Q497.1619 345.15314 496.63065 344.5594Q496.11502 343.96564 495.33377 343.96564Q494.55252 343.96564 494.02127 344.5594Q493.50565 345.1375 493.50565 346.34064ZM499.81815 349.45L499.81815 343.23126L500.75565 343.23126L500.75565 344.10626Q501.05252 343.6375 501.5369 343.3719Q502.02127 343.09064 502.64627 343.09064Q503.33377 343.09064 503.77127 343.3719Q504.2244 343.65314 504.39627 344.16876Q505.14627 343.09064 506.31815 343.09064Q507.25565 343.09064 507.74002 343.60626Q508.24002 344.10626 508.24002 345.1844L508.24002 349.45L507.19315 349.45L507.19315 345.52814Q507.19315 344.90314 507.08377 344.6219Q506.99002 344.34064 506.7244 344.16876Q506.45877 343.9969 506.08377 343.9969Q505.42752 343.9969 504.99002 344.4344Q504.56815 344.8719 504.56815 345.84064L504.56815 349.45L503.50565 349.45L503.50565 345.40314Q503.50565 344.7 503.24002 344.35626Q502.99002 343.9969 502.4119 343.9969Q501.95877 343.9969 501.58377 344.23126Q501.20877 344.46564 501.0369 344.91876Q500.86502 345.3719 500.86502 346.21564L500.86502 349.45L499.81815 349.45ZM509.81815 351.84064L509.81815 343.23126L510.77127 343.23126L510.77127 344.02814Q511.11502 343.5594 511.5369 343.325Q511.9744 343.09064 512.58374 343.09064Q513.3806 343.09064 513.99 343.4969Q514.59937 343.90314 514.89624 344.65314Q515.20874 345.40314 515.20874 346.29376Q515.20874 347.2469 514.865 348.0125Q514.53687 348.77814 513.8806 349.1844Q513.22437 349.59064 512.5056 349.59064Q511.9744 349.59064 511.55252 349.3719Q511.13065 349.1375 510.86502 348.8094L510.86502 351.84064L509.81815 351.84064ZM510.77127 346.3719Q510.77127 347.575 511.25565 348.15314Q511.74002 348.71564 512.4275 348.71564Q513.1306 348.71564 513.6306 348.1219Q514.1306 347.52814 514.1306 346.27814Q514.1306 345.09064 513.64624 344.5125Q513.16187 343.91876 512.47437 343.91876Q511.80252 343.91876 511.2869 344.54376Q510.77127 345.16876 510.77127 346.3719ZM516.4275 346.34064Q516.4275 344.60626 517.3806 343.77814Q518.1775 343.09064 519.33374 343.09064Q520.615 343.09064 521.4275 343.9344Q522.2556 344.7625 522.2556 346.2469Q522.2556 347.45 521.89624 348.1375Q521.53687 348.825 520.83374 349.21564Q520.14624 349.59064 519.33374 349.59064Q518.03687 349.59064 517.22437 348.7625Q516.4275 347.91876 516.4275 346.34064ZM517.5056 346.34064Q517.5056 347.52814 518.02124 348.1219Q518.5525 348.71564 519.33374 348.71564Q520.1306 348.71564 520.64624 348.1219Q521.16187 347.52814 521.16187 346.3094Q521.16187 345.15314 520.6306 344.5594Q520.115 343.96564 519.33374 343.96564Q518.5525 343.96564 518.02124 344.5594Q517.5056 345.1375 517.5056 346.34064ZM523.39624 347.59064L524.4275 347.4344Q524.52124 348.0594 524.91187 348.3875Q525.3181 348.71564 526.0525 348.71564Q526.77124 348.71564 527.115 348.4344Q527.47437 348.1375 527.47437 347.73126Q527.47437 347.3719 527.16187 347.16876Q526.9431 347.02814 526.08374 346.8094Q524.9275 346.5125 524.47437 346.3094Q524.03687 346.09064 523.8025 345.71564Q523.5681 345.34064 523.5681 344.8719Q523.5681 344.46564 523.7556 344.10626Q523.9431 343.7469 524.27124 343.5125Q524.52124 343.34064 524.9431 343.21564Q525.365 343.09064 525.865 343.09064Q526.58374 343.09064 527.1306 343.3094Q527.6931 343.5125 527.95874 343.8719Q528.22437 344.23126 528.3181 344.825L527.28687 344.96564Q527.22437 344.4969 526.8806 344.23126Q526.5525 343.95 525.9275 343.95Q525.20874 343.95 524.89624 344.2Q524.58374 344.4344 524.58374 344.7625Q524.58374 344.96564 524.70874 345.1219Q524.84937 345.29376 525.115 345.40314Q525.27124 345.46564 526.0525 345.66876Q527.1775 345.98126 527.615 346.16876Q528.0525 346.35626 528.3025 346.71564Q528.5525 347.075 528.5525 347.6219Q528.5525 348.15314 528.24 348.6219Q527.9431 349.075 527.365 349.34064Q526.78687 349.59064 526.0525 349.59064Q524.83374 349.59064 524.1931 349.09064Q523.5681 348.575 523.39624 347.59064ZM529.8181 342.075L529.8181 340.85626L530.8806 340.85626L530.8806 342.075L529.8181 342.075ZM529.8181 349.45L529.8181 343.23126L530.8806 343.23126L530.8806 349.45L529.8181 349.45ZM535.115 348.5125L535.27124 349.4344Q534.8181 349.52814 534.47437 349.52814Q533.89624 349.52814 533.58374 349.35626Q533.27124 349.16876 533.1306 348.8719Q533.0056 348.575 533.0056 347.6219L533.0056 344.04376L532.24 344.04376L532.24 343.23126L533.0056 343.23126L533.0056 341.6844L534.0525 341.0594L534.0525 343.23126L535.115 343.23126L535.115 344.04376L534.0525 344.04376L534.0525 347.6844Q534.0525 348.1375 534.09937 348.2625Q534.16187 348.3875 534.28687 348.46564Q534.41187 348.54376 534.64624 348.54376Q534.83374 348.54376 535.115 348.5125ZM535.8181 342.075L535.8181 340.85626L536.8806 340.85626L536.8806 342.075L535.8181 342.075ZM535.8181 349.45L535.8181 343.23126L536.8806 343.23126L536.8806 349.45L535.8181 349.45ZM538.4275 346.34064Q538.4275 344.60626 539.3806 343.77814Q540.1775 343.09064 541.33374 343.09064Q542.615 343.09064 543.4275 343.9344Q544.2556 344.7625 544.2556 346.2469Q544.2556 347.45 543.89624 348.1375Q543.53687 348.825 542.83374 349.21564Q542.14624 349.59064 541.33374 349.59064Q540.03687 349.59064 539.22437 348.7625Q538.4275 347.91876 538.4275 346.34064ZM539.5056 346.34064Q539.5056 347.52814 540.02124 348.1219Q540.5525 348.71564 541.33374 348.71564Q542.1306 348.71564 542.64624 348.1219Q543.16187 347.52814 543.16187 346.3094Q543.16187 345.15314 542.6306 344.5594Q542.115 343.96564 541.33374 343.96564Q540.5525 343.96564 540.02124 344.5594Q539.5056 345.1375 539.5056 346.34064ZM545.8181 349.45L545.8181 343.23126L546.7556 343.23126L546.7556 344.10626Q547.4431 343.09064 548.74 343.09064Q549.3025 343.09064 549.77124 343.29376Q550.2556 343.4969 550.49 343.825Q550.72437 344.15314 550.8181 344.59064Q550.865 344.8875 550.865 345.6219L550.865 349.45L549.8181 349.45L549.8181 345.66876Q549.8181 345.0125 549.6931 344.7Q549.5681 344.3875 549.2556 344.2Q548.9431 343.9969 548.52124 343.9969Q547.84937 343.9969 547.34937 344.4344Q546.865 344.85626 546.865 346.04376L546.865 349.45L545.8181 349.45Z" fill-rule="nonzero"/><path fill="#757575" d="M26.8 31.940624L26.8 30.253124L32.8625 30.2375L32.8625 35.55Q31.45625 36.675 29.971874 37.2375Q28.4875 37.8 26.925 37.8Q24.815624 37.8 23.096874 36.89375Q21.378124 35.9875 20.4875 34.284374Q19.6125 32.565624 19.6125 30.45625Q19.6125 28.3625 20.4875 26.565624Q21.3625 24.753124 23.003124 23.878124Q24.64375 22.9875 26.784374 22.9875Q28.33125 22.9875 29.58125 23.4875Q30.846874 23.9875 31.55 24.89375Q32.26875 25.784374 32.64375 27.2375L30.940624 27.70625Q30.6125 26.6125 30.128124 25.9875Q29.659374 25.3625 28.76875 24.9875Q27.878124 24.6125 26.8 24.6125Q25.4875 24.6125 24.534374 25.003124Q23.596874 25.39375 23.01875 26.05Q22.440624 26.690624 22.1125 27.45625Q21.565624 28.784374 21.565624 30.346874Q21.565624 32.253124 22.221874 33.55Q22.89375 34.83125 24.14375 35.45625Q25.409374 36.08125 26.815624 36.08125Q28.05 36.08125 29.221874 35.6125Q30.39375 35.14375 31.003124 34.596874L31.003124 31.940624L26.8 31.940624ZM35.846874 37.55L35.846874 27.175L37.425 27.175L37.425 28.753124Q38.034374 27.64375 38.55 27.3Q39.065624 26.940624 39.675 26.940624Q40.565624 26.940624 41.4875 27.503124L40.878124 29.14375Q40.2375 28.753124 39.596874 28.753124Q39.01875 28.753124 38.55 29.1125Q38.096874 29.45625 37.89375 30.065624Q37.6125 31.003124 37.6125 32.1125L37.6125 37.55L35.846874 37.55ZM42.221874 32.3625Q42.221874 29.4875 43.815624 28.096874Q45.159374 26.940624 47.08125 26.940624Q49.221874 26.940624 50.565624 28.346874Q51.925 29.753124 51.925 32.221874Q51.925 34.221874 51.33125 35.378124Q50.7375 36.51875 49.58125 37.159374Q48.440624 37.784374 47.08125 37.784374Q44.89375 37.784374 43.55 36.39375Q42.221874 34.9875 42.221874 32.3625ZM44.01875 32.3625Q44.01875 34.3625 44.878124 35.346874Q45.753124 36.33125 47.08125 36.33125Q48.39375 36.33125 49.253124 35.346874Q50.128124 34.346874 50.128124 32.3Q50.128124 30.378124 49.253124 29.39375Q48.378124 28.39375 47.08125 28.39375Q45.753124 28.39375 44.878124 29.39375Q44.01875 30.378124 44.01875 32.3625ZM60.659374 37.55L60.659374 36.01875Q59.45625 37.784374 57.378124 37.784374Q56.45625 37.784374 55.659374 37.440624Q54.8625 37.08125 54.471874 36.55Q54.096874 36.01875 53.940624 35.2375Q53.83125 34.721874 53.83125 33.596874L53.83125 27.175L55.58125 27.175L55.58125 32.925Q55.58125 34.3 55.690624 34.784374Q55.8625 35.471874 56.39375 35.878124Q56.940624 36.26875 57.721874 36.26875Q58.51875 36.26875 59.20625 35.8625Q59.909374 35.45625 60.190624 34.76875Q60.4875 34.065624 60.4875 32.7375L60.4875 27.175L62.2375 27.175L62.2375 37.55L60.659374 37.55ZM64.8625 41.51875L64.8625 27.175L66.47188 27.175L66.47188 28.51875Q67.03438 27.7375 67.7375 27.346874Q68.45625 26.940624 69.47188 26.940624Q70.8 26.940624 71.81563 27.628124Q72.83125 28.315624 73.34688 29.565624Q73.87813 30.8 73.87813 32.284374Q73.87813 33.878124 73.3 35.159374Q72.7375 36.425 71.64375 37.1125Q70.55 37.784374 69.34688 37.784374Q68.47188 37.784374 67.76875 37.409374Q67.08125 37.034374 66.62813 36.471874L66.62813 41.51875L64.8625 41.51875ZM66.45625 32.425Q66.45625 34.425 67.26875 35.378124Q68.08125 36.33125 69.2375 36.33125Q70.40938 36.33125 71.2375 35.346874Q72.08125 34.3625 72.08125 32.26875Q72.08125 30.3 71.25313 29.315624Q70.44063 28.315624 69.31563 28.315624Q68.19063 28.315624 67.31563 29.378124Q66.45625 30.425 66.45625 32.425ZM82.09688 37.55L82.09688 23.2375L87.4875 23.2375Q88.925 23.2375 89.675 23.3625Q90.72188 23.55 91.44063 24.05Q92.15938 24.534374 92.58125 25.425Q93.01875 26.315624 93.01875 27.378124Q93.01875 29.20625 91.84688 30.471874Q90.69063 31.721874 87.65938 31.721874L83.9875 31.721874L83.9875 37.55L82.09688 37.55ZM83.9875 30.034374L87.69063 30.034374Q89.51875 30.034374 90.28438 29.3625Q91.06563 28.675 91.06563 27.425Q91.06563 26.534374 90.6125 25.89375Q90.15938 25.253124 89.425 25.05Q88.94063 24.925 87.64375 24.925L83.9875 24.925L83.9875 30.034374ZM94.84688 37.55L94.84688 27.175L96.425 27.175L96.425 28.753124Q97.03438 27.64375 97.55 27.3Q98.06563 26.940624 98.675 26.940624Q99.56563 26.940624 100.4875 27.503124L99.87813 29.14375Q99.2375 28.753124 98.59688 28.753124Q98.01875 28.753124 97.55 29.1125Q97.09688 29.45625 96.89375 30.065624Q96.6125 31.003124 96.6125 32.1125L96.6125 37.55L94.84688 37.55ZM101.22188 32.3625Q101.22188 29.4875 102.81563 28.096874Q104.15938 26.940624 106.08125 26.940624Q108.22188 26.940624 109.56563 28.346874Q110.925 29.753124 110.925 32.221874Q110.925 34.221874 110.33125 35.378124Q109.7375 36.51875 108.58125 37.159374Q107.44063 37.784374 106.08125 37.784374Q103.89375 37.784374 102.55 36.39375Q101.22188 34.9875 101.22188 32.3625ZM103.01875 32.3625Q103.01875 34.3625 103.87813 35.346874Q104.75313 36.33125 106.08125 36.33125Q107.39375 36.33125 108.25313 35.346874Q109.12813 34.346874 109.12813 32.3Q109.12813 30.378124 108.25313 29.39375Q107.37813 28.39375 106.08125 28.39375Q104.75313 28.39375 103.87813 29.39375Q103.01875 30.378124 103.01875 32.3625ZM112.8625 25.26875L112.8625 23.2375L114.6125 23.2375L114.6125 25.26875L112.8625 25.26875ZM110.62813 41.58125L110.95625 40.08125Q111.4875 40.221874 111.8 40.221874Q112.33125 40.221874 112.59688 39.8625Q112.8625 39.503124 112.8625 38.08125L112.8625 27.175L114.6125 27.175L114.6125 38.1125Q114.6125 40.034374 114.1125 40.784374Q113.4875 41.753124 112.00313 41.753124Q111.3 41.753124 110.62813 41.58125ZM123.97188 34.20625L125.78438 34.440624Q125.3625 36.01875 124.19063 36.909374Q123.03438 37.784374 121.22188 37.784374Q118.95625 37.784374 117.6125 36.39375Q116.28438 34.9875 116.28438 32.45625Q116.28438 29.83125 117.62813 28.39375Q118.97188 26.940624 121.12813 26.940624Q123.20625 26.940624 124.51875 28.3625Q125.84688 29.76875 125.84688 32.346874Q125.84688 32.503124 125.83125 32.815624L118.09688 32.815624Q118.19063 34.51875 119.06563 35.425Q119.94063 36.33125 121.2375 36.33125Q122.20625 36.33125 122.87813 35.83125Q123.56563 35.315624 123.97188 34.20625ZM118.19063 31.3625L123.9875 31.3625Q123.87813 30.065624 123.33125 29.409374Q122.4875 28.39375 121.14375 28.39375Q119.94063 28.39375 119.1125 29.20625Q118.28438 30.003124 118.19063 31.3625ZM134.64375 33.753124L136.3625 33.971874Q136.08125 35.76875 134.90938 36.784374Q133.75313 37.784374 132.05 37.784374Q129.925 37.784374 128.62813 36.39375Q127.33125 35.003124 127.33125 32.409374Q127.33125 30.721874 127.87813 29.471874Q128.44063 28.20625 129.58125 27.58125Q130.72188 26.940624 132.06563 26.940624Q133.75313 26.940624 134.81563 27.8Q135.89375 28.659374 136.20625 30.221874L134.4875 30.4875Q134.25313 29.440624 133.62813 28.925Q133.00313 28.39375 132.12813 28.39375Q130.8 28.39375 129.97188 29.346874Q129.14375 30.3 129.14375 32.346874Q129.14375 34.440624 129.94063 35.39375Q130.7375 36.33125 132.03438 36.33125Q133.06563 36.33125 133.75313 35.70625Q134.45625 35.065624 134.64375 33.753124ZM141.70625 35.971874L141.95625 37.534374Q141.22188 37.690624 140.62813 37.690624Q139.675 37.690624 139.14375 37.39375Q138.62813 37.08125 138.40938 36.596874Q138.19063 36.096874 138.19063 34.51875L138.19063 28.55L136.90938 28.55L136.90938 27.175L138.19063 27.175L138.19063 24.6125L139.94063 23.55L139.94063 27.175L141.70625 27.175L141.70625 28.55L139.94063 28.55L139.94063 34.6125Q139.94063 35.3625 140.03438 35.58125Q140.12813 35.784374 140.33125 35.925Q140.55 36.05 140.94063 36.05Q141.22188 36.05 141.70625 35.971874Z" fill-rule="nonzero"/></svg>