<svg version="1.1" viewBox="0.0 0.0 600.0 371.0" fill="none" stroke="none" stroke-linecap="square" stroke-miterlimit="10" width="600" height="371" xmlns:xlink="http://www.w3.org/1999/xlink" xmlns="http://www.w3.org/2000/svg"><path fill="#ffffff" d="M0 0L600.0 0L600.0 371.0L0 371.0L0 0Z" fill-rule="nonzero"/><path stroke="#333333" stroke-width="1.0" stroke-linecap="butt" d="M45.5 332.5L581.5 332.5" fill-rule="nonzero"/><path stroke="#cccccc" stroke-width="1.0" stroke-linecap="butt" d="M45.5 264.5L581.5 264.5" fill-rule="nonzero"/><path stroke="#cccccc" stroke-width="1.0" stroke-linecap="butt" d="M45.5 197.5L581.5 197.5" fill-rule="nonzero"/><path stroke="#cccccc" stroke-width="1.0" stroke-linecap="butt" d="M45.5 129.5L581.5 129.5" fill-rule="nonzero"/><path stroke="#cccccc" stroke-width="1.0" stroke-linecap="butt" d="M45.5 61.5L581.5 61.5" fill-rule="nonzero"/><clipPath id="id_0"><path d="M45.55 61.916668L581.45 61.916668L581.45 332.45L45.55 332.45L45.55 61.916668Z" clip-rule="nonzero"/></clipPath><path stroke="#000000" stroke-width="0.0" stroke-linecap="butt" stroke-opacity="0.0" clip-path="url(#id_0)" d="M273.0 332.0L125.0 332.0L125.0 99.0C125.0 97.89543 125.89543 97.0 127.0 97.0L271.0 97.0C272.10458 97.0 273.0 97.89543 273.0 99.0Z" fill-rule="nonzero"/><path fill="#4285f4" clip-path="url(#id_0)" d="M273.0 332.0L125.0 332.0L125.0 99.0C125.0 97.89543 125.89543 97.0 127.0 97.0L271.0 97.0C272.10458 97.0 273.0 97.89543 273.0 99.0Z" fill-rule="nonzero"/><path stroke="#000000" stroke-width="0.0" stroke-linecap="butt" stroke-opacity="0.0" clip-path="url(#id_0)" d="M502.0 332.0L354.0 332.0L354.0 299.0C354.0 297.89542 354.89542 297.0 356.0 297.0L500.0 297.0C501.10458 297.0 502.0 297.89542 502.0 299.0Z" fill-rule="nonzero"/><path fill="#4285f4" clip-path="url(#id_0)" d="M502.0 332.0L354.0 332.0L354.0 299.0C354.0 297.89542 354.89542 297.0 356.0 297.0L500.0 297.0C501.10458 297.0 502.0 297.89542 502.0 299.0Z" fill-rule="nonzero"/><path fill="#000000" d="M33.05 332.21564Q33.05 330.6844 33.3625 329.7625Q33.675 328.825 34.284374 328.325Q34.909374 327.825 35.846874 327.825Q36.534374 327.825 37.05 328.10626Q37.58125 328.3875 37.925 328.91876Q38.26875 329.4344 38.45625 330.1844Q38.64375 330.9344 38.64375 332.21564Q38.64375 333.73126 38.33125 334.65314Q38.034374 335.575 37.409374 336.09064Q36.8 336.59064 35.846874 336.59064Q34.6125 336.59064 33.89375 335.7Q33.05 334.6375 33.05 332.21564ZM34.128124 332.21564Q34.128124 334.325 34.628124 335.02814Q35.128124 335.73126 35.846874 335.73126Q36.58125 335.73126 37.065624 335.02814Q37.565624 334.325 37.565624 332.21564Q37.565624 330.09064 37.065624 329.40314Q36.58125 328.7 35.83125 328.7Q35.1125 328.7 34.675 329.3094Q34.128124 330.09064 34.128124 332.21564Z" fill-rule="nonzero"/><path fill="#000000" d="M31.596874 267.80106L31.596874 268.81668L25.909374 268.81668Q25.909374 268.44168 26.034374 268.0823Q26.253124 267.50418 26.721874 266.94168Q27.20625 266.37918 28.1125 265.6448Q29.51875 264.48856 30.003124 263.81668Q30.503124 263.1448 30.503124 262.55106Q30.503124 261.92606 30.05 261.50418Q29.596874 261.06668 28.878124 261.06668Q28.1125 261.06668 27.659374 261.5198Q27.20625 261.97293 27.190624 262.78543L26.1125 262.67606Q26.221874 261.4573 26.940624 260.8323Q27.675 260.19168 28.909374 260.19168Q30.14375 260.19168 30.8625 260.87918Q31.58125 261.56668 31.58125 262.5823Q31.58125 263.09793 31.3625 263.59793Q31.159374 264.0823 30.659374 264.6448Q30.175 265.19168 29.05 266.1448Q28.096874 266.94168 27.815624 267.23856Q27.55 267.5198 27.378124 267.80106L31.596874 267.80106ZM33.05 266.56668L34.159374 266.47293Q34.284374 267.28543 34.721874 267.69168Q35.175 268.09793 35.815624 268.09793Q36.565624 268.09793 37.096874 267.5198Q37.628124 266.94168 37.628124 266.00418Q37.628124 265.09793 37.1125 264.5823Q36.6125 264.05106 35.784374 264.05106Q35.284374 264.05106 34.8625 264.28543Q34.45625 264.5198 34.221874 264.87918L33.2375 264.75418L34.065624 260.34793L38.346874 260.34793L38.346874 261.34793L34.909374 261.34793L34.45625 263.66043Q35.221874 263.11356 36.065624 263.11356Q37.190624 263.11356 37.95625 263.8948Q38.7375 264.67606 38.7375 265.91043Q38.7375 267.06668 38.065624 267.92606Q37.2375 268.9573 35.815624 268.9573Q34.64375 268.9573 33.89375 268.30106Q33.159374 267.6448 33.05 266.56668Z" fill-rule="nonzero"/><path fill="#000000" d="M26.05 198.93333L27.159374 198.83958Q27.284374 199.65208 27.721874 200.05833Q28.175 200.46458 28.815624 200.46458Q29.565624 200.46458 30.096874 199.88646Q30.628124 199.30833 30.628124 198.37083Q30.628124 197.46458 30.1125 196.94896Q29.6125 196.41771 28.784374 196.41771Q28.284374 196.41771 27.8625 196.65208Q27.45625 196.88646 27.221874 197.24583L26.2375 197.12083L27.065624 192.71458L31.346874 192.71458L31.346874 193.71458L27.909374 193.71458L27.45625 196.02708Q28.221874 195.48021 29.065624 195.48021Q30.190624 195.48021 30.95625 196.26146Q31.7375 197.04271 31.7375 198.27708Q31.7375 199.43333 31.065624 200.29271Q30.2375 201.32396 28.815624 201.32396Q27.64375 201.32396 26.89375 200.66771Q26.159374 200.01146 26.05 198.93333ZM33.05 196.94896Q33.05 195.41771 33.3625 194.49583Q33.675 193.55833 34.284374 193.05833Q34.909374 192.55833 35.846874 192.55833Q36.534374 192.55833 37.05 192.83958Q37.58125 193.12083 37.925 193.65208Q38.26875 194.16771 38.45625 194.91771Q38.64375 195.66771 38.64375 196.94896Q38.64375 198.46458 38.33125 199.38646Q38.034374 200.30833 37.409374 200.82396Q36.8 201.32396 35.846874 201.32396Q34.6125 201.32396 33.89375 200.43333Q33.05 199.37083 33.05 196.94896ZM34.128124 196.94896Q34.128124 199.05833 34.628124 199.76146Q35.128124 200.46458 35.846874 200.46458Q36.58125 200.46458 37.065624 199.76146Q37.565624 199.05833 37.565624 196.94896Q37.565624 194.82396 37.065624 194.13646Q36.58125 193.43333 35.83125 193.43333Q35.1125 193.43333 34.675 194.04271Q34.128124 194.82396 34.128124 196.94896Z" fill-rule="nonzero"/><path fill="#000000" d="M26.1125 126.08125L26.1125 125.06563L31.675 125.06563L31.675 125.89375Q30.8625 126.76875 30.05 128.22188Q29.253124 129.65938 28.815624 131.19063Q28.4875 132.26875 28.409374 133.55L27.315624 133.55Q27.33125 132.53438 27.70625 131.09688Q28.096874 129.65938 28.8 128.33125Q29.51875 127.00313 30.33125 126.08125L26.1125 126.08125ZM33.05 131.3L34.159374 131.20625Q34.284374 132.01875 34.721874 132.425Q35.175 132.83125 35.815624 132.83125Q36.565624 132.83125 37.096874 132.25313Q37.628124 131.675 37.628124 130.7375Q37.628124 129.83125 37.1125 129.31563Q36.6125 128.78438 35.784374 128.78438Q35.284374 128.78438 34.8625 129.01875Q34.45625 129.25313 34.221874 129.6125L33.2375 129.4875L34.065624 125.08125L38.346874 125.08125L38.346874 126.08125L34.909374 126.08125L34.45625 128.39375Q35.221874 127.84688 36.065624 127.84688Q37.190624 127.84688 37.95625 128.62813Q38.7375 129.40938 38.7375 130.64375Q38.7375 131.8 38.065624 132.65938Q37.2375 133.69063 35.815624 133.69063Q34.64375 133.69063 33.89375 133.03438Q33.159374 132.37813 33.05 131.3Z" fill-rule="nonzero"/><path fill="#000000" d="M23.01875 65.916664L21.971874 65.916664L21.971874 59.197914Q21.58125 59.55729 20.95625 59.93229Q20.346874 60.291664 19.8625 60.46354L19.8625 59.447914Q20.7375 59.02604 21.39375 58.447914Q22.065624 57.854164 22.346874 57.291664L23.01875 57.291664L23.01875 65.916664ZM26.05 61.68229Q26.05 60.15104 26.3625 59.229164Q26.675 58.291664 27.284374 57.791664Q27.909374 57.291664 28.846874 57.291664Q29.534374 57.291664 30.05 57.572914Q30.58125 57.854164 30.925 58.385414Q31.26875 58.90104 31.45625 59.65104Q31.64375 60.40104 31.64375 61.68229Q31.64375 63.197914 31.33125 64.11979Q31.034374 65.041664 30.409374 65.55729Q29.8 66.05729 28.846874 66.05729Q27.6125 66.05729 26.89375 65.166664Q26.05 64.104164 26.05 61.68229ZM27.128124 61.68229Q27.128124 63.791664 27.628124 64.49479Q28.128124 65.197914 28.846874 65.197914Q29.58125 65.197914 30.065624 64.49479Q30.565624 63.791664 30.565624 61.68229Q30.565624 59.55729 30.065624 58.86979Q29.58125 58.166664 28.83125 58.166664Q28.1125 58.166664 27.675 58.77604Q27.128124 59.55729 27.128124 61.68229ZM33.05 61.68229Q33.05 60.15104 33.3625 59.229164Q33.675 58.291664 34.284374 57.791664Q34.909374 57.291664 35.846874 57.291664Q36.534374 57.291664 37.05 57.572914Q37.58125 57.854164 37.925 58.385414Q38.26875 58.90104 38.45625 59.65104Q38.64375 60.40104 38.64375 61.68229Q38.64375 63.197914 38.33125 64.11979Q38.034374 65.041664 37.409374 65.55729Q36.8 66.05729 35.846874 66.05729Q34.6125 66.05729 33.89375 65.166664Q33.05 64.104164 33.05 61.68229ZM34.128124 61.68229Q34.128124 63.791664 34.628124 64.49479Q35.128124 65.197914 35.846874 65.197914Q36.58125 65.197914 37.065624 64.49479Q37.565624 63.791664 37.565624 61.68229Q37.565624 59.55729 37.065624 58.86979Q36.58125 58.166664 35.83125 58.166664Q35.1125 58.166664 34.675 58.77604Q34.128124 59.55729 34.128124 61.68229Z" fill-rule="nonzero"/><path fill="#000000" d="M130.4631 349.45L130.4631 340.85626L136.25998 340.85626L136.25998 341.8719L131.60373 341.8719L131.60373 344.52814L135.63498 344.52814L135.63498 345.54376L131.60373 345.54376L131.60373 349.45L130.4631 349.45ZM141.35373 349.45L141.35373 348.52814Q140.61935 349.59064 139.36935 349.59064Q138.82248 349.59064 138.3381 349.3875Q137.86935 349.16876 137.63498 348.85626Q137.4006 348.52814 137.30685 348.0594Q137.24435 347.7625 137.24435 347.075L137.24435 343.23126L138.30685 343.23126L138.30685 346.6844Q138.30685 347.4969 138.36935 347.79376Q138.4631 348.2 138.7756 348.45Q139.10373 348.6844 139.5881 348.6844Q140.05685 348.6844 140.4631 348.45Q140.88498 348.2 141.05685 347.77814Q141.24435 347.35626 141.24435 346.5594L141.24435 343.23126L142.29123 343.23126L142.29123 349.45L141.35373 349.45ZM144.24435 349.45L144.24435 340.85626L145.30685 340.85626L145.30685 349.45L144.24435 349.45ZM147.24435 349.45L147.24435 340.85626L148.30685 340.85626L148.30685 349.45L147.24435 349.45ZM153.4006 349.45L153.4006 340.85626L156.6506 340.85626Q157.49435 340.85626 157.94748 340.9344Q158.5881 341.04376 159.00998 341.34064Q159.44748 341.6375 159.69748 342.16876Q159.9631 342.7 159.9631 343.34064Q159.9631 344.4344 159.25998 345.2Q158.57248 345.95 156.74435 345.95L154.54123 345.95L154.54123 349.45L153.4006 349.45ZM154.54123 344.95L156.75998 344.95Q157.86935 344.95 158.32248 344.54376Q158.79123 344.1219 158.79123 343.3719Q158.79123 342.84064 158.50998 342.46564Q158.24435 342.075 157.80685 341.95Q157.50998 341.8719 156.74435 341.8719L154.54123 341.8719L154.54123 344.95ZM165.3381 348.6844Q164.74435 349.1844 164.19748 349.3875Q163.66623 349.59064 163.04123 349.59064Q162.00998 349.59064 161.4631 349.09064Q160.91623 348.59064 160.91623 347.8094Q160.91623 347.35626 161.11935 346.98126Q161.32248 346.59064 161.66623 346.3719Q162.00998 346.1375 162.43185 346.02814Q162.72873 345.9344 163.36935 345.85626Q164.63498 345.71564 165.24435 345.4969Q165.24435 345.27814 165.24435 345.23126Q165.24435 344.575 164.94748 344.3094Q164.54123 343.96564 163.74435 343.96564Q163.00998 343.96564 162.6506 344.23126Q162.29123 344.48126 162.11935 345.1375L161.0881 344.9969Q161.22873 344.34064 161.55685 343.9344Q161.88498 343.52814 162.49435 343.3094Q163.10373 343.09064 163.9006 343.09064Q164.69748 343.09064 165.19748 343.27814Q165.69748 343.46564 165.93185 343.7469Q166.16623 344.02814 166.25998 344.46564Q166.30685 344.73126 166.30685 345.4344L166.30685 346.84064Q166.30685 348.3094 166.36935 348.7Q166.44748 349.09064 166.6506 349.45L165.54123 349.45Q165.38498 349.1219 165.3381 348.6844ZM165.24435 346.325Q164.66623 346.5594 163.5256 346.73126Q162.86935 346.825 162.60373 346.95Q162.3381 347.0594 162.18185 347.27814Q162.04123 347.4969 162.04123 347.77814Q162.04123 348.2 162.35373 348.48126Q162.68185 348.7625 163.29123 348.7625Q163.9006 348.7625 164.36935 348.4969Q164.85373 348.23126 165.07248 347.7625Q165.24435 347.40314 165.24435 346.71564L165.24435 346.325ZM172.3381 347.16876L173.36935 347.3094Q173.19748 348.3719 172.49435 348.98126Q171.79123 349.59064 170.7756 349.59064Q169.49435 349.59064 168.7131 348.7625Q167.94748 347.91876 167.94748 346.35626Q167.94748 345.35626 168.2756 344.60626Q168.61935 343.84064 169.29123 343.46564Q169.97873 343.09064 170.79123 343.09064Q171.79123 343.09064 172.43185 343.60626Q173.0881 344.10626 173.2756 345.0594L172.24435 345.21564Q172.10373 344.59064 171.72873 344.27814Q171.35373 343.95 170.82248 343.95Q170.0256 343.95 169.5256 344.52814Q169.0256 345.09064 169.0256 346.325Q169.0256 347.59064 169.50998 348.15314Q169.99435 348.71564 170.75998 348.71564Q171.38498 348.71564 171.79123 348.34064Q172.2131 347.96564 172.3381 347.16876ZM174.2756 349.45L174.2756 340.85626L175.3381 340.85626L175.3381 345.7625L177.82248 343.23126L179.19748 343.23126L176.80685 345.52814L179.43185 349.45L178.13498 349.45L176.07248 346.2625L175.3381 346.98126L175.3381 349.45L174.2756 349.45ZM184.3381 348.6844Q183.74435 349.1844 183.19748 349.3875Q182.66623 349.59064 182.04123 349.59064Q181.00998 349.59064 180.4631 349.09064Q179.91623 348.59064 179.91623 347.8094Q179.91623 347.35626 180.11935 346.98126Q180.32248 346.59064 180.66623 346.3719Q181.00998 346.1375 181.43185 346.02814Q181.72873 345.9344 182.36935 345.85626Q183.63498 345.71564 184.24435 345.4969Q184.24435 345.27814 184.24435 345.23126Q184.24435 344.575 183.94748 344.3094Q183.54123 343.96564 182.74435 343.96564Q182.00998 343.96564 181.6506 344.23126Q181.29123 344.48126 181.11935 345.1375L180.0881 344.9969Q180.22873 344.34064 180.55685 343.9344Q180.88498 343.52814 181.49435 343.3094Q182.10373 343.09064 182.9006 343.09064Q183.69748 343.09064 184.19748 343.27814Q184.69748 343.46564 184.93185 343.7469Q185.16623 344.02814 185.25998 344.46564Q185.30685 344.73126 185.30685 345.4344L185.30685 346.84064Q185.30685 348.3094 185.36935 348.7Q185.44748 349.09064 185.6506 349.45L184.54123 349.45Q184.38498 349.1219 184.3381 348.6844ZM184.24435 346.325Q183.66623 346.5594 182.5256 346.73126Q181.86935 346.825 181.60373 346.95Q181.3381 347.0594 181.18185 347.27814Q181.04123 347.4969 181.04123 347.77814Q181.04123 348.2 181.35373 348.48126Q181.68185 348.7625 182.29123 348.7625Q182.9006 348.7625 183.36935 348.4969Q183.85373 348.23126 184.07248 347.7625Q184.24435 347.40314 184.24435 346.71564L184.24435 346.325ZM187.07248 349.96564L188.10373 350.1219Q188.16623 350.59064 188.4631 350.8094Q188.85373 351.10626 189.5256 351.10626Q190.25998 351.10626 190.6506 350.8094Q191.05685 350.5125 191.19748 349.9969Q191.29123 349.66876 191.2756 348.6375Q190.5881 349.45 189.55685 349.45Q188.2756 349.45 187.57248 348.52814Q186.86935 347.59064 186.86935 346.3094Q186.86935 345.41876 187.18185 344.66876Q187.50998 343.90314 188.11935 343.4969Q188.72873 343.09064 189.55685 343.09064Q190.66623 343.09064 191.38498 343.98126L191.38498 343.23126L192.35373 343.23126L192.35373 348.60626Q192.35373 350.0594 192.05685 350.66876Q191.75998 351.27814 191.11935 351.6219Q190.47873 351.98126 189.54123 351.98126Q188.43185 351.98126 187.74435 351.48126Q187.05685 350.98126 187.07248 349.96564ZM187.94748 346.23126Q187.94748 347.45 188.43185 348.0125Q188.91623 348.575 189.6506 348.575Q190.38498 348.575 190.86935 348.0125Q191.36935 347.45 191.36935 346.2625Q191.36935 345.1219 190.85373 344.54376Q190.35373 343.96564 189.63498 343.96564Q188.93185 343.96564 188.43185 344.54376Q187.94748 345.10626 187.94748 346.23126ZM198.5256 347.45L199.61935 347.575Q199.36935 348.52814 198.66623 349.0594Q197.9631 349.59064 196.88498 349.59064Q195.5256 349.59064 194.7131 348.7469Q193.91623 347.90314 193.91623 346.3875Q193.91623 344.825 194.72873 343.96564Q195.54123 343.09064 196.82248 343.09064Q198.07248 343.09064 198.85373 343.9344Q199.6506 344.77814 199.6506 346.325Q199.6506 346.41876 199.6506 346.60626L195.00998 346.60626Q195.07248 347.6375 195.5881 348.1844Q196.10373 348.71564 196.88498 348.71564Q197.4631 348.71564 197.86935 348.41876Q198.29123 348.10626 198.5256 347.45ZM195.07248 345.7469L198.54123 345.7469Q198.47873 344.95 198.1506 344.5594Q197.63498 343.95 196.8381 343.95Q196.10373 343.95 195.60373 344.4344Q195.11935 344.91876 195.07248 345.7469ZM204.41623 349.45L204.41623 340.85626L208.22873 340.85626Q209.38498 340.85626 209.97873 341.09064Q210.57248 341.325 210.93185 341.91876Q211.29123 342.4969 211.29123 343.2Q211.29123 344.1219 210.69748 344.7469Q210.10373 345.3719 208.86935 345.54376Q209.32248 345.7625 209.55685 345.96564Q210.05685 346.41876 210.49435 347.10626L211.99435 349.45L210.55685 349.45L209.43185 347.66876Q208.93185 346.8875 208.60373 346.48126Q208.29123 346.075 208.0256 345.91876Q207.7756 345.7469 207.50998 345.66876Q207.32248 345.6375 206.88498 345.6375L205.55685 345.6375L205.55685 349.45L204.41623 349.45ZM205.55685 344.65314L208.00998 344.65314Q208.7756 344.65314 209.2131 344.4969Q209.66623 344.325 209.88498 343.98126Q210.11935 343.6219 210.11935 343.2Q210.11935 342.59064 209.66623 342.2Q209.22873 341.8094 208.2756 341.8094L205.55685 341.8094L205.55685 344.65314ZM217.5256 347.45L218.61935 347.575Q218.36935 348.52814 217.66623 349.0594Q216.9631 349.59064 215.88498 349.59064Q214.5256 349.59064 213.7131 348.7469Q212.91623 347.90314 212.91623 346.3875Q212.91623 344.825 213.72873 343.96564Q214.54123 343.09064 215.82248 343.09064Q217.07248 343.09064 217.85373 343.9344Q218.6506 344.77814 218.6506 346.325Q218.6506 346.41876 218.6506 346.60626L214.00998 346.60626Q214.07248 347.6375 214.5881 348.1844Q215.10373 348.71564 215.88498 348.71564Q216.4631 348.71564 216.86935 348.41876Q217.29123 348.10626 217.5256 347.45ZM214.07248 345.7469L217.54123 345.7469Q217.47873 344.95 217.1506 344.5594Q216.63498 343.95 215.8381 343.95Q215.10373 343.95 214.60373 344.4344Q214.11935 344.91876 214.07248 345.7469ZM220.07248 349.96564L221.10373 350.1219Q221.16623 350.59064 221.4631 350.8094Q221.85373 351.10626 222.5256 351.10626Q223.25998 351.10626 223.6506 350.8094Q224.05685 350.5125 224.19748 349.9969Q224.29123 349.66876 224.2756 348.6375Q223.5881 349.45 222.55685 349.45Q221.2756 349.45 220.57248 348.52814Q219.86935 347.59064 219.86935 346.3094Q219.86935 345.41876 220.18185 344.66876Q220.50998 343.90314 221.11935 343.4969Q221.72873 343.09064 222.55685 343.09064Q223.66623 343.09064 224.38498 343.98126L224.38498 343.23126L225.35373 343.23126L225.35373 348.60626Q225.35373 350.0594 225.05685 350.66876Q224.75998 351.27814 224.11935 351.6219Q223.47873 351.98126 222.54123 351.98126Q221.43185 351.98126 220.74435 351.48126Q220.05685 350.98126 220.07248 349.96564ZM220.94748 346.23126Q220.94748 347.45 221.43185 348.0125Q221.91623 348.575 222.6506 348.575Q223.38498 348.575 223.86935 348.0125Q224.36935 347.45 224.36935 346.2625Q224.36935 345.1219 223.85373 344.54376Q223.35373 343.96564 222.63498 343.96564Q221.93185 343.96564 221.43185 344.54376Q220.94748 345.10626 220.94748 346.23126ZM227.2756 342.075L227.2756 340.85626L228.3381 340.85626L228.3381 342.075L227.2756 342.075ZM227.2756 349.45L227.2756 343.23126L228.3381 343.23126L228.3381 349.45L227.2756 349.45ZM229.85373 347.59064L230.88498 347.4344Q230.97873 348.0594 231.36935 348.3875Q231.7756 348.71564 232.50998 348.71564Q233.22873 348.71564 233.57248 348.4344Q233.93185 348.1375 233.93185 347.73126Q233.93185 347.3719 233.61935 347.16876Q233.4006 347.02814 232.54123 346.8094Q231.38498 346.5125 230.93185 346.3094Q230.49435 346.09064 230.25998 345.71564Q230.0256 345.34064 230.0256 344.8719Q230.0256 344.46564 230.2131 344.10626Q230.4006 343.7469 230.72873 343.5125Q230.97873 343.34064 231.4006 343.21564Q231.82248 343.09064 232.32248 343.09064Q233.04123 343.09064 233.5881 343.3094Q234.1506 343.5125 234.41623 343.8719Q234.68185 344.23126 234.7756 344.825L233.74435 344.96564Q233.68185 344.4969 233.3381 344.23126Q233.00998 343.95 232.38498 343.95Q231.66623 343.95 231.35373 344.2Q231.04123 344.4344 231.04123 344.7625Q231.04123 344.96564 231.16623 345.1219Q231.30685 345.29376 231.57248 345.40314Q231.72873 345.46564 232.50998 345.66876Q233.63498 345.98126 234.07248 346.16876Q234.50998 346.35626 234.75998 346.71564Q235.00998 347.075 235.00998 347.6219Q235.00998 348.15314 234.69748 348.6219Q234.4006 349.075 233.82248 349.34064Q233.24435 349.59064 232.50998 349.59064Q231.29123 349.59064 230.6506 349.09064Q230.0256 348.575 229.85373 347.59064ZM238.57248 348.5125L238.72873 349.4344Q238.2756 349.52814 237.93185 349.52814Q237.35373 349.52814 237.04123 349.35626Q236.72873 349.16876 236.5881 348.8719Q236.4631 348.575 236.4631 347.6219L236.4631 344.04376L235.69748 344.04376L235.69748 343.23126L236.4631 343.23126L236.4631 341.6844L237.50998 341.0594L237.50998 343.23126L238.57248 343.23126L238.57248 344.04376L237.50998 344.04376L237.50998 347.6844Q237.50998 348.1375 237.55685 348.2625Q237.61935 348.3875 237.74435 348.46564Q237.86935 348.54376 238.10373 348.54376Q238.29123 348.54376 238.57248 348.5125ZM239.25998 349.45L239.25998 343.23126L240.2131 343.23126L240.2131 344.16876Q240.57248 343.5125 240.86935 343.3094Q241.18185 343.09064 241.55685 343.09064Q242.0881 343.09064 242.63498 343.41876L242.2756 344.40314Q241.88498 344.16876 241.50998 344.16876Q241.1506 344.16876 240.86935 344.3875Q240.60373 344.59064 240.49435 344.96564Q240.30685 345.52814 240.30685 346.1844L240.30685 349.45L239.25998 349.45ZM247.3381 348.6844Q246.74435 349.1844 246.19748 349.3875Q245.66623 349.59064 245.04123 349.59064Q244.00998 349.59064 243.4631 349.09064Q242.91623 348.59064 242.91623 347.8094Q242.91623 347.35626 243.11935 346.98126Q243.32248 346.59064 243.66623 346.3719Q244.00998 346.1375 244.43185 346.02814Q244.72873 345.9344 245.36935 345.85626Q246.63498 345.71564 247.24435 345.4969Q247.24435 345.27814 247.24435 345.23126Q247.24435 344.575 246.94748 344.3094Q246.54123 343.96564 245.74435 343.96564Q245.00998 343.96564 244.6506 344.23126Q244.29123 344.48126 244.11935 345.1375L243.0881 344.9969Q243.22873 344.34064 243.55685 343.9344Q243.88498 343.52814 244.49435 343.3094Q245.10373 343.09064 245.9006 343.09064Q246.69748 343.09064 247.19748 343.27814Q247.69748 343.46564 247.93185 343.7469Q248.16623 344.02814 248.25998 344.46564Q248.30685 344.73126 248.30685 345.4344L248.30685 346.84064Q248.30685 348.3094 248.36935 348.7Q248.44748 349.09064 248.6506 349.45L247.54123 349.45Q247.38498 349.1219 247.3381 348.6844ZM247.24435 346.325Q246.66623 346.5594 245.5256 346.73126Q244.86935 346.825 244.60373 346.95Q244.3381 347.0594 244.18185 347.27814Q244.04123 347.4969 244.04123 347.77814Q244.04123 348.2 244.35373 348.48126Q244.68185 348.7625 245.29123 348.7625Q245.9006 348.7625 246.36935 348.4969Q246.85373 348.23126 247.07248 347.7625Q247.24435 347.40314 247.24435 346.71564L247.24435 346.325ZM252.57248 348.5125L252.72873 349.4344Q252.2756 349.52814 251.93185 349.52814Q251.35373 349.52814 251.04123 349.35626Q250.72873 349.16876 250.5881 348.8719Q250.4631 348.575 250.4631 347.6219L250.4631 344.04376L249.69748 344.04376L249.69748 343.23126L250.4631 343.23126L250.4631 341.6844L251.50998 341.0594L251.50998 343.23126L252.57248 343.23126L252.57248 344.04376L251.50998 344.04376L251.50998 347.6844Q251.50998 348.1375 251.55685 348.2625Q251.61935 348.3875 251.74435 348.46564Q251.86935 348.54376 252.10373 348.54376Q252.29123 348.54376 252.57248 348.5125ZM253.2756 342.075L253.2756 340.85626L254.3381 340.85626L254.3381 342.075L253.2756 342.075ZM253.2756 349.45L253.2756 343.23126L254.3381 343.23126L254.3381 349.45L253.2756 349.45ZM255.88498 346.34064Q255.88498 344.60626 256.8381 343.77814Q257.63498 343.09064 258.79123 343.09064Q260.07248 343.09064 260.88498 343.9344Q261.7131 344.7625 261.7131 346.2469Q261.7131 347.45 261.35373 348.1375Q260.99435 348.825 260.29123 349.21564Q259.60373 349.59064 258.79123 349.59064Q257.49435 349.59064 256.68185 348.7625Q255.88498 347.91876 255.88498 346.34064ZM256.9631 346.34064Q256.9631 347.52814 257.47873 348.1219Q258.00998 348.71564 258.79123 348.71564Q259.5881 348.71564 260.10373 348.1219Q260.61935 347.52814 260.61935 346.3094Q260.61935 345.15314 260.0881 344.5594Q259.57248 343.96564 258.79123 343.96564Q258.00998 343.96564 257.47873 344.5594Q256.9631 345.1375 256.9631 346.34064ZM263.2756 349.45L263.2756 343.23126L264.2131 343.23126L264.2131 344.10626Q264.9006 343.09064 266.19748 343.09064Q266.75998 343.09064 267.22873 343.29376Q267.7131 343.4969 267.94748 343.825Q268.18185 344.15314 268.2756 344.59064Q268.32248 344.8875 268.32248 345.6219L268.32248 349.45L267.2756 349.45L267.2756 345.66876Q267.2756 345.0125 267.1506 344.7Q267.0256 344.3875 266.7131 344.2Q266.4006 343.9969 265.97873 343.9969Q265.30685 343.9969 264.80685 344.4344Q264.32248 344.85626 264.32248 346.04376L264.32248 349.45L263.2756 349.45Z" fill-rule="nonzero"/><path fill="#000000" d="M372.4119 349.45L372.4119 340.85626L374.13065 340.85626L376.1619 346.9344Q376.44315 347.79376 376.56815 348.21564Q376.70877 347.7469 377.02127 346.84064L379.08377 340.85626L380.61502 340.85626L380.61502 349.45L379.52127 349.45L379.52127 342.2625L377.02127 349.45L375.99002 349.45L373.50565 342.1375L373.50565 349.45L372.4119 349.45ZM382.31815 342.075L382.31815 340.85626L383.38065 340.85626L383.38065 342.075L382.31815 342.075ZM382.31815 349.45L382.31815 343.23126L383.38065 343.23126L383.38065 349.45L382.31815 349.45ZM385.31815 349.45L385.31815 343.23126L386.25565 343.23126L386.25565 344.10626Q386.94315 343.09064 388.24002 343.09064Q388.80252 343.09064 389.27127 343.29376Q389.75565 343.4969 389.99002 343.825Q390.2244 344.15314 390.31815 344.59064Q390.36502 344.8875 390.36502 345.6219L390.36502 349.45L389.31815 349.45L389.31815 345.66876Q389.31815 345.0125 389.19315 344.7Q389.06815 344.3875 388.75565 344.2Q388.44315 343.9969 388.02127 343.9969Q387.3494 343.9969 386.8494 344.4344Q386.36502 344.85626 386.36502 346.04376L386.36502 349.45L385.31815 349.45ZM392.31815 342.075L392.31815 340.85626L393.38065 340.85626L393.38065 342.075L392.31815 342.075ZM392.31815 349.45L392.31815 343.23126L393.38065 343.23126L393.38065 349.45L392.31815 349.45ZM395.31815 349.45L395.31815 343.23126L396.25565 343.23126L396.25565 344.10626Q396.55252 343.6375 397.0369 343.3719Q397.52127 343.09064 398.14627 343.09064Q398.83377 343.09064 399.27127 343.3719Q399.7244 343.65314 399.89627 344.16876Q400.64627 343.09064 401.81815 343.09064Q402.75565 343.09064 403.24002 343.60626Q403.74002 344.10626 403.74002 345.1844L403.74002 349.45L402.69315 349.45L402.69315 345.52814Q402.69315 344.90314 402.58377 344.6219Q402.49002 344.34064 402.2244 344.16876Q401.95877 343.9969 401.58377 343.9969Q400.92752 343.9969 400.49002 344.4344Q400.06815 344.8719 400.06815 345.84064L400.06815 349.45L399.00565 349.45L399.00565 345.40314Q399.00565 344.7 398.74002 344.35626Q398.49002 343.9969 397.9119 343.9969Q397.45877 343.9969 397.08377 344.23126Q396.70877 344.46564 396.5369 344.91876Q396.36502 345.3719 396.36502 346.21564L396.36502 349.45L395.31815 349.45ZM409.38065 348.6844Q408.7869 349.1844 408.24002 349.3875Q407.70877 349.59064 407.08377 349.59064Q406.05252 349.59064 405.50565 349.09064Q404.95877 348.59064 404.95877 347.8094Q404.95877 347.35626 405.1619 346.98126Q405.36502 346.59064 405.70877 346.3719Q406.05252 346.1375 406.4744 346.02814Q406.77127 345.9344 407.4119 345.85626Q408.67752 345.71564 409.2869 345.4969Q409.2869 345.27814 409.2869 345.23126Q409.2869 344.575 408.99002 344.3094Q408.58377 343.96564 407.7869 343.96564Q407.05252 343.96564 406.69315 344.23126Q406.33377 344.48126 406.1619 345.1375L405.13065 344.9969Q405.27127 344.34064 405.5994 343.9344Q405.92752 343.52814 406.5369 343.3094Q407.14627 343.09064 407.94315 343.09064Q408.74002 343.09064 409.24002 343.27814Q409.74002 343.46564 409.9744 343.7469Q410.20877 344.02814 410.30252 344.46564Q410.3494 344.73126 410.3494 345.4344L410.3494 346.84064Q410.3494 348.3094 410.4119 348.7Q410.49002 349.09064 410.69315 349.45L409.58377 349.45Q409.42752 349.1219 409.38065 348.6844ZM409.2869 346.325Q408.70877 346.5594 407.56815 346.73126Q406.9119 346.825 406.64627 346.95Q406.38065 347.0594 406.2244 347.27814Q406.08377 347.4969 406.08377 347.77814Q406.08377 348.2 406.39627 348.48126Q406.7244 348.7625 407.33377 348.7625Q407.94315 348.7625 408.4119 348.4969Q408.89627 348.23126 409.11502 347.7625Q409.2869 347.40314 409.2869 346.71564L409.2869 346.325ZM412.2869 349.45L412.2869 340.85626L413.3494 340.85626L413.3494 349.45L412.2869 349.45ZM418.45877 349.45L418.45877 340.85626L422.27127 340.85626Q423.42752 340.85626 424.02127 341.09064Q424.61502 341.325 424.9744 341.91876Q425.33377 342.4969 425.33377 343.2Q425.33377 344.1219 424.74002 344.7469Q424.14627 345.3719 422.9119 345.54376Q423.36502 345.7625 423.5994 345.96564Q424.0994 346.41876 424.5369 347.10626L426.0369 349.45L424.5994 349.45L423.4744 347.66876Q422.9744 346.8875 422.64627 346.48126Q422.33377 346.075 422.06815 345.91876Q421.81815 345.7469 421.55252 345.66876Q421.36502 345.6375 420.92752 345.6375L419.5994 345.6375L419.5994 349.45L418.45877 349.45ZM419.5994 344.65314L422.05252 344.65314Q422.81815 344.65314 423.25565 344.4969Q423.70877 344.325 423.92752 343.98126Q424.1619 343.6219 424.1619 343.2Q424.1619 342.59064 423.70877 342.2Q423.27127 341.8094 422.31815 341.8094L419.5994 341.8094L419.5994 344.65314ZM431.56815 347.45L432.6619 347.575Q432.4119 348.52814 431.70877 349.0594Q431.00565 349.59064 429.92752 349.59064Q428.56815 349.59064 427.75565 348.7469Q426.95877 347.90314 426.95877 346.3875Q426.95877 344.825 427.77127 343.96564Q428.58377 343.09064 429.86502 343.09064Q431.11502 343.09064 431.89627 343.9344Q432.69315 344.77814 432.69315 346.325Q432.69315 346.41876 432.69315 346.60626L428.05252 346.60626Q428.11502 347.6375 428.63065 348.1844Q429.14627 348.71564 429.92752 348.71564Q430.50565 348.71564 430.9119 348.41876Q431.33377 348.10626 431.56815 347.45ZM428.11502 345.7469L431.58377 345.7469Q431.52127 344.95 431.19315 344.5594Q430.67752 343.95 429.88065 343.95Q429.14627 343.95 428.64627 344.4344Q428.1619 344.91876 428.11502 345.7469ZM434.11502 349.96564L435.14627 350.1219Q435.20877 350.59064 435.50565 350.8094Q435.89627 351.10626 436.56815 351.10626Q437.30252 351.10626 437.69315 350.8094Q438.0994 350.5125 438.24002 349.9969Q438.33377 349.66876 438.31815 348.6375Q437.63065 349.45 436.5994 349.45Q435.31815 349.45 434.61502 348.52814Q433.9119 347.59064 433.9119 346.3094Q433.9119 345.41876 434.2244 344.66876Q434.55252 343.90314 435.1619 343.4969Q435.77127 343.09064 436.5994 343.09064Q437.70877 343.09064 438.42752 343.98126L438.42752 343.23126L439.39627 343.23126L439.39627 348.60626Q439.39627 350.0594 439.0994 350.66876Q438.80252 351.27814 438.1619 351.6219Q437.52127 351.98126 436.58377 351.98126Q435.4744 351.98126 434.7869 351.48126Q434.0994 350.98126 434.11502 349.96564ZM434.99002 346.23126Q434.99002 347.45 435.4744 348.0125Q435.95877 348.575 436.69315 348.575Q437.42752 348.575 437.9119 348.0125Q438.4119 347.45 438.4119 346.2625Q438.4119 345.1219 437.89627 344.54376Q437.39627 343.96564 436.67752 343.96564Q435.9744 343.96564 435.4744 344.54376Q434.99002 345.10626 434.99002 346.23126ZM441.31815 342.075L441.31815 340.85626L442.38065 340.85626L442.38065 342.075L441.31815 342.075ZM441.31815 349.45L441.31815 343.23126L442.38065 343.23126L442.38065 349.45L441.31815 349.45ZM443.89627 347.59064L444.92752 347.4344Q445.02127 348.0594 445.4119 348.3875Q445.81815 348.71564 446.55252 348.71564Q447.27127 348.71564 447.61502 348.4344Q447.9744 348.1375 447.9744 347.73126Q447.9744 347.3719 447.6619 347.16876Q447.44315 347.02814 446.58377 346.8094Q445.42752 346.5125 444.9744 346.3094Q444.5369 346.09064 444.30252 345.71564Q444.06815 345.34064 444.06815 344.8719Q444.06815 344.46564 444.25565 344.10626Q444.44315 343.7469 444.77127 343.5125Q445.02127 343.34064 445.44315 343.21564Q445.86502 343.09064 446.36502 343.09064Q447.08377 343.09064 447.63065 343.3094Q448.19315 343.5125 448.45877 343.8719Q448.7244 344.23126 448.81815 344.825L447.7869 344.96564Q447.7244 344.4969 447.38065 344.23126Q447.05252 343.95 446.42752 343.95Q445.70877 343.95 445.39627 344.2Q445.08377 344.4344 445.08377 344.7625Q445.08377 344.96564 445.20877 345.1219Q445.3494 345.29376 445.61502 345.40314Q445.77127 345.46564 446.55252 345.66876Q447.67752 345.98126 448.11502 346.16876Q448.55252 346.35626 448.80252 346.71564Q449.05252 347.075 449.05252 347.6219Q449.05252 348.15314 448.74002 348.6219Q448.44315 349.075 447.86502 349.34064Q447.2869 349.59064 446.55252 349.59064Q445.33377 349.59064 444.69315 349.09064Q444.06815 348.575 443.89627 347.59064ZM452.61502 348.5125L452.77127 349.4344Q452.31815 349.52814 451.9744 349.52814Q451.39627 349.52814 451.08377 349.35626Q450.77127 349.16876 450.63065 348.8719Q450.50565 348.575 450.50565 347.6219L450.50565 344.04376L449.74002 344.04376L449.74002 343.23126L450.50565 343.23126L450.50565 341.6844L451.55252 341.0594L451.55252 343.23126L452.61502 343.23126L452.61502 344.04376L451.55252 344.04376L451.55252 347.6844Q451.55252 348.1375 451.5994 348.2625Q451.6619 348.3875 451.7869 348.46564Q451.9119 348.54376 452.14627 348.54376Q452.33377 348.54376 452.61502 348.5125ZM453.30252 349.45L453.30252 343.23126L454.25565 343.23126L454.25565 344.16876Q454.61502 343.5125 454.9119 343.3094Q455.2244 343.09064 455.5994 343.09064Q456.13065 343.09064 456.67752 343.41876L456.31815 344.40314Q455.92752 344.16876 455.55252 344.16876Q455.19315 344.16876 454.9119 344.3875Q454.64627 344.59064 454.5369 344.96564Q454.3494 345.52814 454.3494 346.1844L454.3494 349.45L453.30252 349.45ZM461.38065 348.6844Q460.7869 349.1844 460.24002 349.3875Q459.70877 349.59064 459.08377 349.59064Q458.05252 349.59064 457.50565 349.09064Q456.95877 348.59064 456.95877 347.8094Q456.95877 347.35626 457.1619 346.98126Q457.36502 346.59064 457.70877 346.3719Q458.05252 346.1375 458.4744 346.02814Q458.77127 345.9344 459.4119 345.85626Q460.67752 345.71564 461.2869 345.4969Q461.2869 345.27814 461.2869 345.23126Q461.2869 344.575 460.99002 344.3094Q460.58377 343.96564 459.7869 343.96564Q459.05252 343.96564 458.69315 344.23126Q458.33377 344.48126 458.1619 345.1375L457.13065 344.9969Q457.27127 344.34064 457.5994 343.9344Q457.92752 343.52814 458.5369 343.3094Q459.14627 343.09064 459.94315 343.09064Q460.74002 343.09064 461.24002 343.27814Q461.74002 343.46564 461.9744 343.7469Q462.20877 344.02814 462.30252 344.46564Q462.3494 344.73126 462.3494 345.4344L462.3494 346.84064Q462.3494 348.3094 462.4119 348.7Q462.49002 349.09064 462.69315 349.45L461.58377 349.45Q461.42752 349.1219 461.38065 348.6844ZM461.2869 346.325Q460.70877 346.5594 459.56815 346.73126Q458.9119 346.825 458.64627 346.95Q458.38065 347.0594 458.2244 347.27814Q458.08377 347.4969 458.08377 347.77814Q458.08377 348.2 458.39627 348.48126Q458.7244 348.7625 459.33377 348.7625Q459.94315 348.7625 460.4119 348.4969Q460.89627 348.23126 461.11502 347.7625Q461.2869 347.40314 461.2869 346.71564L461.2869 346.325ZM466.61502 348.5125L466.77127 349.4344Q466.31815 349.52814 465.9744 349.52814Q465.39627 349.52814 465.08377 349.35626Q464.77127 349.16876 464.63065 348.8719Q464.50565 348.575 464.50565 347.6219L464.50565 344.04376L463.74002 344.04376L463.74002 343.23126L464.50565 343.23126L464.50565 341.6844L465.55252 341.0594L465.55252 343.23126L466.61502 343.23126L466.61502 344.04376L465.55252 344.04376L465.55252 347.6844Q465.55252 348.1375 465.5994 348.2625Q465.6619 348.3875 465.7869 348.46564Q465.9119 348.54376 466.14627 348.54376Q466.33377 348.54376 466.61502 348.5125ZM467.31815 342.075L467.31815 340.85626L468.38065 340.85626L468.38065 342.075L467.31815 342.075ZM467.31815 349.45L467.31815 343.23126L468.38065 343.23126L468.38065 349.45L467.31815 349.45ZM469.92752 346.34064Q469.92752 344.60626 470.88065 343.77814Q471.67752 343.09064 472.83377 343.09064Q474.11502 343.09064 474.92752 343.9344Q475.75565 344.7625 475.75565 346.2469Q475.75565 347.45 475.39627 348.1375Q475.0369 348.825 474.33377 349.21564Q473.64627 349.59064 472.83377 349.59064Q471.5369 349.59064 470.7244 348.7625Q469.92752 347.91876 469.92752 346.34064ZM471.00565 346.34064Q471.00565 347.52814 471.52127 348.1219Q472.05252 348.71564 472.83377 348.71564Q473.63065 348.71564 474.14627 348.1219Q474.6619 347.52814 474.6619 346.3094Q474.6619 345.15314 474.13065 344.5594Q473.61502 343.96564 472.83377 343.96564Q472.05252 343.96564 471.52127 344.5594Q471.00565 345.1375 471.00565 346.34064ZM477.31815 349.45L477.31815 343.23126L478.25565 343.23126L478.25565 344.10626Q478.94315 343.09064 480.24002 343.09064Q480.80252 343.09064 481.27127 343.29376Q481.75565 343.4969 481.99002 343.825Q482.2244 344.15314 482.31815 344.59064Q482.36502 344.8875 482.36502 345.6219L482.36502 349.45L481.31815 349.45L481.31815 345.66876Q481.31815 345.0125 481.19315 344.7Q481.06815 344.3875 480.75565 344.2Q480.44315 343.9969 480.02127 343.9969Q479.3494 343.9969 478.8494 344.4344Q478.36502 344.85626 478.36502 346.04376L478.36502 349.45L477.31815 349.45Z" fill-rule="nonzero"/><path fill="#757575" d="M23.7375 37.55L23.7375 24.925L19.01875 24.925L19.01875 23.2375L30.3625 23.2375L30.3625 24.925L25.628124 24.925L25.628124 37.55L23.7375 37.55ZM31.784374 41.55L31.596874 39.89375Q32.175 40.05 32.596874 40.05Q33.190624 40.05 33.534374 39.846874Q33.89375 39.659374 34.1125 39.315624Q34.284374 39.05 34.659374 38.003124Q34.70625 37.846874 34.815624 37.565624L30.878124 27.175L32.76875 27.175L34.925 33.190624Q35.346874 34.33125 35.675 35.58125Q35.9875 34.378124 36.39375 33.221874L38.6125 27.175L40.378124 27.175L36.425 37.721874Q35.8 39.440624 35.440624 40.08125Q34.971874 40.95625 34.3625 41.346874Q33.76875 41.753124 32.925 41.753124Q32.409374 41.753124 31.784374 41.55ZM41.8625 41.51875L41.8625 27.175L43.471874 27.175L43.471874 28.51875Q44.034374 27.7375 44.7375 27.346874Q45.45625 26.940624 46.471874 26.940624Q47.8 26.940624 48.815624 27.628124Q49.83125 28.315624 50.346874 29.565624Q50.878124 30.8 50.878124 32.284374Q50.878124 33.878124 50.3 35.159374Q49.7375 36.425 48.64375 37.1125Q47.55 37.784374 46.346874 37.784374Q45.471874 37.784374 44.76875 37.409374Q44.08125 37.034374 43.628124 36.471874L43.628124 41.51875L41.8625 41.51875ZM43.45625 32.425Q43.45625 34.425 44.26875 35.378124Q45.08125 36.33125 46.2375 36.33125Q47.409374 36.33125 48.2375 35.346874Q49.08125 34.3625 49.08125 32.26875Q49.08125 30.3 48.253124 29.315624Q47.440624 28.315624 46.315624 28.315624Q45.190624 28.315624 44.315624 29.378124Q43.45625 30.425 43.45625 32.425ZM59.971874 34.20625L61.784374 34.440624Q61.3625 36.01875 60.190624 36.909374Q59.034374 37.784374 57.221874 37.784374Q54.95625 37.784374 53.6125 36.39375Q52.284374 34.9875 52.284374 32.45625Q52.284374 29.83125 53.628124 28.39375Q54.971874 26.940624 57.128124 26.940624Q59.20625 26.940624 60.51875 28.3625Q61.846874 29.76875 61.846874 32.346874Q61.846874 32.503124 61.83125 32.815624L54.096874 32.815624Q54.190624 34.51875 55.065624 35.425Q55.940624 36.33125 57.2375 36.33125Q58.20625 36.33125 58.878124 35.83125Q59.565624 35.315624 59.971874 34.20625ZM54.190624 31.3625L59.9875 31.3625Q59.878124 30.065624 59.33125 29.409374Q58.4875 28.39375 57.14375 28.39375Q55.940624 28.39375 55.1125 29.20625Q54.284374 30.003124 54.190624 31.3625ZM69.22188 32.3625Q69.22188 29.4875 70.81563 28.096874Q72.15938 26.940624 74.08125 26.940624Q76.22188 26.940624 77.56563 28.346874Q78.925 29.753124 78.925 32.221874Q78.925 34.221874 78.33125 35.378124Q77.7375 36.51875 76.58125 37.159374Q75.44063 37.784374 74.08125 37.784374Q71.89375 37.784374 70.55 36.39375Q69.22188 34.9875 69.22188 32.3625ZM71.01875 32.3625Q71.01875 34.3625 71.87813 35.346874Q72.75313 36.33125 74.08125 36.33125Q75.39375 36.33125 76.25313 35.346874Q77.12813 34.346874 77.12813 32.3Q77.12813 30.378124 76.25313 29.39375Q75.37813 28.39375 74.08125 28.39375Q72.75313 28.39375 71.87813 29.39375Q71.01875 30.378124 71.01875 32.3625ZM81.28438 37.55L81.28438 28.55L79.7375 28.55L79.7375 27.175L81.28438 27.175L81.28438 26.08125Q81.28438 25.034374 81.47188 24.51875Q81.72188 23.83125 82.3625 23.409374Q83.00313 22.9875 84.15938 22.9875Q84.90938 22.9875 85.8 23.159374L85.53438 24.690624Q84.9875 24.596874 84.50313 24.596874Q83.70625 24.596874 83.3625 24.940624Q83.03438 25.284374 83.03438 26.221874L83.03438 27.175L85.06563 27.175L85.06563 28.55L83.03438 28.55L83.03438 37.55L81.28438 37.55ZM93.12813 37.55L93.12813 23.2375L99.47188 23.2375Q101.37813 23.2375 102.37813 23.628124Q103.37813 24.003124 103.97188 24.9875Q104.56563 25.95625 104.56563 27.14375Q104.56563 28.659374 103.58125 29.70625Q102.59688 30.753124 100.53438 31.034374Q101.28438 31.39375 101.675 31.753124Q102.50313 32.503124 103.25313 33.659374L105.7375 37.55L103.3625 37.55L101.45625 34.565624Q100.62813 33.284374 100.09688 32.596874Q99.56563 31.909374 99.12813 31.64375Q98.70625 31.3625 98.26875 31.253124Q97.94063 31.190624 97.22188 31.190624L95.01875 31.190624L95.01875 37.55L93.12813 37.55ZM95.01875 29.55L99.09688 29.55Q100.39375 29.55 101.1125 29.284374Q101.84688 29.01875 102.22188 28.425Q102.6125 27.83125 102.6125 27.14375Q102.6125 26.128124 101.87813 25.471874Q101.14375 24.815624 99.55 24.815624L95.01875 24.815624L95.01875 29.55ZM113.97188 34.20625L115.78438 34.440624Q115.3625 36.01875 114.19063 36.909374Q113.03438 37.784374 111.22188 37.784374Q108.95625 37.784374 107.6125 36.39375Q106.28438 34.9875 106.28438 32.45625Q106.28438 29.83125 107.62813 28.39375Q108.97188 26.940624 111.12813 26.940624Q113.20625 26.940624 114.51875 28.3625Q115.84688 29.76875 115.84688 32.346874Q115.84688 32.503124 115.83125 32.815624L108.09688 32.815624Q108.19063 34.51875 109.06563 35.425Q109.94063 36.33125 111.2375 36.33125Q112.20625 36.33125 112.87813 35.83125Q113.56563 35.315624 113.97188 34.20625ZM108.19063 31.3625L113.9875 31.3625Q113.87813 30.065624 113.33125 29.409374Q112.4875 28.39375 111.14375 28.39375Q109.94063 28.39375 109.1125 29.20625Q108.28438 30.003124 108.19063 31.3625ZM117.55 38.409374L119.25313 38.659374Q119.3625 39.45625 119.84688 39.815624Q120.50313 40.3 121.64375 40.3Q122.8625 40.3 123.51875 39.815624Q124.19063 39.33125 124.425 38.45625Q124.56563 37.909374 124.55 36.190624Q123.39375 37.55 121.675 37.55Q119.53438 37.55 118.3625 36.003124Q117.19063 34.45625 117.19063 32.3Q117.19063 30.815624 117.72188 29.565624Q118.26875 28.315624 119.28438 27.628124Q120.31563 26.940624 121.69063 26.940624Q123.51875 26.940624 124.72188 28.425L124.72188 27.175L126.33125 27.175L126.33125 36.14375Q126.33125 38.565624 125.83125 39.565624Q125.34688 40.58125 124.26875 41.159374Q123.20625 41.753124 121.64375 41.753124Q119.8 41.753124 118.64375 40.925Q117.50313 40.096874 117.55 38.409374ZM119.00313 32.175Q119.00313 34.221874 119.81563 35.159374Q120.62813 36.096874 121.84688 36.096874Q123.05 36.096874 123.8625 35.159374Q124.69063 34.221874 124.69063 32.2375Q124.69063 30.33125 123.84688 29.3625Q123.00313 28.39375 121.81563 28.39375Q120.64375 28.39375 119.81563 29.346874Q119.00313 30.3 119.00313 32.175ZM128.87813 25.253124L128.87813 23.2375L130.64375 23.2375L130.64375 25.253124L128.87813 25.253124ZM128.87813 37.55L128.87813 27.175L130.64375 27.175L130.64375 37.55L128.87813 37.55ZM132.15938 34.45625L133.90938 34.175Q134.05 35.221874 134.72188 35.784374Q135.39375 36.33125 136.59688 36.33125Q137.8 36.33125 138.37813 35.846874Q138.97188 35.346874 138.97188 34.690624Q138.97188 34.096874 138.45625 33.753124Q138.09688 33.51875 136.65938 33.159374Q134.72188 32.659374 133.97188 32.315624Q133.2375 31.95625 132.84688 31.33125Q132.45625 30.690624 132.45625 29.925Q132.45625 29.2375 132.76875 28.64375Q133.09688 28.05 133.64375 27.659374Q134.05 27.3625 134.75313 27.159374Q135.47188 26.940624 136.28438 26.940624Q137.50313 26.940624 138.425 27.3Q139.34688 27.64375 139.78438 28.253124Q140.22188 28.846874 140.39375 29.846874L138.675 30.08125Q138.55 29.284374 137.9875 28.846874Q137.425 28.39375 136.40938 28.39375Q135.19063 28.39375 134.675 28.8Q134.15938 29.190624 134.15938 29.721874Q134.15938 30.065624 134.37813 30.346874Q134.58125 30.628124 135.05 30.815624Q135.31563 30.909374 136.59688 31.253124Q138.47188 31.753124 139.20625 32.08125Q139.94063 32.39375 140.3625 33.003124Q140.78438 33.596874 140.78438 34.503124Q140.78438 35.378124 140.26875 36.159374Q139.75313 36.940624 138.78438 37.3625Q137.81563 37.784374 136.59688 37.784374Q134.58125 37.784374 133.51875 36.940624Q132.45625 36.096874 132.15938 34.45625ZM146.70625 35.971874L146.95625 37.534374Q146.22188 37.690624 145.62813 37.690624Q144.675 37.690624 144.14375 37.39375Q143.62813 37.08125 143.40938 36.596874Q143.19063 36.096874 143.19063 34.51875L143.19063 28.55L141.90938 28.55L141.90938 27.175L143.19063 27.175L143.19063 24.6125L144.94063 23.55L144.94063 27.175L146.70625 27.175L146.70625 28.55L144.94063 28.55L144.94063 34.6125Q144.94063 35.3625 145.03438 35.58125Q145.12813 35.784374 145.33125 35.925Q145.55 36.05 145.94063 36.05Q146.22188 36.05 146.70625 35.971874ZM148.84688 37.55L148.84688 27.175L150.425 27.175L150.425 28.753124Q151.03438 27.64375 151.55 27.3Q152.06563 26.940624 152.675 26.940624Q153.56563 26.940624 154.4875 27.503124L153.87813 29.14375Q153.2375 28.753124 152.59688 28.753124Q152.01875 28.753124 151.55 29.1125Q151.09688 29.45625 150.89375 30.065624Q150.6125 31.003124 150.6125 32.1125L150.6125 37.55L148.84688 37.55ZM162.64375 36.26875Q161.65938 37.096874 160.75313 37.440624Q159.84688 37.784374 158.81563 37.784374Q157.1125 37.784374 156.19063 36.95625Q155.26875 36.1125 155.26875 34.815624Q155.26875 34.05 155.6125 33.425Q155.97188 32.8 156.53438 32.425Q157.09688 32.034374 157.8 31.83125Q158.31563 31.70625 159.3625 31.565624Q161.4875 31.315624 162.4875 30.971874Q162.50313 30.6125 162.50313 30.503124Q162.50313 29.440624 162.00313 28.9875Q161.33125 28.39375 160.00313 28.39375Q158.75313 28.39375 158.15938 28.83125Q157.58125 29.26875 157.3 30.378124L155.58125 30.14375Q155.81563 29.034374 156.34688 28.3625Q156.87813 27.675 157.89375 27.315624Q158.90938 26.940624 160.25313 26.940624Q161.58125 26.940624 162.40938 27.253124Q163.2375 27.565624 163.62813 28.05Q164.01875 28.51875 164.175 29.2375Q164.26875 29.690624 164.26875 30.8625L164.26875 33.20625Q164.26875 35.659374 164.37813 36.315624Q164.4875 36.95625 164.83125 37.55L162.9875 37.55Q162.72188 37.003124 162.64375 36.26875ZM162.4875 32.346874Q161.53438 32.7375 159.6125 33.003124Q158.53438 33.159374 158.08125 33.3625Q157.64375 33.55 157.39375 33.925Q157.14375 34.3 157.14375 34.76875Q157.14375 35.471874 157.675 35.940624Q158.20625 36.409374 159.2375 36.409374Q160.25313 36.409374 161.03438 35.971874Q161.83125 35.51875 162.20625 34.753124Q162.4875 34.14375 162.4875 32.9875L162.4875 32.346874ZM170.70625 35.971874L170.95625 37.534374Q170.22188 37.690624 169.62813 37.690624Q168.675 37.690624 168.14375 37.39375Q167.62813 37.08125 167.40938 36.596874Q167.19063 36.096874 167.19063 34.51875L167.19063 28.55L165.90938 28.55L165.90938 27.175L167.19063 27.175L167.19063 24.6125L168.94063 23.55L168.94063 27.175L170.70625 27.175L170.70625 28.55L168.94063 28.55L168.94063 34.6125Q168.94063 35.3625 169.03438 35.58125Q169.12813 35.784374 169.33125 35.925Q169.55 36.05 169.94063 36.05Q170.22188 36.05 170.70625 35.971874ZM172.87813 25.253124L172.87813 23.2375L174.64375 23.2375L174.64375 25.253124L172.87813 25.253124ZM172.87813 37.55L172.87813 27.175L174.64375 27.175L174.64375 37.55L172.87813 37.55ZM176.22188 32.3625Q176.22188 29.4875 177.81563 28.096874Q179.15938 26.940624 181.08125 26.940624Q183.22188 26.940624 184.56563 28.346874Q185.925 29.753124 185.925 32.221874Q185.925 34.221874 185.33125 35.378124Q184.7375 36.51875 183.58125 37.159374Q182.44063 37.784374 181.08125 37.784374Q178.89375 37.784374 177.55 36.39375Q176.22188 34.9875 176.22188 32.3625ZM178.01875 32.3625Q178.01875 34.3625 178.87813 35.346874Q179.75313 36.33125 181.08125 36.33125Q182.39375 36.33125 183.25313 35.346874Q184.12813 34.346874 184.12813 32.3Q184.12813 30.378124 183.25313 29.39375Q182.37813 28.39375 181.08125 28.39375Q179.75313 28.39375 178.87813 29.39375Q178.01875 30.378124 178.01875 32.3625ZM187.8625 37.55L187.8625 27.175L189.45625 27.175L189.45625 28.659374Q190.59688 26.940624 192.75313 26.940624Q193.69063 26.940624 194.47188 27.284374Q195.26875 27.6125 195.65938 28.159374Q196.05 28.70625 196.20625 29.45625Q196.3 29.95625 196.3 31.175L196.3 37.55L194.53438 37.55L194.53438 31.2375Q194.53438 30.159374 194.33125 29.628124Q194.12813 29.096874 193.59688 28.784374Q193.08125 28.471874 192.37813 28.471874Q191.25313 28.471874 190.44063 29.190624Q189.62813 29.89375 189.62813 31.878124L189.62813 37.55L187.8625 37.55Z" fill-rule="nonzero"/></svg>