<svg version="1.1" viewBox="0.0 0.0 600.0 371.0" fill="none" stroke="none" stroke-linecap="square" stroke-miterlimit="10" width="600" height="371" xmlns:xlink="http://www.w3.org/1999/xlink" xmlns="http://www.w3.org/2000/svg"><path fill="#ffffff" d="M0 0L600.0 0L600.0 371.0L0 371.0L0 0Z" fill-rule="nonzero"/><path stroke="#333333" stroke-width="1.0" stroke-linecap="butt" d="M45.5 332.5L581.5 332.5" fill-rule="nonzero"/><path stroke="#cccccc" stroke-width="1.0" stroke-linecap="butt" d="M45.5 270.5L581.5 270.5" fill-rule="nonzero"/><path stroke="#cccccc" stroke-width="1.0" stroke-linecap="butt" d="M45.5 209.5L581.5 209.5" fill-rule="nonzero"/><path stroke="#cccccc" stroke-width="1.0" stroke-linecap="butt" d="M45.5 147.5L581.5 147.5" fill-rule="nonzero"/><path stroke="#cccccc" stroke-width="1.0" stroke-linecap="butt" d="M45.5 85.5L581.5 85.5" fill-rule="nonzero"/><clipPath id="id_0"><path d="M45.55 85.916664L581.45 85.916664L581.45 332.45L45.55 332.45L45.55 85.916664Z" clip-rule="nonzero"/></clipPath><path stroke="#000000" stroke-width="0.0" stroke-linecap="butt" stroke-opacity="0.0" clip-path="url(#id_0)" d="M273.0 332.0L125.0 332.0L125.0 100.0C125.0 98.89543 125.89543 98.0 127.0 98.0L271.0 98.0C272.10458 98.0 273.0 98.89543 273.0 100.0Z" fill-rule="nonzero"/><path fill="#4285f4" clip-path="url(#id_0)" d="M273.0 332.0L125.0 332.0L125.0 100.0C125.0 98.89543 125.89543 98.0 127.0 98.0L271.0 98.0C272.10458 98.0 273.0 98.89543 273.0 100.0Z" fill-rule="nonzero"/><path stroke="#000000" stroke-width="0.0" stroke-linecap="butt" stroke-opacity="0.0" clip-path="url(#id_0)" d="M502.0 332.0L354.0 332.0L354.0 322.0C354.0 320.89542 354.89542 320.0 356.0 320.0L500.0 320.0C501.10458 320.0 502.0 320.89542 502.0 322.0Z" fill-rule="nonzero"/><path fill="#4285f4" clip-path="url(#id_0)" d="M502.0 332.0L354.0 332.0L354.0 322.0C354.0 320.89542 354.89542 320.0 356.0 320.0L500.0 320.0C501.10458 320.0 502.0 320.89542 502.0 322.0Z" fill-rule="nonzero"/><path fill="#000000" d="M33.05 332.21564Q33.05 330.6844 33.3625 329.7625Q33.675 328.825 34.284374 328.325Q34.909374 327.825 35.846874 327.825Q36.534374 327.825 37.05 328.10626Q37.58125 328.3875 37.925 328.91876Q38.26875 329.4344 38.45625 330.1844Q38.64375 330.9344 38.64375 332.21564Q38.64375 333.73126 38.33125 334.65314Q38.034374 335.575 37.409374 336.09064Q36.8 336.59064 35.846874 336.59064Q34.6125 336.59064 33.89375 335.7Q33.05 334.6375 33.05 332.21564ZM34.128124 332.21564Q34.128124 334.325 34.628124 335.02814Q35.128124 335.73126 35.846874 335.73126Q36.58125 335.73126 37.065624 335.02814Q37.565624 334.325 37.565624 332.21564Q37.565624 330.09064 37.065624 329.40314Q36.58125 328.7 35.83125 328.7Q35.1125 328.7 34.675 329.3094Q34.128124 330.09064 34.128124 332.21564Z" fill-rule="nonzero"/><path fill="#000000" d="M31.596874 273.80106L31.596874 274.81668L25.909374 274.81668Q25.909374 274.44168 26.034374 274.0823Q26.253124 273.50418 26.721874 272.94168Q27.20625 272.37918 28.1125 271.6448Q29.51875 270.48856 30.003124 269.81668Q30.503124 269.1448 30.503124 268.55106Q30.503124 267.92606 30.05 267.50418Q29.596874 267.06668 28.878124 267.06668Q28.1125 267.06668 27.659374 267.5198Q27.20625 267.97293 27.190624 268.78543L26.1125 268.67606Q26.221874 267.4573 26.940624 266.8323Q27.675 266.19168 28.909374 266.19168Q30.14375 266.19168 30.8625 266.87918Q31.58125 267.56668 31.58125 268.5823Q31.58125 269.09793 31.3625 269.59793Q31.159374 270.0823 30.659374 270.6448Q30.175 271.19168 29.05 272.1448Q28.096874 272.94168 27.815624 273.23856Q27.55 273.5198 27.378124 273.80106L31.596874 273.80106ZM33.05 272.56668L34.159374 272.47293Q34.284374 273.28543 34.721874 273.69168Q35.175 274.09793 35.815624 274.09793Q36.565624 274.09793 37.096874 273.5198Q37.628124 272.94168 37.628124 272.00418Q37.628124 271.09793 37.1125 270.5823Q36.6125 270.05106 35.784374 270.05106Q35.284374 270.05106 34.8625 270.28543Q34.45625 270.5198 34.221874 270.87918L33.2375 270.75418L34.065624 266.34793L38.346874 266.34793L38.346874 267.34793L34.909374 267.34793L34.45625 269.66043Q35.221874 269.11356 36.065624 269.11356Q37.190624 269.11356 37.95625 269.8948Q38.7375 270.67606 38.7375 271.91043Q38.7375 273.06668 38.065624 273.92606Q37.2375 274.9573 35.815624 274.9573Q34.64375 274.9573 33.89375 274.30106Q33.159374 273.6448 33.05 272.56668Z" fill-rule="nonzero"/><path fill="#000000" d="M26.05 210.93333L27.159374 210.83958Q27.284374 211.65208 27.721874 212.05833Q28.175 212.46458 28.815624 212.46458Q29.565624 212.46458 30.096874 211.88646Q30.628124 211.30833 30.628124 210.37083Q30.628124 209.46458 30.1125 208.94896Q29.6125 208.41771 28.784374 208.41771Q28.284374 208.41771 27.8625 208.65208Q27.45625 208.88646 27.221874 209.24583L26.2375 209.12083L27.065624 204.71458L31.346874 204.71458L31.346874 205.71458L27.909374 205.71458L27.45625 208.02708Q28.221874 207.48021 29.065624 207.48021Q30.190624 207.48021 30.95625 208.26146Q31.7375 209.04271 31.7375 210.27708Q31.7375 211.43333 31.065624 212.29271Q30.2375 213.32396 28.815624 213.32396Q27.64375 213.32396 26.89375 212.66771Q26.159374 212.01146 26.05 210.93333ZM33.05 208.94896Q33.05 207.41771 33.3625 206.49583Q33.675 205.55833 34.284374 205.05833Q34.909374 204.55833 35.846874 204.55833Q36.534374 204.55833 37.05 204.83958Q37.58125 205.12083 37.925 205.65208Q38.26875 206.16771 38.45625 206.91771Q38.64375 207.66771 38.64375 208.94896Q38.64375 210.46458 38.33125 211.38646Q38.034374 212.30833 37.409374 212.82396Q36.8 213.32396 35.846874 213.32396Q34.6125 213.32396 33.89375 212.43333Q33.05 211.37083 33.05 208.94896ZM34.128124 208.94896Q34.128124 211.05833 34.628124 211.76146Q35.128124 212.46458 35.846874 212.46458Q36.58125 212.46458 37.065624 211.76146Q37.565624 211.05833 37.565624 208.94896Q37.565624 206.82396 37.065624 206.13646Q36.58125 205.43333 35.83125 205.43333Q35.1125 205.43333 34.675 206.04271Q34.128124 206.82396 34.128124 208.94896Z" fill-rule="nonzero"/><path fill="#000000" d="M26.1125 144.08125L26.1125 143.06563L31.675 143.06563L31.675 143.89375Q30.8625 144.76875 30.05 146.22188Q29.253124 147.65938 28.815624 149.19063Q28.4875 150.26875 28.409374 151.55L27.315624 151.55Q27.33125 150.53438 27.70625 149.09688Q28.096874 147.65938 28.8 146.33125Q29.51875 145.00313 30.33125 144.08125L26.1125 144.08125ZM33.05 149.3L34.159374 149.20625Q34.284374 150.01875 34.721874 150.425Q35.175 150.83125 35.815624 150.83125Q36.565624 150.83125 37.096874 150.25313Q37.628124 149.675 37.628124 148.7375Q37.628124 147.83125 37.1125 147.31563Q36.6125 146.78438 35.784374 146.78438Q35.284374 146.78438 34.8625 147.01875Q34.45625 147.25313 34.221874 147.6125L33.2375 147.4875L34.065624 143.08125L38.346874 143.08125L38.346874 144.08125L34.909374 144.08125L34.45625 146.39375Q35.221874 145.84688 36.065624 145.84688Q37.190624 145.84688 37.95625 146.62813Q38.7375 147.40938 38.7375 148.64375Q38.7375 149.8 38.065624 150.65938Q37.2375 151.69063 35.815624 151.69063Q34.64375 151.69063 33.89375 151.03438Q33.159374 150.37813 33.05 149.3Z" fill-rule="nonzero"/><path fill="#000000" d="M23.01875 89.916664L21.971874 89.916664L21.971874 83.197914Q21.58125 83.55729 20.95625 83.93229Q20.346874 84.291664 19.8625 84.46354L19.8625 83.447914Q20.7375 83.02604 21.39375 82.447914Q22.065624 81.854164 22.346874 81.291664L23.01875 81.291664L23.01875 89.916664ZM26.05 85.68229Q26.05 84.15104 26.3625 83.229164Q26.675 82.291664 27.284374 81.791664Q27.909374 81.291664 28.846874 81.291664Q29.534374 81.291664 30.05 81.572914Q30.58125 81.854164 30.925 82.385414Q31.26875 82.90104 31.45625 83.65104Q31.64375 84.40104 31.64375 85.68229Q31.64375 87.197914 31.33125 88.11979Q31.034374 89.041664 30.409374 89.55729Q29.8 90.05729 28.846874 90.05729Q27.6125 90.05729 26.89375 89.166664Q26.05 88.104164 26.05 85.68229ZM27.128124 85.68229Q27.128124 87.791664 27.628124 88.49479Q28.128124 89.197914 28.846874 89.197914Q29.58125 89.197914 30.065624 88.49479Q30.565624 87.791664 30.565624 85.68229Q30.565624 83.55729 30.065624 82.86979Q29.58125 82.166664 28.83125 82.166664Q28.1125 82.166664 27.675 82.77604Q27.128124 83.55729 27.128124 85.68229ZM33.05 85.68229Q33.05 84.15104 33.3625 83.229164Q33.675 82.291664 34.284374 81.791664Q34.909374 81.291664 35.846874 81.291664Q36.534374 81.291664 37.05 81.572914Q37.58125 81.854164 37.925 82.385414Q38.26875 82.90104 38.45625 83.65104Q38.64375 84.40104 38.64375 85.68229Q38.64375 87.197914 38.33125 88.11979Q38.034374 89.041664 37.409374 89.55729Q36.8 90.05729 35.846874 90.05729Q34.6125 90.05729 33.89375 89.166664Q33.05 88.104164 33.05 85.68229ZM34.128124 85.68229Q34.128124 87.791664 34.628124 88.49479Q35.128124 89.197914 35.846874 89.197914Q36.58125 89.197914 37.065624 88.49479Q37.565624 87.791664 37.565624 85.68229Q37.565624 83.55729 37.065624 82.86979Q36.58125 82.166664 35.83125 82.166664Q35.1125 82.166664 34.675 82.77604Q34.128124 83.55729 34.128124 85.68229Z" fill-rule="nonzero"/><path fill="#000000" d="M192.32248 349.45L192.32248 345.8094L189.00998 340.85626L190.4006 340.85626L192.0881 343.45Q192.55685 344.16876 192.9631 344.90314Q193.35373 344.23126 193.9006 343.3875L195.57248 340.85626L196.88498 340.85626L193.4631 345.8094L193.4631 349.45L192.32248 349.45ZM202.0256 347.45L203.11935 347.575Q202.86935 348.52814 202.16623 349.0594Q201.4631 349.59064 200.38498 349.59064Q199.0256 349.59064 198.2131 348.7469Q197.41623 347.90314 197.41623 346.3875Q197.41623 344.825 198.22873 343.96564Q199.04123 343.09064 200.32248 343.09064Q201.57248 343.09064 202.35373 343.9344Q203.1506 344.77814 203.1506 346.325Q203.1506 346.41876 203.1506 346.60626L198.50998 346.60626Q198.57248 347.6375 199.0881 348.1844Q199.60373 348.71564 200.38498 348.71564Q200.9631 348.71564 201.36935 348.41876Q201.79123 348.10626 202.0256 347.45ZM198.57248 345.7469L202.04123 345.7469Q201.97873 344.95 201.6506 344.5594Q201.13498 343.95 200.3381 343.95Q199.60373 343.95 199.10373 344.4344Q198.61935 344.91876 198.57248 345.7469ZM204.35373 347.59064L205.38498 347.4344Q205.47873 348.0594 205.86935 348.3875Q206.2756 348.71564 207.00998 348.71564Q207.72873 348.71564 208.07248 348.4344Q208.43185 348.1375 208.43185 347.73126Q208.43185 347.3719 208.11935 347.16876Q207.9006 347.02814 207.04123 346.8094Q205.88498 346.5125 205.43185 346.3094Q204.99435 346.09064 204.75998 345.71564Q204.5256 345.34064 204.5256 344.8719Q204.5256 344.46564 204.7131 344.10626Q204.9006 343.7469 205.22873 343.5125Q205.47873 343.34064 205.9006 343.21564Q206.32248 343.09064 206.82248 343.09064Q207.54123 343.09064 208.0881 343.3094Q208.6506 343.5125 208.91623 343.8719Q209.18185 344.23126 209.2756 344.825L208.24435 344.96564Q208.18185 344.4969 207.8381 344.23126Q207.50998 343.95 206.88498 343.95Q206.16623 343.95 205.85373 344.2Q205.54123 344.4344 205.54123 344.7625Q205.54123 344.96564 205.66623 345.1219Q205.80685 345.29376 206.07248 345.40314Q206.22873 345.46564 207.00998 345.66876Q208.13498 345.98126 208.57248 346.16876Q209.00998 346.35626 209.25998 346.71564Q209.50998 347.075 209.50998 347.6219Q209.50998 348.15314 209.19748 348.6219Q208.9006 349.075 208.32248 349.34064Q207.74435 349.59064 207.00998 349.59064Q205.79123 349.59064 205.1506 349.09064Q204.5256 348.575 204.35373 347.59064Z" fill-rule="nonzero"/><path fill="#000000" d="M420.44315 349.45L420.44315 340.85626L421.5994 340.85626L426.11502 347.60626L426.11502 340.85626L427.20877 340.85626L427.20877 349.45L426.0369 349.45L421.52127 342.7L421.52127 349.45L420.44315 349.45ZM428.92752 346.34064Q428.92752 344.60626 429.88065 343.77814Q430.67752 343.09064 431.83377 343.09064Q433.11502 343.09064 433.92752 343.9344Q434.75565 344.7625 434.75565 346.2469Q434.75565 347.45 434.39627 348.1375Q434.0369 348.825 433.33377 349.21564Q432.64627 349.59064 431.83377 349.59064Q430.5369 349.59064 429.7244 348.7625Q428.92752 347.91876 428.92752 346.34064ZM430.00565 346.34064Q430.00565 347.52814 430.52127 348.1219Q431.05252 348.71564 431.83377 348.71564Q432.63065 348.71564 433.14627 348.1219Q433.6619 347.52814 433.6619 346.3094Q433.6619 345.15314 433.13065 344.5594Q432.61502 343.96564 431.83377 343.96564Q431.05252 343.96564 430.52127 344.5594Q430.00565 345.1375 430.00565 346.34064Z" fill-rule="nonzero"/><path fill="#757575" d="M20.01875 37.55L20.01875 23.2375L25.39375 23.2375Q27.034374 23.2375 28.01875 23.675Q29.003124 24.096874 29.565624 25.003124Q30.128124 25.909374 30.128124 26.89375Q30.128124 27.815624 29.628124 28.628124Q29.14375 29.440624 28.128124 29.925Q29.425 30.315624 30.128124 31.2375Q30.83125 32.14375 30.83125 33.39375Q30.83125 34.409374 30.39375 35.26875Q29.971874 36.128124 29.346874 36.596874Q28.721874 37.065624 27.784374 37.315624Q26.846874 37.55 25.471874 37.55L20.01875 37.55ZM21.909374 29.253124L25.003124 29.253124Q26.26875 29.253124 26.815624 29.08125Q27.534374 28.8625 27.89375 28.378124Q28.26875 27.878124 28.26875 27.1125Q28.26875 26.409374 27.925 25.8625Q27.58125 25.315624 26.940624 25.128124Q26.315624 24.925 24.76875 24.925L21.909374 24.925L21.909374 29.253124ZM21.909374 35.8625L25.471874 35.8625Q26.39375 35.8625 26.76875 35.784374Q27.425 35.675 27.8625 35.409374Q28.3 35.128124 28.58125 34.6125Q28.8625 34.08125 28.8625 33.39375Q28.8625 32.596874 28.45625 32.003124Q28.05 31.409374 27.315624 31.175Q26.58125 30.940624 25.221874 30.940624L21.909374 30.940624L21.909374 35.8625ZM39.64375 36.26875Q38.659374 37.096874 37.753124 37.440624Q36.846874 37.784374 35.815624 37.784374Q34.1125 37.784374 33.190624 36.95625Q32.26875 36.1125 32.26875 34.815624Q32.26875 34.05 32.6125 33.425Q32.971874 32.8 33.534374 32.425Q34.096874 32.034374 34.8 31.83125Q35.315624 31.70625 36.3625 31.565624Q38.4875 31.315624 39.4875 30.971874Q39.503124 30.6125 39.503124 30.503124Q39.503124 29.440624 39.003124 28.9875Q38.33125 28.39375 37.003124 28.39375Q35.753124 28.39375 35.159374 28.83125Q34.58125 29.26875 34.3 30.378124L32.58125 30.14375Q32.815624 29.034374 33.346874 28.3625Q33.878124 27.675 34.89375 27.315624Q35.909374 26.940624 37.253124 26.940624Q38.58125 26.940624 39.409374 27.253124Q40.2375 27.565624 40.628124 28.05Q41.01875 28.51875 41.175 29.2375Q41.26875 29.690624 41.26875 30.8625L41.26875 33.20625Q41.26875 35.659374 41.378124 36.315624Q41.4875 36.95625 41.83125 37.55L39.9875 37.55Q39.721874 37.003124 39.64375 36.26875ZM39.4875 32.346874Q38.534374 32.7375 36.6125 33.003124Q35.534374 33.159374 35.08125 33.3625Q34.64375 33.55 34.39375 33.925Q34.14375 34.3 34.14375 34.76875Q34.14375 35.471874 34.675 35.940624Q35.20625 36.409374 36.2375 36.409374Q37.253124 36.409374 38.034374 35.971874Q38.83125 35.51875 39.20625 34.753124Q39.4875 34.14375 39.4875 32.9875L39.4875 32.346874ZM43.159374 34.45625L44.909374 34.175Q45.05 35.221874 45.721874 35.784374Q46.39375 36.33125 47.596874 36.33125Q48.8 36.33125 49.378124 35.846874Q49.971874 35.346874 49.971874 34.690624Q49.971874 34.096874 49.45625 33.753124Q49.096874 33.51875 47.659374 33.159374Q45.721874 32.659374 44.971874 32.315624Q44.2375 31.95625 43.846874 31.33125Q43.45625 30.690624 43.45625 29.925Q43.45625 29.2375 43.76875 28.64375Q44.096874 28.05 44.64375 27.659374Q45.05 27.3625 45.753124 27.159374Q46.471874 26.940624 47.284374 26.940624Q48.503124 26.940624 49.425 27.3Q50.346874 27.64375 50.784374 28.253124Q51.221874 28.846874 51.39375 29.846874L49.675 30.08125Q49.55 29.284374 48.9875 28.846874Q48.425 28.39375 47.409374 28.39375Q46.190624 28.39375 45.675 28.8Q45.159374 29.190624 45.159374 29.721874Q45.159374 30.065624 45.378124 30.346874Q45.58125 30.628124 46.05 30.815624Q46.315624 30.909374 47.596874 31.253124Q49.471874 31.753124 50.20625 32.08125Q50.940624 32.39375 51.3625 33.003124Q51.784374 33.596874 51.784374 34.503124Q51.784374 35.378124 51.26875 36.159374Q50.753124 36.940624 49.784374 37.3625Q48.815624 37.784374 47.596874 37.784374Q45.58125 37.784374 44.51875 36.940624Q43.45625 36.096874 43.159374 34.45625ZM53.878124 25.253124L53.878124 23.2375L55.64375 23.2375L55.64375 25.253124L53.878124 25.253124ZM53.878124 37.55L53.878124 27.175L55.64375 27.175L55.64375 37.55L53.878124 37.55ZM64.64375 33.753124L66.3625 33.971874Q66.08125 35.76875 64.90938 36.784374Q63.753124 37.784374 62.05 37.784374Q59.925 37.784374 58.628124 36.39375Q57.33125 35.003124 57.33125 32.409374Q57.33125 30.721874 57.878124 29.471874Q58.440624 28.20625 59.58125 27.58125Q60.721874 26.940624 62.065624 26.940624Q63.753124 26.940624 64.81563 27.8Q65.89375 28.659374 66.20625 30.221874L64.4875 30.4875Q64.25313 29.440624 63.628124 28.925Q63.003124 28.39375 62.128124 28.39375Q60.8 28.39375 59.971874 29.346874Q59.14375 30.3 59.14375 32.346874Q59.14375 34.440624 59.940624 35.39375Q60.7375 36.33125 62.034374 36.33125Q63.065624 36.33125 63.753124 35.70625Q64.45625 35.065624 64.64375 33.753124ZM80.65938 37.55L80.65938 36.01875Q79.45625 37.784374 77.37813 37.784374Q76.45625 37.784374 75.65938 37.440624Q74.8625 37.08125 74.47188 36.55Q74.09688 36.01875 73.94063 35.2375Q73.83125 34.721874 73.83125 33.596874L73.83125 27.175L75.58125 27.175L75.58125 32.925Q75.58125 34.3 75.69063 34.784374Q75.8625 35.471874 76.39375 35.878124Q76.94063 36.26875 77.72188 36.26875Q78.51875 36.26875 79.20625 35.8625Q79.90938 35.45625 80.19063 34.76875Q80.4875 34.065624 80.4875 32.7375L80.4875 27.175L82.2375 27.175L82.2375 37.55L80.65938 37.55ZM84.8625 37.55L84.8625 27.175L86.45625 27.175L86.45625 28.659374Q87.59688 26.940624 89.75313 26.940624Q90.69063 26.940624 91.47188 27.284374Q92.26875 27.6125 92.65938 28.159374Q93.05 28.70625 93.20625 29.45625Q93.3 29.95625 93.3 31.175L93.3 37.55L91.53438 37.55L91.53438 31.2375Q91.53438 30.159374 91.33125 29.628124Q91.12813 29.096874 90.59688 28.784374Q90.08125 28.471874 89.37813 28.471874Q88.25313 28.471874 87.44063 29.190624Q86.62813 29.89375 86.62813 31.878124L86.62813 37.55L84.8625 37.55ZM102.59688 37.55L102.59688 36.2375Q101.6125 37.784374 99.69063 37.784374Q98.45625 37.784374 97.40938 37.096874Q96.37813 36.409374 95.8 35.190624Q95.2375 33.971874 95.2375 32.378124Q95.2375 30.815624 95.75313 29.55Q96.26875 28.284374 97.3 27.6125Q98.34688 26.940624 99.6125 26.940624Q100.55 26.940624 101.28438 27.346874Q102.01875 27.7375 102.4875 28.3625L102.4875 23.2375L104.22188 23.2375L104.22188 37.55L102.59688 37.55ZM97.03438 32.378124Q97.03438 34.3625 97.87813 35.346874Q98.72188 36.33125 99.8625 36.33125Q101.01875 36.33125 101.81563 35.39375Q102.62813 34.45625 102.62813 32.51875Q102.62813 30.39375 101.8 29.39375Q100.9875 28.39375 99.78438 28.39375Q98.6125 28.39375 97.81563 29.3625Q97.03438 30.315624 97.03438 32.378124ZM113.97188 34.20625L115.78438 34.440624Q115.3625 36.01875 114.19063 36.909374Q113.03438 37.784374 111.22188 37.784374Q108.95625 37.784374 107.6125 36.39375Q106.28438 34.9875 106.28438 32.45625Q106.28438 29.83125 107.62813 28.39375Q108.97188 26.940624 111.12813 26.940624Q113.20625 26.940624 114.51875 28.3625Q115.84688 29.76875 115.84688 32.346874Q115.84688 32.503124 115.83125 32.815624L108.09688 32.815624Q108.19063 34.51875 109.06563 35.425Q109.94063 36.33125 111.2375 36.33125Q112.20625 36.33125 112.87813 35.83125Q113.56563 35.315624 113.97188 34.20625ZM108.19063 31.3625L113.9875 31.3625Q113.87813 30.065624 113.33125 29.409374Q112.4875 28.39375 111.14375 28.39375Q109.94063 28.39375 109.1125 29.20625Q108.28438 30.003124 108.19063 31.3625ZM117.84688 37.55L117.84688 27.175L119.425 27.175L119.425 28.753124Q120.03438 27.64375 120.55 27.3Q121.06563 26.940624 121.675 26.940624Q122.56563 26.940624 123.4875 27.503124L122.87813 29.14375Q122.2375 28.753124 121.59688 28.753124Q121.01875 28.753124 120.55 29.1125Q120.09688 29.45625 119.89375 30.065624Q119.6125 31.003124 119.6125 32.1125L119.6125 37.55L117.84688 37.55ZM124.15938 34.45625L125.90938 34.175Q126.05 35.221874 126.72188 35.784374Q127.39375 36.33125 128.59688 36.33125Q129.8 36.33125 130.37813 35.846874Q130.97188 35.346874 130.97188 34.690624Q130.97188 34.096874 130.45625 33.753124Q130.09688 33.51875 128.65938 33.159374Q126.72188 32.659374 125.97188 32.315624Q125.2375 31.95625 124.84688 31.33125Q124.45625 30.690624 124.45625 29.925Q124.45625 29.2375 124.76875 28.64375Q125.09688 28.05 125.64375 27.659374Q126.05 27.3625 126.75313 27.159374Q127.47188 26.940624 128.28438 26.940624Q129.50313 26.940624 130.425 27.3Q131.34688 27.64375 131.78438 28.253124Q132.22188 28.846874 132.39375 29.846874L130.675 30.08125Q130.55 29.284374 129.9875 28.846874Q129.425 28.39375 128.40938 28.39375Q127.19063 28.39375 126.675 28.8Q126.15938 29.190624 126.15938 29.721874Q126.15938 30.065624 126.37813 30.346874Q126.58125 30.628124 127.05 30.815624Q127.31563 30.909374 128.59688 31.253124Q130.47188 31.753124 131.20625 32.08125Q131.94063 32.39375 132.3625 33.003124Q132.78438 33.596874 132.78438 34.503124Q132.78438 35.378124 132.26875 36.159374Q131.75313 36.940624 130.78438 37.3625Q129.81563 37.784374 128.59688 37.784374Q126.58125 37.784374 125.51875 36.940624Q124.45625 36.096874 124.15938 34.45625ZM138.70625 35.971874L138.95625 37.534374Q138.22188 37.690624 137.62813 37.690624Q136.675 37.690624 136.14375 37.39375Q135.62813 37.08125 135.40938 36.596874Q135.19063 36.096874 135.19063 34.51875L135.19063 28.55L133.90938 28.55L133.90938 27.175L135.19063 27.175L135.19063 24.6125L136.94063 23.55L136.94063 27.175L138.70625 27.175L138.70625 28.55L136.94063 28.55L136.94063 34.6125Q136.94063 35.3625 137.03438 35.58125Q137.12813 35.784374 137.33125 35.925Q137.55 36.05 137.94063 36.05Q138.22188 36.05 138.70625 35.971874ZM147.64375 36.26875Q146.65938 37.096874 145.75313 37.440624Q144.84688 37.784374 143.81563 37.784374Q142.1125 37.784374 141.19063 36.95625Q140.26875 36.1125 140.26875 34.815624Q140.26875 34.05 140.6125 33.425Q140.97188 32.8 141.53438 32.425Q142.09688 32.034374 142.8 31.83125Q143.31563 31.70625 144.3625 31.565624Q146.4875 31.315624 147.4875 30.971874Q147.50313 30.6125 147.50313 30.503124Q147.50313 29.440624 147.00313 28.9875Q146.33125 28.39375 145.00313 28.39375Q143.75313 28.39375 143.15938 28.83125Q142.58125 29.26875 142.3 30.378124L140.58125 30.14375Q140.81563 29.034374 141.34688 28.3625Q141.87813 27.675 142.89375 27.315624Q143.90938 26.940624 145.25313 26.940624Q146.58125 26.940624 147.40938 27.253124Q148.2375 27.565624 148.62813 28.05Q149.01875 28.51875 149.175 29.2375Q149.26875 29.690624 149.26875 30.8625L149.26875 33.20625Q149.26875 35.659374 149.37813 36.315624Q149.4875 36.95625 149.83125 37.55L147.9875 37.55Q147.72188 37.003124 147.64375 36.26875ZM147.4875 32.346874Q146.53438 32.7375 144.6125 33.003124Q143.53438 33.159374 143.08125 33.3625Q142.64375 33.55 142.39375 33.925Q142.14375 34.3 142.14375 34.76875Q142.14375 35.471874 142.675 35.940624Q143.20625 36.409374 144.2375 36.409374Q145.25313 36.409374 146.03438 35.971874Q146.83125 35.51875 147.20625 34.753124Q147.4875 34.14375 147.4875 32.9875L147.4875 32.346874ZM151.8625 37.55L151.8625 27.175L153.45625 27.175L153.45625 28.659374Q154.59688 26.940624 156.75313 26.940624Q157.69063 26.940624 158.47188 27.284374Q159.26875 27.6125 159.65938 28.159374Q160.05 28.70625 160.20625 29.45625Q160.3 29.95625 160.3 31.175L160.3 37.55L158.53438 37.55L158.53438 31.2375Q158.53438 30.159374 158.33125 29.628124Q158.12813 29.096874 157.59688 28.784374Q157.08125 28.471874 156.37813 28.471874Q155.25313 28.471874 154.44063 29.190624Q153.62813 29.89375 153.62813 31.878124L153.62813 37.55L151.8625 37.55ZM169.59688 37.55L169.59688 36.2375Q168.6125 37.784374 166.69063 37.784374Q165.45625 37.784374 164.40938 37.096874Q163.37813 36.409374 162.8 35.190624Q162.2375 33.971874 162.2375 32.378124Q162.2375 30.815624 162.75313 29.55Q163.26875 28.284374 164.3 27.6125Q165.34688 26.940624 166.6125 26.940624Q167.55 26.940624 168.28438 27.346874Q169.01875 27.7375 169.4875 28.3625L169.4875 23.2375L171.22188 23.2375L171.22188 37.55L169.59688 37.55ZM164.03438 32.378124Q164.03438 34.3625 164.87813 35.346874Q165.72188 36.33125 166.8625 36.33125Q168.01875 36.33125 168.81563 35.39375Q169.62813 34.45625 169.62813 32.51875Q169.62813 30.39375 168.8 29.39375Q167.9875 28.39375 166.78438 28.39375Q165.6125 28.39375 164.81563 29.3625Q164.03438 30.315624 164.03438 32.378124ZM173.87813 25.253124L173.87813 23.2375L175.64375 23.2375L175.64375 25.253124L173.87813 25.253124ZM173.87813 37.55L173.87813 27.175L175.64375 27.175L175.64375 37.55L173.87813 37.55ZM177.8625 37.55L177.8625 27.175L179.45625 27.175L179.45625 28.659374Q180.59688 26.940624 182.75313 26.940624Q183.69063 26.940624 184.47188 27.284374Q185.26875 27.6125 185.65938 28.159374Q186.05 28.70625 186.20625 29.45625Q186.3 29.95625 186.3 31.175L186.3 37.55L184.53438 37.55L184.53438 31.2375Q184.53438 30.159374 184.33125 29.628124Q184.12813 29.096874 183.59688 28.784374Q183.08125 28.471874 182.37813 28.471874Q181.25313 28.471874 180.44063 29.190624Q179.62813 29.89375 179.62813 31.878124L179.62813 37.55L177.8625 37.55ZM188.55 38.409374L190.25313 38.659374Q190.3625 39.45625 190.84688 39.815624Q191.50313 40.3 192.64375 40.3Q193.8625 40.3 194.51875 39.815624Q195.19063 39.33125 195.425 38.45625Q195.56563 37.909374 195.55 36.190624Q194.39375 37.55 192.675 37.55Q190.53438 37.55 189.3625 36.003124Q188.19063 34.45625 188.19063 32.3Q188.19063 30.815624 188.72188 29.565624Q189.26875 28.315624 190.28438 27.628124Q191.31563 26.940624 192.69063 26.940624Q194.51875 26.940624 195.72188 28.425L195.72188 27.175L197.33125 27.175L197.33125 36.14375Q197.33125 38.565624 196.83125 39.565624Q196.34688 40.58125 195.26875 41.159374Q194.20625 41.753124 192.64375 41.753124Q190.8 41.753124 189.64375 40.925Q188.50313 40.096874 188.55 38.409374ZM190.00313 32.175Q190.00313 34.221874 190.81563 35.159374Q191.62813 36.096874 192.84688 36.096874Q194.05 36.096874 194.8625 35.159374Q195.69063 34.221874 195.69063 32.2375Q195.69063 30.33125 194.84688 29.3625Q194.00313 28.39375 192.81563 28.39375Q191.64375 28.39375 190.81563 29.346874Q190.00313 30.3 190.00313 32.175ZM205.22188 32.3625Q205.22188 29.4875 206.81563 28.096874Q208.15938 26.940624 210.08125 26.940624Q212.22188 26.940624 213.56563 28.346874Q214.925 29.753124 214.925 32.221874Q214.925 34.221874 214.33125 35.378124Q213.7375 36.51875 212.58125 37.159374Q211.44063 37.784374 210.08125 37.784374Q207.89375 37.784374 206.55 36.39375Q205.22188 34.9875 205.22188 32.3625ZM207.01875 32.3625Q207.01875 34.3625 207.87813 35.346874Q208.75313 36.33125 210.08125 36.33125Q211.39375 36.33125 212.25313 35.346874Q213.12813 34.346874 213.12813 32.3Q213.12813 30.378124 212.25313 29.39375Q211.37813 28.39375 210.08125 28.39375Q208.75313 28.39375 207.87813 29.39375Q207.01875 30.378124 207.01875 32.3625ZM217.28438 37.55L217.28438 28.55L215.7375 28.55L215.7375 27.175L217.28438 27.175L217.28438 26.08125Q217.28438 25.034374 217.47188 24.51875Q217.72188 23.83125 218.3625 23.409374Q219.00313 22.9875 220.15938 22.9875Q220.90938 22.9875 221.8 23.159374L221.53438 24.690624Q220.9875 24.596874 220.50313 24.596874Q219.70625 24.596874 219.3625 24.940624Q219.03438 25.284374 219.03438 26.221874L219.03438 27.175L221.06563 27.175L221.06563 28.55L219.03438 28.55L219.03438 37.55L217.28438 37.55ZM232.70625 35.971874L232.95625 37.534374Q232.22188 37.690624 231.62813 37.690624Q230.675 37.690624 230.14375 37.39375Q229.62813 37.08125 229.40938 36.596874Q229.19063 36.096874 229.19063 34.51875L229.19063 28.55L227.90938 28.55L227.90938 27.175L229.19063 27.175L229.19063 24.6125L230.94063 23.55L230.94063 27.175L232.70625 27.175L232.70625 28.55L230.94063 28.55L230.94063 34.6125Q230.94063 35.3625 231.03438 35.58125Q231.12813 35.784374 231.33125 35.925Q231.55 36.05 231.94063 36.05Q232.22188 36.05 232.70625 35.971874ZM234.8625 37.55L234.8625 23.2375L236.62813 23.2375L236.62813 28.3625Q237.8625 26.940624 239.7375 26.940624Q240.87813 26.940624 241.72188 27.39375Q242.58125 27.846874 242.94063 28.659374Q243.31563 29.45625 243.31563 30.971874L243.31563 37.55L241.56563 37.55L241.56563 30.971874Q241.56563 29.659374 240.9875 29.065624Q240.40938 28.45625 239.37813 28.45625Q238.59688 28.45625 237.89375 28.8625Q237.20625 29.26875 236.90938 29.971874Q236.62813 30.659374 236.62813 31.878124L236.62813 37.55L234.8625 37.55ZM252.97188 34.20625L254.78438 34.440624Q254.3625 36.01875 253.19063 36.909374Q252.03438 37.784374 250.22188 37.784374Q247.95625 37.784374 246.6125 36.39375Q245.28438 34.9875 245.28438 32.45625Q245.28438 29.83125 246.62813 28.39375Q247.97188 26.940624 250.12813 26.940624Q252.20625 26.940624 253.51875 28.3625Q254.84688 29.76875 254.84688 32.346874Q254.84688 32.503124 254.83125 32.815624L247.09688 32.815624Q247.19063 34.51875 248.06563 35.425Q248.94063 36.33125 250.2375 36.33125Q251.20625 36.33125 251.87813 35.83125Q252.56563 35.315624 252.97188 34.20625ZM247.19063 31.3625L252.9875 31.3625Q252.87813 30.065624 252.33125 29.409374Q251.4875 28.39375 250.14375 28.39375Q248.94063 28.39375 248.1125 29.20625Q247.28438 30.003124 247.19063 31.3625ZM262.55 38.409374L264.2531 38.659374Q264.3625 39.45625 264.84686 39.815624Q265.5031 40.3 266.64374 40.3Q267.8625 40.3 268.51874 39.815624Q269.1906 39.33125 269.425 38.45625Q269.5656 37.909374 269.55 36.190624Q268.39374 37.55 266.675 37.55Q264.53436 37.55 263.3625 36.003124Q262.1906 34.45625 262.1906 32.3Q262.1906 30.815624 262.72186 29.565624Q263.26874 28.315624 264.28436 27.628124Q265.3156 26.940624 266.6906 26.940624Q268.51874 26.940624 269.72186 28.425L269.72186 27.175L271.33124 27.175L271.33124 36.14375Q271.33124 38.565624 270.83124 39.565624Q270.34686 40.58125 269.26874 41.159374Q268.20624 41.753124 266.64374 41.753124Q264.8 41.753124 263.64374 40.925Q262.5031 40.096874 262.55 38.409374ZM264.0031 32.175Q264.0031 34.221874 264.8156 35.159374Q265.6281 36.096874 266.84686 36.096874Q268.05 36.096874 268.8625 35.159374Q269.6906 34.221874 269.6906 32.2375Q269.6906 30.33125 268.84686 29.3625Q268.0031 28.39375 266.8156 28.39375Q265.64374 28.39375 264.8156 29.346874Q264.0031 30.3 264.0031 32.175ZM280.97186 34.20625L282.78436 34.440624Q282.3625 36.01875 281.1906 36.909374Q280.03436 37.784374 278.22186 37.784374Q275.95624 37.784374 274.6125 36.39375Q273.28436 34.9875 273.28436 32.45625Q273.28436 29.83125 274.6281 28.39375Q275.97186 26.940624 278.1281 26.940624Q280.20624 26.940624 281.51874 28.3625Q282.84686 29.76875 282.84686 32.346874Q282.84686 32.503124 282.83124 32.815624L275.09686 32.815624Q275.1906 34.51875 276.0656 35.425Q276.9406 36.33125 278.2375 36.33125Q279.20624 36.33125 279.8781 35.83125Q280.5656 35.315624 280.97186 34.20625ZM275.1906 31.3625L280.9875 31.3625Q280.8781 30.065624 280.33124 29.409374Q279.4875 28.39375 278.14374 28.39375Q276.9406 28.39375 276.1125 29.20625Q275.28436 30.003124 275.1906 31.3625ZM284.8625 37.55L284.8625 27.175L286.45624 27.175L286.45624 28.659374Q287.59686 26.940624 289.7531 26.940624Q290.6906 26.940624 291.47186 27.284374Q292.26874 27.6125 292.65936 28.159374Q293.05 28.70625 293.20624 29.45625Q293.3 29.95625 293.3 31.175L293.3 37.55L291.53436 37.55L291.53436 31.2375Q291.53436 30.159374 291.33124 29.628124Q291.1281 29.096874 290.59686 28.784374Q290.08124 28.471874 289.3781 28.471874Q288.2531 28.471874 287.4406 29.190624Q286.6281 29.89375 286.6281 31.878124L286.6281 37.55L284.8625 37.55ZM302.97186 34.20625L304.78436 34.440624Q304.3625 36.01875 303.1906 36.909374Q302.03436 37.784374 300.22186 37.784374Q297.95624 37.784374 296.6125 36.39375Q295.28436 34.9875 295.28436 32.45625Q295.28436 29.83125 296.6281 28.39375Q297.97186 26.940624 300.1281 26.940624Q302.20624 26.940624 303.51874 28.3625Q304.84686 29.76875 304.84686 32.346874Q304.84686 32.503124 304.83124 32.815624L297.09686 32.815624Q297.1906 34.51875 298.0656 35.425Q298.9406 36.33125 300.2375 36.33125Q301.20624 36.33125 301.8781 35.83125Q302.5656 35.315624 302.97186 34.20625ZM297.1906 31.3625L302.9875 31.3625Q302.8781 30.065624 302.33124 29.409374Q301.4875 28.39375 300.14374 28.39375Q298.9406 28.39375 298.1125 29.20625Q297.28436 30.003124 297.1906 31.3625ZM306.84686 37.55L306.84686 27.175L308.425 27.175L308.425 28.753124Q309.03436 27.64375 309.55 27.3Q310.0656 26.940624 310.675 26.940624Q311.5656 26.940624 312.4875 27.503124L311.8781 29.14375Q311.2375 28.753124 310.59686 28.753124Q310.01874 28.753124 309.55 29.1125Q309.09686 29.45625 308.89374 30.065624Q308.6125 31.003124 308.6125 32.1125L308.6125 37.55L306.84686 37.55ZM320.64374 36.26875Q319.65936 37.096874 318.7531 37.440624Q317.84686 37.784374 316.8156 37.784374Q315.1125 37.784374 314.1906 36.95625Q313.26874 36.1125 313.26874 34.815624Q313.26874 34.05 313.6125 33.425Q313.97186 32.8 314.53436 32.425Q315.09686 32.034374 315.8 31.83125Q316.3156 31.70625 317.3625 31.565624Q319.4875 31.315624 320.4875 30.971874Q320.5031 30.6125 320.5031 30.503124Q320.5031 29.440624 320.0031 28.9875Q319.33124 28.39375 318.0031 28.39375Q316.7531 28.39375 316.15936 28.83125Q315.58124 29.26875 315.3 30.378124L313.58124 30.14375Q313.8156 29.034374 314.34686 28.3625Q314.8781 27.675 315.89374 27.315624Q316.90936 26.940624 318.2531 26.940624Q319.58124 26.940624 320.40936 27.253124Q321.2375 27.565624 321.6281 28.05Q322.01874 28.51875 322.175 29.2375Q322.26874 29.690624 322.26874 30.8625L322.26874 33.20625Q322.26874 35.659374 322.3781 36.315624Q322.4875 36.95625 322.83124 37.55L320.9875 37.55Q320.72186 37.003124 320.64374 36.26875ZM320.4875 32.346874Q319.53436 32.7375 317.6125 33.003124Q316.53436 33.159374 316.08124 33.3625Q315.64374 33.55 315.39374 33.925Q315.14374 34.3 315.14374 34.76875Q315.14374 35.471874 315.675 35.940624Q316.20624 36.409374 317.2375 36.409374Q318.2531 36.409374 319.03436 35.971874Q319.83124 35.51875 320.20624 34.753124Q320.4875 34.14375 320.4875 32.9875L320.4875 32.346874ZM324.83124 37.55L324.83124 23.2375L326.58124 23.2375L326.58124 37.55L324.83124 37.55ZM341.64374 33.753124L343.3625 33.971874Q343.08124 35.76875 341.90936 36.784374Q340.7531 37.784374 339.05 37.784374Q336.925 37.784374 335.6281 36.39375Q334.33124 35.003124 334.33124 32.409374Q334.33124 30.721874 334.8781 29.471874Q335.4406 28.20625 336.58124 27.58125Q337.72186 26.940624 339.0656 26.940624Q340.7531 26.940624 341.8156 27.8Q342.89374 28.659374 343.20624 30.221874L341.4875 30.4875Q341.2531 29.440624 340.6281 28.925Q340.0031 28.39375 339.1281 28.39375Q337.8 28.39375 336.97186 29.346874Q336.14374 30.3 336.14374 32.346874Q336.14374 34.440624 336.9406 35.39375Q337.7375 36.33125 339.03436 36.33125Q340.0656 36.33125 340.7531 35.70625Q341.45624 35.065624 341.64374 33.753124ZM344.22186 32.3625Q344.22186 29.4875 345.8156 28.096874Q347.15936 26.940624 349.08124 26.940624Q351.22186 26.940624 352.5656 28.346874Q353.925 29.753124 353.925 32.221874Q353.925 34.221874 353.33124 35.378124Q352.7375 36.51875 351.58124 37.159374Q350.4406 37.784374 349.08124 37.784374Q346.89374 37.784374 345.55 36.39375Q344.22186 34.9875 344.22186 32.3625ZM346.01874 32.3625Q346.01874 34.3625 346.8781 35.346874Q347.7531 36.33125 349.08124 36.33125Q350.39374 36.33125 351.2531 35.346874Q352.1281 34.346874 352.1281 32.3Q352.1281 30.378124 351.2531 29.39375Q350.3781 28.39375 349.08124 28.39375Q347.7531 28.39375 346.8781 29.39375Q346.01874 30.378124 346.01874 32.3625ZM355.8625 37.55L355.8625 27.175L357.4406 27.175L357.4406 28.628124Q357.925 27.878124 358.7375 27.409374Q359.55 26.940624 360.58124 26.940624Q361.7375 26.940624 362.47186 27.425Q363.20624 27.89375 363.51874 28.753124Q364.7531 26.940624 366.72186 26.940624Q368.26874 26.940624 369.09686 27.8Q369.925 28.659374 369.925 30.425L369.925 37.55L368.175 37.55L368.175 31.01875Q368.175 29.95625 368.0031 29.503124Q367.83124 29.034374 367.3781 28.753124Q366.9406 28.471874 366.33124 28.471874Q365.2375 28.471874 364.5031 29.20625Q363.78436 29.925 363.78436 31.51875L363.78436 37.55L362.03436 37.55L362.03436 30.815624Q362.03436 29.64375 361.59686 29.065624Q361.175 28.471874 360.1906 28.471874Q359.45624 28.471874 358.8156 28.8625Q358.1906 29.253124 357.90936 30.003124Q357.6281 30.753124 357.6281 32.175L357.6281 37.55L355.8625 37.55ZM372.8625 41.51875L372.8625 27.175L374.47186 27.175L374.47186 28.51875Q375.03436 27.7375 375.7375 27.346874Q376.45624 26.940624 377.47186 26.940624Q378.8 26.940624 379.8156 27.628124Q380.83124 28.315624 381.34686 29.565624Q381.8781 30.8 381.8781 32.284374Q381.8781 33.878124 381.3 35.159374Q380.7375 36.425 379.64374 37.1125Q378.55 37.784374 377.34686 37.784374Q376.47186 37.784374 375.76874 37.409374Q375.08124 37.034374 374.6281 36.471874L374.6281 41.51875L372.8625 41.51875ZM374.45624 32.425Q374.45624 34.425 375.26874 35.378124Q376.08124 36.33125 377.2375 36.33125Q378.40936 36.33125 379.2375 35.346874Q380.08124 34.3625 380.08124 32.26875Q380.08124 30.3 379.2531 29.315624Q378.4406 28.315624 377.3156 28.315624Q376.1906 28.315624 375.3156 29.378124Q374.45624 30.425 374.45624 32.425ZM390.65936 37.55L390.65936 36.01875Q389.45624 37.784374 387.3781 37.784374Q386.45624 37.784374 385.65936 37.440624Q384.8625 37.08125 384.47186 36.55Q384.09686 36.01875 383.9406 35.2375Q383.83124 34.721874 383.83124 33.596874L383.83124 27.175L385.58124 27.175L385.58124 32.925Q385.58124 34.3 385.6906 34.784374Q385.8625 35.471874 386.39374 35.878124Q386.9406 36.26875 387.72186 36.26875Q388.51874 36.26875 389.20624 35.8625Q389.90936 35.45625 390.1906 34.76875Q390.4875 34.065624 390.4875 32.7375L390.4875 27.175L392.2375 27.175L392.2375 37.55L390.65936 37.55ZM398.70624 35.971874L398.95624 37.534374Q398.22186 37.690624 397.6281 37.690624Q396.675 37.690624 396.14374 37.39375Q395.6281 37.08125 395.40936 36.596874Q395.1906 36.096874 395.1906 34.51875L395.1906 28.55L393.90936 28.55L393.90936 27.175L395.1906 27.175L395.1906 24.6125L396.9406 23.55L396.9406 27.175L398.70624 27.175L398.70624 28.55L396.9406 28.55L396.9406 34.6125Q396.9406 35.3625 397.03436 35.58125Q397.1281 35.784374 397.33124 35.925Q397.55 36.05 397.9406 36.05Q398.22186 36.05 398.70624 35.971874ZM407.64374 36.26875Q406.65936 37.096874 405.7531 37.440624Q404.84686 37.784374 403.8156 37.784374Q402.1125 37.784374 401.1906 36.95625Q400.26874 36.1125 400.26874 34.815624Q400.26874 34.05 400.6125 33.425Q400.97186 32.8 401.53436 32.425Q402.09686 32.034374 402.8 31.83125Q403.3156 31.70625 404.3625 31.565624Q406.4875 31.315624 407.4875 30.971874Q407.5031 30.6125 407.5031 30.503124Q407.5031 29.440624 407.0031 28.9875Q406.33124 28.39375 405.0031 28.39375Q403.7531 28.39375 403.15936 28.83125Q402.58124 29.26875 402.3 30.378124L400.58124 30.14375Q400.8156 29.034374 401.34686 28.3625Q401.8781 27.675 402.89374 27.315624Q403.90936 26.940624 405.2531 26.940624Q406.58124 26.940624 407.40936 27.253124Q408.2375 27.565624 408.6281 28.05Q409.01874 28.51875 409.175 29.2375Q409.26874 29.690624 409.26874 30.8625L409.26874 33.20625Q409.26874 35.659374 409.3781 36.315624Q409.4875 36.95625 409.83124 37.55L407.9875 37.55Q407.72186 37.003124 407.64374 36.26875ZM407.4875 32.346874Q406.53436 32.7375 404.6125 33.003124Q403.53436 33.159374 403.08124 33.3625Q402.64374 33.55 402.39374 33.925Q402.14374 34.3 402.14374 34.76875Q402.14374 35.471874 402.675 35.940624Q403.20624 36.409374 404.2375 36.409374Q405.2531 36.409374 406.03436 35.971874Q406.83124 35.51875 407.20624 34.753124Q407.4875 34.14375 407.4875 32.9875L407.4875 32.346874ZM415.70624 35.971874L415.95624 37.534374Q415.22186 37.690624 414.6281 37.690624Q413.675 37.690624 413.14374 37.39375Q412.6281 37.08125 412.40936 36.596874Q412.1906 36.096874 412.1906 34.51875L412.1906 28.55L410.90936 28.55L410.90936 27.175L412.1906 27.175L412.1906 24.6125L413.9406 23.55L413.9406 27.175L415.70624 27.175L415.70624 28.55L413.9406 28.55L413.9406 34.6125Q413.9406 35.3625 414.03436 35.58125Q414.1281 35.784374 414.33124 35.925Q414.55 36.05 414.9406 36.05Q415.22186 36.05 415.70624 35.971874ZM417.8781 25.253124L417.8781 23.2375L419.64374 23.2375L419.64374 25.253124L417.8781 25.253124ZM417.8781 37.55L417.8781 27.175L419.64374 27.175L419.64374 37.55L417.8781 37.55ZM421.22186 32.3625Q421.22186 29.4875 422.8156 28.096874Q424.15936 26.940624 426.08124 26.940624Q428.22186 26.940624 429.5656 28.346874Q430.925 29.753124 430.925 32.221874Q430.925 34.221874 430.33124 35.378124Q429.7375 36.51875 428.58124 37.159374Q427.4406 37.784374 426.08124 37.784374Q423.89374 37.784374 422.55 36.39375Q421.22186 34.9875 421.22186 32.3625ZM423.01874 32.3625Q423.01874 34.3625 423.8781 35.346874Q424.7531 36.33125 426.08124 36.33125Q427.39374 36.33125 428.2531 35.346874Q429.1281 34.346874 429.1281 32.3Q429.1281 30.378124 428.2531 29.39375Q427.3781 28.39375 426.08124 28.39375Q424.7531 28.39375 423.8781 29.39375Q423.01874 30.378124 423.01874 32.3625ZM432.8625 37.55L432.8625 27.175L434.45624 27.175L434.45624 28.659374Q435.59686 26.940624 437.7531 26.940624Q438.6906 26.940624 439.47186 27.284374Q440.26874 27.6125 440.65936 28.159374Q441.05 28.70625 441.20624 29.45625Q441.3 29.95625 441.3 31.175L441.3 37.55L439.53436 37.55L439.53436 31.2375Q439.53436 30.159374 439.33124 29.628124Q439.1281 29.096874 438.59686 28.784374Q438.08124 28.471874 437.3781 28.471874Q436.2531 28.471874 435.4406 29.190624Q434.6281 29.89375 434.6281 31.878124L434.6281 37.55L432.8625 37.55ZM450.64374 36.26875Q449.65936 37.096874 448.7531 37.440624Q447.84686 37.784374 446.8156 37.784374Q445.1125 37.784374 444.1906 36.95625Q443.26874 36.1125 443.26874 34.815624Q443.26874 34.05 443.6125 33.425Q443.97186 32.8 444.53436 32.425Q445.09686 32.034374 445.8 31.83125Q446.3156 31.70625 447.3625 31.565624Q449.4875 31.315624 450.4875 30.971874Q450.5031 30.6125 450.5031 30.503124Q450.5031 29.440624 450.0031 28.9875Q449.33124 28.39375 448.0031 28.39375Q446.7531 28.39375 446.15936 28.83125Q445.58124 29.26875 445.3 30.378124L443.58124 30.14375Q443.8156 29.034374 444.34686 28.3625Q444.8781 27.675 445.89374 27.315624Q446.90936 26.940624 448.2531 26.940624Q449.58124 26.940624 450.40936 27.253124Q451.2375 27.565624 451.6281 28.05Q452.01874 28.51875 452.175 29.2375Q452.26874 29.690624 452.26874 30.8625L452.26874 33.20625Q452.26874 35.659374 452.3781 36.315624Q452.4875 36.95625 452.83124 37.55L450.9875 37.55Q450.72186 37.003124 450.64374 36.26875ZM450.4875 32.346874Q449.53436 32.7375 447.6125 33.003124Q446.53436 33.159374 446.08124 33.3625Q445.64374 33.55 445.39374 33.925Q445.14374 34.3 445.14374 34.76875Q445.14374 35.471874 445.675 35.940624Q446.20624 36.409374 447.2375 36.409374Q448.2531 36.409374 449.03436 35.971874Q449.83124 35.51875 450.20624 34.753124Q450.4875 34.14375 450.4875 32.9875L450.4875 32.346874ZM454.83124 37.55L454.83124 23.2375L456.58124 23.2375L456.58124 37.55L454.83124 37.55ZM471.64374 36.26875Q470.65936 37.096874 469.7531 37.440624Q468.84686 37.784374 467.8156 37.784374Q466.1125 37.784374 465.1906 36.95625Q464.26874 36.1125 464.26874 34.815624Q464.26874 34.05 464.6125 33.425Q464.97186 32.8 465.53436 32.425Q466.09686 32.034374 466.8 31.83125Q467.3156 31.70625 468.3625 31.565624Q470.4875 31.315624 471.4875 30.971874Q471.5031 30.6125 471.5031 30.503124Q471.5031 29.440624 471.0031 28.9875Q470.33124 28.39375 469.0031 28.39375Q467.7531 28.39375 467.15936 28.83125Q466.58124 29.26875 466.3 30.378124L464.58124 30.14375Q464.8156 29.034374 465.34686 28.3625Q465.8781 27.675 466.89374 27.315624Q467.90936 26.940624 469.2531 26.940624Q470.58124 26.940624 471.40936 27.253124Q472.2375 27.565624 472.6281 28.05Q473.01874 28.51875 473.175 29.2375Q473.26874 29.690624 473.26874 30.8625L473.26874 33.20625Q473.26874 35.659374 473.3781 36.315624Q473.4875 36.95625 473.83124 37.55L471.9875 37.55Q471.72186 37.003124 471.64374 36.26875ZM471.4875 32.346874Q470.53436 32.7375 468.6125 33.003124Q467.53436 33.159374 467.08124 33.3625Q466.64374 33.55 466.39374 33.925Q466.14374 34.3 466.14374 34.76875Q466.14374 35.471874 466.675 35.940624Q467.20624 36.409374 468.2375 36.409374Q469.2531 36.409374 470.03436 35.971874Q470.83124 35.51875 471.20624 34.753124Q471.4875 34.14375 471.4875 32.9875L471.4875 32.346874ZM475.15936 34.45625L476.90936 34.175Q477.05 35.221874 477.72186 35.784374Q478.39374 36.33125 479.59686 36.33125Q480.8 36.33125 481.3781 35.846874Q481.97186 35.346874 481.97186 34.690624Q481.97186 34.096874 481.45624 33.753124Q481.09686 33.51875 479.65936 33.159374Q477.72186 32.659374 476.97186 32.315624Q476.2375 31.95625 475.84686 31.33125Q475.45624 30.690624 475.45624 29.925Q475.45624 29.2375 475.76874 28.64375Q476.09686 28.05 476.64374 27.659374Q477.05 27.3625 477.7531 27.159374Q478.47186 26.940624 479.28436 26.940624Q480.5031 26.940624 481.425 27.3Q482.34686 27.64375 482.78436 28.253124Q483.22186 28.846874 483.39374 29.846874L481.675 30.08125Q481.55 29.284374 480.9875 28.846874Q480.425 28.39375 479.40936 28.39375Q478.1906 28.39375 477.675 28.8Q477.15936 29.190624 477.15936 29.721874Q477.15936 30.065624 477.3781 30.346874Q477.58124 30.628124 478.05 30.815624Q478.3156 30.909374 479.59686 31.253124Q481.47186 31.753124 482.20624 32.08125Q482.9406 32.39375 483.3625 33.003124Q483.78436 33.596874 483.78436 34.503124Q483.78436 35.378124 483.26874 36.159374Q482.7531 36.940624 481.78436 37.3625Q480.8156 37.784374 479.59686 37.784374Q477.58124 37.784374 476.51874 36.940624Q475.45624 36.096874 475.15936 34.45625ZM485.8625 41.51875L485.8625 27.175L487.47186 27.175L487.47186 28.51875Q488.03436 27.7375 488.7375 27.346874Q489.45624 26.940624 490.47186 26.940624Q491.8 26.940624 492.8156 27.628124Q493.83124 28.315624 494.34686 29.565624Q494.8781 30.8 494.8781 32.284374Q494.8781 33.878124 494.3 35.159374Q493.7375 36.425 492.64374 37.1125Q491.55 37.784374 490.34686 37.784374Q489.47186 37.784374 488.76874 37.409374Q488.08124 37.034374 487.6281 36.471874L487.6281 41.51875L485.8625 41.51875ZM487.45624 32.425Q487.45624 34.425 488.26874 35.378124Q489.08124 36.33125 490.2375 36.33125Q491.40936 36.33125 492.2375 35.346874Q493.08124 34.3625 493.08124 32.26875Q493.08124 30.3 492.2531 29.315624Q491.4406 28.315624 490.3156 28.315624Q489.1906 28.315624 488.3156 29.378124Q487.45624 30.425 487.45624 32.425ZM503.97186 34.20625L505.78436 34.440624Q505.3625 36.01875 504.1906 36.909374Q503.03436 37.784374 501.22186 37.784374Q498.95624 37.784374 497.6125 36.39375Q496.28436 34.9875 496.28436 32.45625Q496.28436 29.83125 497.6281 28.39375Q498.97186 26.940624 501.1281 26.940624Q503.20624 26.940624 504.51874 28.3625Q505.84686 29.76875 505.84686 32.346874Q505.84686 32.503124 505.83124 32.815624L498.09686 32.815624Q498.1906 34.51875 499.0656 35.425Q499.9406 36.33125 501.2375 36.33125Q502.20624 36.33125 502.8781 35.83125Q503.5656 35.315624 503.97186 34.20625ZM498.1906 31.3625L503.9875 31.3625Q503.8781 30.065624 503.33124 29.409374Q502.4875 28.39375 501.14374 28.39375Q499.9406 28.39375 499.1125 29.20625Q498.28436 30.003124 498.1906 31.3625ZM514.64374 33.753124L516.3625 33.971874Q516.08124 35.76875 514.90936 36.784374Q513.7531 37.784374 512.05 37.784374Q509.925 37.784374 508.6281 36.39375Q507.33124 35.003124 507.33124 32.409374Q507.33124 30.721874 507.8781 29.471874Q508.4406 28.20625 509.58124 27.58125Q510.72186 26.940624 512.0656 26.940624Q513.7531 26.940624 514.8156 27.8Q515.89374 28.659374 516.20624 30.221874L514.4875 30.4875Q514.2531 29.440624 513.6281 28.925Q513.0031 28.39375 512.1281 28.39375Q510.8 28.39375 509.97186 29.346874Q509.14374 30.3 509.14374 32.346874Q509.14374 34.440624 509.9406 35.39375Q510.7375 36.33125 512.03436 36.33125Q513.0656 36.33125 513.7531 35.70625Q514.45624 35.065624 514.64374 33.753124ZM521.70624 35.971874L521.95624 37.534374Q521.22186 37.690624 520.6281 37.690624Q519.675 37.690624 519.14374 37.39375Q518.6281 37.08125 518.40936 36.596874Q518.1906 36.096874 518.1906 34.51875L518.1906 28.55L516.90936 28.55L516.90936 27.175L518.1906 27.175L518.1906 24.6125L519.9406 23.55L519.9406 27.175L521.70624 27.175L521.70624 28.55L519.9406 28.55L519.9406 34.6125Q519.9406 35.3625 520.03436 35.58125Q520.1281 35.784374 520.33124 35.925Q520.55 36.05 520.9406 36.05Q521.22186 36.05 521.70624 35.971874ZM523.15936 34.45625L524.90936 34.175Q525.05 35.221874 525.72186 35.784374Q526.39374 36.33125 527.59686 36.33125Q528.8 36.33125 529.3781 35.846874Q529.97186 35.346874 529.97186 34.690624Q529.97186 34.096874 529.45624 33.753124Q529.09686 33.51875 527.65936 33.159374Q525.72186 32.659374 524.97186 32.315624Q524.2375 31.95625 523.84686 31.33125Q523.45624 30.690624 523.45624 29.925Q523.45624 29.2375 523.76874 28.64375Q524.09686 28.05 524.64374 27.659374Q525.05 27.3625 525.7531 27.159374Q526.47186 26.940624 527.28436 26.940624Q528.5031 26.940624 529.425 27.3Q530.34686 27.64375 530.78436 28.253124Q531.22186 28.846874 531.39374 29.846874L529.675 30.08125Q529.55 29.284374 528.9875 28.846874Q528.425 28.39375 527.40936 28.39375Q526.1906 28.39375 525.675 28.8Q525.15936 29.190624 525.15936 29.721874Q525.15936 30.065624 525.3781 30.346874Q525.58124 30.628124 526.05 30.815624Q526.3156 30.909374 527.59686 31.253124Q529.47186 31.753124 530.20624 32.08125Q530.9406 32.39375 531.3625 33.003124Q531.78436 33.596874 531.78436 34.503124Q531.78436 35.378124 531.26874 36.159374Q530.7531 36.940624 529.78436 37.3625Q528.8156 37.784374 527.59686 37.784374Q525.58124 37.784374 524.51874 36.940624Q523.45624 36.096874 523.15936 34.45625ZM539.22186 32.3625Q539.22186 29.4875 540.8156 28.096874Q542.15936 26.940624 544.08124 26.940624Q546.22186 26.940624 547.5656 28.346874Q548.925 29.753124 548.925 32.221874Q548.925 34.221874 548.33124 35.378124Q547.7375 36.51875 546.58124 37.159374Q545.4406 37.784374 544.08124 37.784374Q541.89374 37.784374 540.55 36.39375Q539.22186 34.9875 539.22186 32.3625ZM541.01874 32.3625Q541.01874 34.3625 541.8781 35.346874Q542.7531 36.33125 544.08124 36.33125Q545.39374 36.33125 546.2531 35.346874Q547.1281 34.346874 547.1281 32.3Q547.1281 30.378124 546.2531 29.39375Q545.3781 28.39375 544.08124 28.39375Q542.7531 28.39375 541.8781 29.39375Q541.01874 30.378124 541.01874 32.3625ZM551.28436 37.55L551.28436 28.55L549.7375 28.55L549.7375 27.175L551.28436 27.175L551.28436 26.08125Q551.28436 25.034374 551.47186 24.51875Q551.72186 23.83125 552.3625 23.409374Q553.0031 22.9875 554.15936 22.9875Q554.90936 22.9875 555.8 23.159374L555.53436 24.690624Q554.9875 24.596874 554.5031 24.596874Q553.70624 24.596874 553.3625 24.940624Q553.03436 25.284374 553.03436 26.221874L553.03436 27.175L555.0656 27.175L555.0656 28.55L553.03436 28.55L553.03436 37.55L551.28436 37.55ZM569.64374 36.26875Q568.65936 37.096874 567.7531 37.440624Q566.84686 37.784374 565.8156 37.784374Q564.1125 37.784374 563.1906 36.95625Q562.26874 36.1125 562.26874 34.815624Q562.26874 34.05 562.6125 33.425Q562.97186 32.8 563.53436 32.425Q564.09686 32.034374 564.8 31.83125Q565.3156 31.70625 566.3625 31.565624Q568.4875 31.315624 569.4875 30.971874Q569.5031 30.6125 569.5031 30.503124Q569.5031 29.440624 569.0031 28.9875Q568.33124 28.39375 567.0031 28.39375Q565.7531 28.39375 565.15936 28.83125Q564.58124 29.26875 564.3 30.378124L562.58124 30.14375Q562.8156 29.034374 563.34686 28.3625Q563.8781 27.675 564.89374 27.315624Q565.90936 26.940624 567.2531 26.940624Q568.58124 26.940624 569.40936 27.253124Q570.2375 27.565624 570.6281 28.05Q571.01874 28.51875 571.175 29.2375Q571.26874 29.690624 571.26874 30.8625L571.26874 33.20625Q571.26874 35.659374 571.3781 36.315624Q571.4875 36.95625 571.83124 37.55L569.9875 37.55Q569.72186 37.003124 569.64374 36.26875ZM569.4875 32.346874Q568.53436 32.7375 566.6125 33.003124Q565.53436 33.159374 565.08124 33.3625Q564.64374 33.55 564.39374 33.925Q564.14374 34.3 564.14374 34.76875Q564.14374 35.471874 564.675 35.940624Q565.20624 36.409374 566.2375 36.409374Q567.2531 36.409374 568.03436 35.971874Q568.83124 35.51875 569.20624 34.753124Q569.4875 34.14375 569.4875 32.9875L569.4875 32.346874Z" fill-rule="nonzero"/><path fill="#757575" d="M26.64375 57.753124L28.3625 57.971874Q28.08125 59.76875 26.909374 60.784374Q25.753124 61.784374 24.05 61.784374Q21.925 61.784374 20.628124 60.39375Q19.33125 59.003124 19.33125 56.409374Q19.33125 54.721874 19.878124 53.471874Q20.440624 52.20625 21.58125 51.58125Q22.721874 50.940624 24.065624 50.940624Q25.753124 50.940624 26.815624 51.8Q27.89375 52.659374 28.20625 54.221874L26.4875 54.4875Q26.253124 53.440624 25.628124 52.925Q25.003124 52.39375 24.128124 52.39375Q22.8 52.39375 21.971874 53.346874Q21.14375 54.3 21.14375 56.346874Q21.14375 58.440624 21.940624 59.39375Q22.7375 60.33125 24.034374 60.33125Q25.065624 60.33125 25.753124 59.70625Q26.45625 59.065624 26.64375 57.753124ZM29.83125 61.55L29.83125 47.2375L31.58125 47.2375L31.58125 61.55L29.83125 61.55ZM33.878124 49.253124L33.878124 47.2375L35.64375 47.2375L35.64375 49.253124L33.878124 49.253124ZM33.878124 61.55L33.878124 51.175L35.64375 51.175L35.64375 61.55L33.878124 61.55ZM37.8625 61.55L37.8625 51.175L39.440624 51.175L39.440624 52.628124Q39.925 51.878124 40.7375 51.409374Q41.55 50.940624 42.58125 50.940624Q43.7375 50.940624 44.471874 51.425Q45.20625 51.89375 45.51875 52.753124Q46.753124 50.940624 48.721874 50.940624Q50.26875 50.940624 51.096874 51.8Q51.925 52.659374 51.925 54.425L51.925 61.55L50.175 61.55L50.175 55.01875Q50.175 53.95625 50.003124 53.503124Q49.83125 53.034374 49.378124 52.753124Q48.940624 52.471874 48.33125 52.471874Q47.2375 52.471874 46.503124 53.20625Q45.784374 53.925 45.784374 55.51875L45.784374 61.55L44.034374 61.55L44.034374 54.815624Q44.034374 53.64375 43.596874 53.065624Q43.175 52.471874 42.190624 52.471874Q41.45625 52.471874 40.815624 52.8625Q40.190624 53.253124 39.909374 54.003124Q39.628124 54.753124 39.628124 56.175L39.628124 61.55L37.8625 61.55ZM61.64375 60.26875Q60.659374 61.096874 59.753124 61.440624Q58.846874 61.784374 57.815624 61.784374Q56.1125 61.784374 55.190624 60.95625Q54.26875 60.1125 54.26875 58.815624Q54.26875 58.05 54.6125 57.425Q54.971874 56.8 55.534374 56.425Q56.096874 56.034374 56.8 55.83125Q57.315624 55.70625 58.3625 55.565624Q60.4875 55.315624 61.4875 54.971874Q61.503124 54.6125 61.503124 54.503124Q61.503124 53.440624 61.003124 52.9875Q60.33125 52.39375 59.003124 52.39375Q57.753124 52.39375 57.159374 52.83125Q56.58125 53.26875 56.3 54.378124L54.58125 54.14375Q54.815624 53.034374 55.346874 52.3625Q55.878124 51.675 56.89375 51.315624Q57.909374 50.940624 59.253124 50.940624Q60.58125 50.940624 61.409374 51.253124Q62.2375 51.565624 62.628124 52.05Q63.01875 52.51875 63.175 53.2375Q63.26875 53.690624 63.26875 54.8625L63.26875 57.20625Q63.26875 59.659374 63.378124 60.315624Q63.4875 60.95625 63.83125 61.55L61.9875 61.55Q61.721874 61.003124 61.64375 60.26875ZM61.4875 56.346874Q60.534374 56.7375 58.6125 57.003124Q57.534374 57.159374 57.08125 57.3625Q56.64375 57.55 56.39375 57.925Q56.14375 58.3 56.14375 58.76875Q56.14375 59.471874 56.675 59.940624Q57.20625 60.409374 58.2375 60.409374Q59.253124 60.409374 60.034374 59.971874Q60.83125 59.51875 61.20625 58.753124Q61.4875 58.14375 61.4875 56.9875L61.4875 56.346874ZM69.70625 59.971874L69.95625 61.534374Q69.22188 61.690624 68.62813 61.690624Q67.675 61.690624 67.14375 61.39375Q66.62813 61.08125 66.40938 60.596874Q66.19063 60.096874 66.19063 58.51875L66.19063 52.55L64.90938 52.55L64.90938 51.175L66.19063 51.175L66.19063 48.6125L67.94063 47.55L67.94063 51.175L69.70625 51.175L69.70625 52.55L67.94063 52.55L67.94063 58.6125Q67.94063 59.3625 68.03438 59.58125Q68.12813 59.784374 68.33125 59.925Q68.55 60.05 68.94063 60.05Q69.22188 60.05 69.70625 59.971874ZM78.97188 58.20625L80.78438 58.440624Q80.3625 60.01875 79.19063 60.909374Q78.03438 61.784374 76.22188 61.784374Q73.95625 61.784374 72.6125 60.39375Q71.28438 58.9875 71.28438 56.45625Q71.28438 53.83125 72.62813 52.39375Q73.97188 50.940624 76.12813 50.940624Q78.20625 50.940624 79.51875 52.3625Q80.84688 53.76875 80.84688 56.346874Q80.84688 56.503124 80.83125 56.815624L73.09688 56.815624Q73.19063 58.51875 74.06563 59.425Q74.94063 60.33125 76.2375 60.33125Q77.20625 60.33125 77.87813 59.83125Q78.56563 59.315624 78.97188 58.20625ZM73.19063 55.3625L78.9875 55.3625Q78.87813 54.065624 78.33125 53.409374Q77.4875 52.39375 76.14375 52.39375Q74.94063 52.39375 74.1125 53.20625Q73.28438 54.003124 73.19063 55.3625ZM81.55 61.8L85.70625 46.9875L87.1125 46.9875L82.97188 61.8L81.55 61.8ZM90.78438 61.55L87.6125 51.175L89.425 51.175L91.08125 57.159374L91.69063 59.39375Q91.7375 59.221874 92.22188 57.253124L93.87813 51.175L95.69063 51.175L97.2375 57.190624L97.75313 59.175L98.34688 57.175L100.12813 51.175L101.83125 51.175L98.59688 61.55L96.76875 61.55L95.1125 55.33125L94.72188 53.565624L92.6125 61.55L90.78438 61.55ZM109.97188 58.20625L111.78438 58.440624Q111.3625 60.01875 110.19063 60.909374Q109.03438 61.784374 107.22188 61.784374Q104.95625 61.784374 103.6125 60.39375Q102.28438 58.9875 102.28438 56.45625Q102.28438 53.83125 103.62813 52.39375Q104.97188 50.940624 107.12813 50.940624Q109.20625 50.940624 110.51875 52.3625Q111.84688 53.76875 111.84688 56.346874Q111.84688 56.503124 111.83125 56.815624L104.09688 56.815624Q104.19063 58.51875 105.06563 59.425Q105.94063 60.33125 107.2375 60.33125Q108.20625 60.33125 108.87813 59.83125Q109.56563 59.315624 109.97188 58.20625ZM104.19063 55.3625L109.9875 55.3625Q109.87813 54.065624 109.33125 53.409374Q108.4875 52.39375 107.14375 52.39375Q105.94063 52.39375 105.1125 53.20625Q104.28438 54.003124 104.19063 55.3625ZM120.64375 60.26875Q119.65938 61.096874 118.75313 61.440624Q117.84688 61.784374 116.81563 61.784374Q115.1125 61.784374 114.19063 60.95625Q113.26875 60.1125 113.26875 58.815624Q113.26875 58.05 113.6125 57.425Q113.97188 56.8 114.53438 56.425Q115.09688 56.034374 115.8 55.83125Q116.31563 55.70625 117.3625 55.565624Q119.4875 55.315624 120.4875 54.971874Q120.50313 54.6125 120.50313 54.503124Q120.50313 53.440624 120.00313 52.9875Q119.33125 52.39375 118.00313 52.39375Q116.75313 52.39375 116.15938 52.83125Q115.58125 53.26875 115.3 54.378124L113.58125 54.14375Q113.81563 53.034374 114.34688 52.3625Q114.87813 51.675 115.89375 51.315624Q116.90938 50.940624 118.25313 50.940624Q119.58125 50.940624 120.40938 51.253124Q121.2375 51.565624 121.62813 52.05Q122.01875 52.51875 122.175 53.2375Q122.26875 53.690624 122.26875 54.8625L122.26875 57.20625Q122.26875 59.659374 122.37813 60.315624Q122.4875 60.95625 122.83125 61.55L120.9875 61.55Q120.72188 61.003124 120.64375 60.26875ZM120.4875 56.346874Q119.53438 56.7375 117.6125 57.003124Q116.53438 57.159374 116.08125 57.3625Q115.64375 57.55 115.39375 57.925Q115.14375 58.3 115.14375 58.76875Q115.14375 59.471874 115.675 59.940624Q116.20625 60.409374 117.2375 60.409374Q118.25313 60.409374 119.03438 59.971874Q119.83125 59.51875 120.20625 58.753124Q120.4875 58.14375 120.4875 56.9875L120.4875 56.346874ZM128.70625 59.971874L128.95625 61.534374Q128.22188 61.690624 127.62813 61.690624Q126.675 61.690624 126.14375 61.39375Q125.62813 61.08125 125.40938 60.596874Q125.19063 60.096874 125.19063 58.51875L125.19063 52.55L123.90938 52.55L123.90938 51.175L125.19063 51.175L125.19063 48.6125L126.94063 47.55L126.94063 51.175L128.70625 51.175L128.70625 52.55L126.94063 52.55L126.94063 58.6125Q126.94063 59.3625 127.03438 59.58125Q127.12813 59.784374 127.33125 59.925Q127.55 60.05 127.94063 60.05Q128.22188 60.05 128.70625 59.971874ZM130.8625 61.55L130.8625 47.2375L132.62813 47.2375L132.62813 52.3625Q133.8625 50.940624 135.7375 50.940624Q136.87813 50.940624 137.72188 51.39375Q138.58125 51.846874 138.94063 52.659374Q139.31563 53.45625 139.31563 54.971874L139.31563 61.55L137.56563 61.55L137.56563 54.971874Q137.56563 53.659374 136.9875 53.065624Q136.40938 52.45625 135.37813 52.45625Q134.59688 52.45625 133.89375 52.8625Q133.20625 53.26875 132.90938 53.971874Q132.62813 54.659374 132.62813 55.878124L132.62813 61.55L130.8625 61.55ZM148.97188 58.20625L150.78438 58.440624Q150.3625 60.01875 149.19063 60.909374Q148.03438 61.784374 146.22188 61.784374Q143.95625 61.784374 142.6125 60.39375Q141.28438 58.9875 141.28438 56.45625Q141.28438 53.83125 142.62813 52.39375Q143.97188 50.940624 146.12813 50.940624Q148.20625 50.940624 149.51875 52.3625Q150.84688 53.76875 150.84688 56.346874Q150.84688 56.503124 150.83125 56.815624L143.09688 56.815624Q143.19063 58.51875 144.06563 59.425Q144.94063 60.33125 146.2375 60.33125Q147.20625 60.33125 147.87813 59.83125Q148.56563 59.315624 148.97188 58.20625ZM143.19063 55.3625L148.9875 55.3625Q148.87813 54.065624 148.33125 53.409374Q147.4875 52.39375 146.14375 52.39375Q144.94063 52.39375 144.1125 53.20625Q143.28438 54.003124 143.19063 55.3625ZM152.84688 61.55L152.84688 51.175L154.425 51.175L154.425 52.753124Q155.03438 51.64375 155.55 51.3Q156.06563 50.940624 156.675 50.940624Q157.56563 50.940624 158.4875 51.503124L157.87813 53.14375Q157.2375 52.753124 156.59688 52.753124Q156.01875 52.753124 155.55 53.1125Q155.09688 53.45625 154.89375 54.065624Q154.6125 55.003124 154.6125 56.1125L154.6125 61.55L152.84688 61.55ZM165.8625 61.55L165.8625 51.175L167.44063 51.175L167.44063 52.628124Q167.925 51.878124 168.7375 51.409374Q169.55 50.940624 170.58125 50.940624Q171.7375 50.940624 172.47188 51.425Q173.20625 51.89375 173.51875 52.753124Q174.75313 50.940624 176.72188 50.940624Q178.26875 50.940624 179.09688 51.8Q179.925 52.659374 179.925 54.425L179.925 61.55L178.175 61.55L178.175 55.01875Q178.175 53.95625 178.00313 53.503124Q177.83125 53.034374 177.37813 52.753124Q176.94063 52.471874 176.33125 52.471874Q175.2375 52.471874 174.50313 53.20625Q173.78438 53.925 173.78438 55.51875L173.78438 61.55L172.03438 61.55L172.03438 54.815624Q172.03438 53.64375 171.59688 53.065624Q171.175 52.471874 170.19063 52.471874Q169.45625 52.471874 168.81563 52.8625Q168.19063 53.253124 167.90938 54.003124Q167.62813 54.753124 167.62813 56.175L167.62813 61.55L165.8625 61.55ZM182.22188 56.3625Q182.22188 53.4875 183.81563 52.096874Q185.15938 50.940624 187.08125 50.940624Q189.22188 50.940624 190.56563 52.346874Q191.925 53.753124 191.925 56.221874Q191.925 58.221874 191.33125 59.378124Q190.7375 60.51875 189.58125 61.159374Q188.44063 61.784374 187.08125 61.784374Q184.89375 61.784374 183.55 60.39375Q182.22188 58.9875 182.22188 56.3625ZM184.01875 56.3625Q184.01875 58.3625 184.87813 59.346874Q185.75313 60.33125 187.08125 60.33125Q188.39375 60.33125 189.25313 59.346874Q190.12813 58.346874 190.12813 56.3Q190.12813 54.378124 189.25313 53.39375Q188.37813 52.39375 187.08125 52.39375Q185.75313 52.39375 184.87813 53.39375Q184.01875 54.378124 184.01875 56.3625ZM200.59688 61.55L200.59688 60.2375Q199.6125 61.784374 197.69063 61.784374Q196.45625 61.784374 195.40938 61.096874Q194.37813 60.409374 193.8 59.190624Q193.2375 57.971874 193.2375 56.378124Q193.2375 54.815624 193.75313 53.55Q194.26875 52.284374 195.3 51.6125Q196.34688 50.940624 197.6125 50.940624Q198.55 50.940624 199.28438 51.346874Q200.01875 51.7375 200.4875 52.3625L200.4875 47.2375L202.22188 47.2375L202.22188 61.55L200.59688 61.55ZM195.03438 56.378124Q195.03438 58.3625 195.87813 59.346874Q196.72188 60.33125 197.8625 60.33125Q199.01875 60.33125 199.81563 59.39375Q200.62813 58.45625 200.62813 56.51875Q200.62813 54.39375 199.8 53.39375Q198.9875 52.39375 197.78438 52.39375Q196.6125 52.39375 195.81563 53.3625Q195.03438 54.315624 195.03438 56.378124ZM211.97188 58.20625L213.78438 58.440624Q213.3625 60.01875 212.19063 60.909374Q211.03438 61.784374 209.22188 61.784374Q206.95625 61.784374 205.6125 60.39375Q204.28438 58.9875 204.28438 56.45625Q204.28438 53.83125 205.62813 52.39375Q206.97188 50.940624 209.12813 50.940624Q211.20625 50.940624 212.51875 52.3625Q213.84688 53.76875 213.84688 56.346874Q213.84688 56.503124 213.83125 56.815624L206.09688 56.815624Q206.19063 58.51875 207.06563 59.425Q207.94063 60.33125 209.2375 60.33125Q210.20625 60.33125 210.87813 59.83125Q211.56563 59.315624 211.97188 58.20625ZM206.19063 55.3625L211.9875 55.3625Q211.87813 54.065624 211.33125 53.409374Q210.4875 52.39375 209.14375 52.39375Q207.94063 52.39375 207.1125 53.20625Q206.28438 54.003124 206.19063 55.3625ZM215.83125 61.55L215.83125 47.2375L217.58125 47.2375L217.58125 61.55L215.83125 61.55Z" fill-rule="nonzero"/></svg>