<svg version="1.1" viewBox="0.0 0.0 600.0 371.0" fill="none" stroke="none" stroke-linecap="square" stroke-miterlimit="10" width="600" height="371" xmlns:xlink="http://www.w3.org/1999/xlink" xmlns="http://www.w3.org/2000/svg"><path fill="#ffffff" d="M0 0L600.0 0L600.0 371.0L0 371.0L0 0Z" fill-rule="nonzero"/><path stroke="#333333" stroke-width="1.0" stroke-linecap="butt" d="M45.5 304.5L581.5 304.5" fill-rule="nonzero"/><path stroke="#cccccc" stroke-width="1.0" stroke-linecap="butt" d="M45.5 223.5L581.5 223.5" fill-rule="nonzero"/><path stroke="#cccccc" stroke-width="1.0" stroke-linecap="butt" d="M45.5 142.5L581.5 142.5" fill-rule="nonzero"/><path stroke="#cccccc" stroke-width="1.0" stroke-linecap="butt" d="M45.5 61.5L581.5 61.5" fill-rule="nonzero"/><clipPath id="id_0"><path d="M45.55 61.916668L581.45 61.916668L581.45 304.45L45.55 304.45L45.55 61.916668Z" clip-rule="nonzero"/></clipPath><path stroke="#000000" stroke-width="0.0" stroke-linecap="butt" stroke-opacity="0.0" clip-path="url(#id_0)" d="M146.0 304.0L81.0 304.0L81.0 258.0C81.0 256.89542 81.89543 256.0 83.0 256.0L144.0 256.0C145.10457 256.0 146.0 256.89542 146.0 258.0Z" fill-rule="nonzero"/><path fill="#4285f4" clip-path="url(#id_0)" d="M146.0 304.0L81.0 304.0L81.0 258.0C81.0 256.89542 81.89543 256.0 83.0 256.0L144.0 256.0C145.10457 256.0 146.0 256.89542 146.0 258.0Z" fill-rule="nonzero"/><path stroke="#000000" stroke-width="0.0" stroke-linecap="butt" stroke-opacity="0.0" clip-path="url(#id_0)" d="M246.0 304.0L181.0 304.0L181.0 213.0C181.0 211.89543 181.89543 211.0 183.0 211.0L244.0 211.0C245.10457 211.0 246.0 211.89543 246.0 213.0Z" fill-rule="nonzero"/><path fill="#4285f4" clip-path="url(#id_0)" d="M246.0 304.0L181.0 304.0L181.0 213.0C181.0 211.89543 181.89543 211.0 183.0 211.0L244.0 211.0C245.10457 211.0 246.0 211.89543 246.0 213.0Z" fill-rule="nonzero"/><path stroke="#000000" stroke-width="0.0" stroke-linecap="butt" stroke-opacity="0.0" clip-path="url(#id_0)" d="M347.0 304.0L282.0 304.0L282.0 294.0C282.0 292.89542 282.89542 292.0 284.0 292.0L345.0 292.0C346.10458 292.0 347.0 292.89542 347.0 294.0Z" fill-rule="nonzero"/><path fill="#4285f4" clip-path="url(#id_0)" d="M347.0 304.0L282.0 304.0L282.0 294.0C282.0 292.89542 282.89542 292.0 284.0 292.0L345.0 292.0C346.10458 292.0 347.0 292.89542 347.0 294.0Z" fill-rule="nonzero"/><path stroke="#000000" stroke-width="0.0" stroke-linecap="butt" stroke-opacity="0.0" clip-path="url(#id_0)" d="M447.0 304.0L382.0 304.0L382.0 96.0C382.0 94.89543 382.89542 94.0 384.0 94.0L445.0 94.0C446.10458 94.0 447.0 94.89543 447.0 96.0Z" fill-rule="nonzero"/><path fill="#4285f4" clip-path="url(#id_0)" d="M447.0 304.0L382.0 304.0L382.0 96.0C382.0 94.89543 382.89542 94.0 384.0 94.0L445.0 94.0C446.10458 94.0 447.0 94.89543 447.0 96.0Z" fill-rule="nonzero"/><path stroke="#000000" stroke-width="0.0" stroke-linecap="butt" stroke-opacity="0.0" clip-path="url(#id_0)" d="M547.0 304.0L482.0 304.0L482.0 270.0C482.0 268.89542 482.89542 268.0 484.0 268.0L545.0 268.0C546.10455 268.0 547.0 268.89542 547.0 270.0Z" fill-rule="nonzero"/><path fill="#4285f4" clip-path="url(#id_0)" d="M547.0 304.0L482.0 304.0L482.0 270.0C482.0 268.89542 482.89542 268.0 484.0 268.0L545.0 268.0C546.10455 268.0 547.0 268.89542 547.0 270.0Z" fill-rule="nonzero"/><path fill="#000000" d="M33.05 304.21564Q33.05 302.6844 33.3625 301.7625Q33.675 300.825 34.284374 300.325Q34.909374 299.825 35.846874 299.825Q36.534374 299.825 37.05 300.10626Q37.58125 300.3875 37.925 300.91876Q38.26875 301.4344 38.45625 302.1844Q38.64375 302.9344 38.64375 304.21564Q38.64375 305.73126 38.33125 306.65314Q38.034374 307.575 37.409374 308.09064Q36.8 308.59064 35.846874 308.59064Q34.6125 308.59064 33.89375 307.7Q33.05 306.6375 33.05 304.21564ZM34.128124 304.21564Q34.128124 306.325 34.628124 307.02814Q35.128124 307.73126 35.846874 307.73126Q36.58125 307.73126 37.065624 307.02814Q37.565624 306.325 37.565624 304.21564Q37.565624 302.09064 37.065624 301.40314Q36.58125 300.7 35.83125 300.7Q35.1125 300.7 34.675 301.3094Q34.128124 302.09064 34.128124 304.21564Z" fill-rule="nonzero"/><path fill="#000000" d="M31.596874 226.58994L31.596874 227.60556L25.909374 227.60556Q25.909374 227.23056 26.034374 226.87119Q26.253124 226.29306 26.721874 225.73056Q27.20625 225.16806 28.1125 224.43369Q29.51875 223.27744 30.003124 222.60556Q30.503124 221.93369 30.503124 221.33994Q30.503124 220.71494 30.05 220.29306Q29.596874 219.85556 28.878124 219.85556Q28.1125 219.85556 27.659374 220.30869Q27.20625 220.76181 27.190624 221.57431L26.1125 221.46494Q26.221874 220.24619 26.940624 219.62119Q27.675 218.98056 28.909374 218.98056Q30.14375 218.98056 30.8625 219.66806Q31.58125 220.35556 31.58125 221.37119Q31.58125 221.88681 31.3625 222.38681Q31.159374 222.87119 30.659374 223.43369Q30.175 223.98056 29.05 224.93369Q28.096874 225.73056 27.815624 226.02744Q27.55 226.30869 27.378124 226.58994L31.596874 226.58994ZM33.05 223.37119Q33.05 221.83994 33.3625 220.91806Q33.675 219.98056 34.284374 219.48056Q34.909374 218.98056 35.846874 218.98056Q36.534374 218.98056 37.05 219.26181Q37.58125 219.54306 37.925 220.07431Q38.26875 220.58994 38.45625 221.33994Q38.64375 222.08994 38.64375 223.37119Q38.64375 224.88681 38.33125 225.80869Q38.034374 226.73056 37.409374 227.24619Q36.8 227.74619 35.846874 227.74619Q34.6125 227.74619 33.89375 226.85556Q33.05 225.79306 33.05 223.37119ZM34.128124 223.37119Q34.128124 225.48056 34.628124 226.18369Q35.128124 226.88681 35.846874 226.88681Q36.58125 226.88681 37.065624 226.18369Q37.565624 225.48056 37.565624 223.37119Q37.565624 221.24619 37.065624 220.55869Q36.58125 219.85556 35.83125 219.85556Q35.1125 219.85556 34.675 220.46494Q34.128124 221.24619 34.128124 223.37119Z" fill-rule="nonzero"/><path fill="#000000" d="M29.425 146.76111L29.425 144.69861L25.70625 144.69861L25.70625 143.72986L29.628124 138.16736L30.4875 138.16736L30.4875 143.72986L31.64375 143.72986L31.64375 144.69861L30.4875 144.69861L30.4875 146.76111L29.425 146.76111ZM29.425 143.72986L29.425 139.87048L26.7375 143.72986L29.425 143.72986ZM33.05 142.52673Q33.05 140.99548 33.3625 140.07361Q33.675 139.13611 34.284374 138.63611Q34.909374 138.13611 35.846874 138.13611Q36.534374 138.13611 37.05 138.41736Q37.58125 138.69861 37.925 139.22986Q38.26875 139.74548 38.45625 140.49548Q38.64375 141.24548 38.64375 142.52673Q38.64375 144.04236 38.33125 144.96423Q38.034374 145.88611 37.409374 146.40173Q36.8 146.90173 35.846874 146.90173Q34.6125 146.90173 33.89375 146.01111Q33.05 144.94861 33.05 142.52673ZM34.128124 142.52673Q34.128124 144.63611 34.628124 145.33923Q35.128124 146.04236 35.846874 146.04236Q36.58125 146.04236 37.065624 145.33923Q37.565624 144.63611 37.565624 142.52673Q37.565624 140.40173 37.065624 139.71423Q36.58125 139.01111 35.83125 139.01111Q35.1125 139.01111 34.675 139.62048Q34.128124 140.40173 34.128124 142.52673Z" fill-rule="nonzero"/><path fill="#000000" d="M31.51875 59.43229L30.471874 59.510414Q30.33125 58.885414 30.08125 58.604164Q29.64375 58.15104 29.01875 58.15104Q28.51875 58.15104 28.128124 58.43229Q27.64375 58.80729 27.346874 59.510414Q27.065624 60.197914 27.05 61.479164Q27.425 60.90104 27.971874 60.61979Q28.534374 60.33854 29.14375 60.33854Q30.190624 60.33854 30.925 61.11979Q31.675 61.90104 31.675 63.11979Q31.675 63.93229 31.315624 64.635414Q30.971874 65.322914 30.3625 65.697914Q29.753124 66.05729 28.9875 66.05729Q27.659374 66.05729 26.83125 65.08854Q26.003124 64.11979 26.003124 61.90104Q26.003124 59.40104 26.925 58.27604Q27.721874 57.291664 29.08125 57.291664Q30.096874 57.291664 30.7375 57.86979Q31.39375 58.43229 31.51875 59.43229ZM27.221874 63.135414Q27.221874 63.68229 27.440624 64.18229Q27.675 64.666664 28.08125 64.93229Q28.503124 65.197914 28.971874 65.197914Q29.628124 65.197914 30.1125 64.666664Q30.596874 64.11979 30.596874 63.197914Q30.596874 62.30729 30.1125 61.791664Q29.64375 61.27604 28.925 61.27604Q28.20625 61.27604 27.70625 61.791664Q27.221874 62.30729 27.221874 63.135414ZM33.05 61.68229Q33.05 60.15104 33.3625 59.229164Q33.675 58.291664 34.284374 57.791664Q34.909374 57.291664 35.846874 57.291664Q36.534374 57.291664 37.05 57.572914Q37.58125 57.854164 37.925 58.385414Q38.26875 58.90104 38.45625 59.65104Q38.64375 60.40104 38.64375 61.68229Q38.64375 63.197914 38.33125 64.11979Q38.034374 65.041664 37.409374 65.55729Q36.8 66.05729 35.846874 66.05729Q34.6125 66.05729 33.89375 65.166664Q33.05 64.104164 33.05 61.68229ZM34.128124 61.68229Q34.128124 63.791664 34.628124 64.49479Q35.128124 65.197914 35.846874 65.197914Q36.58125 65.197914 37.065624 64.49479Q37.565624 63.791664 37.565624 61.68229Q37.565624 59.55729 37.065624 58.86979Q36.58125 58.166664 35.83125 58.166664Q35.1125 58.166664 34.675 58.77604Q34.128124 59.55729 34.128124 61.68229Z" fill-rule="nonzero"/><path fill="#000000" d="M98.74168 317.2625Q98.74168 315.1219 99.8823 313.91876Q101.03855 312.7 102.85105 312.7Q104.05418 312.7 105.0073 313.27814Q105.96043 313.84064 106.46043 314.85626Q106.96043 315.8719 106.96043 317.16876Q106.96043 318.46564 106.42918 319.4969Q105.89793 320.52814 104.92918 321.0594Q103.97605 321.59064 102.85105 321.59064Q101.6323 321.59064 100.67918 321.0125Q99.72605 320.41876 99.22605 319.41876Q98.74168 318.40314 98.74168 317.2625ZM99.91355 317.27814Q99.91355 318.84064 100.74168 319.73126Q101.58543 320.6219 102.85105 320.6219Q104.1323 320.6219 104.96043 319.73126Q105.78855 318.825 105.78855 317.15314Q105.78855 316.10626 105.42918 315.325Q105.08543 314.54376 104.39793 314.1219Q103.71043 313.6844 102.86668 313.6844Q101.66355 313.6844 100.78855 314.5125Q99.91355 315.34064 99.91355 317.27814ZM110.2573 320.5125L110.41355 321.4344Q109.96043 321.52814 109.61668 321.52814Q109.03855 321.52814 108.72605 321.35626Q108.41355 321.16876 108.27293 320.8719Q108.14793 320.575 108.14793 319.6219L108.14793 316.04376L107.3823 316.04376L107.3823 315.23126L108.14793 315.23126L108.14793 313.6844L109.1948 313.0594L109.1948 315.23126L110.2573 315.23126L110.2573 316.04376L109.1948 316.04376L109.1948 319.6844Q109.1948 320.1375 109.24168 320.2625Q109.30418 320.3875 109.42918 320.46564Q109.55418 320.54376 109.78855 320.54376Q109.97605 320.54376 110.2573 320.5125ZM110.96043 321.45L110.96043 312.85626L112.0073 312.85626L112.0073 315.9344Q112.74168 315.09064 113.86668 315.09064Q114.5698 315.09064 115.0698 315.3719Q115.58543 315.6375 115.80418 316.1219Q116.02293 316.59064 116.02293 317.5125L116.02293 321.45L114.97605 321.45L114.97605 317.5125Q114.97605 316.71564 114.6323 316.35626Q114.28855 315.9969 113.66355 315.9969Q113.1948 315.9969 112.77293 316.2469Q112.36668 316.48126 112.17918 316.90314Q112.0073 317.3094 112.0073 318.04376L112.0073 321.45L110.96043 321.45ZM122.21043 319.45L123.30418 319.575Q123.05418 320.52814 122.35105 321.0594Q121.64793 321.59064 120.5698 321.59064Q119.21043 321.59064 118.39793 320.7469Q117.60105 319.90314 117.60105 318.3875Q117.60105 316.825 118.41355 315.96564Q119.22605 315.09064 120.5073 315.09064Q121.7573 315.09064 122.53855 315.9344Q123.33543 316.77814 123.33543 318.325Q123.33543 318.41876 123.33543 318.60626L118.6948 318.60626Q118.7573 319.6375 119.27293 320.1844Q119.78855 320.71564 120.5698 320.71564Q121.14793 320.71564 121.55418 320.41876Q121.97605 320.10626 122.21043 319.45ZM118.7573 317.7469L122.22605 317.7469Q122.16355 316.95 121.83543 316.5594Q121.3198 315.95 120.52293 315.95Q119.78855 315.95 119.28855 316.4344Q118.80418 316.91876 118.7573 317.7469ZM124.9448 321.45L124.9448 315.23126L125.89793 315.23126L125.89793 316.16876Q126.2573 315.5125 126.55418 315.3094Q126.86668 315.09064 127.24168 315.09064Q127.77293 315.09064 128.3198 315.41876L127.96043 316.40314Q127.5698 316.16876 127.1948 316.16876Q126.83543 316.16876 126.55418 316.3875Q126.28855 316.59064 126.17918 316.96564Q125.99168 317.52814 125.99168 318.1844L125.99168 321.45L124.9448 321.45Z" fill-rule="nonzero"/><path fill="#000000" d="M166.7849 321.45L166.7849 312.85626L172.98802 312.85626L172.98802 313.8719L167.92552 313.8719L167.92552 316.4969L172.67552 316.4969L172.67552 317.5125L167.92552 317.5125L167.92552 320.4344L173.19115 320.4344L173.19115 321.45L166.7849 321.45ZM178.69115 320.6844Q178.0974 321.1844 177.55052 321.3875Q177.01927 321.59064 176.39427 321.59064Q175.36302 321.59064 174.81615 321.09064Q174.26927 320.59064 174.26927 319.8094Q174.26927 319.35626 174.4724 318.98126Q174.67552 318.59064 175.01927 318.3719Q175.36302 318.1375 175.7849 318.02814Q176.08177 317.9344 176.7224 317.85626Q177.98802 317.71564 178.5974 317.4969Q178.5974 317.27814 178.5974 317.23126Q178.5974 316.575 178.30052 316.3094Q177.89427 315.96564 177.0974 315.96564Q176.36302 315.96564 176.00365 316.23126Q175.64427 316.48126 175.4724 317.1375L174.44115 316.9969Q174.58177 316.34064 174.9099 315.9344Q175.23802 315.52814 175.8474 315.3094Q176.45677 315.09064 177.25365 315.09064Q178.05052 315.09064 178.55052 315.27814Q179.05052 315.46564 179.2849 315.7469Q179.51927 316.02814 179.61302 316.46564Q179.6599 316.73126 179.6599 317.4344L179.6599 318.84064Q179.6599 320.3094 179.7224 320.7Q179.80052 321.09064 180.00365 321.45L178.89427 321.45Q178.73802 321.1219 178.69115 320.6844ZM178.5974 318.325Q178.01927 318.5594 176.87865 318.73126Q176.2224 318.825 175.95677 318.95Q175.69115 319.0594 175.5349 319.27814Q175.39427 319.4969 175.39427 319.77814Q175.39427 320.2 175.70677 320.48126Q176.0349 320.7625 176.64427 320.7625Q177.25365 320.7625 177.7224 320.4969Q178.20677 320.23126 178.42552 319.7625Q178.5974 319.40314 178.5974 318.71564L178.5974 318.325ZM181.61302 321.45L181.61302 315.23126L182.56615 315.23126L182.56615 316.16876Q182.92552 315.5125 183.2224 315.3094Q183.5349 315.09064 183.9099 315.09064Q184.44115 315.09064 184.98802 315.41876L184.62865 316.40314Q184.23802 316.16876 183.86302 316.16876Q183.50365 316.16876 183.2224 316.3875Q182.95677 316.59064 182.8474 316.96564Q182.6599 317.52814 182.6599 318.1844L182.6599 321.45L181.61302 321.45ZM185.5974 321.45L185.5974 312.85626L186.6599 312.85626L186.6599 321.45L185.5974 321.45ZM188.58177 323.84064L188.45677 322.85626Q188.80052 322.95 189.06615 322.95Q189.4099 322.95 189.61302 322.825Q189.83177 322.71564 189.9724 322.5125Q190.06615 322.34064 190.30052 321.71564Q190.31615 321.6375 190.39427 321.46564L188.01927 315.23126L189.1599 315.23126L190.45677 318.825Q190.70677 319.5125 190.9099 320.27814Q191.0974 319.54376 191.3474 318.85626L192.67552 315.23126L193.7224 315.23126L191.36302 321.5594Q190.9724 322.575 190.76927 322.96564Q190.48802 323.4969 190.11302 323.73126Q189.75365 323.98126 189.25365 323.98126Q188.95677 323.98126 188.58177 323.84064ZM197.76927 321.45L197.76927 312.85626L201.58177 312.85626Q202.73802 312.85626 203.33177 313.09064Q203.92552 313.325 204.2849 313.91876Q204.64427 314.4969 204.64427 315.2Q204.64427 316.1219 204.05052 316.7469Q203.45677 317.3719 202.2224 317.54376Q202.67552 317.7625 202.9099 317.96564Q203.4099 318.41876 203.8474 319.10626L205.3474 321.45L203.9099 321.45L202.7849 319.66876Q202.2849 318.8875 201.95677 318.48126Q201.64427 318.075 201.37865 317.91876Q201.12865 317.7469 200.86302 317.66876Q200.67552 317.6375 200.23802 317.6375L198.9099 317.6375L198.9099 321.45L197.76927 321.45ZM198.9099 316.65314L201.36302 316.65314Q202.12865 316.65314 202.56615 316.4969Q203.01927 316.325 203.23802 315.98126Q203.4724 315.6219 203.4724 315.2Q203.4724 314.59064 203.01927 314.2Q202.58177 313.8094 201.62865 313.8094L198.9099 313.8094L198.9099 316.65314ZM210.87865 319.45L211.9724 319.575Q211.7224 320.52814 211.01927 321.0594Q210.31615 321.59064 209.23802 321.59064Q207.87865 321.59064 207.06615 320.7469Q206.26927 319.90314 206.26927 318.3875Q206.26927 316.825 207.08177 315.96564Q207.89427 315.09064 209.17552 315.09064Q210.42552 315.09064 211.20677 315.9344Q212.00365 316.77814 212.00365 318.325Q212.00365 318.41876 212.00365 318.60626L207.36302 318.60626Q207.42552 319.6375 207.94115 320.1844Q208.45677 320.71564 209.23802 320.71564Q209.81615 320.71564 210.2224 320.41876Q210.64427 320.10626 210.87865 319.45ZM207.42552 317.7469L210.89427 317.7469Q210.83177 316.95 210.50365 316.5594Q209.98802 315.95 209.19115 315.95Q208.45677 315.95 207.95677 316.4344Q207.4724 316.91876 207.42552 317.7469ZM213.20677 319.59064L214.23802 319.4344Q214.33177 320.0594 214.7224 320.3875Q215.12865 320.71564 215.86302 320.71564Q216.58177 320.71564 216.92552 320.4344Q217.2849 320.1375 217.2849 319.73126Q217.2849 319.3719 216.9724 319.16876Q216.75365 319.02814 215.89427 318.8094Q214.73802 318.5125 214.2849 318.3094Q213.8474 318.09064 213.61302 317.71564Q213.37865 317.34064 213.37865 316.8719Q213.37865 316.46564 213.56615 316.10626Q213.75365 315.7469 214.08177 315.5125Q214.33177 315.34064 214.75365 315.21564Q215.17552 315.09064 215.67552 315.09064Q216.39427 315.09064 216.94115 315.3094Q217.50365 315.5125 217.76927 315.8719Q218.0349 316.23126 218.12865 316.825L217.0974 316.96564Q217.0349 316.4969 216.69115 316.23126Q216.36302 315.95 215.73802 315.95Q215.01927 315.95 214.70677 316.2Q214.39427 316.4344 214.39427 316.7625Q214.39427 316.96564 214.51927 317.1219Q214.6599 317.29376 214.92552 317.40314Q215.08177 317.46564 215.86302 317.66876Q216.98802 317.98126 217.42552 318.16876Q217.86302 318.35626 218.11302 318.71564Q218.36302 319.075 218.36302 319.6219Q218.36302 320.15314 218.05052 320.6219Q217.75365 321.075 217.17552 321.34064Q216.5974 321.59064 215.86302 321.59064Q214.64427 321.59064 214.00365 321.09064Q213.37865 320.575 213.20677 319.59064ZM223.87865 319.45L224.9724 319.575Q224.7224 320.52814 224.01927 321.0594Q223.31615 321.59064 222.23802 321.59064Q220.87865 321.59064 220.06615 320.7469Q219.26927 319.90314 219.26927 318.3875Q219.26927 316.825 220.08177 315.96564Q220.89427 315.09064 222.17552 315.09064Q223.42552 315.09064 224.20677 315.9344Q225.00365 316.77814 225.00365 318.325Q225.00365 318.41876 225.00365 318.60626L220.36302 318.60626Q220.42552 319.6375 220.94115 320.1844Q221.45677 320.71564 222.23802 320.71564Q222.81615 320.71564 223.2224 320.41876Q223.64427 320.10626 223.87865 319.45ZM220.42552 317.7469L223.89427 317.7469Q223.83177 316.95 223.50365 316.5594Q222.98802 315.95 222.19115 315.95Q221.45677 315.95 220.95677 316.4344Q220.4724 316.91876 220.42552 317.7469ZM230.69115 320.6844Q230.0974 321.1844 229.55052 321.3875Q229.01927 321.59064 228.39427 321.59064Q227.36302 321.59064 226.81615 321.09064Q226.26927 320.59064 226.26927 319.8094Q226.26927 319.35626 226.4724 318.98126Q226.67552 318.59064 227.01927 318.3719Q227.36302 318.1375 227.7849 318.02814Q228.08177 317.9344 228.7224 317.85626Q229.98802 317.71564 230.5974 317.4969Q230.5974 317.27814 230.5974 317.23126Q230.5974 316.575 230.30052 316.3094Q229.89427 315.96564 229.0974 315.96564Q228.36302 315.96564 228.00365 316.23126Q227.64427 316.48126 227.4724 317.1375L226.44115 316.9969Q226.58177 316.34064 226.9099 315.9344Q227.23802 315.52814 227.8474 315.3094Q228.45677 315.09064 229.25365 315.09064Q230.05052 315.09064 230.55052 315.27814Q231.05052 315.46564 231.2849 315.7469Q231.51927 316.02814 231.61302 316.46564Q231.6599 316.73126 231.6599 317.4344L231.6599 318.84064Q231.6599 320.3094 231.7224 320.7Q231.80052 321.09064 232.00365 321.45L230.89427 321.45Q230.73802 321.1219 230.69115 320.6844ZM230.5974 318.325Q230.01927 318.5594 228.87865 318.73126Q228.2224 318.825 227.95677 318.95Q227.69115 319.0594 227.5349 319.27814Q227.39427 319.4969 227.39427 319.77814Q227.39427 320.2 227.70677 320.48126Q228.0349 320.7625 228.64427 320.7625Q229.25365 320.7625 229.7224 320.4969Q230.20677 320.23126 230.42552 319.7625Q230.5974 319.40314 230.5974 318.71564L230.5974 318.325ZM233.61302 321.45L233.61302 315.23126L234.56615 315.23126L234.56615 316.16876Q234.92552 315.5125 235.2224 315.3094Q235.5349 315.09064 235.9099 315.09064Q236.44115 315.09064 236.98802 315.41876L236.62865 316.40314Q236.23802 316.16876 235.86302 316.16876Q235.50365 316.16876 235.2224 316.3875Q234.95677 316.59064 234.8474 316.96564Q234.6599 317.52814 234.6599 318.1844L234.6599 321.45L233.61302 321.45ZM241.69115 319.16876L242.7224 319.3094Q242.55052 320.3719 241.8474 320.98126Q241.14427 321.59064 240.12865 321.59064Q238.8474 321.59064 238.06615 320.7625Q237.30052 319.91876 237.30052 318.35626Q237.30052 317.35626 237.62865 316.60626Q237.9724 315.84064 238.64427 315.46564Q239.33177 315.09064 240.14427 315.09064Q241.14427 315.09064 241.7849 315.60626Q242.44115 316.10626 242.62865 317.0594L241.5974 317.21564Q241.45677 316.59064 241.08177 316.27814Q240.70677 315.95 240.17552 315.95Q239.37865 315.95 238.87865 316.52814Q238.37865 317.09064 238.37865 318.325Q238.37865 319.59064 238.86302 320.15314Q239.3474 320.71564 240.11302 320.71564Q240.73802 320.71564 241.14427 320.34064Q241.56615 319.96564 241.69115 319.16876ZM243.62865 321.45L243.62865 312.85626L244.67552 312.85626L244.67552 315.9344Q245.4099 315.09064 246.5349 315.09064Q247.23802 315.09064 247.73802 315.3719Q248.25365 315.6375 248.4724 316.1219Q248.69115 316.59064 248.69115 317.5125L248.69115 321.45L247.64427 321.45L247.64427 317.5125Q247.64427 316.71564 247.30052 316.35626Q246.95677 315.9969 246.33177 315.9969Q245.86302 315.9969 245.44115 316.2469Q245.0349 316.48126 244.8474 316.90314Q244.67552 317.3094 244.67552 318.04376L244.67552 321.45L243.62865 321.45ZM254.87865 319.45L255.9724 319.575Q255.7224 320.52814 255.01927 321.0594Q254.31615 321.59064 253.23802 321.59064Q251.87865 321.59064 251.06615 320.7469Q250.26927 319.90314 250.26927 318.3875Q250.26927 316.825 251.08177 315.96564Q251.89427 315.09064 253.17552 315.09064Q254.42552 315.09064 255.20677 315.9344Q256.00366 316.77814 256.00366 318.325Q256.00366 318.41876 256.00366 318.60626L251.36302 318.60626Q251.42552 319.6375 251.94115 320.1844Q252.45677 320.71564 253.23802 320.71564Q253.81615 320.71564 254.2224 320.41876Q254.64427 320.10626 254.87865 319.45ZM251.42552 317.7469L254.89427 317.7469Q254.83177 316.95 254.50365 316.5594Q253.98802 315.95 253.19115 315.95Q252.45677 315.95 251.95677 316.4344Q251.4724 316.91876 251.42552 317.7469ZM257.61304 321.45L257.61304 315.23126L258.56616 315.23126L258.56616 316.16876Q258.92554 315.5125 259.2224 315.3094Q259.5349 315.09064 259.9099 315.09064Q260.44116 315.09064 260.98804 315.41876L260.62866 316.40314Q260.23804 316.16876 259.86304 316.16876Q259.50366 316.16876 259.2224 316.3875Q258.9568 316.59064 258.8474 316.96564Q258.6599 317.52814 258.6599 318.1844L258.6599 321.45L257.61304 321.45Z" fill-rule="nonzero"/><path fill="#000000" d="M181.14427 337.98126Q180.26927 336.8719 179.6599 335.40314Q179.06615 333.91876 179.06615 332.34064Q179.06615 330.95 179.50365 329.66876Q180.0349 328.1844 181.14427 326.71564L181.89427 326.71564Q181.19115 327.9344 180.95677 328.45Q180.5974 329.2625 180.39427 330.1375Q180.14427 331.23126 180.14427 332.34064Q180.14427 335.16876 181.89427 337.98126L181.14427 337.98126ZM183.12865 335.45L183.12865 329.23126L184.06615 329.23126L184.06615 330.10626Q184.36302 329.6375 184.8474 329.3719Q185.33177 329.09064 185.95677 329.09064Q186.64427 329.09064 187.08177 329.3719Q187.5349 329.65314 187.70677 330.16876Q188.45677 329.09064 189.62865 329.09064Q190.56615 329.09064 191.05052 329.60626Q191.55052 330.10626 191.55052 331.1844L191.55052 335.45L190.50365 335.45L190.50365 331.52814Q190.50365 330.90314 190.39427 330.6219Q190.30052 330.34064 190.0349 330.16876Q189.76927 329.9969 189.39427 329.9969Q188.73802 329.9969 188.30052 330.4344Q187.87865 330.8719 187.87865 331.84064L187.87865 335.45L186.81615 335.45L186.81615 331.40314Q186.81615 330.7 186.55052 330.35626Q186.30052 329.9969 185.7224 329.9969Q185.26927 329.9969 184.89427 330.23126Q184.51927 330.46564 184.3474 330.91876Q184.17552 331.3719 184.17552 332.21564L184.17552 335.45L183.12865 335.45ZM197.19115 334.6844Q196.5974 335.1844 196.05052 335.3875Q195.51927 335.59064 194.89427 335.59064Q193.86302 335.59064 193.31615 335.09064Q192.76927 334.59064 192.76927 333.8094Q192.76927 333.35626 192.9724 332.98126Q193.17552 332.59064 193.51927 332.3719Q193.86302 332.1375 194.2849 332.02814Q194.58177 331.9344 195.2224 331.85626Q196.48802 331.71564 197.0974 331.4969Q197.0974 331.27814 197.0974 331.23126Q197.0974 330.575 196.80052 330.3094Q196.39427 329.96564 195.5974 329.96564Q194.86302 329.96564 194.50365 330.23126Q194.14427 330.48126 193.9724 331.1375L192.94115 330.9969Q193.08177 330.34064 193.4099 329.9344Q193.73802 329.52814 194.3474 329.3094Q194.95677 329.09064 195.75365 329.09064Q196.55052 329.09064 197.05052 329.27814Q197.55052 329.46564 197.7849 329.7469Q198.01927 330.02814 198.11302 330.46564Q198.1599 330.73126 198.1599 331.4344L198.1599 332.84064Q198.1599 334.3094 198.2224 334.7Q198.30052 335.09064 198.50365 335.45L197.39427 335.45Q197.23802 335.1219 197.19115 334.6844ZM197.0974 332.325Q196.51927 332.5594 195.37865 332.73126Q194.7224 332.825 194.45677 332.95Q194.19115 333.0594 194.0349 333.27814Q193.89427 333.4969 193.89427 333.77814Q193.89427 334.2 194.20677 334.48126Q194.5349 334.7625 195.14427 334.7625Q195.75365 334.7625 196.2224 334.4969Q196.70677 334.23126 196.92552 333.7625Q197.0974 333.40314 197.0974 332.71564L197.0974 332.325ZM199.42552 335.45L201.69115 332.21564L199.5974 329.23126L200.9099 329.23126L201.86302 330.6844Q202.12865 331.10626 202.30052 331.3875Q202.55052 330.9969 202.76927 330.7L203.81615 329.23126L205.08177 329.23126L202.92552 332.15314L205.23802 335.45L203.95677 335.45L202.67552 333.5125L202.33177 332.9969L200.69115 335.45L199.42552 335.45ZM208.83177 333.2L209.94115 333.10626Q210.06615 333.91876 210.50365 334.325Q210.95677 334.73126 211.5974 334.73126Q212.3474 334.73126 212.87865 334.15314Q213.4099 333.575 213.4099 332.6375Q213.4099 331.73126 212.89427 331.21564Q212.39427 330.6844 211.56615 330.6844Q211.06615 330.6844 210.64427 330.91876Q210.23802 331.15314 210.00365 331.5125L209.01927 331.3875L209.8474 326.98126L214.12865 326.98126L214.12865 327.98126L210.69115 327.98126L210.23802 330.29376Q211.00365 329.7469 211.8474 329.7469Q212.9724 329.7469 213.73802 330.52814Q214.51927 331.3094 214.51927 332.54376Q214.51927 333.7 213.8474 334.5594Q213.01927 335.59064 211.5974 335.59064Q210.42552 335.59064 209.67552 334.9344Q208.94115 334.27814 208.83177 333.2ZM219.08177 337.84064L218.95677 336.85626Q219.30052 336.95 219.56615 336.95Q219.9099 336.95 220.11302 336.825Q220.33177 336.71564 220.4724 336.5125Q220.56615 336.34064 220.80052 335.71564Q220.81615 335.6375 220.89427 335.46564L218.51927 329.23126L219.6599 329.23126L220.95677 332.825Q221.20677 333.5125 221.4099 334.27814Q221.5974 333.54376 221.8474 332.85626L223.17552 329.23126L224.2224 329.23126L221.86302 335.5594Q221.4724 336.575 221.26927 336.96564Q220.98802 337.4969 220.61302 337.73126Q220.25365 337.98126 219.75365 337.98126Q219.45677 337.98126 219.08177 337.84064ZM229.37865 333.45L230.4724 333.575Q230.2224 334.52814 229.51927 335.0594Q228.81615 335.59064 227.73802 335.59064Q226.37865 335.59064 225.56615 334.7469Q224.76927 333.90314 224.76927 332.3875Q224.76927 330.825 225.58177 329.96564Q226.39427 329.09064 227.67552 329.09064Q228.92552 329.09064 229.70677 329.9344Q230.50365 330.77814 230.50365 332.325Q230.50365 332.41876 230.50365 332.60626L225.86302 332.60626Q225.92552 333.6375 226.44115 334.1844Q226.95677 334.71564 227.73802 334.71564Q228.31615 334.71564 228.7224 334.41876Q229.14427 334.10626 229.37865 333.45ZM225.92552 331.7469L229.39427 331.7469Q229.33177 330.95 229.00365 330.5594Q228.48802 329.95 227.69115 329.95Q226.95677 329.95 226.45677 330.4344Q225.9724 330.91876 225.92552 331.7469ZM236.19115 334.6844Q235.5974 335.1844 235.05052 335.3875Q234.51927 335.59064 233.89427 335.59064Q232.86302 335.59064 232.31615 335.09064Q231.76927 334.59064 231.76927 333.8094Q231.76927 333.35626 231.9724 332.98126Q232.17552 332.59064 232.51927 332.3719Q232.86302 332.1375 233.2849 332.02814Q233.58177 331.9344 234.2224 331.85626Q235.48802 331.71564 236.0974 331.4969Q236.0974 331.27814 236.0974 331.23126Q236.0974 330.575 235.80052 330.3094Q235.39427 329.96564 234.5974 329.96564Q233.86302 329.96564 233.50365 330.23126Q233.14427 330.48126 232.9724 331.1375L231.94115 330.9969Q232.08177 330.34064 232.4099 329.9344Q232.73802 329.52814 233.3474 329.3094Q233.95677 329.09064 234.75365 329.09064Q235.55052 329.09064 236.05052 329.27814Q236.55052 329.46564 236.7849 329.7469Q237.01927 330.02814 237.11302 330.46564Q237.1599 330.73126 237.1599 331.4344L237.1599 332.84064Q237.1599 334.3094 237.2224 334.7Q237.30052 335.09064 237.50365 335.45L236.39427 335.45Q236.23802 335.1219 236.19115 334.6844ZM236.0974 332.325Q235.51927 332.5594 234.37865 332.73126Q233.7224 332.825 233.45677 332.95Q233.19115 333.0594 233.0349 333.27814Q232.89427 333.4969 232.89427 333.77814Q232.89427 334.2 233.20677 334.48126Q233.5349 334.7625 234.14427 334.7625Q234.75365 334.7625 235.2224 334.4969Q235.70677 334.23126 235.92552 333.7625Q236.0974 333.40314 236.0974 332.71564L236.0974 332.325ZM239.11302 335.45L239.11302 329.23126L240.06615 329.23126L240.06615 330.16876Q240.42552 329.5125 240.7224 329.3094Q241.0349 329.09064 241.4099 329.09064Q241.94115 329.09064 242.48802 329.41876L242.12865 330.40314Q241.73802 330.16876 241.36302 330.16876Q241.00365 330.16876 240.7224 330.3875Q240.45677 330.59064 240.3474 330.96564Q240.1599 331.52814 240.1599 332.1844L240.1599 335.45L239.11302 335.45ZM242.70677 333.59064L243.73802 333.4344Q243.83177 334.0594 244.2224 334.3875Q244.62865 334.71564 245.36302 334.71564Q246.08177 334.71564 246.42552 334.4344Q246.7849 334.1375 246.7849 333.73126Q246.7849 333.3719 246.4724 333.16876Q246.25365 333.02814 245.39427 332.8094Q244.23802 332.5125 243.7849 332.3094Q243.3474 332.09064 243.11302 331.71564Q242.87865 331.34064 242.87865 330.8719Q242.87865 330.46564 243.06615 330.10626Q243.25365 329.7469 243.58177 329.5125Q243.83177 329.34064 244.25365 329.21564Q244.67552 329.09064 245.17552 329.09064Q245.89427 329.09064 246.44115 329.3094Q247.00365 329.5125 247.26927 329.8719Q247.5349 330.23126 247.62865 330.825L246.5974 330.96564Q246.5349 330.4969 246.19115 330.23126Q245.86302 329.95 245.23802 329.95Q244.51927 329.95 244.20677 330.2Q243.89427 330.4344 243.89427 330.7625Q243.89427 330.96564 244.01927 331.1219Q244.1599 331.29376 244.42552 331.40314Q244.58177 331.46564 245.36302 331.66876Q246.48802 331.98126 246.92552 332.16876Q247.36302 332.35626 247.61302 332.71564Q247.86302 333.075 247.86302 333.6219Q247.86302 334.15314 247.55052 334.6219Q247.25365 335.075 246.67552 335.34064Q246.0974 335.59064 245.36302 335.59064Q244.14427 335.59064 243.50365 335.09064Q242.87865 334.575 242.70677 333.59064Z" fill-rule="nonzero"/><path fill="#000000" d="M187.12865 351.84064L187.12865 343.23126L188.08177 343.23126L188.08177 344.02814Q188.42552 343.5594 188.8474 343.325Q189.2849 343.09064 189.89427 343.09064Q190.69115 343.09064 191.30052 343.4969Q191.9099 343.90314 192.20677 344.65314Q192.51927 345.40314 192.51927 346.29376Q192.51927 347.2469 192.17552 348.0125Q191.8474 348.77814 191.19115 349.1844Q190.5349 349.59064 189.81615 349.59064Q189.2849 349.59064 188.86302 349.3719Q188.44115 349.1375 188.17552 348.8094L188.17552 351.84064L187.12865 351.84064ZM188.08177 346.3719Q188.08177 347.575 188.56615 348.15314Q189.05052 348.71564 189.73802 348.71564Q190.44115 348.71564 190.94115 348.1219Q191.44115 347.52814 191.44115 346.27814Q191.44115 345.09064 190.95677 344.5125Q190.4724 343.91876 189.7849 343.91876Q189.11302 343.91876 188.5974 344.54376Q188.08177 345.16876 188.08177 346.3719ZM198.19115 348.6844Q197.5974 349.1844 197.05052 349.3875Q196.51927 349.59064 195.89427 349.59064Q194.86302 349.59064 194.31615 349.09064Q193.76927 348.59064 193.76927 347.8094Q193.76927 347.35626 193.9724 346.98126Q194.17552 346.59064 194.51927 346.3719Q194.86302 346.1375 195.2849 346.02814Q195.58177 345.9344 196.2224 345.85626Q197.48802 345.71564 198.0974 345.4969Q198.0974 345.27814 198.0974 345.23126Q198.0974 344.575 197.80052 344.3094Q197.39427 343.96564 196.5974 343.96564Q195.86302 343.96564 195.50365 344.23126Q195.14427 344.48126 194.9724 345.1375L193.94115 344.9969Q194.08177 344.34064 194.4099 343.9344Q194.73802 343.52814 195.3474 343.3094Q195.95677 343.09064 196.75365 343.09064Q197.55052 343.09064 198.05052 343.27814Q198.55052 343.46564 198.7849 343.7469Q199.01927 344.02814 199.11302 344.46564Q199.1599 344.73126 199.1599 345.4344L199.1599 346.84064Q199.1599 348.3094 199.2224 348.7Q199.30052 349.09064 199.50365 349.45L198.39427 349.45Q198.23802 349.1219 198.19115 348.6844ZM198.0974 346.325Q197.51927 346.5594 196.37865 346.73126Q195.7224 346.825 195.45677 346.95Q195.19115 347.0594 195.0349 347.27814Q194.89427 347.4969 194.89427 347.77814Q194.89427 348.2 195.20677 348.48126Q195.5349 348.7625 196.14427 348.7625Q196.75365 348.7625 197.2224 348.4969Q197.70677 348.23126 197.92552 347.7625Q198.0974 347.40314 198.0974 346.71564L198.0974 346.325ZM200.70677 347.59064L201.73802 347.4344Q201.83177 348.0594 202.2224 348.3875Q202.62865 348.71564 203.36302 348.71564Q204.08177 348.71564 204.42552 348.4344Q204.7849 348.1375 204.7849 347.73126Q204.7849 347.3719 204.4724 347.16876Q204.25365 347.02814 203.39427 346.8094Q202.23802 346.5125 201.7849 346.3094Q201.3474 346.09064 201.11302 345.71564Q200.87865 345.34064 200.87865 344.8719Q200.87865 344.46564 201.06615 344.10626Q201.25365 343.7469 201.58177 343.5125Q201.83177 343.34064 202.25365 343.21564Q202.67552 343.09064 203.17552 343.09064Q203.89427 343.09064 204.44115 343.3094Q205.00365 343.5125 205.26927 343.8719Q205.5349 344.23126 205.62865 344.825L204.5974 344.96564Q204.5349 344.4969 204.19115 344.23126Q203.86302 343.95 203.23802 343.95Q202.51927 343.95 202.20677 344.2Q201.89427 344.4344 201.89427 344.7625Q201.89427 344.96564 202.01927 345.1219Q202.1599 345.29376 202.42552 345.40314Q202.58177 345.46564 203.36302 345.66876Q204.48802 345.98126 204.92552 346.16876Q205.36302 346.35626 205.61302 346.71564Q205.86302 347.075 205.86302 347.6219Q205.86302 348.15314 205.55052 348.6219Q205.25365 349.075 204.67552 349.34064Q204.0974 349.59064 203.36302 349.59064Q202.14427 349.59064 201.50365 349.09064Q200.87865 348.575 200.70677 347.59064ZM209.42552 348.5125L209.58177 349.4344Q209.12865 349.52814 208.7849 349.52814Q208.20677 349.52814 207.89427 349.35626Q207.58177 349.16876 207.44115 348.8719Q207.31615 348.575 207.31615 347.6219L207.31615 344.04376L206.55052 344.04376L206.55052 343.23126L207.31615 343.23126L207.31615 341.6844L208.36302 341.0594L208.36302 343.23126L209.42552 343.23126L209.42552 344.04376L208.36302 344.04376L208.36302 347.6844Q208.36302 348.1375 208.4099 348.2625Q208.4724 348.3875 208.5974 348.46564Q208.7224 348.54376 208.95677 348.54376Q209.14427 348.54376 209.42552 348.5125ZM213.25365 349.45L213.25365 340.85626L216.50365 340.85626Q217.3474 340.85626 217.80052 340.9344Q218.44115 341.04376 218.86302 341.34064Q219.30052 341.6375 219.55052 342.16876Q219.81615 342.7 219.81615 343.34064Q219.81615 344.4344 219.11302 345.2Q218.42552 345.95 216.5974 345.95L214.39427 345.95L214.39427 349.45L213.25365 349.45ZM214.39427 344.95L216.61302 344.95Q217.7224 344.95 218.17552 344.54376Q218.64427 344.1219 218.64427 343.3719Q218.64427 342.84064 218.36302 342.46564Q218.0974 342.075 217.6599 341.95Q217.36302 341.8719 216.5974 341.8719L214.39427 341.8719L214.39427 344.95ZM221.12865 349.45L221.12865 340.85626L222.17552 340.85626L222.17552 343.9344Q222.9099 343.09064 224.0349 343.09064Q224.73802 343.09064 225.23802 343.3719Q225.75365 343.6375 225.9724 344.1219Q226.19115 344.59064 226.19115 345.5125L226.19115 349.45L225.14427 349.45L225.14427 345.5125Q225.14427 344.71564 224.80052 344.35626Q224.45677 343.9969 223.83177 343.9969Q223.36302 343.9969 222.94115 344.2469Q222.5349 344.48126 222.3474 344.90314Q222.17552 345.3094 222.17552 346.04376L222.17552 349.45L221.12865 349.45ZM228.25365 349.45L228.25365 340.85626L231.2224 340.85626Q232.2224 340.85626 232.75365 340.98126Q233.48802 341.15314 234.00365 341.59064Q234.69115 342.16876 235.01927 343.075Q235.36302 343.96564 235.36302 345.10626Q235.36302 346.09064 235.12865 346.84064Q234.9099 347.59064 234.55052 348.09064Q234.19115 348.59064 233.75365 348.8719Q233.33177 349.15314 232.73802 349.3094Q232.14427 349.45 231.36302 349.45L228.25365 349.45ZM229.39427 348.4344L231.2224 348.4344Q232.08177 348.4344 232.56615 348.27814Q233.05052 348.1219 233.33177 347.825Q233.73802 347.4344 233.95677 346.7469Q234.19115 346.0594 234.19115 345.09064Q234.19115 343.7469 233.73802 343.02814Q233.30052 342.29376 232.67552 342.04376Q232.20677 341.8719 231.20677 341.8719L229.39427 341.8719L229.39427 348.4344ZM237.81615 351.98126L237.06615 351.98126Q238.81615 349.16876 238.81615 346.34064Q238.81615 345.2469 238.56615 344.15314Q238.36302 343.27814 238.00365 342.46564Q237.76927 341.95 237.06615 340.71564L237.81615 340.71564Q238.9099 342.1844 239.44115 343.66876Q239.89427 344.95 239.89427 346.34064Q239.89427 347.91876 239.2849 349.40314Q238.67552 350.8719 237.81615 351.98126Z" fill-rule="nonzero"/><path fill="#000000" d="M273.92188 321.45L273.92188 312.85626L275.07812 312.85626L279.59375 319.60626L279.59375 312.85626L280.6875 312.85626L280.6875 321.45L279.51562 321.45L275.0 314.7L275.0 321.45L273.92188 321.45ZM282.40625 318.34064Q282.40625 316.60626 283.35938 315.77814Q284.15625 315.09064 285.3125 315.09064Q286.59375 315.09064 287.40625 315.9344Q288.23438 316.7625 288.23438 318.2469Q288.23438 319.45 287.875 320.1375Q287.51562 320.825 286.8125 321.21564Q286.125 321.59064 285.3125 321.59064Q284.01562 321.59064 283.20312 320.7625Q282.40625 319.91876 282.40625 318.34064ZM283.48438 318.34064Q283.48438 319.52814 284.0 320.1219Q284.53125 320.71564 285.3125 320.71564Q286.10938 320.71564 286.625 320.1219Q287.14062 319.52814 287.14062 318.3094Q287.14062 317.15314 286.60938 316.5594Q286.09375 315.96564 285.3125 315.96564Q284.53125 315.96564 284.0 316.5594Q283.48438 317.1375 283.48438 318.34064ZM289.79688 321.45L289.79688 315.23126L290.73438 315.23126L290.73438 316.10626Q291.42188 315.09064 292.71875 315.09064Q293.28125 315.09064 293.75 315.29376Q294.23438 315.4969 294.46875 315.825Q294.70312 316.15314 294.79688 316.59064Q294.84375 316.8875 294.84375 317.6219L294.84375 321.45L293.79688 321.45L293.79688 317.66876Q293.79688 317.0125 293.67188 316.7Q293.54688 316.3875 293.23438 316.2Q292.92188 315.9969 292.5 315.9969Q291.82812 315.9969 291.32812 316.4344Q290.84375 316.85626 290.84375 318.04376L290.84375 321.45L289.79688 321.45ZM296.375 318.8719L296.375 317.8094L299.625 317.8094L299.625 318.8719L296.375 318.8719ZM299.98438 321.45L303.28125 312.85626L304.5 312.85626L308.01562 321.45L306.73438 321.45L305.71875 318.84064L302.14062 318.84064L301.1875 321.45L299.98438 321.45ZM302.46875 317.91876L305.375 317.91876L304.48438 315.54376Q304.0625 314.46564 303.875 313.7625Q303.70312 314.59064 303.40625 315.40314L302.46875 317.91876ZM312.85938 319.16876L313.89062 319.3094Q313.71875 320.3719 313.01562 320.98126Q312.3125 321.59064 311.29688 321.59064Q310.01562 321.59064 309.23438 320.7625Q308.46875 319.91876 308.46875 318.35626Q308.46875 317.35626 308.79688 316.60626Q309.14062 315.84064 309.8125 315.46564Q310.5 315.09064 311.3125 315.09064Q312.3125 315.09064 312.95312 315.60626Q313.60938 316.10626 313.79688 317.0594L312.76562 317.21564Q312.625 316.59064 312.25 316.27814Q311.875 315.95 311.34375 315.95Q310.54688 315.95 310.04688 316.52814Q309.54688 317.09064 309.54688 318.325Q309.54688 319.59064 310.03125 320.15314Q310.51562 320.71564 311.28125 320.71564Q311.90625 320.71564 312.3125 320.34064Q312.73438 319.96564 312.85938 319.16876ZM318.85938 320.6844Q318.26562 321.1844 317.71875 321.3875Q317.1875 321.59064 316.5625 321.59064Q315.53125 321.59064 314.98438 321.09064Q314.4375 320.59064 314.4375 319.8094Q314.4375 319.35626 314.64062 318.98126Q314.84375 318.59064 315.1875 318.3719Q315.53125 318.1375 315.95312 318.02814Q316.25 317.9344 316.89062 317.85626Q318.15625 317.71564 318.76562 317.4969Q318.76562 317.27814 318.76562 317.23126Q318.76562 316.575 318.46875 316.3094Q318.0625 315.96564 317.26562 315.96564Q316.53125 315.96564 316.17188 316.23126Q315.8125 316.48126 315.64062 317.1375L314.60938 316.9969Q314.75 316.34064 315.07812 315.9344Q315.40625 315.52814 316.01562 315.3094Q316.625 315.09064 317.42188 315.09064Q318.21875 315.09064 318.71875 315.27814Q319.21875 315.46564 319.45312 315.7469Q319.6875 316.02814 319.78125 316.46564Q319.82812 316.73126 319.82812 317.4344L319.82812 318.84064Q319.82812 320.3094 319.89062 320.7Q319.96875 321.09064 320.17188 321.45L319.0625 321.45Q318.90625 321.1219 318.85938 320.6844ZM318.76562 318.325Q318.1875 318.5594 317.04688 318.73126Q316.39062 318.825 316.125 318.95Q315.85938 319.0594 315.70312 319.27814Q315.5625 319.4969 315.5625 319.77814Q315.5625 320.2 315.875 320.48126Q316.20312 320.7625 316.8125 320.7625Q317.42188 320.7625 317.89062 320.4969Q318.375 320.23126 318.59375 319.7625Q318.76562 319.40314 318.76562 318.71564L318.76562 318.325ZM325.82812 321.45L325.82812 320.66876Q325.23438 321.59064 324.09375 321.59064Q323.34375 321.59064 322.71875 321.1844Q322.09375 320.7625 321.75 320.02814Q321.40625 319.29376 321.40625 318.34064Q321.40625 317.41876 321.71875 316.65314Q322.03125 315.8875 322.65625 315.4969Q323.28125 315.09064 324.04688 315.09064Q324.60938 315.09064 325.04688 315.325Q325.48438 315.5594 325.76562 315.9344L325.76562 312.85626L326.8125 312.85626L326.8125 321.45L325.82812 321.45ZM322.5 318.34064Q322.5 319.54376 323.0 320.1375Q323.5 320.71564 324.1875 320.71564Q324.875 320.71564 325.35938 320.15314Q325.84375 319.59064 325.84375 318.4344Q325.84375 317.15314 325.34375 316.5594Q324.85938 315.96564 324.14062 315.96564Q323.4375 315.96564 322.96875 316.54376Q322.5 317.10626 322.5 318.34064ZM333.04688 319.45L334.14062 319.575Q333.89062 320.52814 333.1875 321.0594Q332.48438 321.59064 331.40625 321.59064Q330.04688 321.59064 329.23438 320.7469Q328.4375 319.90314 328.4375 318.3875Q328.4375 316.825 329.25 315.96564Q330.0625 315.09064 331.34375 315.09064Q332.59375 315.09064 333.375 315.9344Q334.17188 316.77814 334.17188 318.325Q334.17188 318.41876 334.17188 318.60626L329.53125 318.60626Q329.59375 319.6375 330.10938 320.1844Q330.625 320.71564 331.40625 320.71564Q331.98438 320.71564 332.39062 320.41876Q332.8125 320.10626 333.04688 319.45ZM329.59375 317.7469L333.0625 317.7469Q333.0 316.95 332.67188 316.5594Q332.15625 315.95 331.35938 315.95Q330.625 315.95 330.125 316.4344Q329.64062 316.91876 329.59375 317.7469ZM335.79688 321.45L335.79688 315.23126L336.73438 315.23126L336.73438 316.10626Q337.03125 315.6375 337.51562 315.3719Q338.0 315.09064 338.625 315.09064Q339.3125 315.09064 339.75 315.3719Q340.20312 315.65314 340.375 316.16876Q341.125 315.09064 342.29688 315.09064Q343.23438 315.09064 343.71875 315.60626Q344.21875 316.10626 344.21875 317.1844L344.21875 321.45L343.17188 321.45L343.17188 317.52814Q343.17188 316.90314 343.0625 316.6219Q342.96875 316.34064 342.70312 316.16876Q342.4375 315.9969 342.0625 315.9969Q341.40625 315.9969 340.96875 316.4344Q340.54688 316.8719 340.54688 317.84064L340.54688 321.45L339.48438 321.45L339.48438 317.40314Q339.48438 316.7 339.21875 316.35626Q338.96875 315.9969 338.39062 315.9969Q337.9375 315.9969 337.5625 316.23126Q337.1875 316.46564 337.01562 316.91876Q336.84375 317.3719 336.84375 318.21564L336.84375 321.45L335.79688 321.45ZM345.79688 314.075L345.79688 312.85626L346.85938 312.85626L346.85938 314.075L345.79688 314.075ZM345.79688 321.45L345.79688 315.23126L346.85938 315.23126L346.85938 321.45L345.79688 321.45ZM352.85938 319.16876L353.89062 319.3094Q353.71875 320.3719 353.01562 320.98126Q352.3125 321.59064 351.29688 321.59064Q350.01562 321.59064 349.23438 320.7625Q348.46875 319.91876 348.46875 318.35626Q348.46875 317.35626 348.79688 316.60626Q349.14062 315.84064 349.8125 315.46564Q350.5 315.09064 351.3125 315.09064Q352.3125 315.09064 352.95312 315.60626Q353.60938 316.10626 353.79688 317.0594L352.76562 317.21564Q352.625 316.59064 352.25 316.27814Q351.875 315.95 351.34375 315.95Q350.54688 315.95 350.04688 316.52814Q349.54688 317.09064 349.54688 318.325Q349.54688 319.59064 350.03125 320.15314Q350.51562 320.71564 351.28125 320.71564Q351.90625 320.71564 352.3125 320.34064Q352.73438 319.96564 352.85938 319.16876Z" fill-rule="nonzero"/><path fill="#000000" d="M380.0901 321.45L380.0901 312.85626L383.3401 312.85626Q384.18384 312.85626 384.63696 312.9344Q385.2776 313.04376 385.69946 313.34064Q386.13696 313.6375 386.38696 314.16876Q386.6526 314.7 386.6526 315.34064Q386.6526 316.4344 385.94946 317.2Q385.26196 317.95 383.43384 317.95L381.2307 317.95L381.2307 321.45L380.0901 321.45ZM381.2307 316.95L383.44946 316.95Q384.55884 316.95 385.01196 316.54376Q385.4807 316.1219 385.4807 315.3719Q385.4807 314.84064 385.19946 314.46564Q384.93384 314.075 384.49634 313.95Q384.19946 313.8719 383.43384 313.8719L381.2307 313.8719L381.2307 316.95ZM387.9651 321.45L387.9651 312.85626L389.01196 312.85626L389.01196 315.9344Q389.74634 315.09064 390.87134 315.09064Q391.57446 315.09064 392.07446 315.3719Q392.5901 315.6375 392.80884 316.1219Q393.0276 316.59064 393.0276 317.5125L393.0276 321.45L391.9807 321.45L391.9807 317.5125Q391.9807 316.71564 391.63696 316.35626Q391.2932 315.9969 390.6682 315.9969Q390.19946 315.9969 389.7776 316.2469Q389.37134 316.48126 389.18384 316.90314Q389.01196 317.3094 389.01196 318.04376L389.01196 321.45L387.9651 321.45ZM395.0901 321.45L395.0901 312.85626L398.05884 312.85626Q399.05884 312.85626 399.5901 312.98126Q400.32446 313.15314 400.8401 313.59064Q401.5276 314.16876 401.8557 315.075Q402.19946 315.96564 402.19946 317.10626Q402.19946 318.09064 401.9651 318.84064Q401.74634 319.59064 401.38696 320.09064Q401.0276 320.59064 400.5901 320.8719Q400.1682 321.15314 399.57446 321.3094Q398.9807 321.45 398.19946 321.45L395.0901 321.45ZM396.2307 320.4344L398.05884 320.4344Q398.9182 320.4344 399.4026 320.27814Q399.88696 320.1219 400.1682 319.825Q400.57446 319.4344 400.7932 318.7469Q401.0276 318.0594 401.0276 317.09064Q401.0276 315.7469 400.57446 315.02814Q400.13696 314.29376 399.51196 314.04376Q399.0432 313.8719 398.0432 313.8719L396.2307 313.8719L396.2307 320.4344ZM406.7151 318.6844L407.7776 318.59064Q407.8557 319.2469 408.13696 319.65314Q408.4182 320.0594 408.99634 320.325Q409.5901 320.575 410.32446 320.575Q410.9651 320.575 411.4651 320.3875Q411.9651 320.1844 412.19946 319.85626Q412.44946 319.5125 412.44946 319.1219Q412.44946 318.71564 412.2151 318.41876Q411.9807 318.10626 411.44946 317.90314Q411.0901 317.7625 409.9026 317.48126Q408.7307 317.2 408.26196 316.95Q407.63696 316.6219 407.3401 316.15314Q407.0432 315.66876 407.0432 315.075Q407.0432 314.4344 407.4026 313.8719Q407.7776 313.29376 408.4807 313.0125Q409.19946 312.71564 410.05884 312.71564Q411.01196 312.71564 411.74634 313.02814Q412.4807 313.325 412.87134 313.9344Q413.26196 314.52814 413.2932 315.27814L412.19946 315.35626Q412.1057 314.54376 411.5901 314.1375Q411.0901 313.71564 410.1057 313.71564Q409.07446 313.71564 408.6057 314.09064Q408.13696 314.46564 408.13696 314.9969Q408.13696 315.46564 408.4651 315.7625Q408.7932 316.0594 410.1682 316.3719Q411.55884 316.6844 412.07446 316.91876Q412.82446 317.27814 413.18384 317.8094Q413.5432 318.325 413.5432 319.02814Q413.5432 319.71564 413.1526 320.325Q412.76196 320.91876 412.0276 321.2625Q411.2932 321.59064 410.37134 321.59064Q409.19946 321.59064 408.4026 321.2625Q407.62134 320.91876 407.1682 320.23126Q406.7307 319.54376 406.7151 318.6844ZM417.26196 320.5125L417.4182 321.4344Q416.9651 321.52814 416.62134 321.52814Q416.0432 321.52814 415.7307 321.35626Q415.4182 321.16876 415.2776 320.8719Q415.1526 320.575 415.1526 319.6219L415.1526 316.04376L414.38696 316.04376L414.38696 315.23126L415.1526 315.23126L415.1526 313.6844L416.19946 313.0594L416.19946 315.23126L417.26196 315.23126L417.26196 316.04376L416.19946 316.04376L416.19946 319.6844Q416.19946 320.1375 416.24634 320.2625Q416.30884 320.3875 416.43384 320.46564Q416.55884 320.54376 416.7932 320.54376Q416.9807 320.54376 417.26196 320.5125ZM422.0432 321.45L422.0432 320.52814Q421.30884 321.59064 420.05884 321.59064Q419.51196 321.59064 419.0276 321.3875Q418.55884 321.16876 418.32446 320.85626Q418.0901 320.52814 417.99634 320.0594Q417.93384 319.7625 417.93384 319.075L417.93384 315.23126L418.99634 315.23126L418.99634 318.6844Q418.99634 319.4969 419.05884 319.79376Q419.1526 320.2 419.4651 320.45Q419.7932 320.6844 420.2776 320.6844Q420.74634 320.6844 421.1526 320.45Q421.57446 320.2 421.74634 319.77814Q421.93384 319.35626 421.93384 318.5594L421.93384 315.23126L422.9807 315.23126L422.9807 321.45L422.0432 321.45ZM428.99634 321.45L428.99634 320.66876Q428.4026 321.59064 427.26196 321.59064Q426.51196 321.59064 425.88696 321.1844Q425.26196 320.7625 424.9182 320.02814Q424.57446 319.29376 424.57446 318.34064Q424.57446 317.41876 424.88696 316.65314Q425.19946 315.8875 425.82446 315.4969Q426.44946 315.09064 427.2151 315.09064Q427.7776 315.09064 428.2151 315.325Q428.6526 315.5594 428.93384 315.9344L428.93384 312.85626L429.9807 312.85626L429.9807 321.45L428.99634 321.45ZM425.6682 318.34064Q425.6682 319.54376 426.1682 320.1375Q426.6682 320.71564 427.3557 320.71564Q428.0432 320.71564 428.5276 320.15314Q429.01196 319.59064 429.01196 318.4344Q429.01196 317.15314 428.51196 316.5594Q428.0276 315.96564 427.30884 315.96564Q426.6057 315.96564 426.13696 316.54376Q425.6682 317.10626 425.6682 318.34064ZM436.2151 319.45L437.30884 319.575Q437.05884 320.52814 436.3557 321.0594Q435.6526 321.59064 434.57446 321.59064Q433.2151 321.59064 432.4026 320.7469Q431.6057 319.90314 431.6057 318.3875Q431.6057 316.825 432.4182 315.96564Q433.2307 315.09064 434.51196 315.09064Q435.76196 315.09064 436.5432 315.9344Q437.3401 316.77814 437.3401 318.325Q437.3401 318.41876 437.3401 318.60626L432.69946 318.60626Q432.76196 319.6375 433.2776 320.1844Q433.7932 320.71564 434.57446 320.71564Q435.1526 320.71564 435.55884 320.41876Q435.9807 320.10626 436.2151 319.45ZM432.76196 317.7469L436.2307 317.7469Q436.1682 316.95 435.8401 316.5594Q435.32446 315.95 434.5276 315.95Q433.7932 315.95 433.2932 316.4344Q432.80884 316.91876 432.76196 317.7469ZM438.9651 321.45L438.9651 315.23126L439.9026 315.23126L439.9026 316.10626Q440.5901 315.09064 441.88696 315.09064Q442.44946 315.09064 442.9182 315.29376Q443.4026 315.4969 443.63696 315.825Q443.87134 316.15314 443.9651 316.59064Q444.01196 316.8875 444.01196 317.6219L444.01196 321.45L442.9651 321.45L442.9651 317.66876Q442.9651 317.0125 442.8401 316.7Q442.7151 316.3875 442.4026 316.2Q442.0901 315.9969 441.6682 315.9969Q440.99634 315.9969 440.49634 316.4344Q440.01196 316.85626 440.01196 318.04376L440.01196 321.45L438.9651 321.45ZM448.26196 320.5125L448.4182 321.4344Q447.9651 321.52814 447.62134 321.52814Q447.0432 321.52814 446.7307 321.35626Q446.4182 321.16876 446.2776 320.8719Q446.1526 320.575 446.1526 319.6219L446.1526 316.04376L445.38696 316.04376L445.38696 315.23126L446.1526 315.23126L446.1526 313.6844L447.19946 313.0594L447.19946 315.23126L448.26196 315.23126L448.26196 316.04376L447.19946 316.04376L447.19946 319.6844Q447.19946 320.1375 447.24634 320.2625Q447.30884 320.3875 447.43384 320.46564Q447.55884 320.54376 447.7932 320.54376Q447.9807 320.54376 448.26196 320.5125Z" fill-rule="nonzero"/><path fill="#000000" d="M496.38333 318.6844L497.44583 318.59064Q497.52396 319.2469 497.8052 319.65314Q498.08646 320.0594 498.66458 320.325Q499.25833 320.575 499.9927 320.575Q500.63333 320.575 501.13333 320.3875Q501.63333 320.1844 501.8677 319.85626Q502.1177 319.5125 502.1177 319.1219Q502.1177 318.71564 501.88333 318.41876Q501.64896 318.10626 501.1177 317.90314Q500.75833 317.7625 499.57083 317.48126Q498.39896 317.2 497.9302 316.95Q497.3052 316.6219 497.00833 316.15314Q496.71146 315.66876 496.71146 315.075Q496.71146 314.4344 497.07083 313.8719Q497.44583 313.29376 498.14896 313.0125Q498.8677 312.71564 499.72708 312.71564Q500.6802 312.71564 501.41458 313.02814Q502.14896 313.325 502.53958 313.9344Q502.9302 314.52814 502.96146 315.27814L501.8677 315.35626Q501.77396 314.54376 501.25833 314.1375Q500.75833 313.71564 499.77396 313.71564Q498.7427 313.71564 498.27396 314.09064Q497.8052 314.46564 497.8052 314.9969Q497.8052 315.46564 498.13333 315.7625Q498.46146 316.0594 499.83646 316.3719Q501.22708 316.6844 501.7427 316.91876Q502.4927 317.27814 502.85208 317.8094Q503.21146 318.325 503.21146 319.02814Q503.21146 319.71564 502.82083 320.325Q502.4302 320.91876 501.69583 321.2625Q500.96146 321.59064 500.03958 321.59064Q498.8677 321.59064 498.07083 321.2625Q497.28958 320.91876 496.83646 320.23126Q496.39896 319.54376 496.38333 318.6844ZM508.88333 319.45L509.97708 319.575Q509.72708 320.52814 509.02396 321.0594Q508.32083 321.59064 507.2427 321.59064Q505.88333 321.59064 505.07083 320.7469Q504.27396 319.90314 504.27396 318.3875Q504.27396 316.825 505.08646 315.96564Q505.89896 315.09064 507.1802 315.09064Q508.4302 315.09064 509.21146 315.9344Q510.00833 316.77814 510.00833 318.325Q510.00833 318.41876 510.00833 318.60626L505.3677 318.60626Q505.4302 319.6375 505.94583 320.1844Q506.46146 320.71564 507.2427 320.71564Q507.82083 320.71564 508.22708 320.41876Q508.64896 320.10626 508.88333 319.45ZM505.4302 317.7469L508.89896 317.7469Q508.83646 316.95 508.50833 316.5594Q507.9927 315.95 507.19583 315.95Q506.46146 315.95 505.96146 316.4344Q505.47708 316.91876 505.4302 317.7469ZM511.63333 321.45L511.63333 315.23126L512.5708 315.23126L512.5708 316.10626Q513.2583 315.09064 514.5552 315.09064Q515.1177 315.09064 515.5864 315.29376Q516.0708 315.4969 516.3052 315.825Q516.53955 316.15314 516.6333 316.59064Q516.6802 316.8875 516.6802 317.6219L516.6802 321.45L515.6333 321.45L515.6333 317.66876Q515.6333 317.0125 515.5083 316.7Q515.3833 316.3875 515.0708 316.2Q514.7583 315.9969 514.3364 315.9969Q513.66455 315.9969 513.16455 316.4344Q512.6802 316.85626 512.6802 318.04376L512.6802 321.45L511.63333 321.45ZM518.6333 314.075L518.6333 312.85626L519.6958 312.85626L519.6958 314.075L518.6333 314.075ZM518.6333 321.45L518.6333 315.23126L519.6958 315.23126L519.6958 321.45L518.6333 321.45ZM521.2427 318.34064Q521.2427 316.60626 522.1958 315.77814Q522.9927 315.09064 524.1489 315.09064Q525.4302 315.09064 526.2427 315.9344Q527.0708 316.7625 527.0708 318.2469Q527.0708 319.45 526.7114 320.1375Q526.35205 320.825 525.6489 321.21564Q524.9614 321.59064 524.1489 321.59064Q522.85205 321.59064 522.03955 320.7625Q521.2427 319.91876 521.2427 318.34064ZM522.3208 318.34064Q522.3208 319.52814 522.8364 320.1219Q523.3677 320.71564 524.1489 320.71564Q524.9458 320.71564 525.4614 320.1219Q525.97705 319.52814 525.97705 318.3094Q525.97705 317.15314 525.4458 316.5594Q524.9302 315.96564 524.1489 315.96564Q523.3677 315.96564 522.8364 316.5594Q522.3208 317.1375 522.3208 318.34064ZM528.6177 321.45L528.6177 315.23126L529.5708 315.23126L529.5708 316.16876Q529.9302 315.5125 530.22705 315.3094Q530.53955 315.09064 530.91455 315.09064Q531.4458 315.09064 531.9927 315.41876L531.6333 316.40314Q531.2427 316.16876 530.8677 316.16876Q530.5083 316.16876 530.22705 316.3875Q529.9614 316.59064 529.85205 316.96564Q529.66455 317.52814 529.66455 318.1844L529.66455 321.45L528.6177 321.45Z" fill-rule="nonzero"/><path fill="#000000" d="M482.77396 335.45L482.77396 326.85626L486.58646 326.85626Q487.7427 326.85626 488.33646 327.09064Q488.9302 327.325 489.28958 327.91876Q489.64896 328.4969 489.64896 329.2Q489.64896 330.1219 489.0552 330.7469Q488.46146 331.3719 487.22708 331.54376Q487.6802 331.7625 487.91458 331.96564Q488.41458 332.41876 488.85208 333.10626L490.35208 335.45L488.91458 335.45L487.78958 333.66876Q487.28958 332.8875 486.96146 332.48126Q486.64896 332.075 486.38333 331.91876Q486.13333 331.7469 485.8677 331.66876Q485.6802 331.6375 485.2427 331.6375L483.91458 331.6375L483.91458 335.45L482.77396 335.45ZM483.91458 330.65314L486.3677 330.65314Q487.13333 330.65314 487.57083 330.4969Q488.02396 330.325 488.2427 329.98126Q488.47708 329.6219 488.47708 329.2Q488.47708 328.59064 488.02396 328.2Q487.58646 327.8094 486.63333 327.8094L483.91458 327.8094L483.91458 330.65314ZM495.88333 333.45L496.97708 333.575Q496.72708 334.52814 496.02396 335.0594Q495.32083 335.59064 494.2427 335.59064Q492.88333 335.59064 492.07083 334.7469Q491.27396 333.90314 491.27396 332.3875Q491.27396 330.825 492.08646 329.96564Q492.89896 329.09064 494.1802 329.09064Q495.4302 329.09064 496.21146 329.9344Q497.00833 330.77814 497.00833 332.325Q497.00833 332.41876 497.00833 332.60626L492.3677 332.60626Q492.4302 333.6375 492.94583 334.1844Q493.46146 334.71564 494.2427 334.71564Q494.82083 334.71564 495.22708 334.41876Q495.64896 334.10626 495.88333 333.45ZM492.4302 331.7469L495.89896 331.7469Q495.83646 330.95 495.50833 330.5594Q494.9927 329.95 494.19583 329.95Q493.46146 329.95 492.96146 330.4344Q492.47708 330.91876 492.4302 331.7469ZM498.21146 333.59064L499.2427 333.4344Q499.33646 334.0594 499.72708 334.3875Q500.13333 334.71564 500.8677 334.71564Q501.58646 334.71564 501.9302 334.4344Q502.28958 334.1375 502.28958 333.73126Q502.28958 333.3719 501.97708 333.16876Q501.75833 333.02814 500.89896 332.8094Q499.7427 332.5125 499.28958 332.3094Q498.85208 332.09064 498.6177 331.71564Q498.38333 331.34064 498.38333 330.8719Q498.38333 330.46564 498.57083 330.10626Q498.75833 329.7469 499.08646 329.5125Q499.33646 329.34064 499.75833 329.21564Q500.1802 329.09064 500.6802 329.09064Q501.39896 329.09064 501.94583 329.3094Q502.50833 329.5125 502.77396 329.8719Q503.03958 330.23126 503.13333 330.825L502.10208 330.96564Q502.03958 330.4969 501.69583 330.23126Q501.3677 329.95 500.7427 329.95Q500.02396 329.95 499.71146 330.2Q499.39896 330.4344 499.39896 330.7625Q499.39896 330.96564 499.52396 331.1219Q499.66458 331.29376 499.9302 331.40314Q500.08646 331.46564 500.8677 331.66876Q501.9927 331.98126 502.4302 332.16876Q502.8677 332.35626 503.1177 332.71564Q503.3677 333.075 503.3677 333.6219Q503.3677 334.15314 503.0552 334.6219Q502.75833 335.075 502.1802 335.34064Q501.60208 335.59064 500.8677 335.59064Q499.64896 335.59064 499.00833 335.09064Q498.38333 334.575 498.21146 333.59064ZM508.88333 333.45L509.97708 333.575Q509.72708 334.52814 509.02396 335.0594Q508.32083 335.59064 507.2427 335.59064Q505.88333 335.59064 505.07083 334.7469Q504.27396 333.90314 504.27396 332.3875Q504.27396 330.825 505.08646 329.96564Q505.89896 329.09064 507.1802 329.09064Q508.4302 329.09064 509.21146 329.9344Q510.00833 330.77814 510.00833 332.325Q510.00833 332.41876 510.00833 332.60626L505.3677 332.60626Q505.4302 333.6375 505.94583 334.1844Q506.46146 334.71564 507.2427 334.71564Q507.82083 334.71564 508.22708 334.41876Q508.64896 334.10626 508.88333 333.45ZM505.4302 331.7469L508.89896 331.7469Q508.83646 330.95 508.50833 330.5594Q507.9927 329.95 507.19583 329.95Q506.46146 329.95 505.96146 330.4344Q505.47708 330.91876 505.4302 331.7469ZM515.6958 334.6844Q515.10205 335.1844 514.5552 335.3875Q514.0239 335.59064 513.3989 335.59064Q512.3677 335.59064 511.82083 335.09064Q511.27396 334.59064 511.27396 333.8094Q511.27396 333.35626 511.47708 332.98126Q511.6802 332.59064 512.0239 332.3719Q512.3677 332.1375 512.78955 332.02814Q513.0864 331.9344 513.72705 331.85626Q514.9927 331.71564 515.60205 331.4969Q515.60205 331.27814 515.60205 331.23126Q515.60205 330.575 515.3052 330.3094Q514.8989 329.96564 514.10205 329.96564Q513.3677 329.96564 513.0083 330.23126Q512.6489 330.48126 512.47705 331.1375L511.44583 330.9969Q511.58646 330.34064 511.91458 329.9344Q512.2427 329.52814 512.85205 329.3094Q513.4614 329.09064 514.2583 329.09064Q515.0552 329.09064 515.5552 329.27814Q516.0552 329.46564 516.28955 329.7469Q516.5239 330.02814 516.6177 330.46564Q516.66455 330.73126 516.66455 331.4344L516.66455 332.84064Q516.66455 334.3094 516.72705 334.7Q516.8052 335.09064 517.0083 335.45L515.8989 335.45Q515.7427 335.1219 515.6958 334.6844ZM515.60205 332.325Q515.0239 332.5594 513.8833 332.73126Q513.22705 332.825 512.9614 332.95Q512.6958 333.0594 512.53955 333.27814Q512.3989 333.4969 512.3989 333.77814Q512.3989 334.2 512.7114 334.48126Q513.03955 334.7625 513.6489 334.7625Q514.2583 334.7625 514.72705 334.4969Q515.2114 334.23126 515.4302 333.7625Q515.60205 333.40314 515.60205 332.71564L515.60205 332.325ZM518.6177 335.45L518.6177 329.23126L519.5708 329.23126L519.5708 330.16876Q519.9302 329.5125 520.22705 329.3094Q520.53955 329.09064 520.91455 329.09064Q521.4458 329.09064 521.9927 329.41876L521.6333 330.40314Q521.2427 330.16876 520.8677 330.16876Q520.5083 330.16876 520.22705 330.3875Q519.9614 330.59064 519.85205 330.96564Q519.66455 331.52814 519.66455 332.1844L519.66455 335.45L518.6177 335.45ZM526.6958 333.16876L527.72705 333.3094Q527.5552 334.3719 526.85205 334.98126Q526.1489 335.59064 525.1333 335.59064Q523.85205 335.59064 523.0708 334.7625Q522.3052 333.91876 522.3052 332.35626Q522.3052 331.35626 522.6333 330.60626Q522.97705 329.84064 523.6489 329.46564Q524.3364 329.09064 525.1489 329.09064Q526.1489 329.09064 526.78955 329.60626Q527.4458 330.10626 527.6333 331.0594L526.60205 331.21564Q526.4614 330.59064 526.0864 330.27814Q525.7114 329.95 525.1802 329.95Q524.3833 329.95 523.8833 330.52814Q523.3833 331.09064 523.3833 332.325Q523.3833 333.59064 523.8677 334.15314Q524.35205 334.71564 525.1177 334.71564Q525.7427 334.71564 526.1489 334.34064Q526.5708 333.96564 526.6958 333.16876ZM528.6333 335.45L528.6333 326.85626L529.6802 326.85626L529.6802 329.9344Q530.41455 329.09064 531.53955 329.09064Q532.2427 329.09064 532.7427 329.3719Q533.2583 329.6375 533.47705 330.1219Q533.6958 330.59064 533.6958 331.5125L533.6958 335.45L532.6489 335.45L532.6489 331.5125Q532.6489 330.71564 532.3052 330.35626Q531.9614 329.9969 531.3364 329.9969Q530.8677 329.9969 530.4458 330.2469Q530.03955 330.48126 529.85205 330.90314Q529.6802 331.3094 529.6802 332.04376L529.6802 335.45L528.6333 335.45ZM539.8833 333.45L540.97705 333.575Q540.72705 334.52814 540.0239 335.0594Q539.3208 335.59064 538.2427 335.59064Q536.8833 335.59064 536.0708 334.7469Q535.2739 333.90314 535.2739 332.3875Q535.2739 330.825 536.0864 329.96564Q536.8989 329.09064 538.1802 329.09064Q539.4302 329.09064 540.2114 329.9344Q541.0083 330.77814 541.0083 332.325Q541.0083 332.41876 541.0083 332.60626L536.3677 332.60626Q536.4302 333.6375 536.9458 334.1844Q537.4614 334.71564 538.2427 334.71564Q538.8208 334.71564 539.22705 334.41876Q539.6489 334.10626 539.8833 333.45ZM536.4302 331.7469L539.8989 331.7469Q539.8364 330.95 539.5083 330.5594Q538.9927 329.95 538.1958 329.95Q537.4614 329.95 536.9614 330.4344Q536.47705 330.91876 536.4302 331.7469ZM542.6177 335.45L542.6177 329.23126L543.5708 329.23126L543.5708 330.16876Q543.9302 329.5125 544.22705 329.3094Q544.53955 329.09064 544.91455 329.09064Q545.4458 329.09064 545.9927 329.41876L545.6333 330.40314Q545.2427 330.16876 544.8677 330.16876Q544.5083 330.16876 544.22705 330.3875Q543.9614 330.59064 543.85205 330.96564Q543.66455 331.52814 543.66455 332.1844L543.66455 335.45L542.6177 335.45Z" fill-rule="nonzero"/><path fill="#757575" d="M30.315624 32.534374L32.20625 33.003124Q31.6125 35.346874 30.065624 36.58125Q28.51875 37.8 26.26875 37.8Q23.95625 37.8 22.503124 36.8625Q21.065624 35.909374 20.3 34.128124Q19.55 32.33125 19.55 30.284374Q19.55 28.05 20.39375 26.39375Q21.253124 24.721874 22.83125 23.8625Q24.409374 22.9875 26.3 22.9875Q28.45625 22.9875 29.909374 24.08125Q31.378124 25.175 31.95625 27.159374L30.096874 27.596874Q29.596874 26.034374 28.64375 25.33125Q27.70625 24.6125 26.26875 24.6125Q24.6125 24.6125 23.503124 25.409374Q22.39375 26.190624 21.940624 27.534374Q21.503124 28.8625 21.503124 30.26875Q21.503124 32.096874 22.034374 33.471874Q22.565624 34.83125 23.690624 35.503124Q24.815624 36.175 26.1125 36.175Q27.70625 36.175 28.815624 35.253124Q29.925 34.33125 30.315624 32.534374ZM40.659374 37.55L40.659374 36.01875Q39.45625 37.784374 37.378124 37.784374Q36.45625 37.784374 35.659374 37.440624Q34.8625 37.08125 34.471874 36.55Q34.096874 36.01875 33.940624 35.2375Q33.83125 34.721874 33.83125 33.596874L33.83125 27.175L35.58125 27.175L35.58125 32.925Q35.58125 34.3 35.690624 34.784374Q35.8625 35.471874 36.39375 35.878124Q36.940624 36.26875 37.721874 36.26875Q38.51875 36.26875 39.20625 35.8625Q39.909374 35.45625 40.190624 34.76875Q40.4875 34.065624 40.4875 32.7375L40.4875 27.175L42.2375 27.175L42.2375 37.55L40.659374 37.55ZM44.846874 37.55L44.846874 27.175L46.425 27.175L46.425 28.753124Q47.034374 27.64375 47.55 27.3Q48.065624 26.940624 48.675 26.940624Q49.565624 26.940624 50.4875 27.503124L49.878124 29.14375Q49.2375 28.753124 48.596874 28.753124Q48.01875 28.753124 47.55 29.1125Q47.096874 29.45625 46.89375 30.065624Q46.6125 31.003124 46.6125 32.1125L46.6125 37.55L44.846874 37.55ZM51.846874 37.55L51.846874 27.175L53.425 27.175L53.425 28.753124Q54.034374 27.64375 54.55 27.3Q55.065624 26.940624 55.675 26.940624Q56.565624 26.940624 57.4875 27.503124L56.878124 29.14375Q56.2375 28.753124 55.596874 28.753124Q55.01875 28.753124 54.55 29.1125Q54.096874 29.45625 53.89375 30.065624Q53.6125 31.003124 53.6125 32.1125L53.6125 37.55L51.846874 37.55ZM65.97188 34.20625L67.78438 34.440624Q67.3625 36.01875 66.19063 36.909374Q65.03438 37.784374 63.221874 37.784374Q60.95625 37.784374 59.6125 36.39375Q58.284374 34.9875 58.284374 32.45625Q58.284374 29.83125 59.628124 28.39375Q60.971874 26.940624 63.128124 26.940624Q65.20625 26.940624 66.51875 28.3625Q67.84688 29.76875 67.84688 32.346874Q67.84688 32.503124 67.83125 32.815624L60.096874 32.815624Q60.190624 34.51875 61.065624 35.425Q61.940624 36.33125 63.2375 36.33125Q64.20625 36.33125 64.87813 35.83125Q65.56563 35.315624 65.97188 34.20625ZM60.190624 31.3625L65.9875 31.3625Q65.87813 30.065624 65.33125 29.409374Q64.4875 28.39375 63.14375 28.39375Q61.940624 28.39375 61.1125 29.20625Q60.284374 30.003124 60.190624 31.3625ZM69.8625 37.55L69.8625 27.175L71.45625 27.175L71.45625 28.659374Q72.59688 26.940624 74.75313 26.940624Q75.69063 26.940624 76.47188 27.284374Q77.26875 27.6125 77.65938 28.159374Q78.05 28.70625 78.20625 29.45625Q78.3 29.95625 78.3 31.175L78.3 37.55L76.53438 37.55L76.53438 31.2375Q76.53438 30.159374 76.33125 29.628124Q76.12813 29.096874 75.59688 28.784374Q75.08125 28.471874 74.37813 28.471874Q73.25313 28.471874 72.44063 29.190624Q71.62813 29.89375 71.62813 31.878124L71.62813 37.55L69.8625 37.55ZM84.70625 35.971874L84.95625 37.534374Q84.22188 37.690624 83.62813 37.690624Q82.675 37.690624 82.14375 37.39375Q81.62813 37.08125 81.40938 36.596874Q81.19063 36.096874 81.19063 34.51875L81.19063 28.55L79.90938 28.55L79.90938 27.175L81.19063 27.175L81.19063 24.6125L82.94063 23.55L82.94063 27.175L84.70625 27.175L84.70625 28.55L82.94063 28.55L82.94063 34.6125Q82.94063 35.3625 83.03438 35.58125Q83.12813 35.784374 83.33125 35.925Q83.55 36.05 83.94063 36.05Q84.22188 36.05 84.70625 35.971874ZM92.51875 30.58125Q92.51875 27.01875 94.425 25.003124Q96.34688 22.971874 99.37813 22.971874Q101.3625 22.971874 102.94063 23.925Q104.53438 24.878124 105.3625 26.58125Q106.20625 28.26875 106.20625 30.409374Q106.20625 32.58125 105.33125 34.3Q104.45625 36.01875 102.83125 36.909374Q101.22188 37.8 99.3625 37.8Q97.34688 37.8 95.75313 36.83125Q94.15938 35.846874 93.33125 34.159374Q92.51875 32.45625 92.51875 30.58125ZM94.47188 30.6125Q94.47188 33.190624 95.8625 34.690624Q97.25313 36.175 99.34688 36.175Q101.4875 36.175 102.8625 34.675Q104.25313 33.159374 104.25313 30.39375Q104.25313 28.659374 103.65938 27.3625Q103.08125 26.05 101.94063 25.33125Q100.8 24.6125 99.37813 24.6125Q97.37813 24.6125 95.925 26.003124Q94.47188 27.378124 94.47188 30.6125ZM115.64375 33.753124L117.3625 33.971874Q117.08125 35.76875 115.90938 36.784374Q114.75313 37.784374 113.05 37.784374Q110.925 37.784374 109.62813 36.39375Q108.33125 35.003124 108.33125 32.409374Q108.33125 30.721874 108.87813 29.471874Q109.44063 28.20625 110.58125 27.58125Q111.72188 26.940624 113.06563 26.940624Q114.75313 26.940624 115.81563 27.8Q116.89375 28.659374 117.20625 30.221874L115.4875 30.4875Q115.25313 29.440624 114.62813 28.925Q114.00313 28.39375 113.12813 28.39375Q111.8 28.39375 110.97188 29.346874Q110.14375 30.3 110.14375 32.346874Q110.14375 34.440624 110.94063 35.39375Q111.7375 36.33125 113.03438 36.33125Q114.06563 36.33125 114.75313 35.70625Q115.45625 35.065624 115.64375 33.753124ZM125.64375 33.753124L127.3625 33.971874Q127.08125 35.76875 125.90938 36.784374Q124.75313 37.784374 123.05 37.784374Q120.925 37.784374 119.62813 36.39375Q118.33125 35.003124 118.33125 32.409374Q118.33125 30.721874 118.87813 29.471874Q119.44063 28.20625 120.58125 27.58125Q121.72188 26.940624 123.06563 26.940624Q124.75313 26.940624 125.81563 27.8Q126.89375 28.659374 127.20625 30.221874L125.4875 30.4875Q125.25313 29.440624 124.62813 28.925Q124.00313 28.39375 123.12813 28.39375Q121.8 28.39375 120.97188 29.346874Q120.14375 30.3 120.14375 32.346874Q120.14375 34.440624 120.94063 35.39375Q121.7375 36.33125 123.03438 36.33125Q124.06563 36.33125 124.75313 35.70625Q125.45625 35.065624 125.64375 33.753124ZM135.65938 37.55L135.65938 36.01875Q134.45625 37.784374 132.37813 37.784374Q131.45625 37.784374 130.65938 37.440624Q129.8625 37.08125 129.47188 36.55Q129.09688 36.01875 128.94063 35.2375Q128.83125 34.721874 128.83125 33.596874L128.83125 27.175L130.58125 27.175L130.58125 32.925Q130.58125 34.3 130.69063 34.784374Q130.8625 35.471874 131.39375 35.878124Q131.94063 36.26875 132.72188 36.26875Q133.51875 36.26875 134.20625 35.8625Q134.90938 35.45625 135.19063 34.76875Q135.4875 34.065624 135.4875 32.7375L135.4875 27.175L137.2375 27.175L137.2375 37.55L135.65938 37.55ZM139.8625 41.51875L139.8625 27.175L141.47188 27.175L141.47188 28.51875Q142.03438 27.7375 142.7375 27.346874Q143.45625 26.940624 144.47188 26.940624Q145.8 26.940624 146.81563 27.628124Q147.83125 28.315624 148.34688 29.565624Q148.87813 30.8 148.87813 32.284374Q148.87813 33.878124 148.3 35.159374Q147.7375 36.425 146.64375 37.1125Q145.55 37.784374 144.34688 37.784374Q143.47188 37.784374 142.76875 37.409374Q142.08125 37.034374 141.62813 36.471874L141.62813 41.51875L139.8625 41.51875ZM141.45625 32.425Q141.45625 34.425 142.26875 35.378124Q143.08125 36.33125 144.2375 36.33125Q145.40938 36.33125 146.2375 35.346874Q147.08125 34.3625 147.08125 32.26875Q147.08125 30.3 146.25313 29.315624Q145.44063 28.315624 144.31563 28.315624Q143.19063 28.315624 142.31563 29.378124Q141.45625 30.425 141.45625 32.425ZM157.64375 36.26875Q156.65938 37.096874 155.75313 37.440624Q154.84688 37.784374 153.81563 37.784374Q152.1125 37.784374 151.19063 36.95625Q150.26875 36.1125 150.26875 34.815624Q150.26875 34.05 150.6125 33.425Q150.97188 32.8 151.53438 32.425Q152.09688 32.034374 152.8 31.83125Q153.31563 31.70625 154.3625 31.565624Q156.4875 31.315624 157.4875 30.971874Q157.50313 30.6125 157.50313 30.503124Q157.50313 29.440624 157.00313 28.9875Q156.33125 28.39375 155.00313 28.39375Q153.75313 28.39375 153.15938 28.83125Q152.58125 29.26875 152.3 30.378124L150.58125 30.14375Q150.81563 29.034374 151.34688 28.3625Q151.87813 27.675 152.89375 27.315624Q153.90938 26.940624 155.25313 26.940624Q156.58125 26.940624 157.40938 27.253124Q158.2375 27.565624 158.62813 28.05Q159.01875 28.51875 159.175 29.2375Q159.26875 29.690624 159.26875 30.8625L159.26875 33.20625Q159.26875 35.659374 159.37813 36.315624Q159.4875 36.95625 159.83125 37.55L157.9875 37.55Q157.72188 37.003124 157.64375 36.26875ZM157.4875 32.346874Q156.53438 32.7375 154.6125 33.003124Q153.53438 33.159374 153.08125 33.3625Q152.64375 33.55 152.39375 33.925Q152.14375 34.3 152.14375 34.76875Q152.14375 35.471874 152.675 35.940624Q153.20625 36.409374 154.2375 36.409374Q155.25313 36.409374 156.03438 35.971874Q156.83125 35.51875 157.20625 34.753124Q157.4875 34.14375 157.4875 32.9875L157.4875 32.346874ZM165.70625 35.971874L165.95625 37.534374Q165.22188 37.690624 164.62813 37.690624Q163.675 37.690624 163.14375 37.39375Q162.62813 37.08125 162.40938 36.596874Q162.19063 36.096874 162.19063 34.51875L162.19063 28.55L160.90938 28.55L160.90938 27.175L162.19063 27.175L162.19063 24.6125L163.94063 23.55L163.94063 27.175L165.70625 27.175L165.70625 28.55L163.94063 28.55L163.94063 34.6125Q163.94063 35.3625 164.03438 35.58125Q164.12813 35.784374 164.33125 35.925Q164.55 36.05 164.94063 36.05Q165.22188 36.05 165.70625 35.971874ZM167.87813 25.253124L167.87813 23.2375L169.64375 23.2375L169.64375 25.253124L167.87813 25.253124ZM167.87813 37.55L167.87813 27.175L169.64375 27.175L169.64375 37.55L167.87813 37.55ZM171.22188 32.3625Q171.22188 29.4875 172.81563 28.096874Q174.15938 26.940624 176.08125 26.940624Q178.22188 26.940624 179.56563 28.346874Q180.925 29.753124 180.925 32.221874Q180.925 34.221874 180.33125 35.378124Q179.7375 36.51875 178.58125 37.159374Q177.44063 37.784374 176.08125 37.784374Q173.89375 37.784374 172.55 36.39375Q171.22188 34.9875 171.22188 32.3625ZM173.01875 32.3625Q173.01875 34.3625 173.87813 35.346874Q174.75313 36.33125 176.08125 36.33125Q177.39375 36.33125 178.25313 35.346874Q179.12813 34.346874 179.12813 32.3Q179.12813 30.378124 178.25313 29.39375Q177.37813 28.39375 176.08125 28.39375Q174.75313 28.39375 173.87813 29.39375Q173.01875 30.378124 173.01875 32.3625ZM182.8625 37.55L182.8625 27.175L184.45625 27.175L184.45625 28.659374Q185.59688 26.940624 187.75313 26.940624Q188.69063 26.940624 189.47188 27.284374Q190.26875 27.6125 190.65938 28.159374Q191.05 28.70625 191.20625 29.45625Q191.3 29.95625 191.3 31.175L191.3 37.55L189.53438 37.55L189.53438 31.2375Q189.53438 30.159374 189.33125 29.628124Q189.12813 29.096874 188.59688 28.784374Q188.08125 28.471874 187.37813 28.471874Q186.25313 28.471874 185.44063 29.190624Q184.62813 29.89375 184.62813 31.878124L184.62813 37.55L182.8625 37.55Z" fill-rule="nonzero"/></svg>