<svg version="1.1" viewBox="0.0 0.0 600.0 371.0" fill="none" stroke="none" stroke-linecap="square" stroke-miterlimit="10" width="600" height="371" xmlns:xlink="http://www.w3.org/1999/xlink" xmlns="http://www.w3.org/2000/svg"><path fill="#ffffff" d="M0 0L600.0 0L600.0 371.0L0 371.0L0 0Z" fill-rule="nonzero"/><path stroke="#333333" stroke-width="1.0" stroke-linecap="butt" d="M45.5 332.5L581.5 332.5" fill-rule="nonzero"/><path stroke="#cccccc" stroke-width="1.0" stroke-linecap="butt" d="M45.5 264.5L581.5 264.5" fill-rule="nonzero"/><path stroke="#cccccc" stroke-width="1.0" stroke-linecap="butt" d="M45.5 197.5L581.5 197.5" fill-rule="nonzero"/><path stroke="#cccccc" stroke-width="1.0" stroke-linecap="butt" d="M45.5 129.5L581.5 129.5" fill-rule="nonzero"/><path stroke="#cccccc" stroke-width="1.0" stroke-linecap="butt" d="M45.5 61.5L581.5 61.5" fill-rule="nonzero"/><clipPath id="id_0"><path d="M45.55 61.916668L581.45 61.916668L581.45 332.45L45.55 332.45L45.55 61.916668Z" clip-rule="nonzero"/></clipPath><path stroke="#000000" stroke-width="0.0" stroke-linecap="butt" stroke-opacity="0.0" clip-path="url(#id_0)" d="M273.0 332.0L125.0 332.0L125.0 72.0C125.0 70.89543 125.89543 70.0 127.0 70.0L271.0 70.0C272.10458 70.0 273.0 70.89543 273.0 72.0Z" fill-rule="nonzero"/><path fill="#4285f4" clip-path="url(#id_0)" d="M273.0 332.0L125.0 332.0L125.0 72.0C125.0 70.89543 125.89543 70.0 127.0 70.0L271.0 70.0C272.10458 70.0 273.0 70.89543 273.0 72.0Z" fill-rule="nonzero"/><path stroke="#000000" stroke-width="0.0" stroke-linecap="butt" stroke-opacity="0.0" clip-path="url(#id_0)" d="M502.0 332.0L354.0 332.0L354.0 326.0C354.0 324.89542 354.89542 324.0 356.0 324.0L500.0 324.0C501.10458 324.0 502.0 324.89542 502.0 326.0Z" fill-rule="nonzero"/><path fill="#4285f4" clip-path="url(#id_0)" d="M502.0 332.0L354.0 332.0L354.0 326.0C354.0 324.89542 354.89542 324.0 356.0 324.0L500.0 324.0C501.10458 324.0 502.0 324.89542 502.0 326.0Z" fill-rule="nonzero"/><path fill="#000000" d="M33.05 332.21564Q33.05 330.6844 33.3625 329.7625Q33.675 328.825 34.284374 328.325Q34.909374 327.825 35.846874 327.825Q36.534374 327.825 37.05 328.10626Q37.58125 328.3875 37.925 328.91876Q38.26875 329.4344 38.45625 330.1844Q38.64375 330.9344 38.64375 332.21564Q38.64375 333.73126 38.33125 334.65314Q38.034374 335.575 37.409374 336.09064Q36.8 336.59064 35.846874 336.59064Q34.6125 336.59064 33.89375 335.7Q33.05 334.6375 33.05 332.21564ZM34.128124 332.21564Q34.128124 334.325 34.628124 335.02814Q35.128124 335.73126 35.846874 335.73126Q36.58125 335.73126 37.065624 335.02814Q37.565624 334.325 37.565624 332.21564Q37.565624 330.09064 37.065624 329.40314Q36.58125 328.7 35.83125 328.7Q35.1125 328.7 34.675 329.3094Q34.128124 330.09064 34.128124 332.21564Z" fill-rule="nonzero"/><path fill="#000000" d="M31.596874 267.80106L31.596874 268.81668L25.909374 268.81668Q25.909374 268.44168 26.034374 268.0823Q26.253124 267.50418 26.721874 266.94168Q27.20625 266.37918 28.1125 265.6448Q29.51875 264.48856 30.003124 263.81668Q30.503124 263.1448 30.503124 262.55106Q30.503124 261.92606 30.05 261.50418Q29.596874 261.06668 28.878124 261.06668Q28.1125 261.06668 27.659374 261.5198Q27.20625 261.97293 27.190624 262.78543L26.1125 262.67606Q26.221874 261.4573 26.940624 260.8323Q27.675 260.19168 28.909374 260.19168Q30.14375 260.19168 30.8625 260.87918Q31.58125 261.56668 31.58125 262.5823Q31.58125 263.09793 31.3625 263.59793Q31.159374 264.0823 30.659374 264.6448Q30.175 265.19168 29.05 266.1448Q28.096874 266.94168 27.815624 267.23856Q27.55 267.5198 27.378124 267.80106L31.596874 267.80106ZM33.05 266.56668L34.159374 266.47293Q34.284374 267.28543 34.721874 267.69168Q35.175 268.09793 35.815624 268.09793Q36.565624 268.09793 37.096874 267.5198Q37.628124 266.94168 37.628124 266.00418Q37.628124 265.09793 37.1125 264.5823Q36.6125 264.05106 35.784374 264.05106Q35.284374 264.05106 34.8625 264.28543Q34.45625 264.5198 34.221874 264.87918L33.2375 264.75418L34.065624 260.34793L38.346874 260.34793L38.346874 261.34793L34.909374 261.34793L34.45625 263.66043Q35.221874 263.11356 36.065624 263.11356Q37.190624 263.11356 37.95625 263.8948Q38.7375 264.67606 38.7375 265.91043Q38.7375 267.06668 38.065624 267.92606Q37.2375 268.9573 35.815624 268.9573Q34.64375 268.9573 33.89375 268.30106Q33.159374 267.6448 33.05 266.56668Z" fill-rule="nonzero"/><path fill="#000000" d="M26.05 198.93333L27.159374 198.83958Q27.284374 199.65208 27.721874 200.05833Q28.175 200.46458 28.815624 200.46458Q29.565624 200.46458 30.096874 199.88646Q30.628124 199.30833 30.628124 198.37083Q30.628124 197.46458 30.1125 196.94896Q29.6125 196.41771 28.784374 196.41771Q28.284374 196.41771 27.8625 196.65208Q27.45625 196.88646 27.221874 197.24583L26.2375 197.12083L27.065624 192.71458L31.346874 192.71458L31.346874 193.71458L27.909374 193.71458L27.45625 196.02708Q28.221874 195.48021 29.065624 195.48021Q30.190624 195.48021 30.95625 196.26146Q31.7375 197.04271 31.7375 198.27708Q31.7375 199.43333 31.065624 200.29271Q30.2375 201.32396 28.815624 201.32396Q27.64375 201.32396 26.89375 200.66771Q26.159374 200.01146 26.05 198.93333ZM33.05 196.94896Q33.05 195.41771 33.3625 194.49583Q33.675 193.55833 34.284374 193.05833Q34.909374 192.55833 35.846874 192.55833Q36.534374 192.55833 37.05 192.83958Q37.58125 193.12083 37.925 193.65208Q38.26875 194.16771 38.45625 194.91771Q38.64375 195.66771 38.64375 196.94896Q38.64375 198.46458 38.33125 199.38646Q38.034374 200.30833 37.409374 200.82396Q36.8 201.32396 35.846874 201.32396Q34.6125 201.32396 33.89375 200.43333Q33.05 199.37083 33.05 196.94896ZM34.128124 196.94896Q34.128124 199.05833 34.628124 199.76146Q35.128124 200.46458 35.846874 200.46458Q36.58125 200.46458 37.065624 199.76146Q37.565624 199.05833 37.565624 196.94896Q37.565624 194.82396 37.065624 194.13646Q36.58125 193.43333 35.83125 193.43333Q35.1125 193.43333 34.675 194.04271Q34.128124 194.82396 34.128124 196.94896Z" fill-rule="nonzero"/><path fill="#000000" d="M26.1125 126.08125L26.1125 125.06563L31.675 125.06563L31.675 125.89375Q30.8625 126.76875 30.05 128.22188Q29.253124 129.65938 28.815624 131.19063Q28.4875 132.26875 28.409374 133.55L27.315624 133.55Q27.33125 132.53438 27.70625 131.09688Q28.096874 129.65938 28.8 128.33125Q29.51875 127.00313 30.33125 126.08125L26.1125 126.08125ZM33.05 131.3L34.159374 131.20625Q34.284374 132.01875 34.721874 132.425Q35.175 132.83125 35.815624 132.83125Q36.565624 132.83125 37.096874 132.25313Q37.628124 131.675 37.628124 130.7375Q37.628124 129.83125 37.1125 129.31563Q36.6125 128.78438 35.784374 128.78438Q35.284374 128.78438 34.8625 129.01875Q34.45625 129.25313 34.221874 129.6125L33.2375 129.4875L34.065624 125.08125L38.346874 125.08125L38.346874 126.08125L34.909374 126.08125L34.45625 128.39375Q35.221874 127.84688 36.065624 127.84688Q37.190624 127.84688 37.95625 128.62813Q38.7375 129.40938 38.7375 130.64375Q38.7375 131.8 38.065624 132.65938Q37.2375 133.69063 35.815624 133.69063Q34.64375 133.69063 33.89375 133.03438Q33.159374 132.37813 33.05 131.3Z" fill-rule="nonzero"/><path fill="#000000" d="M23.01875 65.916664L21.971874 65.916664L21.971874 59.197914Q21.58125 59.55729 20.95625 59.93229Q20.346874 60.291664 19.8625 60.46354L19.8625 59.447914Q20.7375 59.02604 21.39375 58.447914Q22.065624 57.854164 22.346874 57.291664L23.01875 57.291664L23.01875 65.916664ZM26.05 61.68229Q26.05 60.15104 26.3625 59.229164Q26.675 58.291664 27.284374 57.791664Q27.909374 57.291664 28.846874 57.291664Q29.534374 57.291664 30.05 57.572914Q30.58125 57.854164 30.925 58.385414Q31.26875 58.90104 31.45625 59.65104Q31.64375 60.40104 31.64375 61.68229Q31.64375 63.197914 31.33125 64.11979Q31.034374 65.041664 30.409374 65.55729Q29.8 66.05729 28.846874 66.05729Q27.6125 66.05729 26.89375 65.166664Q26.05 64.104164 26.05 61.68229ZM27.128124 61.68229Q27.128124 63.791664 27.628124 64.49479Q28.128124 65.197914 28.846874 65.197914Q29.58125 65.197914 30.065624 64.49479Q30.565624 63.791664 30.565624 61.68229Q30.565624 59.55729 30.065624 58.86979Q29.58125 58.166664 28.83125 58.166664Q28.1125 58.166664 27.675 58.77604Q27.128124 59.55729 27.128124 61.68229ZM33.05 61.68229Q33.05 60.15104 33.3625 59.229164Q33.675 58.291664 34.284374 57.791664Q34.909374 57.291664 35.846874 57.291664Q36.534374 57.291664 37.05 57.572914Q37.58125 57.854164 37.925 58.385414Q38.26875 58.90104 38.45625 59.65104Q38.64375 60.40104 38.64375 61.68229Q38.64375 63.197914 38.33125 64.11979Q38.034374 65.041664 37.409374 65.55729Q36.8 66.05729 35.846874 66.05729Q34.6125 66.05729 33.89375 65.166664Q33.05 64.104164 33.05 61.68229ZM34.128124 61.68229Q34.128124 63.791664 34.628124 64.49479Q35.128124 65.197914 35.846874 65.197914Q36.58125 65.197914 37.065624 64.49479Q37.565624 63.791664 37.565624 61.68229Q37.565624 59.55729 37.065624 58.86979Q36.58125 58.166664 35.83125 58.166664Q35.1125 58.166664 34.675 58.77604Q34.128124 59.55729 34.128124 61.68229Z" fill-rule="nonzero"/><path fill="#000000" d="M192.32248 349.45L192.32248 345.8094L189.00998 340.85626L190.4006 340.85626L192.0881 343.45Q192.55685 344.16876 192.9631 344.90314Q193.35373 344.23126 193.9006 343.3875L195.57248 340.85626L196.88498 340.85626L193.4631 345.8094L193.4631 349.45L192.32248 349.45ZM202.0256 347.45L203.11935 347.575Q202.86935 348.52814 202.16623 349.0594Q201.4631 349.59064 200.38498 349.59064Q199.0256 349.59064 198.2131 348.7469Q197.41623 347.90314 197.41623 346.3875Q197.41623 344.825 198.22873 343.96564Q199.04123 343.09064 200.32248 343.09064Q201.57248 343.09064 202.35373 343.9344Q203.1506 344.77814 203.1506 346.325Q203.1506 346.41876 203.1506 346.60626L198.50998 346.60626Q198.57248 347.6375 199.0881 348.1844Q199.60373 348.71564 200.38498 348.71564Q200.9631 348.71564 201.36935 348.41876Q201.79123 348.10626 202.0256 347.45ZM198.57248 345.7469L202.04123 345.7469Q201.97873 344.95 201.6506 344.5594Q201.13498 343.95 200.3381 343.95Q199.60373 343.95 199.10373 344.4344Q198.61935 344.91876 198.57248 345.7469ZM204.35373 347.59064L205.38498 347.4344Q205.47873 348.0594 205.86935 348.3875Q206.2756 348.71564 207.00998 348.71564Q207.72873 348.71564 208.07248 348.4344Q208.43185 348.1375 208.43185 347.73126Q208.43185 347.3719 208.11935 347.16876Q207.9006 347.02814 207.04123 346.8094Q205.88498 346.5125 205.43185 346.3094Q204.99435 346.09064 204.75998 345.71564Q204.5256 345.34064 204.5256 344.8719Q204.5256 344.46564 204.7131 344.10626Q204.9006 343.7469 205.22873 343.5125Q205.47873 343.34064 205.9006 343.21564Q206.32248 343.09064 206.82248 343.09064Q207.54123 343.09064 208.0881 343.3094Q208.6506 343.5125 208.91623 343.8719Q209.18185 344.23126 209.2756 344.825L208.24435 344.96564Q208.18185 344.4969 207.8381 344.23126Q207.50998 343.95 206.88498 343.95Q206.16623 343.95 205.85373 344.2Q205.54123 344.4344 205.54123 344.7625Q205.54123 344.96564 205.66623 345.1219Q205.80685 345.29376 206.07248 345.40314Q206.22873 345.46564 207.00998 345.66876Q208.13498 345.98126 208.57248 346.16876Q209.00998 346.35626 209.25998 346.71564Q209.50998 347.075 209.50998 347.6219Q209.50998 348.15314 209.19748 348.6219Q208.9006 349.075 208.32248 349.34064Q207.74435 349.59064 207.00998 349.59064Q205.79123 349.59064 205.1506 349.09064Q204.5256 348.575 204.35373 347.59064Z" fill-rule="nonzero"/><path fill="#000000" d="M420.44315 349.45L420.44315 340.85626L421.5994 340.85626L426.11502 347.60626L426.11502 340.85626L427.20877 340.85626L427.20877 349.45L426.0369 349.45L421.52127 342.7L421.52127 349.45L420.44315 349.45ZM428.92752 346.34064Q428.92752 344.60626 429.88065 343.77814Q430.67752 343.09064 431.83377 343.09064Q433.11502 343.09064 433.92752 343.9344Q434.75565 344.7625 434.75565 346.2469Q434.75565 347.45 434.39627 348.1375Q434.0369 348.825 433.33377 349.21564Q432.64627 349.59064 431.83377 349.59064Q430.5369 349.59064 429.7244 348.7625Q428.92752 347.91876 428.92752 346.34064ZM430.00565 346.34064Q430.00565 347.52814 430.52127 348.1219Q431.05252 348.71564 431.83377 348.71564Q432.63065 348.71564 433.14627 348.1219Q433.6619 347.52814 433.6619 346.3094Q433.6619 345.15314 433.13065 344.5594Q432.61502 343.96564 431.83377 343.96564Q431.05252 343.96564 430.52127 344.5594Q430.00565 345.1375 430.00565 346.34064Z" fill-rule="nonzero"/><path fill="#757575" d="M20.01875 37.55L20.01875 23.2375L21.909374 23.2375L21.909374 30.33125L29.01875 23.2375L31.58125 23.2375L25.58125 29.034374L31.846874 37.55L29.346874 37.55L24.253124 30.3L21.909374 32.58125L21.909374 37.55L20.01875 37.55ZM32.8625 37.55L32.8625 27.175L34.45625 27.175L34.45625 28.659374Q35.596874 26.940624 37.753124 26.940624Q38.690624 26.940624 39.471874 27.284374Q40.26875 27.6125 40.659374 28.159374Q41.05 28.70625 41.20625 29.45625Q41.3 29.95625 41.3 31.175L41.3 37.55L39.534374 37.55L39.534374 31.2375Q39.534374 30.159374 39.33125 29.628124Q39.128124 29.096874 38.596874 28.784374Q38.08125 28.471874 37.378124 28.471874Q36.253124 28.471874 35.440624 29.190624Q34.628124 29.89375 34.628124 31.878124L34.628124 37.55L32.8625 37.55ZM43.221874 32.3625Q43.221874 29.4875 44.815624 28.096874Q46.159374 26.940624 48.08125 26.940624Q50.221874 26.940624 51.565624 28.346874Q52.925 29.753124 52.925 32.221874Q52.925 34.221874 52.33125 35.378124Q51.7375 36.51875 50.58125 37.159374Q49.440624 37.784374 48.08125 37.784374Q45.89375 37.784374 44.55 36.39375Q43.221874 34.9875 43.221874 32.3625ZM45.01875 32.3625Q45.01875 34.3625 45.878124 35.346874Q46.753124 36.33125 48.08125 36.33125Q49.39375 36.33125 50.253124 35.346874Q51.128124 34.346874 51.128124 32.3Q51.128124 30.378124 50.253124 29.39375Q49.378124 28.39375 48.08125 28.39375Q46.753124 28.39375 45.878124 29.39375Q45.01875 30.378124 45.01875 32.3625ZM56.784374 37.55L53.6125 27.175L55.425 27.175L57.08125 33.159374L57.690624 35.39375Q57.7375 35.221874 58.221874 33.253124L59.878124 27.175L61.690624 27.175L63.2375 33.190624L63.753124 35.175L64.34688 33.175L66.12813 27.175L67.83125 27.175L64.59688 37.55L62.76875 37.55L61.1125 31.33125L60.721874 29.565624L58.6125 37.55L56.784374 37.55ZM68.83125 37.55L68.83125 23.2375L70.58125 23.2375L70.58125 37.55L68.83125 37.55ZM79.97188 34.20625L81.78438 34.440624Q81.3625 36.01875 80.19063 36.909374Q79.03438 37.784374 77.22188 37.784374Q74.95625 37.784374 73.6125 36.39375Q72.28438 34.9875 72.28438 32.45625Q72.28438 29.83125 73.62813 28.39375Q74.97188 26.940624 77.12813 26.940624Q79.20625 26.940624 80.51875 28.3625Q81.84688 29.76875 81.84688 32.346874Q81.84688 32.503124 81.83125 32.815624L74.09688 32.815624Q74.19063 34.51875 75.06563 35.425Q75.94063 36.33125 77.2375 36.33125Q78.20625 36.33125 78.87813 35.83125Q79.56563 35.315624 79.97188 34.20625ZM74.19063 31.3625L79.9875 31.3625Q79.87813 30.065624 79.33125 29.409374Q78.4875 28.39375 77.14375 28.39375Q75.94063 28.39375 75.1125 29.20625Q74.28438 30.003124 74.19063 31.3625ZM90.59688 37.55L90.59688 36.2375Q89.6125 37.784374 87.69063 37.784374Q86.45625 37.784374 85.40938 37.096874Q84.37813 36.409374 83.8 35.190624Q83.2375 33.971874 83.2375 32.378124Q83.2375 30.815624 83.75313 29.55Q84.26875 28.284374 85.3 27.6125Q86.34688 26.940624 87.6125 26.940624Q88.55 26.940624 89.28438 27.346874Q90.01875 27.7375 90.4875 28.3625L90.4875 23.2375L92.22188 23.2375L92.22188 37.55L90.59688 37.55ZM85.03438 32.378124Q85.03438 34.3625 85.87813 35.346874Q86.72188 36.33125 87.8625 36.33125Q89.01875 36.33125 89.81563 35.39375Q90.62813 34.45625 90.62813 32.51875Q90.62813 30.39375 89.8 29.39375Q88.9875 28.39375 87.78438 28.39375Q86.6125 28.39375 85.81563 29.3625Q85.03438 30.315624 85.03438 32.378124ZM94.55 38.409374L96.25313 38.659374Q96.3625 39.45625 96.84688 39.815624Q97.50313 40.3 98.64375 40.3Q99.8625 40.3 100.51875 39.815624Q101.19063 39.33125 101.425 38.45625Q101.56563 37.909374 101.55 36.190624Q100.39375 37.55 98.675 37.55Q96.53438 37.55 95.3625 36.003124Q94.19063 34.45625 94.19063 32.3Q94.19063 30.815624 94.72188 29.565624Q95.26875 28.315624 96.28438 27.628124Q97.31563 26.940624 98.69063 26.940624Q100.51875 26.940624 101.72188 28.425L101.72188 27.175L103.33125 27.175L103.33125 36.14375Q103.33125 38.565624 102.83125 39.565624Q102.34688 40.58125 101.26875 41.159374Q100.20625 41.753124 98.64375 41.753124Q96.8 41.753124 95.64375 40.925Q94.50313 40.096874 94.55 38.409374ZM96.00313 32.175Q96.00313 34.221874 96.81563 35.159374Q97.62813 36.096874 98.84688 36.096874Q100.05 36.096874 100.8625 35.159374Q101.69063 34.221874 101.69063 32.2375Q101.69063 30.33125 100.84688 29.3625Q100.00313 28.39375 98.81563 28.39375Q97.64375 28.39375 96.81563 29.346874Q96.00313 30.3 96.00313 32.175ZM112.97188 34.20625L114.78438 34.440624Q114.3625 36.01875 113.19063 36.909374Q112.03438 37.784374 110.22188 37.784374Q107.95625 37.784374 106.6125 36.39375Q105.28438 34.9875 105.28438 32.45625Q105.28438 29.83125 106.62813 28.39375Q107.97188 26.940624 110.12813 26.940624Q112.20625 26.940624 113.51875 28.3625Q114.84688 29.76875 114.84688 32.346874Q114.84688 32.503124 114.83125 32.815624L107.09688 32.815624Q107.19063 34.51875 108.06563 35.425Q108.94063 36.33125 110.2375 36.33125Q111.20625 36.33125 111.87813 35.83125Q112.56563 35.315624 112.97188 34.20625ZM107.19063 31.3625L112.9875 31.3625Q112.87813 30.065624 112.33125 29.409374Q111.4875 28.39375 110.14375 28.39375Q108.94063 28.39375 108.1125 29.20625Q107.28438 30.003124 107.19063 31.3625ZM122.22188 32.3625Q122.22188 29.4875 123.81563 28.096874Q125.15938 26.940624 127.08125 26.940624Q129.22188 26.940624 130.56563 28.346874Q131.925 29.753124 131.925 32.221874Q131.925 34.221874 131.33125 35.378124Q130.7375 36.51875 129.58125 37.159374Q128.44063 37.784374 127.08125 37.784374Q124.89375 37.784374 123.55 36.39375Q122.22188 34.9875 122.22188 32.3625ZM124.01875 32.3625Q124.01875 34.3625 124.87813 35.346874Q125.75313 36.33125 127.08125 36.33125Q128.39375 36.33125 129.25313 35.346874Q130.12813 34.346874 130.12813 32.3Q130.12813 30.378124 129.25313 29.39375Q128.37813 28.39375 127.08125 28.39375Q125.75313 28.39375 124.87813 29.39375Q124.01875 30.378124 124.01875 32.3625ZM134.28438 37.55L134.28438 28.55L132.7375 28.55L132.7375 27.175L134.28438 27.175L134.28438 26.08125Q134.28438 25.034374 134.47188 24.51875Q134.72188 23.83125 135.3625 23.409374Q136.00313 22.9875 137.15938 22.9875Q137.90938 22.9875 138.8 23.159374L138.53438 24.690624Q137.9875 24.596874 137.50313 24.596874Q136.70625 24.596874 136.3625 24.940624Q136.03438 25.284374 136.03438 26.221874L136.03438 27.175L138.06563 27.175L138.06563 28.55L136.03438 28.55L136.03438 37.55L134.28438 37.55ZM146.09688 37.55L146.09688 23.2375L151.4875 23.2375Q152.925 23.2375 153.675 23.3625Q154.72188 23.55 155.44063 24.05Q156.15938 24.534374 156.58125 25.425Q157.01875 26.315624 157.01875 27.378124Q157.01875 29.20625 155.84688 30.471874Q154.69063 31.721874 151.65938 31.721874L147.9875 31.721874L147.9875 37.55L146.09688 37.55ZM147.9875 30.034374L151.69063 30.034374Q153.51875 30.034374 154.28438 29.3625Q155.06563 28.675 155.06563 27.425Q155.06563 26.534374 154.6125 25.89375Q154.15938 25.253124 153.425 25.05Q152.94063 24.925 151.64375 24.925L147.9875 24.925L147.9875 30.034374ZM158.78438 41.55L158.59688 39.89375Q159.175 40.05 159.59688 40.05Q160.19063 40.05 160.53438 39.846874Q160.89375 39.659374 161.1125 39.315624Q161.28438 39.05 161.65938 38.003124Q161.70625 37.846874 161.81563 37.565624L157.87813 27.175L159.76875 27.175L161.925 33.190624Q162.34688 34.33125 162.675 35.58125Q162.9875 34.378124 163.39375 33.221874L165.6125 27.175L167.37813 27.175L163.425 37.721874Q162.8 39.440624 162.44063 40.08125Q161.97188 40.95625 161.3625 41.346874Q160.76875 41.753124 159.925 41.753124Q159.40938 41.753124 158.78438 41.55ZM172.70625 35.971874L172.95625 37.534374Q172.22188 37.690624 171.62813 37.690624Q170.675 37.690624 170.14375 37.39375Q169.62813 37.08125 169.40938 36.596874Q169.19063 36.096874 169.19063 34.51875L169.19063 28.55L167.90938 28.55L167.90938 27.175L169.19063 27.175L169.19063 24.6125L170.94063 23.55L170.94063 27.175L172.70625 27.175L172.70625 28.55L170.94063 28.55L170.94063 34.6125Q170.94063 35.3625 171.03438 35.58125Q171.12813 35.784374 171.33125 35.925Q171.55 36.05 171.94063 36.05Q172.22188 36.05 172.70625 35.971874ZM174.8625 37.55L174.8625 23.2375L176.62813 23.2375L176.62813 28.3625Q177.8625 26.940624 179.7375 26.940624Q180.87813 26.940624 181.72188 27.39375Q182.58125 27.846874 182.94063 28.659374Q183.31563 29.45625 183.31563 30.971874L183.31563 37.55L181.56563 37.55L181.56563 30.971874Q181.56563 29.659374 180.9875 29.065624Q180.40938 28.45625 179.37813 28.45625Q178.59688 28.45625 177.89375 28.8625Q177.20625 29.26875 176.90938 29.971874Q176.62813 30.659374 176.62813 31.878124L176.62813 37.55L174.8625 37.55ZM185.22188 32.3625Q185.22188 29.4875 186.81563 28.096874Q188.15938 26.940624 190.08125 26.940624Q192.22188 26.940624 193.56563 28.346874Q194.925 29.753124 194.925 32.221874Q194.925 34.221874 194.33125 35.378124Q193.7375 36.51875 192.58125 37.159374Q191.44063 37.784374 190.08125 37.784374Q187.89375 37.784374 186.55 36.39375Q185.22188 34.9875 185.22188 32.3625ZM187.01875 32.3625Q187.01875 34.3625 187.87813 35.346874Q188.75313 36.33125 190.08125 36.33125Q191.39375 36.33125 192.25313 35.346874Q193.12813 34.346874 193.12813 32.3Q193.12813 30.378124 192.25313 29.39375Q191.37813 28.39375 190.08125 28.39375Q188.75313 28.39375 187.87813 29.39375Q187.01875 30.378124 187.01875 32.3625ZM196.8625 37.55L196.8625 27.175L198.45625 27.175L198.45625 28.659374Q199.59688 26.940624 201.75313 26.940624Q202.69063 26.940624 203.47188 27.284374Q204.26875 27.6125 204.65938 28.159374Q205.05 28.70625 205.20625 29.45625Q205.3 29.95625 205.3 31.175L205.3 37.55L203.53438 37.55L203.53438 31.2375Q203.53438 30.159374 203.33125 29.628124Q203.12813 29.096874 202.59688 28.784374Q202.08125 28.471874 201.37813 28.471874Q200.25313 28.471874 199.44063 29.190624Q198.62813 29.89375 198.62813 31.878124L198.62813 37.55L196.8625 37.55Z" fill-rule="nonzero"/></svg>