<svg version="1.1" viewBox="0.0 0.0 600.0 371.0" fill="none" stroke="none" stroke-linecap="square" stroke-miterlimit="10" width="600" height="371" xmlns:xlink="http://www.w3.org/1999/xlink" xmlns="http://www.w3.org/2000/svg"><path fill="#ffffff" d="M0 0L600.0 0L600.0 371.0L0 371.0L0 0Z" fill-rule="nonzero"/><path stroke="#333333" stroke-width="1.0" stroke-linecap="butt" d="M45.5 304.5L581.5 304.5" fill-rule="nonzero"/><path stroke="#cccccc" stroke-width="1.0" stroke-linecap="butt" d="M45.5 243.5L581.5 243.5" fill-rule="nonzero"/><path stroke="#cccccc" stroke-width="1.0" stroke-linecap="butt" d="M45.5 183.5L581.5 183.5" fill-rule="nonzero"/><path stroke="#cccccc" stroke-width="1.0" stroke-linecap="butt" d="M45.5 122.5L581.5 122.5" fill-rule="nonzero"/><path stroke="#cccccc" stroke-width="1.0" stroke-linecap="butt" d="M45.5 61.5L581.5 61.5" fill-rule="nonzero"/><clipPath id="id_0"><path d="M45.55 61.916668L581.45 61.916668L581.45 304.45L45.55 304.45L45.55 61.916668Z" clip-rule="nonzero"/></clipPath><path stroke="#000000" stroke-width="0.0" stroke-linecap="butt" stroke-opacity="0.0" clip-path="url(#id_0)" d="M169.0 304.0L89.0 304.0L89.0 270.0C89.0 268.89542 89.89543 268.0 91.0 268.0L167.0 268.0C168.10457 268.0 169.0 268.89542 169.0 270.0Z" fill-rule="nonzero"/><path fill="#4285f4" clip-path="url(#id_0)" d="M169.0 304.0L89.0 304.0L89.0 270.0C89.0 268.89542 89.89543 268.0 91.0 268.0L167.0 268.0C168.10457 268.0 169.0 268.89542 169.0 270.0Z" fill-rule="nonzero"/><path stroke="#000000" stroke-width="0.0" stroke-linecap="butt" stroke-opacity="0.0" clip-path="url(#id_0)" d="M292.0 304.0L212.0 304.0L212.0 291.0C212.0 289.89542 212.89543 289.0 214.0 289.0L290.0 289.0C291.10458 289.0 292.0 289.89542 292.0 291.0Z" fill-rule="nonzero"/><path fill="#4285f4" clip-path="url(#id_0)" d="M292.0 304.0L212.0 304.0L212.0 291.0C212.0 289.89542 212.89543 289.0 214.0 289.0L290.0 289.0C291.10458 289.0 292.0 289.89542 292.0 291.0Z" fill-rule="nonzero"/><path stroke="#000000" stroke-width="0.0" stroke-linecap="butt" stroke-opacity="0.0" clip-path="url(#id_0)" d="M415.0 304.0L335.0 304.0L335.0 97.0C335.0 95.89543 335.89542 95.0 337.0 95.0L413.0 95.0C414.10458 95.0 415.0 95.89543 415.0 97.0Z" fill-rule="nonzero"/><path fill="#4285f4" clip-path="url(#id_0)" d="M415.0 304.0L335.0 304.0L335.0 97.0C335.0 95.89543 335.89542 95.0 337.0 95.0L413.0 95.0C414.10458 95.0 415.0 95.89543 415.0 97.0Z" fill-rule="nonzero"/><path stroke="#000000" stroke-width="0.0" stroke-linecap="butt" stroke-opacity="0.0" clip-path="url(#id_0)" d="M538.0 304.0L458.0 304.0L458.0 264.0C458.0 262.89542 458.89542 262.0 460.0 262.0L536.0 262.0C537.10455 262.0 538.0 262.89542 538.0 264.0Z" fill-rule="nonzero"/><path fill="#4285f4" clip-path="url(#id_0)" d="M538.0 304.0L458.0 304.0L458.0 264.0C458.0 262.89542 458.89542 262.0 460.0 262.0L536.0 262.0C537.10455 262.0 538.0 262.89542 538.0 264.0Z" fill-rule="nonzero"/><path fill="#000000" d="M33.05 304.21564Q33.05 302.6844 33.3625 301.7625Q33.675 300.825 34.284374 300.325Q34.909374 299.825 35.846874 299.825Q36.534374 299.825 37.05 300.10626Q37.58125 300.3875 37.925 300.91876Q38.26875 301.4344 38.45625 302.1844Q38.64375 302.9344 38.64375 304.21564Q38.64375 305.73126 38.33125 306.65314Q38.034374 307.575 37.409374 308.09064Q36.8 308.59064 35.846874 308.59064Q34.6125 308.59064 33.89375 307.7Q33.05 306.6375 33.05 304.21564ZM34.128124 304.21564Q34.128124 306.325 34.628124 307.02814Q35.128124 307.73126 35.846874 307.73126Q36.58125 307.73126 37.065624 307.02814Q37.565624 306.325 37.565624 304.21564Q37.565624 302.09064 37.065624 301.40314Q36.58125 300.7 35.83125 300.7Q35.1125 300.7 34.675 301.3094Q34.128124 302.09064 34.128124 304.21564Z" fill-rule="nonzero"/><path fill="#000000" d="M31.596874 246.80104L31.596874 247.81667L25.909374 247.81667Q25.909374 247.44167 26.034374 247.08229Q26.253124 246.50417 26.721874 245.94167Q27.20625 245.37917 28.1125 244.64479Q29.51875 243.48854 30.003124 242.81667Q30.503124 242.14479 30.503124 241.55104Q30.503124 240.92604 30.05 240.50417Q29.596874 240.06667 28.878124 240.06667Q28.1125 240.06667 27.659374 240.51979Q27.20625 240.97292 27.190624 241.78542L26.1125 241.67604Q26.221874 240.45729 26.940624 239.83229Q27.675 239.19167 28.909374 239.19167Q30.14375 239.19167 30.8625 239.87917Q31.58125 240.56667 31.58125 241.58229Q31.58125 242.09792 31.3625 242.59792Q31.159374 243.08229 30.659374 243.64479Q30.175 244.19167 29.05 245.14479Q28.096874 245.94167 27.815624 246.23854Q27.55 246.51979 27.378124 246.80104L31.596874 246.80104ZM33.05 243.58229Q33.05 242.05104 33.3625 241.12917Q33.675 240.19167 34.284374 239.69167Q34.909374 239.19167 35.846874 239.19167Q36.534374 239.19167 37.05 239.47292Q37.58125 239.75417 37.925 240.28542Q38.26875 240.80104 38.45625 241.55104Q38.64375 242.30104 38.64375 243.58229Q38.64375 245.09792 38.33125 246.01979Q38.034374 246.94167 37.409374 247.45729Q36.8 247.95729 35.846874 247.95729Q34.6125 247.95729 33.89375 247.06667Q33.05 246.00417 33.05 243.58229ZM34.128124 243.58229Q34.128124 245.69167 34.628124 246.39479Q35.128124 247.09792 35.846874 247.09792Q36.58125 247.09792 37.065624 246.39479Q37.565624 245.69167 37.565624 243.58229Q37.565624 241.45729 37.065624 240.76979Q36.58125 240.06667 35.83125 240.06667Q35.1125 240.06667 34.675 240.67604Q34.128124 241.45729 34.128124 243.58229Z" fill-rule="nonzero"/><path fill="#000000" d="M29.425 187.18333L29.425 185.12083L25.70625 185.12083L25.70625 184.15208L29.628124 178.58958L30.4875 178.58958L30.4875 184.15208L31.64375 184.15208L31.64375 185.12083L30.4875 185.12083L30.4875 187.18333L29.425 187.18333ZM29.425 184.15208L29.425 180.29271L26.7375 184.15208L29.425 184.15208ZM33.05 182.94896Q33.05 181.41771 33.3625 180.49583Q33.675 179.55833 34.284374 179.05833Q34.909374 178.55833 35.846874 178.55833Q36.534374 178.55833 37.05 178.83958Q37.58125 179.12083 37.925 179.65208Q38.26875 180.16771 38.45625 180.91771Q38.64375 181.66771 38.64375 182.94896Q38.64375 184.46458 38.33125 185.38646Q38.034374 186.30833 37.409374 186.82396Q36.8 187.32396 35.846874 187.32396Q34.6125 187.32396 33.89375 186.43333Q33.05 185.37083 33.05 182.94896ZM34.128124 182.94896Q34.128124 185.05833 34.628124 185.76146Q35.128124 186.46458 35.846874 186.46458Q36.58125 186.46458 37.065624 185.76146Q37.565624 185.05833 37.565624 182.94896Q37.565624 180.82396 37.065624 180.13646Q36.58125 179.43333 35.83125 179.43333Q35.1125 179.43333 34.675 180.04271Q34.128124 180.82396 34.128124 182.94896Z" fill-rule="nonzero"/><path fill="#000000" d="M31.51875 120.06563L30.471874 120.14375Q30.33125 119.51875 30.08125 119.2375Q29.64375 118.78438 29.01875 118.78438Q28.51875 118.78438 28.128124 119.06563Q27.64375 119.44063 27.346874 120.14375Q27.065624 120.83125 27.05 122.1125Q27.425 121.53438 27.971874 121.25313Q28.534374 120.97188 29.14375 120.97188Q30.190624 120.97188 30.925 121.75313Q31.675 122.53438 31.675 123.75313Q31.675 124.56563 31.315624 125.26875Q30.971874 125.95625 30.3625 126.33125Q29.753124 126.69063 28.9875 126.69063Q27.659374 126.69063 26.83125 125.72188Q26.003124 124.75313 26.003124 122.53438Q26.003124 120.03438 26.925 118.90938Q27.721874 117.925 29.08125 117.925Q30.096874 117.925 30.7375 118.50313Q31.39375 119.06563 31.51875 120.06563ZM27.221874 123.76875Q27.221874 124.31563 27.440624 124.81563Q27.675 125.3 28.08125 125.56563Q28.503124 125.83125 28.971874 125.83125Q29.628124 125.83125 30.1125 125.3Q30.596874 124.75313 30.596874 123.83125Q30.596874 122.94063 30.1125 122.425Q29.64375 121.90938 28.925 121.90938Q28.20625 121.90938 27.70625 122.425Q27.221874 122.94063 27.221874 123.76875ZM33.05 122.31563Q33.05 120.78438 33.3625 119.8625Q33.675 118.925 34.284374 118.425Q34.909374 117.925 35.846874 117.925Q36.534374 117.925 37.05 118.20625Q37.58125 118.4875 37.925 119.01875Q38.26875 119.53438 38.45625 120.28438Q38.64375 121.03438 38.64375 122.31563Q38.64375 123.83125 38.33125 124.75313Q38.034374 125.675 37.409374 126.19063Q36.8 126.69063 35.846874 126.69063Q34.6125 126.69063 33.89375 125.8Q33.05 124.7375 33.05 122.31563ZM34.128124 122.31563Q34.128124 124.425 34.628124 125.12813Q35.128124 125.83125 35.846874 125.83125Q36.58125 125.83125 37.065624 125.12813Q37.565624 124.425 37.565624 122.31563Q37.565624 120.19063 37.065624 119.50313Q36.58125 118.8 35.83125 118.8Q35.1125 118.8 34.675 119.40938Q34.128124 120.19063 34.128124 122.31563Z" fill-rule="nonzero"/><path fill="#000000" d="M27.675 61.260414Q27.01875 61.010414 26.690624 60.572914Q26.378124 60.11979 26.378124 59.510414Q26.378124 58.572914 27.05 57.93229Q27.7375 57.291664 28.846874 57.291664Q29.971874 57.291664 30.659374 57.947914Q31.346874 58.604164 31.346874 59.541664Q31.346874 60.135414 31.034374 60.572914Q30.721874 61.010414 30.08125 61.260414Q30.878124 61.510414 31.284374 62.08854Q31.690624 62.666664 31.690624 63.46354Q31.690624 64.55729 30.909374 65.30729Q30.14375 66.05729 28.8625 66.05729Q27.596874 66.05729 26.815624 65.30729Q26.034374 64.55729 26.034374 63.43229Q26.034374 62.58854 26.45625 62.02604Q26.89375 61.46354 27.675 61.260414ZM27.45625 59.46354Q27.45625 60.072914 27.846874 60.46354Q28.253124 60.854164 28.878124 60.854164Q29.4875 60.854164 29.878124 60.479164Q30.26875 60.08854 30.26875 59.52604Q30.26875 58.947914 29.8625 58.55729Q29.45625 58.15104 28.8625 58.15104Q28.253124 58.15104 27.846874 58.541664Q27.45625 58.93229 27.45625 59.46354ZM27.128124 63.43229Q27.128124 63.885414 27.33125 64.30729Q27.55 64.729164 27.971874 64.96354Q28.39375 65.197914 28.878124 65.197914Q29.628124 65.197914 30.1125 64.71354Q30.6125 64.229164 30.6125 63.479164Q30.6125 62.71354 30.1125 62.21354Q29.6125 61.71354 28.846874 61.71354Q28.096874 61.71354 27.6125 62.21354Q27.128124 62.697914 27.128124 63.43229ZM33.05 61.68229Q33.05 60.15104 33.3625 59.229164Q33.675 58.291664 34.284374 57.791664Q34.909374 57.291664 35.846874 57.291664Q36.534374 57.291664 37.05 57.572914Q37.58125 57.854164 37.925 58.385414Q38.26875 58.90104 38.45625 59.65104Q38.64375 60.40104 38.64375 61.68229Q38.64375 63.197914 38.33125 64.11979Q38.034374 65.041664 37.409374 65.55729Q36.8 66.05729 35.846874 66.05729Q34.6125 66.05729 33.89375 65.166664Q33.05 64.104164 33.05 61.68229ZM34.128124 61.68229Q34.128124 63.791664 34.628124 64.49479Q35.128124 65.197914 35.846874 65.197914Q36.58125 65.197914 37.065624 64.49479Q37.565624 63.791664 37.565624 61.68229Q37.565624 59.55729 37.065624 58.86979Q36.58125 58.166664 35.83125 58.166664Q35.1125 58.166664 34.675 58.77604Q34.128124 59.55729 34.128124 61.68229Z" fill-rule="nonzero"/><path fill="#000000" d="M74.19127 321.45L77.488144 312.85626L78.706894 312.85626L82.22252 321.45L80.94127 321.45L79.925644 318.84064L76.34752 318.84064L75.394394 321.45L74.19127 321.45ZM76.675644 317.91876L79.581894 317.91876L78.69127 315.54376Q78.269394 314.46564 78.081894 313.7625Q77.91002 314.59064 77.613144 315.40314L76.675644 317.91876ZM85.300644 320.5125L85.456894 321.4344Q85.00377 321.52814 84.66002 321.52814Q84.081894 321.52814 83.769394 321.35626Q83.456894 321.16876 83.31627 320.8719Q83.19127 320.575 83.19127 319.6219L83.19127 316.04376L82.425644 316.04376L82.425644 315.23126L83.19127 315.23126L83.19127 313.6844L84.238144 313.0594L84.238144 315.23126L85.300644 315.23126L85.300644 316.04376L84.238144 316.04376L84.238144 319.6844Q84.238144 320.1375 84.28502 320.2625Q84.34752 320.3875 84.47252 320.46564Q84.59752 320.54376 84.831894 320.54376Q85.019394 320.54376 85.300644 320.5125ZM88.300644 320.5125L88.456894 321.4344Q88.00377 321.52814 87.66002 321.52814Q87.081894 321.52814 86.769394 321.35626Q86.456894 321.16876 86.31627 320.8719Q86.19127 320.575 86.19127 319.6219L86.19127 316.04376L85.425644 316.04376L85.425644 315.23126L86.19127 315.23126L86.19127 313.6844L87.238144 313.0594L87.238144 315.23126L88.300644 315.23126L88.300644 316.04376L87.238144 316.04376L87.238144 319.6844Q87.238144 320.1375 87.28502 320.2625Q87.34752 320.3875 87.47252 320.46564Q87.59752 320.54376 87.831894 320.54376Q88.019394 320.54376 88.300644 320.5125ZM93.25377 319.45L94.34752 319.575Q94.09752 320.52814 93.394394 321.0594Q92.69127 321.59064 91.613144 321.59064Q90.25377 321.59064 89.44127 320.7469Q88.644394 319.90314 88.644394 318.3875Q88.644394 316.825 89.456894 315.96564Q90.269394 315.09064 91.550644 315.09064Q92.800644 315.09064 93.581894 315.9344Q94.37877 316.77814 94.37877 318.325Q94.37877 318.41876 94.37877 318.60626L89.738144 318.60626Q89.800644 319.6375 90.31627 320.1844Q90.831894 320.71564 91.613144 320.71564Q92.19127 320.71564 92.59752 320.41876Q93.019394 320.10626 93.25377 319.45ZM89.800644 317.7469L93.269394 317.7469Q93.206894 316.95 92.87877 316.5594Q92.363144 315.95 91.56627 315.95Q90.831894 315.95 90.331894 316.4344Q89.84752 316.91876 89.800644 317.7469ZM96.00377 321.45L96.00377 315.23126L96.94127 315.23126L96.94127 316.10626Q97.62877 315.09064 98.925644 315.09064Q99.488144 315.09064 99.956894 315.29376Q100.44127 315.4969 100.675644 315.825Q100.91002 316.15314 101.00377 316.59064Q101.050644 316.8875 101.050644 317.6219L101.050644 321.45L100.00377 321.45L100.00377 317.66876Q100.00377 317.0125 99.87877 316.7Q99.75377 316.3875 99.44127 316.2Q99.12877 315.9969 98.706894 315.9969Q98.03502 315.9969 97.53502 316.4344Q97.050644 316.85626 97.050644 318.04376L97.050644 321.45L96.00377 321.45ZM107.03502 321.45L107.03502 320.66876Q106.44127 321.59064 105.300644 321.59064Q104.550644 321.59064 103.925644 321.1844Q103.300644 320.7625 102.956894 320.02814Q102.613144 319.29376 102.613144 318.34064Q102.613144 317.41876 102.925644 316.65314Q103.238144 315.8875 103.863144 315.4969Q104.488144 315.09064 105.25377 315.09064Q105.81627 315.09064 106.25377 315.325Q106.69127 315.5594 106.97252 315.9344L106.97252 312.85626L108.019394 312.85626L108.019394 321.45L107.03502 321.45ZM103.706894 318.34064Q103.706894 319.54376 104.206894 320.1375Q104.706894 320.71564 105.394394 320.71564Q106.081894 320.71564 106.56627 320.15314Q107.050644 319.59064 107.050644 318.4344Q107.050644 317.15314 106.550644 316.5594Q106.06627 315.96564 105.34752 315.96564Q104.644394 315.96564 104.175644 316.54376Q103.706894 317.10626 103.706894 318.34064ZM114.06627 320.6844Q113.47252 321.1844 112.925644 321.3875Q112.394394 321.59064 111.769394 321.59064Q110.738144 321.59064 110.19127 321.09064Q109.644394 320.59064 109.644394 319.8094Q109.644394 319.35626 109.84752 318.98126Q110.050644 318.59064 110.394394 318.3719Q110.738144 318.1375 111.16002 318.02814Q111.456894 317.9344 112.09752 317.85626Q113.363144 317.71564 113.97252 317.4969Q113.97252 317.27814 113.97252 317.23126Q113.97252 316.575 113.675644 316.3094Q113.269394 315.96564 112.47252 315.96564Q111.738144 315.96564 111.37877 316.23126Q111.019394 316.48126 110.84752 317.1375L109.81627 316.9969Q109.956894 316.34064 110.28502 315.9344Q110.613144 315.52814 111.22252 315.3094Q111.831894 315.09064 112.62877 315.09064Q113.425644 315.09064 113.925644 315.27814Q114.425644 315.46564 114.66002 315.7469Q114.894394 316.02814 114.988144 316.46564Q115.03502 316.73126 115.03502 317.4344L115.03502 318.84064Q115.03502 320.3094 115.09752 320.7Q115.175644 321.09064 115.37877 321.45L114.269394 321.45Q114.113144 321.1219 114.06627 320.6844ZM113.97252 318.325Q113.394394 318.5594 112.25377 318.73126Q111.59752 318.825 111.331894 318.95Q111.06627 319.0594 110.91002 319.27814Q110.769394 319.4969 110.769394 319.77814Q110.769394 320.2 111.081894 320.48126Q111.41002 320.7625 112.019394 320.7625Q112.62877 320.7625 113.09752 320.4969Q113.581894 320.23126 113.800644 319.7625Q113.97252 319.40314 113.97252 318.71564L113.97252 318.325ZM117.00377 321.45L117.00377 315.23126L117.94127 315.23126L117.94127 316.10626Q118.62877 315.09064 119.925644 315.09064Q120.488144 315.09064 120.956894 315.29376Q121.44127 315.4969 121.675644 315.825Q121.91002 316.15314 122.00377 316.59064Q122.050644 316.8875 122.050644 317.6219L122.050644 321.45L121.00377 321.45L121.00377 317.66876Q121.00377 317.0125 120.87877 316.7Q120.75377 316.3875 120.44127 316.2Q120.12877 315.9969 119.706894 315.9969Q119.03502 315.9969 118.53502 316.4344Q118.050644 316.85626 118.050644 318.04376L118.050644 321.45L117.00377 321.45ZM128.06627 319.16876L129.09752 319.3094Q128.92564 320.3719 128.22252 320.98126Q127.519394 321.59064 126.50377 321.59064Q125.22252 321.59064 124.44127 320.7625Q123.675644 319.91876 123.675644 318.35626Q123.675644 317.35626 124.00377 316.60626Q124.34752 315.84064 125.019394 315.46564Q125.706894 315.09064 126.519394 315.09064Q127.519394 315.09064 128.16002 315.60626Q128.81627 316.10626 129.00377 317.0594L127.97252 317.21564Q127.831894 316.59064 127.456894 316.27814Q127.081894 315.95 126.550644 315.95Q125.75377 315.95 125.25377 316.52814Q124.75377 317.09064 124.75377 318.325Q124.75377 319.59064 125.238144 320.15314Q125.72252 320.71564 126.488144 320.71564Q127.113144 320.71564 127.519394 320.34064Q127.94127 319.96564 128.06627 319.16876ZM134.25377 319.45L135.34752 319.575Q135.09752 320.52814 134.3944 321.0594Q133.69127 321.59064 132.61314 321.59064Q131.25377 321.59064 130.44127 320.7469Q129.6444 319.90314 129.6444 318.3875Q129.6444 316.825 130.4569 315.96564Q131.2694 315.09064 132.55064 315.09064Q133.80064 315.09064 134.5819 315.9344Q135.37877 316.77814 135.37877 318.325Q135.37877 318.41876 135.37877 318.60626L130.73814 318.60626Q130.80064 319.6375 131.31627 320.1844Q131.8319 320.71564 132.61314 320.71564Q133.19127 320.71564 133.59752 320.41876Q134.0194 320.10626 134.25377 319.45ZM130.80064 317.7469L134.2694 317.7469Q134.2069 316.95 133.87877 316.5594Q133.36314 315.95 132.56627 315.95Q131.8319 315.95 131.3319 316.4344Q130.84752 316.91876 130.80064 317.7469ZM139.75377 318.6844L140.81627 318.59064Q140.8944 319.2469 141.17564 319.65314Q141.4569 320.0594 142.03502 320.325Q142.62877 320.575 143.36314 320.575Q144.00377 320.575 144.50377 320.3875Q145.00377 320.1844 145.23814 319.85626Q145.48814 319.5125 145.48814 319.1219Q145.48814 318.71564 145.25377 318.41876Q145.0194 318.10626 144.48814 317.90314Q144.12877 317.7625 142.94127 317.48126Q141.7694 317.2 141.30064 316.95Q140.67564 316.6219 140.37877 316.15314Q140.0819 315.66876 140.0819 315.075Q140.0819 314.4344 140.44127 313.8719Q140.81627 313.29376 141.5194 313.0125Q142.23814 312.71564 143.09752 312.71564Q144.05064 312.71564 144.78502 313.02814Q145.5194 313.325 145.91002 313.9344Q146.30064 314.52814 146.3319 315.27814L145.23814 315.35626Q145.1444 314.54376 144.62877 314.1375Q144.12877 313.71564 143.1444 313.71564Q142.11314 313.71564 141.6444 314.09064Q141.17564 314.46564 141.17564 314.9969Q141.17564 315.46564 141.50377 315.7625Q141.8319 316.0594 143.2069 316.3719Q144.59752 316.6844 145.11314 316.91876Q145.86314 317.27814 146.22252 317.8094Q146.5819 318.325 146.5819 319.02814Q146.5819 319.71564 146.19127 320.325Q145.80064 320.91876 145.06627 321.2625Q144.3319 321.59064 143.41002 321.59064Q142.23814 321.59064 141.44127 321.2625Q140.66002 320.91876 140.2069 320.23126Q139.7694 319.54376 139.75377 318.6844ZM152.0819 321.45L152.0819 320.52814Q151.34752 321.59064 150.09752 321.59064Q149.55064 321.59064 149.06627 321.3875Q148.59752 321.16876 148.36314 320.85626Q148.12877 320.52814 148.03502 320.0594Q147.97252 319.7625 147.97252 319.075L147.97252 315.23126L149.03502 315.23126L149.03502 318.6844Q149.03502 319.4969 149.09752 319.79376Q149.19127 320.2 149.50377 320.45Q149.8319 320.6844 150.31627 320.6844Q150.78502 320.6844 151.19127 320.45Q151.61314 320.2 151.78502 319.77814Q151.97252 319.35626 151.97252 318.5594L151.97252 315.23126L153.0194 315.23126L153.0194 321.45L152.0819 321.45ZM155.97252 321.45L154.98814 321.45L154.98814 312.85626L156.05064 312.85626L156.05064 315.91876Q156.72252 315.09064 157.75377 315.09064Q158.3319 315.09064 158.8319 315.325Q159.34752 315.54376 159.67564 315.96564Q160.0194 316.3875 160.2069 316.98126Q160.3944 317.575 160.3944 318.2469Q160.3944 319.84064 159.59752 320.71564Q158.80064 321.59064 157.7069 321.59064Q156.59752 321.59064 155.97252 320.66876L155.97252 321.45ZM155.9569 318.29376Q155.9569 319.40314 156.2694 319.90314Q156.7694 320.71564 157.61314 320.71564Q158.30064 320.71564 158.80064 320.1219Q159.31627 319.52814 159.31627 318.325Q159.31627 317.10626 158.8319 316.52814Q158.34752 315.95 157.66002 315.95Q156.97252 315.95 156.4569 316.5594Q155.9569 317.15314 155.9569 318.29376ZM161.5819 319.59064L162.61314 319.4344Q162.7069 320.0594 163.09752 320.3875Q163.50377 320.71564 164.23814 320.71564Q164.9569 320.71564 165.30064 320.4344Q165.66002 320.1375 165.66002 319.73126Q165.66002 319.3719 165.34752 319.16876Q165.12877 319.02814 164.2694 318.8094Q163.11314 318.5125 162.66002 318.3094Q162.22252 318.09064 161.98814 317.71564Q161.75377 317.34064 161.75377 316.8719Q161.75377 316.46564 161.94127 316.10626Q162.12877 315.7469 162.4569 315.5125Q162.7069 315.34064 163.12877 315.21564Q163.55064 315.09064 164.05064 315.09064Q164.7694 315.09064 165.31627 315.3094Q165.87877 315.5125 166.1444 315.8719Q166.41002 316.23126 166.50377 316.825L165.47252 316.96564Q165.41002 316.4969 165.06627 316.23126Q164.73814 315.95 164.11314 315.95Q163.3944 315.95 163.0819 316.2Q162.7694 316.4344 162.7694 316.7625Q162.7694 316.96564 162.8944 317.1219Q163.03502 317.29376 163.30064 317.40314Q163.4569 317.46564 164.23814 317.66876Q165.36314 317.98126 165.80064 318.16876Q166.23814 318.35626 166.48814 318.71564Q166.73814 319.075 166.73814 319.6219Q166.73814 320.15314 166.42564 320.6219Q166.12877 321.075 165.55064 321.34064Q164.97252 321.59064 164.23814 321.59064Q163.0194 321.59064 162.37877 321.09064Q161.75377 320.575 161.5819 319.59064ZM168.00377 314.075L168.00377 312.85626L169.06627 312.85626L169.06627 314.075L168.00377 314.075ZM168.00377 321.45L168.00377 315.23126L169.06627 315.23126L169.06627 321.45L168.00377 321.45ZM175.03502 321.45L175.03502 320.66876Q174.44127 321.59064 173.30064 321.59064Q172.55064 321.59064 171.92564 321.1844Q171.30064 320.7625 170.9569 320.02814Q170.61314 319.29376 170.61314 318.34064Q170.61314 317.41876 170.92564 316.65314Q171.23814 315.8875 171.86314 315.4969Q172.48814 315.09064 173.25377 315.09064Q173.81627 315.09064 174.25377 315.325Q174.69127 315.5594 174.97252 315.9344L174.97252 312.85626L176.0194 312.85626L176.0194 321.45L175.03502 321.45ZM171.7069 318.34064Q171.7069 319.54376 172.2069 320.1375Q172.7069 320.71564 173.3944 320.71564Q174.0819 320.71564 174.56627 320.15314Q175.05064 319.59064 175.05064 318.4344Q175.05064 317.15314 174.55064 316.5594Q174.06627 315.96564 173.34752 315.96564Q172.6444 315.96564 172.17564 316.54376Q171.7069 317.10626 171.7069 318.34064ZM177.9569 323.84064L177.8319 322.85626Q178.17564 322.95 178.44127 322.95Q178.78502 322.95 178.98814 322.825Q179.2069 322.71564 179.34752 322.5125Q179.44127 322.34064 179.67564 321.71564Q179.69127 321.6375 179.7694 321.46564L177.3944 315.23126L178.53502 315.23126L179.8319 318.825Q180.0819 319.5125 180.28502 320.27814Q180.47252 319.54376 180.72252 318.85626L182.05064 315.23126L183.09752 315.23126L180.73814 321.5594Q180.34752 322.575 180.1444 322.96564Q179.86314 323.4969 179.48814 323.73126Q179.12877 323.98126 178.62877 323.98126Q178.3319 323.98126 177.9569 323.84064Z" fill-rule="nonzero"/><path fill="#000000" d="M196.3398 321.45L196.3398 312.85626L200.1523 312.85626Q201.30855 312.85626 201.9023 313.09064Q202.49605 313.325 202.85542 313.91876Q203.2148 314.4969 203.2148 315.2Q203.2148 316.1219 202.62105 316.7469Q202.0273 317.3719 200.79292 317.54376Q201.24605 317.7625 201.48042 317.96564Q201.98042 318.41876 202.41792 319.10626L203.91792 321.45L202.48042 321.45L201.35542 319.66876Q200.85542 318.8875 200.5273 318.48126Q200.2148 318.075 199.94917 317.91876Q199.69917 317.7469 199.43355 317.66876Q199.24605 317.6375 198.80855 317.6375L197.48042 317.6375L197.48042 321.45L196.3398 321.45ZM197.48042 316.65314L199.93355 316.65314Q200.69917 316.65314 201.13667 316.4969Q201.5898 316.325 201.80855 315.98126Q202.04292 315.6219 202.04292 315.2Q202.04292 314.59064 201.5898 314.2Q201.1523 313.8094 200.19917 313.8094L197.48042 313.8094L197.48042 316.65314ZM209.44917 319.45L210.54292 319.575Q210.29292 320.52814 209.5898 321.0594Q208.88667 321.59064 207.80855 321.59064Q206.44917 321.59064 205.63667 320.7469Q204.8398 319.90314 204.8398 318.3875Q204.8398 316.825 205.6523 315.96564Q206.4648 315.09064 207.74605 315.09064Q208.99605 315.09064 209.7773 315.9344Q210.57417 316.77814 210.57417 318.325Q210.57417 318.41876 210.57417 318.60626L205.93355 318.60626Q205.99605 319.6375 206.51167 320.1844Q207.0273 320.71564 207.80855 320.71564Q208.38667 320.71564 208.79292 320.41876Q209.2148 320.10626 209.44917 319.45ZM205.99605 317.7469L209.4648 317.7469Q209.4023 316.95 209.07417 316.5594Q208.55855 315.95 207.76167 315.95Q207.0273 315.95 206.5273 316.4344Q206.04292 316.91876 205.99605 317.7469ZM211.99605 321.96564L213.0273 322.1219Q213.0898 322.59064 213.38667 322.8094Q213.7773 323.10626 214.44917 323.10626Q215.18355 323.10626 215.57417 322.8094Q215.98042 322.5125 216.12105 321.9969Q216.2148 321.66876 216.19917 320.6375Q215.51167 321.45 214.48042 321.45Q213.19917 321.45 212.49605 320.52814Q211.79292 319.59064 211.79292 318.3094Q211.79292 317.41876 212.10542 316.66876Q212.43355 315.90314 213.04292 315.4969Q213.6523 315.09064 214.48042 315.09064Q215.5898 315.09064 216.30855 315.98126L216.30855 315.23126L217.2773 315.23126L217.2773 320.60626Q217.2773 322.0594 216.98042 322.66876Q216.68355 323.27814 216.04292 323.6219Q215.4023 323.98126 214.4648 323.98126Q213.35542 323.98126 212.66792 323.48126Q211.98042 322.98126 211.99605 321.96564ZM212.87105 318.23126Q212.87105 319.45 213.35542 320.0125Q213.8398 320.575 214.57417 320.575Q215.30855 320.575 215.79292 320.0125Q216.29292 319.45 216.29292 318.2625Q216.29292 317.1219 215.7773 316.54376Q215.2773 315.96564 214.55855 315.96564Q213.85542 315.96564 213.35542 316.54376Q212.87105 317.10626 212.87105 318.23126ZM219.19917 314.075L219.19917 312.85626L220.26167 312.85626L220.26167 314.075L219.19917 314.075ZM219.19917 321.45L219.19917 315.23126L220.26167 315.23126L220.26167 321.45L219.19917 321.45ZM221.7773 319.59064L222.80855 319.4344Q222.9023 320.0594 223.29292 320.3875Q223.69917 320.71564 224.43355 320.71564Q225.1523 320.71564 225.49605 320.4344Q225.85542 320.1375 225.85542 319.73126Q225.85542 319.3719 225.54292 319.16876Q225.32417 319.02814 224.4648 318.8094Q223.30855 318.5125 222.85542 318.3094Q222.41792 318.09064 222.18355 317.71564Q221.94917 317.34064 221.94917 316.8719Q221.94917 316.46564 222.13667 316.10626Q222.32417 315.7469 222.6523 315.5125Q222.9023 315.34064 223.32417 315.21564Q223.74605 315.09064 224.24605 315.09064Q224.9648 315.09064 225.51167 315.3094Q226.07417 315.5125 226.3398 315.8719Q226.60542 316.23126 226.69917 316.825L225.66792 316.96564Q225.60542 316.4969 225.26167 316.23126Q224.93355 315.95 224.30855 315.95Q223.5898 315.95 223.2773 316.2Q222.9648 316.4344 222.9648 316.7625Q222.9648 316.96564 223.0898 317.1219Q223.23042 317.29376 223.49605 317.40314Q223.6523 317.46564 224.43355 317.66876Q225.55855 317.98126 225.99605 318.16876Q226.43355 318.35626 226.68355 318.71564Q226.93355 319.075 226.93355 319.6219Q226.93355 320.15314 226.62105 320.6219Q226.32417 321.075 225.74605 321.34064Q225.16792 321.59064 224.43355 321.59064Q223.2148 321.59064 222.57417 321.09064Q221.94917 320.575 221.7773 319.59064ZM230.49605 320.5125L230.6523 321.4344Q230.19917 321.52814 229.85542 321.52814Q229.2773 321.52814 228.9648 321.35626Q228.6523 321.16876 228.51167 320.8719Q228.38667 320.575 228.38667 319.6219L228.38667 316.04376L227.62105 316.04376L227.62105 315.23126L228.38667 315.23126L228.38667 313.6844L229.43355 313.0594L229.43355 315.23126L230.49605 315.23126L230.49605 316.04376L229.43355 316.04376L229.43355 319.6844Q229.43355 320.1375 229.48042 320.2625Q229.54292 320.3875 229.66792 320.46564Q229.79292 320.54376 230.0273 320.54376Q230.2148 320.54376 230.49605 320.5125ZM231.18355 321.45L231.18355 315.23126L232.13667 315.23126L232.13667 316.16876Q232.49605 315.5125 232.79292 315.3094Q233.10542 315.09064 233.48042 315.09064Q234.01167 315.09064 234.55855 315.41876L234.19917 316.40314Q233.80855 316.16876 233.43355 316.16876Q233.07417 316.16876 232.79292 316.3875Q232.5273 316.59064 232.41792 316.96564Q232.23042 317.52814 232.23042 318.1844L232.23042 321.45L231.18355 321.45ZM239.26167 320.6844Q238.66792 321.1844 238.12105 321.3875Q237.5898 321.59064 236.9648 321.59064Q235.93355 321.59064 235.38667 321.09064Q234.8398 320.59064 234.8398 319.8094Q234.8398 319.35626 235.04292 318.98126Q235.24605 318.59064 235.5898 318.3719Q235.93355 318.1375 236.35542 318.02814Q236.6523 317.9344 237.29292 317.85626Q238.55855 317.71564 239.16792 317.4969Q239.16792 317.27814 239.16792 317.23126Q239.16792 316.575 238.87105 316.3094Q238.4648 315.96564 237.66792 315.96564Q236.93355 315.96564 236.57417 316.23126Q236.2148 316.48126 236.04292 317.1375L235.01167 316.9969Q235.1523 316.34064 235.48042 315.9344Q235.80855 315.52814 236.41792 315.3094Q237.0273 315.09064 237.82417 315.09064Q238.62105 315.09064 239.12105 315.27814Q239.62105 315.46564 239.85542 315.7469Q240.0898 316.02814 240.18355 316.46564Q240.23042 316.73126 240.23042 317.4344L240.23042 318.84064Q240.23042 320.3094 240.29292 320.7Q240.37105 321.09064 240.57417 321.45L239.4648 321.45Q239.30855 321.1219 239.26167 320.6844ZM239.16792 318.325Q238.5898 318.5594 237.44917 318.73126Q236.79292 318.825 236.5273 318.95Q236.26167 319.0594 236.10542 319.27814Q235.9648 319.4969 235.9648 319.77814Q235.9648 320.2 236.2773 320.48126Q236.60542 320.7625 237.2148 320.7625Q237.82417 320.7625 238.29292 320.4969Q238.7773 320.23126 238.99605 319.7625Q239.16792 319.40314 239.16792 318.71564L239.16792 318.325ZM244.49605 320.5125L244.6523 321.4344Q244.19917 321.52814 243.85542 321.52814Q243.2773 321.52814 242.9648 321.35626Q242.6523 321.16876 242.51167 320.8719Q242.38667 320.575 242.38667 319.6219L242.38667 316.04376L241.62105 316.04376L241.62105 315.23126L242.38667 315.23126L242.38667 313.6844L243.43355 313.0594L243.43355 315.23126L244.49605 315.23126L244.49605 316.04376L243.43355 316.04376L243.43355 319.6844Q243.43355 320.1375 243.48042 320.2625Q243.54292 320.3875 243.66792 320.46564Q243.79292 320.54376 244.0273 320.54376Q244.2148 320.54376 244.49605 320.5125ZM245.19917 314.075L245.19917 312.85626L246.26167 312.85626L246.26167 314.075L245.19917 314.075ZM245.19917 321.45L245.19917 315.23126L246.26167 315.23126L246.26167 321.45L245.19917 321.45ZM247.80855 318.34064Q247.80855 316.60626 248.76167 315.77814Q249.55855 315.09064 250.7148 315.09064Q251.99605 315.09064 252.80855 315.9344Q253.63667 316.7625 253.63667 318.2469Q253.63667 319.45 253.2773 320.1375Q252.91792 320.825 252.2148 321.21564Q251.5273 321.59064 250.7148 321.59064Q249.41792 321.59064 248.60542 320.7625Q247.80855 319.91876 247.80855 318.34064ZM248.88667 318.34064Q248.88667 319.52814 249.4023 320.1219Q249.93355 320.71564 250.7148 320.71564Q251.51167 320.71564 252.0273 320.1219Q252.54292 319.52814 252.54292 318.3094Q252.54292 317.15314 252.01167 316.5594Q251.49605 315.96564 250.7148 315.96564Q249.93355 315.96564 249.4023 316.5594Q248.88667 317.1375 248.88667 318.34064ZM255.19917 321.45L255.19917 315.23126L256.13666 315.23126L256.13666 316.10626Q256.82416 315.09064 258.12103 315.09064Q258.68353 315.09064 259.15228 315.29376Q259.63666 315.4969 259.87103 315.825Q260.1054 316.15314 260.19916 316.59064Q260.24603 316.8875 260.24603 317.6219L260.24603 321.45L259.19916 321.45L259.19916 317.66876Q259.19916 317.0125 259.07416 316.7Q258.94916 316.3875 258.63666 316.2Q258.32416 315.9969 257.90228 315.9969Q257.2304 315.9969 256.7304 316.4344Q256.24603 316.85626 256.24603 318.04376L256.24603 321.45L255.19917 321.45ZM264.94916 318.6844L266.01166 318.59064Q266.08978 319.2469 266.37103 319.65314Q266.65228 320.0594 267.2304 320.325Q267.82416 320.575 268.55853 320.575Q269.19916 320.575 269.69916 320.3875Q270.19916 320.1844 270.43353 319.85626Q270.68353 319.5125 270.68353 319.1219Q270.68353 318.71564 270.44916 318.41876Q270.21478 318.10626 269.68353 317.90314Q269.32416 317.7625 268.13666 317.48126Q266.96478 317.2 266.49603 316.95Q265.87103 316.6219 265.57416 316.15314Q265.27728 315.66876 265.27728 315.075Q265.27728 314.4344 265.63666 313.8719Q266.01166 313.29376 266.71478 313.0125Q267.43353 312.71564 268.2929 312.71564Q269.24603 312.71564 269.9804 313.02814Q270.71478 313.325 271.1054 313.9344Q271.49603 314.52814 271.52728 315.27814L270.43353 315.35626Q270.33978 314.54376 269.82416 314.1375Q269.32416 313.71564 268.33978 313.71564Q267.30853 313.71564 266.83978 314.09064Q266.37103 314.46564 266.37103 314.9969Q266.37103 315.46564 266.69916 315.7625Q267.02728 316.0594 268.40228 316.3719Q269.7929 316.6844 270.30853 316.91876Q271.05853 317.27814 271.4179 317.8094Q271.77728 318.325 271.77728 319.02814Q271.77728 319.71564 271.38666 320.325Q270.99603 320.91876 270.26166 321.2625Q269.52728 321.59064 268.6054 321.59064Q267.43353 321.59064 266.63666 321.2625Q265.8554 320.91876 265.40228 320.23126Q264.96478 319.54376 264.94916 318.6844ZM277.27728 321.45L277.27728 320.52814Q276.5429 321.59064 275.2929 321.59064Q274.74603 321.59064 274.26166 321.3875Q273.7929 321.16876 273.55853 320.85626Q273.32416 320.52814 273.2304 320.0594Q273.1679 319.7625 273.1679 319.075L273.1679 315.23126L274.2304 315.23126L274.2304 318.6844Q274.2304 319.4969 274.2929 319.79376Q274.38666 320.2 274.69916 320.45Q275.02728 320.6844 275.51166 320.6844Q275.9804 320.6844 276.38666 320.45Q276.80853 320.2 276.9804 319.77814Q277.1679 319.35626 277.1679 318.5594L277.1679 315.23126L278.21478 315.23126L278.21478 321.45L277.27728 321.45ZM281.1679 321.45L280.18353 321.45L280.18353 312.85626L281.24603 312.85626L281.24603 315.91876Q281.9179 315.09064 282.94916 315.09064Q283.52728 315.09064 284.02728 315.325Q284.5429 315.54376 284.87103 315.96564Q285.21478 316.3875 285.40228 316.98126Q285.58978 317.575 285.58978 318.2469Q285.58978 319.84064 284.7929 320.71564Q283.99603 321.59064 282.90228 321.59064Q281.7929 321.59064 281.1679 320.66876L281.1679 321.45ZM281.15228 318.29376Q281.15228 319.40314 281.46478 319.90314Q281.96478 320.71564 282.80853 320.71564Q283.49603 320.71564 283.99603 320.1219Q284.51166 319.52814 284.51166 318.325Q284.51166 317.10626 284.02728 316.52814Q283.5429 315.95 282.8554 315.95Q282.1679 315.95 281.65228 316.5594Q281.15228 317.15314 281.15228 318.29376ZM286.77728 319.59064L287.80853 319.4344Q287.90228 320.0594 288.2929 320.3875Q288.69916 320.71564 289.43353 320.71564Q290.15228 320.71564 290.49603 320.4344Q290.8554 320.1375 290.8554 319.73126Q290.8554 319.3719 290.5429 319.16876Q290.32416 319.02814 289.46478 318.8094Q288.30853 318.5125 287.8554 318.3094Q287.4179 318.09064 287.18353 317.71564Q286.94916 317.34064 286.94916 316.8719Q286.94916 316.46564 287.13666 316.10626Q287.32416 315.7469 287.65228 315.5125Q287.90228 315.34064 288.32416 315.21564Q288.74603 315.09064 289.24603 315.09064Q289.96478 315.09064 290.51166 315.3094Q291.07416 315.5125 291.33978 315.8719Q291.6054 316.23126 291.69916 316.825L290.6679 316.96564Q290.6054 316.4969 290.26166 316.23126Q289.93353 315.95 289.30853 315.95Q288.58978 315.95 288.27728 316.2Q287.96478 316.4344 287.96478 316.7625Q287.96478 316.96564 288.08978 317.1219Q288.2304 317.29376 288.49603 317.40314Q288.65228 317.46564 289.43353 317.66876Q290.55853 317.98126 290.99603 318.16876Q291.43353 318.35626 291.68353 318.71564Q291.93353 319.075 291.93353 319.6219Q291.93353 320.15314 291.62103 320.6219Q291.32416 321.075 290.74603 321.34064Q290.1679 321.59064 289.43353 321.59064Q288.21478 321.59064 287.57416 321.09064Q286.94916 320.575 286.77728 319.59064ZM293.19916 314.075L293.19916 312.85626L294.26166 312.85626L294.26166 314.075L293.19916 314.075ZM293.19916 321.45L293.19916 315.23126L294.26166 315.23126L294.26166 321.45L293.19916 321.45ZM300.2304 321.45L300.2304 320.66876Q299.63666 321.59064 298.49603 321.59064Q297.74603 321.59064 297.12103 321.1844Q296.49603 320.7625 296.15228 320.02814Q295.80853 319.29376 295.80853 318.34064Q295.80853 317.41876 296.12103 316.65314Q296.43353 315.8875 297.05853 315.4969Q297.68353 315.09064 298.44916 315.09064Q299.01166 315.09064 299.44916 315.325Q299.88666 315.5594 300.1679 315.9344L300.1679 312.85626L301.21478 312.85626L301.21478 321.45L300.2304 321.45ZM296.90228 318.34064Q296.90228 319.54376 297.40228 320.1375Q297.90228 320.71564 298.58978 320.71564Q299.27728 320.71564 299.76166 320.15314Q300.24603 319.59064 300.24603 318.4344Q300.24603 317.15314 299.74603 316.5594Q299.26166 315.96564 298.5429 315.96564Q297.83978 315.96564 297.37103 316.54376Q296.90228 317.10626 296.90228 318.34064ZM303.15228 323.84064L303.02728 322.85626Q303.37103 322.95 303.63666 322.95Q303.9804 322.95 304.18353 322.825Q304.40228 322.71564 304.5429 322.5125Q304.63666 322.34064 304.87103 321.71564Q304.88666 321.6375 304.96478 321.46564L302.58978 315.23126L303.7304 315.23126L305.02728 318.825Q305.27728 319.5125 305.4804 320.27814Q305.6679 319.54376 305.9179 318.85626L307.24603 315.23126L308.2929 315.23126L305.93353 321.5594Q305.5429 322.575 305.33978 322.96564Q305.05853 323.4969 304.68353 323.73126Q304.32416 323.98126 303.82416 323.98126Q303.52728 323.98126 303.15228 323.84064Z" fill-rule="nonzero"/><path fill="#000000" d="M337.70706 321.45L337.70706 313.8719L334.87894 313.8719L334.87894 312.85626L341.69144 312.85626L341.69144 313.8719L338.8477 313.8719L338.8477 321.45L337.70706 321.45ZM342.37894 321.45L342.37894 315.23126L343.33206 315.23126L343.33206 316.16876Q343.69144 315.5125 343.9883 315.3094Q344.3008 315.09064 344.6758 315.09064Q345.20706 315.09064 345.75394 315.41876L345.39456 316.40314Q345.00394 316.16876 344.62894 316.16876Q344.26956 316.16876 343.9883 316.3875Q343.7227 316.59064 343.6133 316.96564Q343.4258 317.52814 343.4258 318.1844L343.4258 321.45L342.37894 321.45ZM350.45706 320.6844Q349.8633 321.1844 349.31644 321.3875Q348.7852 321.59064 348.1602 321.59064Q347.12894 321.59064 346.58206 321.09064Q346.0352 320.59064 346.0352 319.8094Q346.0352 319.35626 346.2383 318.98126Q346.44144 318.59064 346.7852 318.3719Q347.12894 318.1375 347.5508 318.02814Q347.8477 317.9344 348.4883 317.85626Q349.75394 317.71564 350.3633 317.4969Q350.3633 317.27814 350.3633 317.23126Q350.3633 316.575 350.06644 316.3094Q349.6602 315.96564 348.8633 315.96564Q348.12894 315.96564 347.76956 316.23126Q347.4102 316.48126 347.2383 317.1375L346.20706 316.9969Q346.3477 316.34064 346.6758 315.9344Q347.00394 315.52814 347.6133 315.3094Q348.2227 315.09064 349.01956 315.09064Q349.81644 315.09064 350.31644 315.27814Q350.81644 315.46564 351.0508 315.7469Q351.2852 316.02814 351.37894 316.46564Q351.4258 316.73126 351.4258 317.4344L351.4258 318.84064Q351.4258 320.3094 351.4883 320.7Q351.56644 321.09064 351.76956 321.45L350.6602 321.45Q350.50394 321.1219 350.45706 320.6844ZM350.3633 318.325Q349.7852 318.5594 348.64456 318.73126Q347.9883 318.825 347.7227 318.95Q347.45706 319.0594 347.3008 319.27814Q347.1602 319.4969 347.1602 319.77814Q347.1602 320.2 347.4727 320.48126Q347.8008 320.7625 348.4102 320.7625Q349.01956 320.7625 349.4883 320.4969Q349.9727 320.23126 350.19144 319.7625Q350.3633 319.40314 350.3633 318.71564L350.3633 318.325ZM355.1133 321.45L352.75394 315.23126L353.8633 315.23126L355.20706 318.95Q355.4102 319.5594 355.5977 320.2Q355.7383 319.71564 355.9883 319.02814L357.37894 315.23126L358.45706 315.23126L356.0977 321.45L355.1133 321.45ZM363.64456 319.45L364.7383 319.575Q364.4883 320.52814 363.7852 321.0594Q363.08206 321.59064 362.00394 321.59064Q360.64456 321.59064 359.83206 320.7469Q359.0352 319.90314 359.0352 318.3875Q359.0352 316.825 359.8477 315.96564Q360.6602 315.09064 361.94144 315.09064Q363.19144 315.09064 363.9727 315.9344Q364.76956 316.77814 364.76956 318.325Q364.76956 318.41876 364.76956 318.60626L360.12894 318.60626Q360.19144 319.6375 360.70706 320.1844Q361.2227 320.71564 362.00394 320.71564Q362.58206 320.71564 362.9883 320.41876Q363.4102 320.10626 363.64456 319.45ZM360.19144 317.7469L363.6602 317.7469Q363.5977 316.95 363.26956 316.5594Q362.75394 315.95 361.95706 315.95Q361.2227 315.95 360.7227 316.4344Q360.2383 316.91876 360.19144 317.7469ZM366.3633 321.45L366.3633 312.85626L367.4258 312.85626L367.4258 321.45L366.3633 321.45ZM372.14456 318.6844L373.20706 318.59064Q373.2852 319.2469 373.56644 319.65314Q373.8477 320.0594 374.4258 320.325Q375.01956 320.575 375.75394 320.575Q376.39456 320.575 376.89456 320.3875Q377.39456 320.1844 377.62894 319.85626Q377.87894 319.5125 377.87894 319.1219Q377.87894 318.71564 377.64456 318.41876Q377.4102 318.10626 376.87894 317.90314Q376.51956 317.7625 375.33206 317.48126Q374.1602 317.2 373.69144 316.95Q373.06644 316.6219 372.76956 316.15314Q372.4727 315.66876 372.4727 315.075Q372.4727 314.4344 372.83206 313.8719Q373.20706 313.29376 373.9102 313.0125Q374.62894 312.71564 375.4883 312.71564Q376.44144 312.71564 377.1758 313.02814Q377.9102 313.325 378.3008 313.9344Q378.69144 314.52814 378.7227 315.27814L377.62894 315.35626Q377.5352 314.54376 377.01956 314.1375Q376.51956 313.71564 375.5352 313.71564Q374.50394 313.71564 374.0352 314.09064Q373.56644 314.46564 373.56644 314.9969Q373.56644 315.46564 373.89456 315.7625Q374.2227 316.0594 375.5977 316.3719Q376.9883 316.6844 377.50394 316.91876Q378.25394 317.27814 378.6133 317.8094Q378.9727 318.325 378.9727 319.02814Q378.9727 319.71564 378.58206 320.325Q378.19144 320.91876 377.45706 321.2625Q376.7227 321.59064 375.8008 321.59064Q374.62894 321.59064 373.83206 321.2625Q373.0508 320.91876 372.5977 320.23126Q372.1602 319.54376 372.14456 318.6844ZM384.4727 321.45L384.4727 320.52814Q383.7383 321.59064 382.4883 321.59064Q381.94144 321.59064 381.45706 321.3875Q380.9883 321.16876 380.75394 320.85626Q380.51956 320.52814 380.4258 320.0594Q380.3633 319.7625 380.3633 319.075L380.3633 315.23126L381.4258 315.23126L381.4258 318.6844Q381.4258 319.4969 381.4883 319.79376Q381.58206 320.2 381.89456 320.45Q382.2227 320.6844 382.70706 320.6844Q383.1758 320.6844 383.58206 320.45Q384.00394 320.2 384.1758 319.77814Q384.3633 319.35626 384.3633 318.5594L384.3633 315.23126L385.4102 315.23126L385.4102 321.45L384.4727 321.45ZM388.3633 321.45L387.37894 321.45L387.37894 312.85626L388.44144 312.85626L388.44144 315.91876Q389.1133 315.09064 390.14456 315.09064Q390.7227 315.09064 391.2227 315.325Q391.7383 315.54376 392.06644 315.96564Q392.4102 316.3875 392.5977 316.98126Q392.7852 317.575 392.7852 318.2469Q392.7852 319.84064 391.9883 320.71564Q391.19144 321.59064 390.0977 321.59064Q388.9883 321.59064 388.3633 320.66876L388.3633 321.45ZM388.3477 318.29376Q388.3477 319.40314 388.6602 319.90314Q389.1602 320.71564 390.00394 320.71564Q390.69144 320.71564 391.19144 320.1219Q391.70706 319.52814 391.70706 318.325Q391.70706 317.10626 391.2227 316.52814Q390.7383 315.95 390.0508 315.95Q389.3633 315.95 388.8477 316.5594Q388.3477 317.15314 388.3477 318.29376ZM393.9727 319.59064L395.00394 319.4344Q395.0977 320.0594 395.4883 320.3875Q395.89456 320.71564 396.62894 320.71564Q397.3477 320.71564 397.69144 320.4344Q398.0508 320.1375 398.0508 319.73126Q398.0508 319.3719 397.7383 319.16876Q397.51956 319.02814 396.6602 318.8094Q395.50394 318.5125 395.0508 318.3094Q394.6133 318.09064 394.37894 317.71564Q394.14456 317.34064 394.14456 316.8719Q394.14456 316.46564 394.33206 316.10626Q394.51956 315.7469 394.8477 315.5125Q395.0977 315.34064 395.51956 315.21564Q395.94144 315.09064 396.44144 315.09064Q397.1602 315.09064 397.70706 315.3094Q398.26956 315.5125 398.5352 315.8719Q398.8008 316.23126 398.89456 316.825L397.8633 316.96564Q397.8008 316.4969 397.45706 316.23126Q397.12894 315.95 396.50394 315.95Q395.7852 315.95 395.4727 316.2Q395.1602 316.4344 395.1602 316.7625Q395.1602 316.96564 395.2852 317.1219Q395.4258 317.29376 395.69144 317.40314Q395.8477 317.46564 396.62894 317.66876Q397.75394 317.98126 398.19144 318.16876Q398.62894 318.35626 398.87894 318.71564Q399.12894 319.075 399.12894 319.6219Q399.12894 320.15314 398.81644 320.6219Q398.51956 321.075 397.94144 321.34064Q397.3633 321.59064 396.62894 321.59064Q395.4102 321.59064 394.76956 321.09064Q394.14456 320.575 393.9727 319.59064ZM400.39456 314.075L400.39456 312.85626L401.45706 312.85626L401.45706 314.075L400.39456 314.075ZM400.39456 321.45L400.39456 315.23126L401.45706 315.23126L401.45706 321.45L400.39456 321.45ZM407.4258 321.45L407.4258 320.66876Q406.83206 321.59064 405.69144 321.59064Q404.94144 321.59064 404.31644 321.1844Q403.69144 320.7625 403.3477 320.02814Q403.00394 319.29376 403.00394 318.34064Q403.00394 317.41876 403.31644 316.65314Q403.62894 315.8875 404.25394 315.4969Q404.87894 315.09064 405.64456 315.09064Q406.20706 315.09064 406.64456 315.325Q407.08206 315.5594 407.3633 315.9344L407.3633 312.85626L408.4102 312.85626L408.4102 321.45L407.4258 321.45ZM404.0977 318.34064Q404.0977 319.54376 404.5977 320.1375Q405.0977 320.71564 405.7852 320.71564Q406.4727 320.71564 406.95706 320.15314Q407.44144 319.59064 407.44144 318.4344Q407.44144 317.15314 406.94144 316.5594Q406.45706 315.96564 405.7383 315.96564Q405.0352 315.96564 404.56644 316.54376Q404.0977 317.10626 404.0977 318.34064ZM410.3477 323.84064L410.2227 322.85626Q410.56644 322.95 410.83206 322.95Q411.1758 322.95 411.37894 322.825Q411.5977 322.71564 411.7383 322.5125Q411.83206 322.34064 412.06644 321.71564Q412.08206 321.6375 412.1602 321.46564L409.7852 315.23126L410.9258 315.23126L412.2227 318.825Q412.4727 319.5125 412.6758 320.27814Q412.8633 319.54376 413.1133 318.85626L414.44144 315.23126L415.4883 315.23126L413.12894 321.5594Q412.7383 322.575 412.5352 322.96564Q412.25394 323.4969 411.87894 323.73126Q411.51956 323.98126 411.01956 323.98126Q410.7227 323.98126 410.3477 323.84064Z" fill-rule="nonzero"/><path fill="#000000" d="M449.71497 321.45L449.71497 312.85626L450.87122 312.85626L455.38684 319.60626L455.38684 312.85626L456.4806 312.85626L456.4806 321.45L455.30872 321.45L450.7931 314.7L450.7931 321.45L449.71497 321.45ZM458.19934 318.34064Q458.19934 316.60626 459.15247 315.77814Q459.94934 315.09064 461.1056 315.09064Q462.38684 315.09064 463.19934 315.9344Q464.02747 316.7625 464.02747 318.2469Q464.02747 319.45 463.6681 320.1375Q463.30872 320.825 462.6056 321.21564Q461.9181 321.59064 461.1056 321.59064Q459.80872 321.59064 458.99622 320.7625Q458.19934 319.91876 458.19934 318.34064ZM459.27747 318.34064Q459.27747 319.52814 459.7931 320.1219Q460.32434 320.71564 461.1056 320.71564Q461.90247 320.71564 462.4181 320.1219Q462.93372 319.52814 462.93372 318.3094Q462.93372 317.15314 462.40247 316.5594Q461.88684 315.96564 461.1056 315.96564Q460.32434 315.96564 459.7931 316.5594Q459.27747 317.1375 459.27747 318.34064ZM468.33997 318.6844L469.40247 318.59064Q469.4806 319.2469 469.76184 319.65314Q470.0431 320.0594 470.62122 320.325Q471.21497 320.575 471.94934 320.575Q472.58997 320.575 473.08997 320.3875Q473.58997 320.1844 473.82434 319.85626Q474.07434 319.5125 474.07434 319.1219Q474.07434 318.71564 473.83997 318.41876Q473.6056 318.10626 473.07434 317.90314Q472.71497 317.7625 471.52747 317.48126Q470.3556 317.2 469.88684 316.95Q469.26184 316.6219 468.96497 316.15314Q468.6681 315.66876 468.6681 315.075Q468.6681 314.4344 469.02747 313.8719Q469.40247 313.29376 470.1056 313.0125Q470.82434 312.71564 471.68372 312.71564Q472.63684 312.71564 473.37122 313.02814Q474.1056 313.325 474.49622 313.9344Q474.88684 314.52814 474.9181 315.27814L473.82434 315.35626Q473.7306 314.54376 473.21497 314.1375Q472.71497 313.71564 471.7306 313.71564Q470.69934 313.71564 470.2306 314.09064Q469.76184 314.46564 469.76184 314.9969Q469.76184 315.46564 470.08997 315.7625Q470.4181 316.0594 471.7931 316.3719Q473.18372 316.6844 473.69934 316.91876Q474.44934 317.27814 474.80872 317.8094Q475.1681 318.325 475.1681 319.02814Q475.1681 319.71564 474.77747 320.325Q474.38684 320.91876 473.65247 321.2625Q472.9181 321.59064 471.99622 321.59064Q470.82434 321.59064 470.02747 321.2625Q469.24622 320.91876 468.7931 320.23126Q468.3556 319.54376 468.33997 318.6844ZM480.6681 321.45L480.6681 320.52814Q479.93372 321.59064 478.68372 321.59064Q478.13684 321.59064 477.65247 321.3875Q477.18372 321.16876 476.94934 320.85626Q476.71497 320.52814 476.62122 320.0594Q476.55872 319.7625 476.55872 319.075L476.55872 315.23126L477.62122 315.23126L477.62122 318.6844Q477.62122 319.4969 477.68372 319.79376Q477.77747 320.2 478.08997 320.45Q478.4181 320.6844 478.90247 320.6844Q479.37122 320.6844 479.77747 320.45Q480.19934 320.2 480.37122 319.77814Q480.55872 319.35626 480.55872 318.5594L480.55872 315.23126L481.6056 315.23126L481.6056 321.45L480.6681 321.45ZM484.55872 321.45L483.57434 321.45L483.57434 312.85626L484.63684 312.85626L484.63684 315.91876Q485.30872 315.09064 486.33997 315.09064Q486.9181 315.09064 487.4181 315.325Q487.93372 315.54376 488.26184 315.96564Q488.6056 316.3875 488.7931 316.98126Q488.9806 317.575 488.9806 318.2469Q488.9806 319.84064 488.18372 320.71564Q487.38684 321.59064 486.2931 321.59064Q485.18372 321.59064 484.55872 320.66876L484.55872 321.45ZM484.5431 318.29376Q484.5431 319.40314 484.8556 319.90314Q485.3556 320.71564 486.19934 320.71564Q486.88684 320.71564 487.38684 320.1219Q487.90247 319.52814 487.90247 318.325Q487.90247 317.10626 487.4181 316.52814Q486.93372 315.95 486.24622 315.95Q485.55872 315.95 485.0431 316.5594Q484.5431 317.15314 484.5431 318.29376ZM490.1681 319.59064L491.19934 319.4344Q491.2931 320.0594 491.68372 320.3875Q492.08997 320.71564 492.82434 320.71564Q493.5431 320.71564 493.88684 320.4344Q494.24622 320.1375 494.24622 319.73126Q494.24622 319.3719 493.93372 319.16876Q493.71497 319.02814 492.8556 318.8094Q491.69934 318.5125 491.24622 318.3094Q490.80872 318.09064 490.57434 317.71564Q490.33997 317.34064 490.33997 316.8719Q490.33997 316.46564 490.52747 316.10626Q490.71497 315.7469 491.0431 315.5125Q491.2931 315.34064 491.71497 315.21564Q492.13684 315.09064 492.63684 315.09064Q493.3556 315.09064 493.90247 315.3094Q494.46497 315.5125 494.7306 315.8719Q494.99622 316.23126 495.08997 316.825L494.05872 316.96564Q493.99622 316.4969 493.65247 316.23126Q493.32434 315.95 492.69934 315.95Q491.9806 315.95 491.6681 316.2Q491.3556 316.4344 491.3556 316.7625Q491.3556 316.96564 491.4806 317.1219Q491.62122 317.29376 491.88684 317.40314Q492.0431 317.46564 492.82434 317.66876Q493.94934 317.98126 494.38684 318.16876Q494.82434 318.35626 495.07434 318.71564Q495.32434 319.075 495.32434 319.6219Q495.32434 320.15314 495.01184 320.6219Q494.71497 321.075 494.13684 321.34064Q493.55872 321.59064 492.82434 321.59064Q491.6056 321.59064 490.96497 321.09064Q490.33997 320.575 490.1681 319.59064ZM496.58997 314.075L496.58997 312.85626L497.65247 312.85626L497.65247 314.075L496.58997 314.075ZM496.58997 321.45L496.58997 315.23126L497.65247 315.23126L497.65247 321.45L496.58997 321.45ZM503.62122 321.45L503.62122 320.66876Q503.02747 321.59064 501.88684 321.59064Q501.13684 321.59064 500.51184 321.1844Q499.88684 320.7625 499.5431 320.02814Q499.19934 319.29376 499.19934 318.34064Q499.19934 317.41876 499.51184 316.65314Q499.82434 315.8875 500.44934 315.4969Q501.07434 315.09064 501.83997 315.09064Q502.40247 315.09064 502.83997 315.325Q503.27747 315.5594 503.55872 315.9344L503.55872 312.85626L504.6056 312.85626L504.6056 321.45L503.62122 321.45ZM500.2931 318.34064Q500.2931 319.54376 500.7931 320.1375Q501.2931 320.71564 501.9806 320.71564Q502.6681 320.71564 503.15247 320.15314Q503.63684 319.59064 503.63684 318.4344Q503.63684 317.15314 503.13684 316.5594Q502.65247 315.96564 501.93372 315.96564Q501.2306 315.96564 500.76184 316.54376Q500.2931 317.10626 500.2931 318.34064ZM506.5431 323.84064L506.4181 322.85626Q506.76184 322.95 507.02747 322.95Q507.37122 322.95 507.57434 322.825Q507.7931 322.71564 507.93372 322.5125Q508.02747 322.34064 508.26184 321.71564Q508.27747 321.6375 508.3556 321.46564L505.9806 315.23126L507.12122 315.23126L508.4181 318.825Q508.6681 319.5125 508.87122 320.27814Q509.05872 319.54376 509.30872 318.85626L510.63684 315.23126L511.68372 315.23126L509.32434 321.5594Q508.93372 322.575 508.7306 322.96564Q508.44934 323.4969 508.07434 323.73126Q507.71497 323.98126 507.21497 323.98126Q506.9181 323.98126 506.5431 323.84064ZM515.1681 318.8719L515.1681 317.8094L518.4181 317.8094L518.4181 318.8719L515.1681 318.8719ZM519.1681 318.8719L519.1681 317.8094L522.4181 317.8094L522.4181 318.8719L519.1681 318.8719ZM529.13684 321.45L529.13684 317.8094L525.82434 312.85626L527.21497 312.85626L528.90247 315.45Q529.3712 316.16876 529.77747 316.90314Q530.1681 316.23126 530.71497 315.3875L532.38684 312.85626L533.69934 312.85626L530.27747 317.8094L530.27747 321.45L529.13684 321.45ZM534.19934 318.34064Q534.19934 316.60626 535.15247 315.77814Q535.94934 315.09064 537.1056 315.09064Q538.38684 315.09064 539.19934 315.9344Q540.02747 316.7625 540.02747 318.2469Q540.02747 319.45 539.6681 320.1375Q539.3087 320.825 538.6056 321.21564Q537.9181 321.59064 537.1056 321.59064Q535.8087 321.59064 534.9962 320.7625Q534.19934 319.91876 534.19934 318.34064ZM535.27747 318.34064Q535.27747 319.52814 535.7931 320.1219Q536.32434 320.71564 537.1056 320.71564Q537.90247 320.71564 538.4181 320.1219Q538.9337 319.52814 538.9337 318.3094Q538.9337 317.15314 538.40247 316.5594Q537.88684 315.96564 537.1056 315.96564Q536.32434 315.96564 535.7931 316.5594Q535.27747 317.1375 535.27747 318.34064ZM545.6681 321.45L545.6681 320.52814Q544.9337 321.59064 543.6837 321.59064Q543.13684 321.59064 542.65247 321.3875Q542.1837 321.16876 541.94934 320.85626Q541.71497 320.52814 541.6212 320.0594Q541.5587 319.7625 541.5587 319.075L541.5587 315.23126L542.6212 315.23126L542.6212 318.6844Q542.6212 319.4969 542.6837 319.79376Q542.77747 320.2 543.08997 320.45Q543.4181 320.6844 543.90247 320.6844Q544.3712 320.6844 544.77747 320.45Q545.19934 320.2 545.3712 319.77814Q545.5587 319.35626 545.5587 318.5594L545.5587 315.23126L546.6056 315.23126L546.6056 321.45L545.6681 321.45Z" fill-rule="nonzero"/><path fill="#000000" d="M444.08997 337.84064L444.08997 329.23126L445.0431 329.23126L445.0431 330.02814Q445.38684 329.5594 445.80872 329.325Q446.24622 329.09064 446.8556 329.09064Q447.65247 329.09064 448.26184 329.4969Q448.87122 329.90314 449.1681 330.65314Q449.4806 331.40314 449.4806 332.29376Q449.4806 333.2469 449.13684 334.0125Q448.80872 334.77814 448.15247 335.1844Q447.49622 335.59064 446.77747 335.59064Q446.24622 335.59064 445.82434 335.3719Q445.40247 335.1375 445.13684 334.8094L445.13684 337.84064L444.08997 337.84064ZM445.0431 332.3719Q445.0431 333.575 445.52747 334.15314Q446.01184 334.71564 446.69934 334.71564Q447.40247 334.71564 447.90247 334.1219Q448.40247 333.52814 448.40247 332.27814Q448.40247 331.09064 447.9181 330.5125Q447.43372 329.91876 446.74622 329.91876Q446.07434 329.91876 445.55872 330.54376Q445.0431 331.16876 445.0431 332.3719ZM455.15247 334.6844Q454.55872 335.1844 454.01184 335.3875Q453.4806 335.59064 452.8556 335.59064Q451.82434 335.59064 451.27747 335.09064Q450.7306 334.59064 450.7306 333.8094Q450.7306 333.35626 450.93372 332.98126Q451.13684 332.59064 451.4806 332.3719Q451.82434 332.1375 452.24622 332.02814Q452.5431 331.9344 453.18372 331.85626Q454.44934 331.71564 455.05872 331.4969Q455.05872 331.27814 455.05872 331.23126Q455.05872 330.575 454.76184 330.3094Q454.3556 329.96564 453.55872 329.96564Q452.82434 329.96564 452.46497 330.23126Q452.1056 330.48126 451.93372 331.1375L450.90247 330.9969Q451.0431 330.34064 451.37122 329.9344Q451.69934 329.52814 452.30872 329.3094Q452.9181 329.09064 453.71497 329.09064Q454.51184 329.09064 455.01184 329.27814Q455.51184 329.46564 455.74622 329.7469Q455.9806 330.02814 456.07434 330.46564Q456.12122 330.73126 456.12122 331.4344L456.12122 332.84064Q456.12122 334.3094 456.18372 334.7Q456.26184 335.09064 456.46497 335.45L455.3556 335.45Q455.19934 335.1219 455.15247 334.6844ZM455.05872 332.325Q454.4806 332.5594 453.33997 332.73126Q452.68372 332.825 452.4181 332.95Q452.15247 333.0594 451.99622 333.27814Q451.8556 333.4969 451.8556 333.77814Q451.8556 334.2 452.1681 334.48126Q452.49622 334.7625 453.1056 334.7625Q453.71497 334.7625 454.18372 334.4969Q454.6681 334.23126 454.88684 333.7625Q455.05872 333.40314 455.05872 332.71564L455.05872 332.325ZM458.0431 337.84064L457.9181 336.85626Q458.26184 336.95 458.52747 336.95Q458.87122 336.95 459.07434 336.825Q459.2931 336.71564 459.43372 336.5125Q459.52747 336.34064 459.76184 335.71564Q459.77747 335.6375 459.8556 335.46564L457.4806 329.23126L458.62122 329.23126L459.9181 332.825Q460.1681 333.5125 460.37122 334.27814Q460.55872 333.54376 460.80872 332.85626L462.13684 329.23126L463.18372 329.23126L460.82434 335.5594Q460.43372 336.575 460.2306 336.96564Q459.94934 337.4969 459.57434 337.73126Q459.21497 337.98126 458.71497 337.98126Q458.4181 337.98126 458.0431 337.84064ZM469.38684 334.5125L469.5431 335.4344Q469.08997 335.52814 468.74622 335.52814Q468.1681 335.52814 467.8556 335.35626Q467.5431 335.16876 467.40247 334.8719Q467.27747 334.575 467.27747 333.6219L467.27747 330.04376L466.51184 330.04376L466.51184 329.23126L467.27747 329.23126L467.27747 327.6844L468.32434 327.0594L468.32434 329.23126L469.38684 329.23126L469.38684 330.04376L468.32434 330.04376L468.32434 333.6844Q468.32434 334.1375 468.37122 334.2625Q468.43372 334.3875 468.55872 334.46564Q468.68372 334.54376 468.9181 334.54376Q469.1056 334.54376 469.38684 334.5125ZM470.08997 335.45L470.08997 326.85626L471.13684 326.85626L471.13684 329.9344Q471.87122 329.09064 472.99622 329.09064Q473.69934 329.09064 474.19934 329.3719Q474.71497 329.6375 474.93372 330.1219Q475.15247 330.59064 475.15247 331.5125L475.15247 335.45L474.1056 335.45L474.1056 331.5125Q474.1056 330.71564 473.76184 330.35626Q473.4181 329.9969 472.7931 329.9969Q472.32434 329.9969 471.90247 330.2469Q471.49622 330.48126 471.30872 330.90314Q471.13684 331.3094 471.13684 332.04376L471.13684 335.45L470.08997 335.45ZM481.33997 333.45L482.43372 333.575Q482.18372 334.52814 481.4806 335.0594Q480.77747 335.59064 479.69934 335.59064Q478.33997 335.59064 477.52747 334.7469Q476.7306 333.90314 476.7306 332.3875Q476.7306 330.825 477.5431 329.96564Q478.3556 329.09064 479.63684 329.09064Q480.88684 329.09064 481.6681 329.9344Q482.46497 330.77814 482.46497 332.325Q482.46497 332.41876 482.46497 332.60626L477.82434 332.60626Q477.88684 333.6375 478.40247 334.1844Q478.9181 334.71564 479.69934 334.71564Q480.27747 334.71564 480.68372 334.41876Q481.1056 334.10626 481.33997 333.45ZM477.88684 331.7469L481.3556 331.7469Q481.2931 330.95 480.96497 330.5594Q480.44934 329.95 479.65247 329.95Q478.9181 329.95 478.4181 330.4344Q477.93372 330.91876 477.88684 331.7469ZM487.33997 335.45L487.33997 330.04376L486.40247 330.04376L486.40247 329.23126L487.33997 329.23126L487.33997 328.5594Q487.33997 327.9344 487.44934 327.6375Q487.6056 327.21564 487.9806 326.96564Q488.37122 326.71564 489.05872 326.71564Q489.51184 326.71564 490.0431 326.825L489.88684 327.73126Q489.55872 327.6844 489.26184 327.6844Q488.77747 327.6844 488.57434 327.8875Q488.38684 328.09064 488.38684 328.65314L488.38684 329.23126L489.6056 329.23126L489.6056 330.04376L488.38684 330.04376L488.38684 335.45L487.33997 335.45ZM494.33997 333.45L495.43372 333.575Q495.18372 334.52814 494.4806 335.0594Q493.77747 335.59064 492.69934 335.59064Q491.33997 335.59064 490.52747 334.7469Q489.7306 333.90314 489.7306 332.3875Q489.7306 330.825 490.5431 329.96564Q491.3556 329.09064 492.63684 329.09064Q493.88684 329.09064 494.6681 329.9344Q495.46497 330.77814 495.46497 332.325Q495.46497 332.41876 495.46497 332.60626L490.82434 332.60626Q490.88684 333.6375 491.40247 334.1844Q491.9181 334.71564 492.69934 334.71564Q493.27747 334.71564 493.68372 334.41876Q494.1056 334.10626 494.33997 333.45ZM490.88684 331.7469L494.3556 331.7469Q494.2931 330.95 493.96497 330.5594Q493.44934 329.95 492.65247 329.95Q491.9181 329.95 491.4181 330.4344Q490.93372 330.91876 490.88684 331.7469ZM501.33997 333.45L502.43372 333.575Q502.18372 334.52814 501.4806 335.0594Q500.77747 335.59064 499.69934 335.59064Q498.33997 335.59064 497.52747 334.7469Q496.7306 333.90314 496.7306 332.3875Q496.7306 330.825 497.5431 329.96564Q498.3556 329.09064 499.63684 329.09064Q500.88684 329.09064 501.6681 329.9344Q502.46497 330.77814 502.46497 332.325Q502.46497 332.41876 502.46497 332.60626L497.82434 332.60626Q497.88684 333.6375 498.40247 334.1844Q498.9181 334.71564 499.69934 334.71564Q500.27747 334.71564 500.68372 334.41876Q501.1056 334.10626 501.33997 333.45ZM497.88684 331.7469L501.3556 331.7469Q501.2931 330.95 500.96497 330.5594Q500.44934 329.95 499.65247 329.95Q498.9181 329.95 498.4181 330.4344Q497.93372 330.91876 497.88684 331.7469ZM509.38684 334.5125L509.5431 335.4344Q509.08997 335.52814 508.74622 335.52814Q508.1681 335.52814 507.8556 335.35626Q507.5431 335.16876 507.40247 334.8719Q507.27747 334.575 507.27747 333.6219L507.27747 330.04376L506.51184 330.04376L506.51184 329.23126L507.27747 329.23126L507.27747 327.6844L508.32434 327.0594L508.32434 329.23126L509.38684 329.23126L509.38684 330.04376L508.32434 330.04376L508.32434 333.6844Q508.32434 334.1375 508.37122 334.2625Q508.43372 334.3875 508.55872 334.46564Q508.68372 334.54376 508.9181 334.54376Q509.1056 334.54376 509.38684 334.5125ZM509.69934 332.34064Q509.69934 330.60626 510.65247 329.77814Q511.44934 329.09064 512.6056 329.09064Q513.88684 329.09064 514.69934 329.9344Q515.52747 330.7625 515.52747 332.2469Q515.52747 333.45 515.1681 334.1375Q514.8087 334.825 514.1056 335.21564Q513.4181 335.59064 512.6056 335.59064Q511.30872 335.59064 510.49622 334.7625Q509.69934 333.91876 509.69934 332.34064ZM510.77747 332.34064Q510.77747 333.52814 511.2931 334.1219Q511.82434 334.71564 512.6056 334.71564Q513.40247 334.71564 513.9181 334.1219Q514.4337 333.52814 514.4337 332.3094Q514.4337 331.15314 513.90247 330.5594Q513.38684 329.96564 512.6056 329.96564Q511.82434 329.96564 511.2931 330.5594Q510.77747 331.1375 510.77747 332.34064ZM524.15247 334.6844Q523.5587 335.1844 523.01184 335.3875Q522.4806 335.59064 521.8556 335.59064Q520.82434 335.59064 520.27747 335.09064Q519.7306 334.59064 519.7306 333.8094Q519.7306 333.35626 519.9337 332.98126Q520.13684 332.59064 520.4806 332.3719Q520.82434 332.1375 521.2462 332.02814Q521.5431 331.9344 522.1837 331.85626Q523.44934 331.71564 524.0587 331.4969Q524.0587 331.27814 524.0587 331.23126Q524.0587 330.575 523.76184 330.3094Q523.3556 329.96564 522.5587 329.96564Q521.82434 329.96564 521.46497 330.23126Q521.1056 330.48126 520.9337 331.1375L519.90247 330.9969Q520.0431 330.34064 520.3712 329.9344Q520.69934 329.52814 521.3087 329.3094Q521.9181 329.09064 522.71497 329.09064Q523.51184 329.09064 524.01184 329.27814Q524.51184 329.46564 524.7462 329.7469Q524.9806 330.02814 525.07434 330.46564Q525.1212 330.73126 525.1212 331.4344L525.1212 332.84064Q525.1212 334.3094 525.1837 334.7Q525.26184 335.09064 525.46497 335.45L524.3556 335.45Q524.19934 335.1219 524.15247 334.6844ZM524.0587 332.325Q523.4806 332.5594 522.33997 332.73126Q521.6837 332.825 521.4181 332.95Q521.15247 333.0594 520.9962 333.27814Q520.8556 333.4969 520.8556 333.77814Q520.8556 334.2 521.1681 334.48126Q521.4962 334.7625 522.1056 334.7625Q522.71497 334.7625 523.1837 334.4969Q523.6681 334.23126 523.88684 333.7625Q524.0587 333.40314 524.0587 332.71564L524.0587 332.325ZM529.38684 334.5125L529.5431 335.4344Q529.08997 335.52814 528.7462 335.52814Q528.1681 335.52814 527.8556 335.35626Q527.5431 335.16876 527.40247 334.8719Q527.27747 334.575 527.27747 333.6219L527.27747 330.04376L526.51184 330.04376L526.51184 329.23126L527.27747 329.23126L527.27747 327.6844L528.32434 327.0594L528.32434 329.23126L529.38684 329.23126L529.38684 330.04376L528.32434 330.04376L528.32434 333.6844Q528.32434 334.1375 528.3712 334.2625Q528.4337 334.3875 528.5587 334.46564Q528.6837 334.54376 528.9181 334.54376Q529.1056 334.54376 529.38684 334.5125ZM532.38684 334.5125L532.5431 335.4344Q532.08997 335.52814 531.7462 335.52814Q531.1681 335.52814 530.8556 335.35626Q530.5431 335.16876 530.40247 334.8719Q530.27747 334.575 530.27747 333.6219L530.27747 330.04376L529.51184 330.04376L529.51184 329.23126L530.27747 329.23126L530.27747 327.6844L531.32434 327.0594L531.32434 329.23126L532.38684 329.23126L532.38684 330.04376L531.32434 330.04376L531.32434 333.6844Q531.32434 334.1375 531.3712 334.2625Q531.4337 334.3875 531.5587 334.46564Q531.6837 334.54376 531.9181 334.54376Q532.1056 334.54376 532.38684 334.5125ZM537.33997 333.45L538.4337 333.575Q538.1837 334.52814 537.4806 335.0594Q536.77747 335.59064 535.69934 335.59064Q534.33997 335.59064 533.52747 334.7469Q532.7306 333.90314 532.7306 332.3875Q532.7306 330.825 533.5431 329.96564Q534.3556 329.09064 535.63684 329.09064Q536.88684 329.09064 537.6681 329.9344Q538.46497 330.77814 538.46497 332.325Q538.46497 332.41876 538.46497 332.60626L533.82434 332.60626Q533.88684 333.6375 534.40247 334.1844Q534.9181 334.71564 535.69934 334.71564Q536.27747 334.71564 536.6837 334.41876Q537.1056 334.10626 537.33997 333.45ZM533.88684 331.7469L537.3556 331.7469Q537.2931 330.95 536.96497 330.5594Q536.44934 329.95 535.65247 329.95Q534.9181 329.95 534.4181 330.4344Q533.9337 330.91876 533.88684 331.7469ZM540.08997 335.45L540.08997 329.23126L541.02747 329.23126L541.02747 330.10626Q541.71497 329.09064 543.01184 329.09064Q543.57434 329.09064 544.0431 329.29376Q544.52747 329.4969 544.76184 329.825Q544.9962 330.15314 545.08997 330.59064Q545.13684 330.8875 545.13684 331.6219L545.13684 335.45L544.08997 335.45L544.08997 331.66876Q544.08997 331.0125 543.96497 330.7Q543.83997 330.3875 543.52747 330.2Q543.21497 329.9969 542.7931 329.9969Q542.1212 329.9969 541.6212 330.4344Q541.13684 330.85626 541.13684 332.04376L541.13684 335.45L540.08997 335.45ZM551.1212 335.45L551.1212 334.66876Q550.52747 335.59064 549.38684 335.59064Q548.63684 335.59064 548.01184 335.1844Q547.38684 334.7625 547.0431 334.02814Q546.69934 333.29376 546.69934 332.34064Q546.69934 331.41876 547.01184 330.65314Q547.32434 329.8875 547.94934 329.4969Q548.57434 329.09064 549.33997 329.09064Q549.90247 329.09064 550.33997 329.325Q550.77747 329.5594 551.0587 329.9344L551.0587 326.85626L552.1056 326.85626L552.1056 335.45L551.1212 335.45ZM547.7931 332.34064Q547.7931 333.54376 548.2931 334.1375Q548.7931 334.71564 549.4806 334.71564Q550.1681 334.71564 550.65247 334.15314Q551.13684 333.59064 551.13684 332.4344Q551.13684 331.15314 550.63684 330.5594Q550.15247 329.96564 549.4337 329.96564Q548.7306 329.96564 548.26184 330.54376Q547.7931 331.10626 547.7931 332.34064Z" fill-rule="nonzero"/><path fill="#000000" d="M449.88684 348.5125L450.0431 349.4344Q449.58997 349.52814 449.24622 349.52814Q448.6681 349.52814 448.3556 349.35626Q448.0431 349.16876 447.90247 348.8719Q447.77747 348.575 447.77747 347.6219L447.77747 344.04376L447.01184 344.04376L447.01184 343.23126L447.77747 343.23126L447.77747 341.6844L448.82434 341.0594L448.82434 343.23126L449.88684 343.23126L449.88684 344.04376L448.82434 344.04376L448.82434 347.6844Q448.82434 348.1375 448.87122 348.2625Q448.93372 348.3875 449.05872 348.46564Q449.18372 348.54376 449.4181 348.54376Q449.6056 348.54376 449.88684 348.5125ZM450.58997 349.45L450.58997 340.85626L451.63684 340.85626L451.63684 343.9344Q452.37122 343.09064 453.49622 343.09064Q454.19934 343.09064 454.69934 343.3719Q455.21497 343.6375 455.43372 344.1219Q455.65247 344.59064 455.65247 345.5125L455.65247 349.45L454.6056 349.45L454.6056 345.5125Q454.6056 344.71564 454.26184 344.35626Q453.9181 343.9969 453.2931 343.9969Q452.82434 343.9969 452.40247 344.2469Q451.99622 344.48126 451.80872 344.90314Q451.63684 345.3094 451.63684 346.04376L451.63684 349.45L450.58997 349.45ZM461.83997 347.45L462.93372 347.575Q462.68372 348.52814 461.9806 349.0594Q461.27747 349.59064 460.19934 349.59064Q458.83997 349.59064 458.02747 348.7469Q457.2306 347.90314 457.2306 346.3875Q457.2306 344.825 458.0431 343.96564Q458.8556 343.09064 460.13684 343.09064Q461.38684 343.09064 462.1681 343.9344Q462.96497 344.77814 462.96497 346.325Q462.96497 346.41876 462.96497 346.60626L458.32434 346.60626Q458.38684 347.6375 458.90247 348.1844Q459.4181 348.71564 460.19934 348.71564Q460.77747 348.71564 461.18372 348.41876Q461.6056 348.10626 461.83997 347.45ZM458.38684 345.7469L461.8556 345.7469Q461.7931 344.95 461.46497 344.5594Q460.94934 343.95 460.15247 343.95Q459.4181 343.95 458.9181 344.4344Q458.43372 344.91876 458.38684 345.7469ZM467.1681 347.59064L468.19934 347.4344Q468.2931 348.0594 468.68372 348.3875Q469.08997 348.71564 469.82434 348.71564Q470.5431 348.71564 470.88684 348.4344Q471.24622 348.1375 471.24622 347.73126Q471.24622 347.3719 470.93372 347.16876Q470.71497 347.02814 469.8556 346.8094Q468.69934 346.5125 468.24622 346.3094Q467.80872 346.09064 467.57434 345.71564Q467.33997 345.34064 467.33997 344.8719Q467.33997 344.46564 467.52747 344.10626Q467.71497 343.7469 468.0431 343.5125Q468.2931 343.34064 468.71497 343.21564Q469.13684 343.09064 469.63684 343.09064Q470.3556 343.09064 470.90247 343.3094Q471.46497 343.5125 471.7306 343.8719Q471.99622 344.23126 472.08997 344.825L471.05872 344.96564Q470.99622 344.4969 470.65247 344.23126Q470.32434 343.95 469.69934 343.95Q468.9806 343.95 468.6681 344.2Q468.3556 344.4344 468.3556 344.7625Q468.3556 344.96564 468.4806 345.1219Q468.62122 345.29376 468.88684 345.40314Q469.0431 345.46564 469.82434 345.66876Q470.94934 345.98126 471.38684 346.16876Q471.82434 346.35626 472.07434 346.71564Q472.32434 347.075 472.32434 347.6219Q472.32434 348.15314 472.01184 348.6219Q471.71497 349.075 471.13684 349.34064Q470.55872 349.59064 469.82434 349.59064Q468.6056 349.59064 467.96497 349.09064Q467.33997 348.575 467.1681 347.59064ZM477.6681 349.45L477.6681 348.52814Q476.93372 349.59064 475.68372 349.59064Q475.13684 349.59064 474.65247 349.3875Q474.18372 349.16876 473.94934 348.85626Q473.71497 348.52814 473.62122 348.0594Q473.55872 347.7625 473.55872 347.075L473.55872 343.23126L474.62122 343.23126L474.62122 346.6844Q474.62122 347.4969 474.68372 347.79376Q474.77747 348.2 475.08997 348.45Q475.4181 348.6844 475.90247 348.6844Q476.37122 348.6844 476.77747 348.45Q477.19934 348.2 477.37122 347.77814Q477.55872 347.35626 477.55872 346.5594L477.55872 343.23126L478.6056 343.23126L478.6056 349.45L477.6681 349.45ZM480.58997 349.45L480.58997 343.23126L481.52747 343.23126L481.52747 344.10626Q481.82434 343.6375 482.30872 343.3719Q482.7931 343.09064 483.4181 343.09064Q484.1056 343.09064 484.5431 343.3719Q484.99622 343.65314 485.1681 344.16876Q485.9181 343.09064 487.08997 343.09064Q488.02747 343.09064 488.51184 343.60626Q489.01184 344.10626 489.01184 345.1844L489.01184 349.45L487.96497 349.45L487.96497 345.52814Q487.96497 344.90314 487.8556 344.6219Q487.76184 344.34064 487.49622 344.16876Q487.2306 343.9969 486.8556 343.9969Q486.19934 343.9969 485.76184 344.4344Q485.33997 344.8719 485.33997 345.84064L485.33997 349.45L484.27747 349.45L484.27747 345.40314Q484.27747 344.7 484.01184 344.35626Q483.76184 343.9969 483.18372 343.9969Q482.7306 343.9969 482.3556 344.23126Q481.9806 344.46564 481.80872 344.91876Q481.63684 345.3719 481.63684 346.21564L481.63684 349.45L480.58997 349.45ZM490.58997 349.45L490.58997 343.23126L491.52747 343.23126L491.52747 344.10626Q491.82434 343.6375 492.30872 343.3719Q492.7931 343.09064 493.4181 343.09064Q494.1056 343.09064 494.5431 343.3719Q494.99622 343.65314 495.1681 344.16876Q495.9181 343.09064 497.08997 343.09064Q498.02747 343.09064 498.51184 343.60626Q499.01184 344.10626 499.01184 345.1844L499.01184 349.45L497.96497 349.45L497.96497 345.52814Q497.96497 344.90314 497.8556 344.6219Q497.76184 344.34064 497.49622 344.16876Q497.2306 343.9969 496.8556 343.9969Q496.19934 343.9969 495.76184 344.4344Q495.33997 344.8719 495.33997 345.84064L495.33997 349.45L494.27747 349.45L494.27747 345.40314Q494.27747 344.7 494.01184 344.35626Q493.76184 343.9969 493.18372 343.9969Q492.7306 343.9969 492.3556 344.23126Q491.9806 344.46564 491.80872 344.91876Q491.63684 345.3719 491.63684 346.21564L491.63684 349.45L490.58997 349.45ZM504.83997 347.45L505.93372 347.575Q505.68372 348.52814 504.9806 349.0594Q504.27747 349.59064 503.19934 349.59064Q501.83997 349.59064 501.02747 348.7469Q500.2306 347.90314 500.2306 346.3875Q500.2306 344.825 501.0431 343.96564Q501.8556 343.09064 503.13684 343.09064Q504.38684 343.09064 505.1681 343.9344Q505.96497 344.77814 505.96497 346.325Q505.96497 346.41876 505.96497 346.60626L501.32434 346.60626Q501.38684 347.6375 501.90247 348.1844Q502.4181 348.71564 503.19934 348.71564Q503.77747 348.71564 504.18372 348.41876Q504.6056 348.10626 504.83997 347.45ZM501.38684 345.7469L504.8556 345.7469Q504.7931 344.95 504.46497 344.5594Q503.94934 343.95 503.15247 343.95Q502.4181 343.95 501.9181 344.4344Q501.43372 344.91876 501.38684 345.7469ZM507.57434 349.45L507.57434 343.23126L508.52747 343.23126L508.52747 344.16876Q508.88684 343.5125 509.18372 343.3094Q509.49622 343.09064 509.87122 343.09064Q510.40247 343.09064 510.94934 343.41876L510.58997 344.40314Q510.19934 344.16876 509.82434 344.16876Q509.46497 344.16876 509.18372 344.3875Q508.9181 344.59064 508.80872 344.96564Q508.62122 345.52814 508.62122 346.1844L508.62122 349.45L507.57434 349.45ZM514.1681 347.59064L515.19934 347.4344Q515.2931 348.0594 515.6837 348.3875Q516.08997 348.71564 516.82434 348.71564Q517.5431 348.71564 517.88684 348.4344Q518.2462 348.1375 518.2462 347.73126Q518.2462 347.3719 517.9337 347.16876Q517.71497 347.02814 516.8556 346.8094Q515.69934 346.5125 515.2462 346.3094Q514.8087 346.09064 514.57434 345.71564Q514.33997 345.34064 514.33997 344.8719Q514.33997 344.46564 514.52747 344.10626Q514.71497 343.7469 515.0431 343.5125Q515.2931 343.34064 515.71497 343.21564Q516.13684 343.09064 516.63684 343.09064Q517.3556 343.09064 517.90247 343.3094Q518.46497 343.5125 518.7306 343.8719Q518.9962 344.23126 519.08997 344.825L518.0587 344.96564Q517.9962 344.4969 517.65247 344.23126Q517.32434 343.95 516.69934 343.95Q515.9806 343.95 515.6681 344.2Q515.3556 344.4344 515.3556 344.7625Q515.3556 344.96564 515.4806 345.1219Q515.6212 345.29376 515.88684 345.40314Q516.0431 345.46564 516.82434 345.66876Q517.94934 345.98126 518.38684 346.16876Q518.82434 346.35626 519.07434 346.71564Q519.32434 347.075 519.32434 347.6219Q519.32434 348.15314 519.01184 348.6219Q518.71497 349.075 518.13684 349.34064Q517.5587 349.59064 516.82434 349.59064Q515.6056 349.59064 514.96497 349.09064Q514.33997 348.575 514.1681 347.59064ZM524.65247 347.16876L525.6837 347.3094Q525.51184 348.3719 524.8087 348.98126Q524.1056 349.59064 523.08997 349.59064Q521.8087 349.59064 521.02747 348.7625Q520.26184 347.91876 520.26184 346.35626Q520.26184 345.35626 520.58997 344.60626Q520.9337 343.84064 521.6056 343.46564Q522.2931 343.09064 523.1056 343.09064Q524.1056 343.09064 524.7462 343.60626Q525.40247 344.10626 525.58997 345.0594L524.5587 345.21564Q524.4181 344.59064 524.0431 344.27814Q523.6681 343.95 523.13684 343.95Q522.33997 343.95 521.83997 344.52814Q521.33997 345.09064 521.33997 346.325Q521.33997 347.59064 521.82434 348.15314Q522.3087 348.71564 523.07434 348.71564Q523.69934 348.71564 524.1056 348.34064Q524.52747 347.96564 524.65247 347.16876ZM526.58997 349.45L526.58997 340.85626L527.63684 340.85626L527.63684 343.9344Q528.3712 343.09064 529.4962 343.09064Q530.19934 343.09064 530.69934 343.3719Q531.21497 343.6375 531.4337 344.1219Q531.65247 344.59064 531.65247 345.5125L531.65247 349.45L530.6056 349.45L530.6056 345.5125Q530.6056 344.71564 530.26184 344.35626Q529.9181 343.9969 529.2931 343.9969Q528.82434 343.9969 528.40247 344.2469Q527.9962 344.48126 527.8087 344.90314Q527.63684 345.3094 527.63684 346.04376L527.63684 349.45L526.58997 349.45ZM533.19934 346.34064Q533.19934 344.60626 534.15247 343.77814Q534.94934 343.09064 536.1056 343.09064Q537.38684 343.09064 538.19934 343.9344Q539.02747 344.7625 539.02747 346.2469Q539.02747 347.45 538.6681 348.1375Q538.3087 348.825 537.6056 349.21564Q536.9181 349.59064 536.1056 349.59064Q534.8087 349.59064 533.9962 348.7625Q533.19934 347.91876 533.19934 346.34064ZM534.27747 346.34064Q534.27747 347.52814 534.7931 348.1219Q535.32434 348.71564 536.1056 348.71564Q536.90247 348.71564 537.4181 348.1219Q537.9337 347.52814 537.9337 346.3094Q537.9337 345.15314 537.40247 344.5594Q536.88684 343.96564 536.1056 343.96564Q535.32434 343.96564 534.7931 344.5594Q534.27747 345.1375 534.27747 346.34064ZM540.19934 346.34064Q540.19934 344.60626 541.15247 343.77814Q541.94934 343.09064 543.1056 343.09064Q544.38684 343.09064 545.19934 343.9344Q546.02747 344.7625 546.02747 346.2469Q546.02747 347.45 545.6681 348.1375Q545.3087 348.825 544.6056 349.21564Q543.9181 349.59064 543.1056 349.59064Q541.8087 349.59064 540.9962 348.7625Q540.19934 347.91876 540.19934 346.34064ZM541.27747 346.34064Q541.27747 347.52814 541.7931 348.1219Q542.32434 348.71564 543.1056 348.71564Q543.90247 348.71564 544.4181 348.1219Q544.9337 347.52814 544.9337 346.3094Q544.9337 345.15314 544.40247 344.5594Q543.88684 343.96564 543.1056 343.96564Q542.32434 343.96564 541.7931 344.5594Q541.27747 345.1375 541.27747 346.34064ZM547.5587 349.45L547.5587 340.85626L548.6212 340.85626L548.6212 349.45L547.5587 349.45Z" fill-rule="nonzero"/><path fill="#757575" d="M23.7375 37.55L23.7375 24.925L19.01875 24.925L19.01875 23.2375L30.3625 23.2375L30.3625 24.925L25.628124 24.925L25.628124 37.55L23.7375 37.55ZM31.784374 41.55L31.596874 39.89375Q32.175 40.05 32.596874 40.05Q33.190624 40.05 33.534374 39.846874Q33.89375 39.659374 34.1125 39.315624Q34.284374 39.05 34.659374 38.003124Q34.70625 37.846874 34.815624 37.565624L30.878124 27.175L32.76875 27.175L34.925 33.190624Q35.346874 34.33125 35.675 35.58125Q35.9875 34.378124 36.39375 33.221874L38.6125 27.175L40.378124 27.175L36.425 37.721874Q35.8 39.440624 35.440624 40.08125Q34.971874 40.95625 34.3625 41.346874Q33.76875 41.753124 32.925 41.753124Q32.409374 41.753124 31.784374 41.55ZM41.8625 41.51875L41.8625 27.175L43.471874 27.175L43.471874 28.51875Q44.034374 27.7375 44.7375 27.346874Q45.45625 26.940624 46.471874 26.940624Q47.8 26.940624 48.815624 27.628124Q49.83125 28.315624 50.346874 29.565624Q50.878124 30.8 50.878124 32.284374Q50.878124 33.878124 50.3 35.159374Q49.7375 36.425 48.64375 37.1125Q47.55 37.784374 46.346874 37.784374Q45.471874 37.784374 44.76875 37.409374Q44.08125 37.034374 43.628124 36.471874L43.628124 41.51875L41.8625 41.51875ZM43.45625 32.425Q43.45625 34.425 44.26875 35.378124Q45.08125 36.33125 46.2375 36.33125Q47.409374 36.33125 48.2375 35.346874Q49.08125 34.3625 49.08125 32.26875Q49.08125 30.3 48.253124 29.315624Q47.440624 28.315624 46.315624 28.315624Q45.190624 28.315624 44.315624 29.378124Q43.45625 30.425 43.45625 32.425ZM59.971874 34.20625L61.784374 34.440624Q61.3625 36.01875 60.190624 36.909374Q59.034374 37.784374 57.221874 37.784374Q54.95625 37.784374 53.6125 36.39375Q52.284374 34.9875 52.284374 32.45625Q52.284374 29.83125 53.628124 28.39375Q54.971874 26.940624 57.128124 26.940624Q59.20625 26.940624 60.51875 28.3625Q61.846874 29.76875 61.846874 32.346874Q61.846874 32.503124 61.83125 32.815624L54.096874 32.815624Q54.190624 34.51875 55.065624 35.425Q55.940624 36.33125 57.2375 36.33125Q58.20625 36.33125 58.878124 35.83125Q59.565624 35.315624 59.971874 34.20625ZM54.190624 31.3625L59.9875 31.3625Q59.878124 30.065624 59.33125 29.409374Q58.4875 28.39375 57.14375 28.39375Q55.940624 28.39375 55.1125 29.20625Q54.284374 30.003124 54.190624 31.3625ZM69.22188 32.3625Q69.22188 29.4875 70.81563 28.096874Q72.15938 26.940624 74.08125 26.940624Q76.22188 26.940624 77.56563 28.346874Q78.925 29.753124 78.925 32.221874Q78.925 34.221874 78.33125 35.378124Q77.7375 36.51875 76.58125 37.159374Q75.44063 37.784374 74.08125 37.784374Q71.89375 37.784374 70.55 36.39375Q69.22188 34.9875 69.22188 32.3625ZM71.01875 32.3625Q71.01875 34.3625 71.87813 35.346874Q72.75313 36.33125 74.08125 36.33125Q75.39375 36.33125 76.25313 35.346874Q77.12813 34.346874 77.12813 32.3Q77.12813 30.378124 76.25313 29.39375Q75.37813 28.39375 74.08125 28.39375Q72.75313 28.39375 71.87813 29.39375Q71.01875 30.378124 71.01875 32.3625ZM81.28438 37.55L81.28438 28.55L79.7375 28.55L79.7375 27.175L81.28438 27.175L81.28438 26.08125Q81.28438 25.034374 81.47188 24.51875Q81.72188 23.83125 82.3625 23.409374Q83.00313 22.9875 84.15938 22.9875Q84.90938 22.9875 85.8 23.159374L85.53438 24.690624Q84.9875 24.596874 84.50313 24.596874Q83.70625 24.596874 83.3625 24.940624Q83.03438 25.284374 83.03438 26.221874L83.03438 27.175L85.06563 27.175L85.06563 28.55L83.03438 28.55L83.03438 37.55L81.28438 37.55ZM92.45625 32.95625L94.2375 32.8Q94.3625 33.8625 94.81563 34.55Q95.28438 35.2375 96.25313 35.675Q97.2375 36.096874 98.47188 36.096874Q99.55 36.096874 100.37813 35.784374Q101.20625 35.45625 101.6125 34.89375Q102.01875 34.33125 102.01875 33.659374Q102.01875 32.9875 101.62813 32.4875Q101.2375 31.9875 100.34688 31.64375Q99.76875 31.409374 97.78438 30.940624Q95.81563 30.471874 95.03438 30.05Q94.00313 29.51875 93.50313 28.721874Q93.00313 27.925 93.00313 26.940624Q93.00313 25.846874 93.6125 24.909374Q94.22188 23.971874 95.40938 23.4875Q96.59688 22.9875 98.03438 22.9875Q99.62813 22.9875 100.84688 23.503124Q102.06563 24.01875 102.70625 25.01875Q103.3625 26.003124 103.40938 27.26875L101.59688 27.409374Q101.45625 26.05 100.6125 25.3625Q99.76875 24.659374 98.1125 24.659374Q96.39375 24.659374 95.59688 25.3Q94.81563 25.925 94.81563 26.8Q94.81563 27.58125 95.37813 28.08125Q95.925 28.58125 98.2375 29.096874Q100.55 29.6125 101.40938 30.003124Q102.65938 30.58125 103.25313 31.471874Q103.84688 32.346874 103.84688 33.503124Q103.84688 34.64375 103.19063 35.659374Q102.53438 36.675 101.3 37.2375Q100.08125 37.8 98.55 37.8Q96.6125 37.8 95.3 37.2375Q93.9875 36.659374 93.2375 35.51875Q92.4875 34.378124 92.45625 32.95625ZM112.65938 37.55L112.65938 36.01875Q111.45625 37.784374 109.37813 37.784374Q108.45625 37.784374 107.65938 37.440624Q106.8625 37.08125 106.47188 36.55Q106.09688 36.01875 105.94063 35.2375Q105.83125 34.721874 105.83125 33.596874L105.83125 27.175L107.58125 27.175L107.58125 32.925Q107.58125 34.3 107.69063 34.784374Q107.8625 35.471874 108.39375 35.878124Q108.94063 36.26875 109.72188 36.26875Q110.51875 36.26875 111.20625 35.8625Q111.90938 35.45625 112.19063 34.76875Q112.4875 34.065624 112.4875 32.7375L112.4875 27.175L114.2375 27.175L114.2375 37.55L112.65938 37.55ZM118.4875 37.55L116.8625 37.55L116.8625 23.2375L118.6125 23.2375L118.6125 28.346874Q119.7375 26.940624 121.45625 26.940624Q122.40938 26.940624 123.26875 27.33125Q124.12813 27.721874 124.675 28.425Q125.22188 29.1125 125.53438 30.096874Q125.84688 31.08125 125.84688 32.20625Q125.84688 34.878124 124.53438 36.33125Q123.22188 37.784374 121.37813 37.784374Q119.53438 37.784374 118.4875 36.253124L118.4875 37.55ZM118.47188 32.284374Q118.47188 34.14375 118.97188 34.9875Q119.81563 36.33125 121.22188 36.33125Q122.37813 36.33125 123.20625 35.33125Q124.05 34.33125 124.05 32.346874Q124.05 30.315624 123.2375 29.3625Q122.44063 28.39375 121.3 28.39375Q120.14375 28.39375 119.3 29.39375Q118.47188 30.39375 118.47188 32.284374ZM127.15938 34.45625L128.90938 34.175Q129.05 35.221874 129.72188 35.784374Q130.39375 36.33125 131.59688 36.33125Q132.8 36.33125 133.37813 35.846874Q133.97188 35.346874 133.97188 34.690624Q133.97188 34.096874 133.45625 33.753124Q133.09688 33.51875 131.65938 33.159374Q129.72188 32.659374 128.97188 32.315624Q128.2375 31.95625 127.84688 31.33125Q127.45625 30.690624 127.45625 29.925Q127.45625 29.2375 127.76875 28.64375Q128.09688 28.05 128.64375 27.659374Q129.05 27.3625 129.75313 27.159374Q130.47188 26.940624 131.28438 26.940624Q132.50313 26.940624 133.425 27.3Q134.34688 27.64375 134.78438 28.253124Q135.22188 28.846874 135.39375 29.846874L133.675 30.08125Q133.55 29.284374 132.9875 28.846874Q132.425 28.39375 131.40938 28.39375Q130.19063 28.39375 129.675 28.8Q129.15938 29.190624 129.15938 29.721874Q129.15938 30.065624 129.37813 30.346874Q129.58125 30.628124 130.05 30.815624Q130.31563 30.909374 131.59688 31.253124Q133.47188 31.753124 134.20625 32.08125Q134.94063 32.39375 135.3625 33.003124Q135.78438 33.596874 135.78438 34.503124Q135.78438 35.378124 135.26875 36.159374Q134.75313 36.940624 133.78438 37.3625Q132.81563 37.784374 131.59688 37.784374Q129.58125 37.784374 128.51875 36.940624Q127.45625 36.096874 127.15938 34.45625ZM137.87813 25.253124L137.87813 23.2375L139.64375 23.2375L139.64375 25.253124L137.87813 25.253124ZM137.87813 37.55L137.87813 27.175L139.64375 27.175L139.64375 37.55L137.87813 37.55ZM148.59688 37.55L148.59688 36.2375Q147.6125 37.784374 145.69063 37.784374Q144.45625 37.784374 143.40938 37.096874Q142.37813 36.409374 141.8 35.190624Q141.2375 33.971874 141.2375 32.378124Q141.2375 30.815624 141.75313 29.55Q142.26875 28.284374 143.3 27.6125Q144.34688 26.940624 145.6125 26.940624Q146.55 26.940624 147.28438 27.346874Q148.01875 27.7375 148.4875 28.3625L148.4875 23.2375L150.22188 23.2375L150.22188 37.55L148.59688 37.55ZM143.03438 32.378124Q143.03438 34.3625 143.87813 35.346874Q144.72188 36.33125 145.8625 36.33125Q147.01875 36.33125 147.81563 35.39375Q148.62813 34.45625 148.62813 32.51875Q148.62813 30.39375 147.8 29.39375Q146.9875 28.39375 145.78438 28.39375Q144.6125 28.39375 143.81563 29.3625Q143.03438 30.315624 143.03438 32.378124ZM152.78438 41.55L152.59688 39.89375Q153.175 40.05 153.59688 40.05Q154.19063 40.05 154.53438 39.846874Q154.89375 39.659374 155.1125 39.315624Q155.28438 39.05 155.65938 38.003124Q155.70625 37.846874 155.81563 37.565624L151.87813 27.175L153.76875 27.175L155.925 33.190624Q156.34688 34.33125 156.675 35.58125Q156.9875 34.378124 157.39375 33.221874L159.6125 27.175L161.37813 27.175L157.425 37.721874Q156.8 39.440624 156.44063 40.08125Q155.97188 40.95625 155.3625 41.346874Q154.76875 41.753124 153.925 41.753124Q153.40938 41.753124 152.78438 41.55Z" fill-rule="nonzero"/></svg>